<svg xmlns="http://www.w3.org/2000/svg" width="1228" height="129" viewBox="0 0 1228 129">
  <g id="Grupo_1178339" data-name="Grupo 1178339" transform="translate(-185.711 -6525)">
    <path id="Trazado_1000635" data-name="Trazado 1000635" d="M9,0H283a9,9,0,0,1,9,9V49a9,9,0,0,1-9,9H9a9,9,0,0,1-9-9V9A9,9,0,0,1,9,0Z" transform="translate(185.711 6525)" fill="#5f4205"/>
    <path id="Trazado_1000641" data-name="Trazado 1000641" d="M9,0H283a9,9,0,0,1,9,9V49a9,9,0,0,1-9,9H9a9,9,0,0,1-9-9V9A9,9,0,0,1,9,0Z" transform="translate(809.711 6525)" fill="#9d5a5c"/>
    <path id="Trazado_1000638" data-name="Trazado 1000638" d="M9,0H283a9,9,0,0,1,9,9V49a9,9,0,0,1-9,9H9a9,9,0,0,1-9-9V9A9,9,0,0,1,9,0Z" transform="translate(497.711 6525)" fill="#cec6b3"/>
    <path id="Trazado_1000644" data-name="Trazado 1000644" d="M9,0H283a9,9,0,0,1,9,9V49a9,9,0,0,1-9,9H9a9,9,0,0,1-9-9V9A9,9,0,0,1,9,0Z" transform="translate(1121.711 6525)" fill="#e1cdce"/>
    <path id="Trazado_1000636" data-name="Trazado 1000636" d="M-80.521-4.263a4.528,4.528,0,0,1-1.525,3.252A5.355,5.355,0,0,1-85.671.176a4.816,4.816,0,0,1-3.872-1.657,6.793,6.793,0,0,1-1.411-4.548v-.782a7.671,7.671,0,0,1,.65-3.252,4.874,4.874,0,0,1,1.859-2.158,5.207,5.207,0,0,1,2.808-.751,5.217,5.217,0,0,1,3.568,1.187A4.866,4.866,0,0,1-80.5-8.455H-83.14a2.673,2.673,0,0,0-.69-1.8,2.555,2.555,0,0,0-1.806-.558,2.24,2.24,0,0,0-1.973.945,5.3,5.3,0,0,0-.672,2.931v.967a5.667,5.667,0,0,0,.628,3.032,2.2,2.2,0,0,0,1.982.958,2.6,2.6,0,0,0,1.824-.558,2.521,2.521,0,0,0,.69-1.727ZM-74.58.176a4.668,4.668,0,0,1-3.406-1.283A4.561,4.561,0,0,1-79.3-4.526v-.246a5.745,5.745,0,0,1,.554-2.562,4.064,4.064,0,0,1,1.569-1.74,4.4,4.4,0,0,1,2.316-.611,3.947,3.947,0,0,1,3.072,1.23,5,5,0,0,1,1.121,3.489v1.037h-6.056a2.36,2.36,0,0,0,.743,1.494,2.245,2.245,0,0,0,1.569.563,2.742,2.742,0,0,0,2.294-1.063l1.248,1.4A3.813,3.813,0,0,1-72.417-.277,5.075,5.075,0,0,1-74.58.176Zm-.29-7.813a1.587,1.587,0,0,0-1.226.512,2.651,2.651,0,0,0-.6,1.466h3.533v-.2a1.891,1.891,0,0,0-.457-1.311A1.638,1.638,0,0,0-74.87-7.638Zm10.986.51A6.9,6.9,0,0,0-64.8-7.2a1.86,1.86,0,0,0-1.89.976V0h-2.54V-9.51h2.4l.07,1.134a2.354,2.354,0,0,1,2.118-1.31,2.662,2.662,0,0,1,.791.114Zm4.7-4.72V-9.51h1.626v1.863h-1.626V-2.9a1.133,1.133,0,0,0,.2.756,1.015,1.015,0,0,0,.773.229,4.051,4.051,0,0,0,.747-.062V-.053A5.229,5.229,0,0,1-59,.176a2.425,2.425,0,0,1-2.725-2.7V-7.646H-63.11V-9.51h1.389v-2.338ZM-53.459,0h-2.549V-9.51h2.549Zm-2.7-11.971a1.251,1.251,0,0,1,.382-.94,1.436,1.436,0,0,1,1.042-.369,1.44,1.44,0,0,1,1.037.369,1.244,1.244,0,0,1,.387.94,1.247,1.247,0,0,1-.391.949,1.443,1.443,0,0,1-1.033.369,1.443,1.443,0,0,1-1.033-.369A1.247,1.247,0,0,1-56.158-11.971ZM-50.752,0V-7.646h-1.415V-9.51h1.415v-.439a3.566,3.566,0,0,1,1.1-2.764,4.438,4.438,0,0,1,3.063-.971,10.16,10.16,0,0,1,2.883.519l-.369,2.1a11.248,11.248,0,0,0-1.336-.33,6.564,6.564,0,0,0-1.02-.075Q-48.2-11.47-48.2-9.9v.387h1.872v1.863H-48.2V0Zm8.235,0h-2.549V-9.51h2.549Zm6.056-1.872a1.666,1.666,0,0,0,1.143-.387,1.355,1.355,0,0,0,.457-1.028h2.382a3.258,3.258,0,0,1-.527,1.771A3.48,3.48,0,0,1-34.427-.268a4.442,4.442,0,0,1-1.991.444,4.129,4.129,0,0,1-3.217-1.3A5.13,5.13,0,0,1-40.812-4.7v-.167a5.071,5.071,0,0,1,1.169-3.507,4.08,4.08,0,0,1,3.208-1.31A4,4,0,0,1-33.574-8.67a3.594,3.594,0,0,1,1.094,2.7h-2.382a1.745,1.745,0,0,0-.457-1.206,1.524,1.524,0,0,0-1.16-.464,1.53,1.53,0,0,0-1.34.647,3.749,3.749,0,0,0-.453,2.1v.264a3.8,3.8,0,0,0,.448,2.113A1.549,1.549,0,0,0-36.461-1.872ZM-25.519,0a2.821,2.821,0,0,1-.255-.853,3.073,3.073,0,0,1-2.4,1.028,3.376,3.376,0,0,1-2.316-.809,2.6,2.6,0,0,1-.918-2.039,2.687,2.687,0,0,1,1.121-2.32,5.529,5.529,0,0,1,3.239-.817h1.169v-.545a1.567,1.567,0,0,0-.338-1.055,1.331,1.331,0,0,0-1.068-.4,1.513,1.513,0,0,0-1.006.308,1.045,1.045,0,0,0-.365.844H-31.2a2.551,2.551,0,0,1,.51-1.529,3.37,3.37,0,0,1,1.441-1.1,5.253,5.253,0,0,1,2.092-.4,4.15,4.15,0,0,1,2.791.883,3.09,3.09,0,0,1,1.033,2.483V-2.2a4.546,4.546,0,0,0,.378,2.048V0Zm-2.1-1.767a2.188,2.188,0,0,0,1.037-.25,1.645,1.645,0,0,0,.7-.672V-4.324h-.949q-1.907,0-2.03,1.318l-.009.149a1.017,1.017,0,0,0,.334.782A1.3,1.3,0,0,0-27.62-1.767Zm10.2-.105a1.666,1.666,0,0,0,1.143-.387,1.355,1.355,0,0,0,.457-1.028h2.382a3.258,3.258,0,0,1-.527,1.771A3.48,3.48,0,0,1-15.39-.268,4.442,4.442,0,0,1-17.38.176a4.129,4.129,0,0,1-3.217-1.3A5.13,5.13,0,0,1-21.775-4.7v-.167a5.071,5.071,0,0,1,1.169-3.507A4.08,4.08,0,0,1-17.4-9.686,4,4,0,0,1-14.537-8.67a3.594,3.594,0,0,1,1.094,2.7h-2.382a1.745,1.745,0,0,0-.457-1.206,1.524,1.524,0,0,0-1.16-.464,1.53,1.53,0,0,0-1.34.647,3.749,3.749,0,0,0-.453,2.1v.264a3.8,3.8,0,0,0,.448,2.113A1.549,1.549,0,0,0-17.424-1.872ZM-9.312,0h-2.549V-9.51h2.549Zm-2.7-11.971a1.251,1.251,0,0,1,.382-.94,1.436,1.436,0,0,1,1.042-.369,1.44,1.44,0,0,1,1.037.369,1.244,1.244,0,0,1,.387.94,1.247,1.247,0,0,1-.391.949,1.443,1.443,0,0,1-1.033.369,1.443,1.443,0,0,1-1.033-.369A1.247,1.247,0,0,1-12.01-11.971Zm4.395,7.128a5.64,5.64,0,0,1,.545-2.522A3.989,3.989,0,0,1-5.5-9.079a4.577,4.577,0,0,1,2.377-.606A4.33,4.33,0,0,1,.018-8.508a4.727,4.727,0,0,1,1.358,3.2l.018.65A4.97,4.97,0,0,1,.171-1.147,4.247,4.247,0,0,1-3.107.176,4.268,4.268,0,0,1-6.39-1.143,5.058,5.058,0,0,1-7.616-4.729Zm2.54.18a3.555,3.555,0,0,0,.51,2.073,1.682,1.682,0,0,0,1.459.717,1.686,1.686,0,0,0,1.441-.709,3.89,3.89,0,0,0,.519-2.267,3.519,3.519,0,0,0-.519-2.06,1.686,1.686,0,0,0-1.459-.731,1.658,1.658,0,0,0-1.441.726A3.955,3.955,0,0,0-5.076-4.662ZM-2.624-13.5H.145L-2.29-10.775H-4.355ZM5.3-9.51l.079,1.1A3.32,3.32,0,0,1,8.108-9.686a2.759,2.759,0,0,1,2.25.888,4.142,4.142,0,0,1,.756,2.654V0H8.574V-6.082a1.648,1.648,0,0,0-.352-1.173A1.574,1.574,0,0,0,7.053-7.62a1.747,1.747,0,0,0-1.608.914V0H2.9V-9.51ZM26.09-4.667A5.758,5.758,0,0,1,25.115-1.1,3.231,3.231,0,0,1,22.39.176a2.969,2.969,0,0,1-2.47-1.187L19.806,0H17.521V-13.5h2.54v4.843a2.893,2.893,0,0,1,2.312-1.028A3.258,3.258,0,0,1,25.1-8.407a5.767,5.767,0,0,1,.989,3.6Zm-2.54-.185a3.783,3.783,0,0,0-.457-2.1,1.545,1.545,0,0,0-1.362-.664,1.676,1.676,0,0,0-1.67.993v3.753a1.7,1.7,0,0,0,1.688,1,1.568,1.568,0,0,0,1.617-1.213A6.257,6.257,0,0,0,23.55-4.852Zm3.709.009A5.64,5.64,0,0,1,27.8-7.365a3.989,3.989,0,0,1,1.569-1.714,4.577,4.577,0,0,1,2.377-.606,4.33,4.33,0,0,1,3.142,1.178,4.727,4.727,0,0,1,1.358,3.2l.018.65a4.97,4.97,0,0,1-1.222,3.511A4.247,4.247,0,0,1,31.768.176a4.268,4.268,0,0,1-3.283-1.318,5.058,5.058,0,0,1-1.226-3.586Zm2.54.18a3.555,3.555,0,0,0,.51,2.073,1.682,1.682,0,0,0,1.459.717,1.686,1.686,0,0,0,1.441-.709,3.89,3.89,0,0,0,.519-2.267,3.519,3.519,0,0,0-.519-2.06,1.686,1.686,0,0,0-1.459-.731,1.658,1.658,0,0,0-1.441.726A3.955,3.955,0,0,0,29.8-4.662Zm11.074-7.185V-9.51H42.5v1.863H40.874V-2.9a1.133,1.133,0,0,0,.2.756,1.015,1.015,0,0,0,.773.229,4.051,4.051,0,0,0,.747-.062V-.053a5.229,5.229,0,0,1-1.538.229,2.425,2.425,0,0,1-2.725-2.7V-7.646H36.945V-9.51h1.389v-2.338ZM49.425,0a2.821,2.821,0,0,1-.255-.853,3.073,3.073,0,0,1-2.4,1.028,3.376,3.376,0,0,1-2.316-.809,2.6,2.6,0,0,1-.918-2.039,2.687,2.687,0,0,1,1.121-2.32A5.529,5.529,0,0,1,47.9-5.81h1.169v-.545a1.567,1.567,0,0,0-.338-1.055,1.331,1.331,0,0,0-1.068-.4,1.513,1.513,0,0,0-1.006.308,1.045,1.045,0,0,0-.365.844h-2.54a2.551,2.551,0,0,1,.51-1.529,3.37,3.37,0,0,1,1.441-1.1,5.253,5.253,0,0,1,2.092-.4,4.15,4.15,0,0,1,2.791.883,3.09,3.09,0,0,1,1.033,2.483V-2.2a4.546,4.546,0,0,0,.378,2.048V0Zm-2.1-1.767a2.188,2.188,0,0,0,1.037-.25,1.645,1.645,0,0,0,.7-.672V-4.324h-.949q-1.907,0-2.03,1.318l-.009.149a1.017,1.017,0,0,0,.334.782A1.3,1.3,0,0,0,47.325-1.767ZM48.292-13.5H51.06l-2.435,2.725H46.56ZM55.9-9.51l.079,1.1a3.32,3.32,0,0,1,2.733-1.274,2.759,2.759,0,0,1,2.25.888,4.142,4.142,0,0,1,.756,2.654V0h-2.54V-6.082a1.648,1.648,0,0,0-.352-1.173,1.574,1.574,0,0,0-1.169-.365,1.747,1.747,0,0,0-1.608.914V0h-2.54V-9.51ZM66.327,0H63.778V-9.51h2.549Zm-2.7-11.971a1.251,1.251,0,0,1,.382-.94,1.436,1.436,0,0,1,1.042-.369,1.44,1.44,0,0,1,1.037.369,1.244,1.244,0,0,1,.387.94,1.247,1.247,0,0,1-.391.949,1.443,1.443,0,0,1-1.033.369,1.443,1.443,0,0,1-1.033-.369A1.247,1.247,0,0,1,63.628-11.971Zm8.745,10.1a1.666,1.666,0,0,0,1.143-.387,1.355,1.355,0,0,0,.457-1.028h2.382a3.258,3.258,0,0,1-.527,1.771A3.48,3.48,0,0,1,74.408-.268a4.442,4.442,0,0,1-1.991.444,4.129,4.129,0,0,1-3.217-1.3A5.13,5.13,0,0,1,68.023-4.7v-.167a5.071,5.071,0,0,1,1.169-3.507A4.08,4.08,0,0,1,72.4-9.686,4,4,0,0,1,75.261-8.67a3.594,3.594,0,0,1,1.094,2.7H73.973a1.745,1.745,0,0,0-.457-1.206,1.524,1.524,0,0,0-1.16-.464,1.53,1.53,0,0,0-1.34.647,3.749,3.749,0,0,0-.453,2.1v.264a3.8,3.8,0,0,0,.448,2.113A1.549,1.549,0,0,0,72.374-1.872ZM83.316,0a2.821,2.821,0,0,1-.255-.853,3.073,3.073,0,0,1-2.4,1.028,3.376,3.376,0,0,1-2.316-.809,2.6,2.6,0,0,1-.918-2.039,2.687,2.687,0,0,1,1.121-2.32,5.529,5.529,0,0,1,3.239-.817h1.169v-.545a1.567,1.567,0,0,0-.338-1.055,1.331,1.331,0,0,0-1.068-.4,1.513,1.513,0,0,0-1.006.308,1.045,1.045,0,0,0-.365.844h-2.54a2.551,2.551,0,0,1,.51-1.529,3.37,3.37,0,0,1,1.441-1.1,5.253,5.253,0,0,1,2.092-.4,4.15,4.15,0,0,1,2.791.883A3.09,3.09,0,0,1,85.5-6.319V-2.2a4.546,4.546,0,0,0,.378,2.048V0Zm-2.1-1.767a2.188,2.188,0,0,0,1.037-.25,1.645,1.645,0,0,0,.7-.672V-4.324h-.949q-1.907,0-2.03,1.318l-.009.149a1.017,1.017,0,0,0,.334.782A1.3,1.3,0,0,0,81.215-1.767Zm6.372.519A1.279,1.279,0,0,1,88-2.232,1.45,1.45,0,0,1,89.02-2.61a1.462,1.462,0,0,1,1.033.378,1.279,1.279,0,0,1,.409.984,1.261,1.261,0,0,1-.4.971A1.468,1.468,0,0,1,89.02.1a1.456,1.456,0,0,1-1.028-.374A1.261,1.261,0,0,1,87.587-1.248Z" transform="translate(333.711 6562)" fill="#fff"/>
    <path id="Trazado_1000642" data-name="Trazado 1000642" d="M-68.036-5.546H-73.1v3.428h5.941V0h-8.578V-12.8h8.561v2.136H-73.1v3.05h5.063ZM-63.1,0h-2.549V-13.5H-63.1Zm8.956-9.51.079,1.063a3.342,3.342,0,0,1,2.733-1.239,2.536,2.536,0,0,1,2.522,1.45,3.265,3.265,0,0,1,2.856-1.45,2.836,2.836,0,0,1,2.3.9,4.141,4.141,0,0,1,.756,2.711V0h-2.549V-6.064a1.811,1.811,0,0,0-.316-1.182,1.4,1.4,0,0,0-1.116-.374,1.585,1.585,0,0,0-1.582,1.09L-48.445,0h-2.54V-6.056a1.789,1.789,0,0,0-.325-1.2,1.416,1.416,0,0,0-1.107-.369,1.646,1.646,0,0,0-1.564.9V0h-2.54V-9.51Zm12.806,4.667a5.64,5.64,0,0,1,.545-2.522,3.989,3.989,0,0,1,1.569-1.714,4.577,4.577,0,0,1,2.377-.606A4.33,4.33,0,0,1-33.7-8.508a4.727,4.727,0,0,1,1.358,3.2l.018.65a4.97,4.97,0,0,1-1.222,3.511A4.247,4.247,0,0,1-36.826.176a4.268,4.268,0,0,1-3.283-1.318,5.058,5.058,0,0,1-1.226-3.586Zm2.54.18a3.555,3.555,0,0,0,.51,2.073,1.682,1.682,0,0,0,1.459.717,1.686,1.686,0,0,0,1.441-.709,3.89,3.89,0,0,0,.519-2.267,3.519,3.519,0,0,0-.519-2.06,1.686,1.686,0,0,0-1.459-.731,1.658,1.658,0,0,0-1.441.726A3.955,3.955,0,0,0-38.795-4.662Zm7.638-.163a5.731,5.731,0,0,1,1-3.542,3.237,3.237,0,0,1,2.729-1.318,2.913,2.913,0,0,1,2.294,1.037V-13.5h2.549V0h-2.294L-25-1.011A2.989,2.989,0,0,1-27.448.176a3.228,3.228,0,0,1-2.694-1.323A5.916,5.916,0,0,1-31.157-4.825Zm2.54.189a3.754,3.754,0,0,0,.466,2.051,1.517,1.517,0,0,0,1.354.713,1.7,1.7,0,0,0,1.661-.995V-6.625A1.675,1.675,0,0,0-26.78-7.62Q-28.617-7.62-28.617-4.636Zm7.6-.207a5.64,5.64,0,0,1,.545-2.522A3.989,3.989,0,0,1-18.9-9.079a4.577,4.577,0,0,1,2.377-.606,4.33,4.33,0,0,1,3.142,1.178,4.727,4.727,0,0,1,1.358,3.2l.018.65a4.97,4.97,0,0,1-1.222,3.511A4.247,4.247,0,0,1-16.506.176a4.268,4.268,0,0,1-3.283-1.318,5.058,5.058,0,0,1-1.226-3.586Zm2.54.18a3.555,3.555,0,0,0,.51,2.073,1.682,1.682,0,0,0,1.459.717,1.686,1.686,0,0,0,1.441-.709,3.89,3.89,0,0,0,.519-2.267,3.519,3.519,0,0,0-.519-2.06,1.686,1.686,0,0,0-1.459-.731,1.658,1.658,0,0,0-1.441.726A3.955,3.955,0,0,0-18.475-4.662Zm12.12-.163a5.731,5.731,0,0,1,1-3.542A3.237,3.237,0,0,1-2.628-9.686,2.913,2.913,0,0,1-.334-8.648V-13.5H2.215V0H-.079L-.2-1.011A2.989,2.989,0,0,1-2.646.176,3.228,3.228,0,0,1-5.339-1.147,5.916,5.916,0,0,1-6.354-4.825Zm2.54.189a3.754,3.754,0,0,0,.466,2.051A1.517,1.517,0,0,0-2-1.872,1.7,1.7,0,0,0-.334-2.867V-6.625A1.675,1.675,0,0,0-1.978-7.62Q-3.814-7.62-3.814-4.636ZM8.561.176A4.668,4.668,0,0,1,5.155-1.107,4.561,4.561,0,0,1,3.841-4.526v-.246a5.745,5.745,0,0,1,.554-2.562,4.064,4.064,0,0,1,1.569-1.74,4.4,4.4,0,0,1,2.316-.611,3.947,3.947,0,0,1,3.072,1.23,5,5,0,0,1,1.121,3.489v1.037H6.416a2.36,2.36,0,0,0,.743,1.494,2.245,2.245,0,0,0,1.569.563,2.742,2.742,0,0,0,2.294-1.063l1.248,1.4A3.813,3.813,0,0,1,10.723-.277,5.075,5.075,0,0,1,8.561.176Zm-.29-7.813a1.587,1.587,0,0,0-1.226.512,2.651,2.651,0,0,0-.6,1.466H9.976v-.2a1.891,1.891,0,0,0-.457-1.311A1.638,1.638,0,0,0,8.271-7.638Zm14.08,5.766a1.666,1.666,0,0,0,1.143-.387,1.355,1.355,0,0,0,.457-1.028h2.382A3.258,3.258,0,0,1,25.8-1.516,3.48,3.48,0,0,1,24.385-.268a4.442,4.442,0,0,1-1.991.444,4.129,4.129,0,0,1-3.217-1.3A5.13,5.13,0,0,1,18-4.7v-.167a5.071,5.071,0,0,1,1.169-3.507,4.08,4.08,0,0,1,3.208-1.31A4,4,0,0,1,25.238-8.67a3.594,3.594,0,0,1,1.094,2.7H23.95a1.745,1.745,0,0,0-.457-1.206,1.524,1.524,0,0,0-1.16-.464,1.53,1.53,0,0,0-1.34.647,3.749,3.749,0,0,0-.453,2.1v.264a3.8,3.8,0,0,0,.448,2.113A1.549,1.549,0,0,0,22.351-1.872Zm11.127.905a3.185,3.185,0,0,1-2.6,1.143A3,3,0,0,1,28.542-.7a3.752,3.752,0,0,1-.822-2.575V-9.51h2.54v6.151q0,1.487,1.354,1.487a1.834,1.834,0,0,0,1.775-.9V-9.51h2.549V0H33.548ZM40.535,0H37.986V-13.5h2.549Zm5.133-11.848V-9.51h1.626v1.863H45.668V-2.9a1.133,1.133,0,0,0,.2.756,1.015,1.015,0,0,0,.773.229,4.051,4.051,0,0,0,.747-.062V-.053a5.229,5.229,0,0,1-1.538.229,2.425,2.425,0,0,1-2.725-2.7V-7.646H41.739V-9.51h1.389v-2.338ZM51.39,0H48.841V-9.51H51.39Zm-2.7-11.971a1.251,1.251,0,0,1,.382-.94,1.436,1.436,0,0,1,1.042-.369,1.44,1.44,0,0,1,1.037.369,1.244,1.244,0,0,1,.387.94,1.247,1.247,0,0,1-.391.949,1.443,1.443,0,0,1-1.033.369,1.443,1.443,0,0,1-1.033-.369A1.247,1.247,0,0,1,48.691-11.971ZM57.041-3.1,58.808-9.51h2.654L58.254,0H55.828L52.62-9.51h2.654Zm5.01-1.74A5.64,5.64,0,0,1,62.6-7.365a3.989,3.989,0,0,1,1.569-1.714,4.577,4.577,0,0,1,2.377-.606,4.33,4.33,0,0,1,3.142,1.178,4.727,4.727,0,0,1,1.358,3.2l.018.65a4.97,4.97,0,0,1-1.222,3.511A4.247,4.247,0,0,1,66.56.176a4.268,4.268,0,0,1-3.283-1.318,5.058,5.058,0,0,1-1.226-3.586Zm2.54.18a3.555,3.555,0,0,0,.51,2.073,1.682,1.682,0,0,0,1.459.717A1.686,1.686,0,0,0,68-2.581a3.89,3.89,0,0,0,.519-2.267A3.519,3.519,0,0,0,68-6.907a1.686,1.686,0,0,0-1.459-.731,1.658,1.658,0,0,0-1.441.726A3.955,3.955,0,0,0,64.591-4.662Zm8.165,3.414a1.279,1.279,0,0,1,.409-.984,1.45,1.45,0,0,1,1.024-.378,1.462,1.462,0,0,1,1.033.378,1.279,1.279,0,0,1,.409.984,1.261,1.261,0,0,1-.4.971A1.468,1.468,0,0,1,74.188.1,1.456,1.456,0,0,1,73.16-.277,1.261,1.261,0,0,1,72.756-1.248Z" transform="translate(955.711 6562)" fill="#fff"/>
    <path id="Trazado_1000645" data-name="Trazado 1000645" d="M-112.992-5.546h-5.062v3.428h5.941V0h-8.578V-12.8h8.561v2.136h-5.924v3.05h5.063ZM-108.053,0H-110.6V-13.5h2.549ZM-99.1-9.51l.079,1.063a3.342,3.342,0,0,1,2.733-1.239,2.536,2.536,0,0,1,2.522,1.45,3.265,3.265,0,0,1,2.856-1.45,2.836,2.836,0,0,1,2.3.9,4.141,4.141,0,0,1,.756,2.711V0H-90.4V-6.064a1.811,1.811,0,0,0-.316-1.182,1.4,1.4,0,0,0-1.116-.374A1.585,1.585,0,0,0-93.41-6.53L-93.4,0h-2.54V-6.056a1.789,1.789,0,0,0-.325-1.2,1.416,1.416,0,0,0-1.107-.369,1.646,1.646,0,0,0-1.564.9V0h-2.54V-9.51Zm12.806,4.667a5.64,5.64,0,0,1,.545-2.522,3.989,3.989,0,0,1,1.569-1.714A4.577,4.577,0,0,1-81.8-9.686a4.33,4.33,0,0,1,3.142,1.178,4.727,4.727,0,0,1,1.358,3.2l.018.65A4.97,4.97,0,0,1-78.5-1.147,4.247,4.247,0,0,1-81.782.176a4.268,4.268,0,0,1-3.283-1.318,5.058,5.058,0,0,1-1.226-3.586Zm2.54.18a3.555,3.555,0,0,0,.51,2.073,1.682,1.682,0,0,0,1.459.717,1.686,1.686,0,0,0,1.441-.709,3.89,3.89,0,0,0,.519-2.267,3.519,3.519,0,0,0-.519-2.06A1.686,1.686,0,0,0-81.8-7.638a1.658,1.658,0,0,0-1.441.726A3.955,3.955,0,0,0-83.751-4.662ZM-73.336-9.51l.079,1.063a3.342,3.342,0,0,1,2.733-1.239A2.536,2.536,0,0,1-68-8.235a3.265,3.265,0,0,1,2.856-1.45,2.836,2.836,0,0,1,2.3.9,4.141,4.141,0,0,1,.756,2.711V0h-2.549V-6.064a1.811,1.811,0,0,0-.316-1.182,1.4,1.4,0,0,0-1.116-.374,1.585,1.585,0,0,0-1.582,1.09L-67.641,0h-2.54V-6.056a1.789,1.789,0,0,0-.325-1.2,1.416,1.416,0,0,0-1.107-.369,1.646,1.646,0,0,0-1.564.9V0h-2.54V-9.51ZM-55.758.176a4.668,4.668,0,0,1-3.406-1.283,4.561,4.561,0,0,1-1.314-3.419v-.246a5.745,5.745,0,0,1,.554-2.562,4.064,4.064,0,0,1,1.569-1.74,4.4,4.4,0,0,1,2.316-.611,3.947,3.947,0,0,1,3.072,1.23,5,5,0,0,1,1.121,3.489v1.037H-57.9a2.36,2.36,0,0,0,.743,1.494,2.245,2.245,0,0,0,1.569.563A2.742,2.742,0,0,0-53.3-2.936l1.248,1.4A3.813,3.813,0,0,1-53.6-.277,5.075,5.075,0,0,1-55.758.176Zm-.29-7.813a1.587,1.587,0,0,0-1.226.512,2.651,2.651,0,0,0-.6,1.466h3.533v-.2A1.891,1.891,0,0,0-54.8-7.174,1.638,1.638,0,0,0-56.048-7.638Zm7.98-1.872.079,1.1a3.32,3.32,0,0,1,2.733-1.274A2.759,2.759,0,0,1-43-8.8a4.142,4.142,0,0,1,.756,2.654V0h-2.54V-6.082a1.648,1.648,0,0,0-.352-1.173A1.574,1.574,0,0,0-46.31-7.62a1.747,1.747,0,0,0-1.608.914V0h-2.54V-9.51Zm10.784-2.338V-9.51h1.626v1.863h-1.626V-2.9a1.133,1.133,0,0,0,.2.756,1.015,1.015,0,0,0,.773.229,4.051,4.051,0,0,0,.747-.062V-.053A5.229,5.229,0,0,1-37.1.176a2.425,2.425,0,0,1-2.725-2.7V-7.646h-1.389V-9.51h1.389v-2.338Zm2.382,7a5.64,5.64,0,0,1,.545-2.522,3.989,3.989,0,0,1,1.569-1.714,4.577,4.577,0,0,1,2.377-.606,4.33,4.33,0,0,1,3.142,1.178,4.727,4.727,0,0,1,1.358,3.2l.018.65a4.97,4.97,0,0,1-1.222,3.511A4.247,4.247,0,0,1-30.393.176a4.268,4.268,0,0,1-3.283-1.318A5.058,5.058,0,0,1-34.9-4.729Zm2.54.18a3.555,3.555,0,0,0,.51,2.073,1.682,1.682,0,0,0,1.459.717,1.686,1.686,0,0,0,1.441-.709,3.89,3.89,0,0,0,.519-2.267,3.519,3.519,0,0,0-.519-2.06,1.686,1.686,0,0,0-1.459-.731,1.658,1.658,0,0,0-1.441.726A3.955,3.955,0,0,0-32.361-4.662Zm12.12-.163a5.731,5.731,0,0,1,1-3.542,3.237,3.237,0,0,1,2.729-1.318,2.913,2.913,0,0,1,2.294,1.037V-13.5h2.549V0h-2.294l-.123-1.011A2.989,2.989,0,0,1-16.532.176a3.228,3.228,0,0,1-2.694-1.323A5.916,5.916,0,0,1-20.241-4.825Zm2.54.189a3.754,3.754,0,0,0,.466,2.051,1.517,1.517,0,0,0,1.354.713,1.7,1.7,0,0,0,1.661-.995V-6.625a1.675,1.675,0,0,0-1.644-.995Q-17.7-7.62-17.7-4.636ZM-5.326.176A4.668,4.668,0,0,1-8.732-1.107a4.561,4.561,0,0,1-1.314-3.419v-.246a5.745,5.745,0,0,1,.554-2.562,4.064,4.064,0,0,1,1.569-1.74,4.4,4.4,0,0,1,2.316-.611,3.947,3.947,0,0,1,3.072,1.23A5,5,0,0,1-1.415-4.966v1.037H-7.471a2.36,2.36,0,0,0,.743,1.494,2.245,2.245,0,0,0,1.569.563A2.742,2.742,0,0,0-2.865-2.936l1.248,1.4A3.813,3.813,0,0,1-3.164-.277,5.075,5.075,0,0,1-5.326.176Zm-.29-7.813a1.587,1.587,0,0,0-1.226.512,2.651,2.651,0,0,0-.6,1.466h3.533v-.2a1.891,1.891,0,0,0-.457-1.311A1.638,1.638,0,0,0-5.616-7.638ZM7.189,0H4.641V-13.5H7.189Zm7.6,0a2.821,2.821,0,0,1-.255-.853,3.073,3.073,0,0,1-2.4,1.028A3.376,3.376,0,0,1,9.822-.633,2.6,2.6,0,0,1,8.9-2.672a2.687,2.687,0,0,1,1.121-2.32,5.529,5.529,0,0,1,3.239-.817h1.169v-.545a1.567,1.567,0,0,0-.338-1.055,1.331,1.331,0,0,0-1.068-.4,1.513,1.513,0,0,0-1.006.308,1.045,1.045,0,0,0-.365.844H9.114a2.551,2.551,0,0,1,.51-1.529,3.37,3.37,0,0,1,1.441-1.1,5.253,5.253,0,0,1,2.092-.4,4.15,4.15,0,0,1,2.791.883A3.09,3.09,0,0,1,16.98-6.319V-2.2a4.546,4.546,0,0,0,.378,2.048V0Zm-2.1-1.767a2.188,2.188,0,0,0,1.037-.25,1.645,1.645,0,0,0,.7-.672V-4.324h-.949q-1.907,0-2.03,1.318l-.009.149a1.017,1.017,0,0,0,.334.782A1.3,1.3,0,0,0,12.691-1.767ZM28.758-7.128a6.9,6.9,0,0,0-.914-.07,1.86,1.86,0,0,0-1.89.976V0h-2.54V-9.51h2.4l.07,1.134A2.354,2.354,0,0,1,28-9.686a2.662,2.662,0,0,1,.791.114Zm5.6,7.3a4.668,4.668,0,0,1-3.406-1.283,4.561,4.561,0,0,1-1.314-3.419v-.246a5.745,5.745,0,0,1,.554-2.562,4.064,4.064,0,0,1,1.569-1.74,4.4,4.4,0,0,1,2.316-.611,3.947,3.947,0,0,1,3.072,1.23,5,5,0,0,1,1.121,3.489v1.037H32.212a2.36,2.36,0,0,0,.743,1.494,2.245,2.245,0,0,0,1.569.563,2.742,2.742,0,0,0,2.294-1.063l1.248,1.4A3.813,3.813,0,0,1,36.519-.277,5.075,5.075,0,0,1,34.356.176Zm-.29-7.813a1.587,1.587,0,0,0-1.226.512,2.651,2.651,0,0,0-.6,1.466h3.533v-.2a1.891,1.891,0,0,0-.457-1.311A1.638,1.638,0,0,0,34.066-7.638Zm9.6,5.766a1.666,1.666,0,0,0,1.143-.387,1.355,1.355,0,0,0,.457-1.028h2.382a3.258,3.258,0,0,1-.527,1.771A3.48,3.48,0,0,1,45.7-.268a4.442,4.442,0,0,1-1.991.444,4.129,4.129,0,0,1-3.217-1.3A5.13,5.13,0,0,1,39.313-4.7v-.167a5.071,5.071,0,0,1,1.169-3.507,4.08,4.08,0,0,1,3.208-1.31A4,4,0,0,1,46.551-8.67a3.594,3.594,0,0,1,1.094,2.7H45.264a1.745,1.745,0,0,0-.457-1.206,1.524,1.524,0,0,0-1.16-.464,1.53,1.53,0,0,0-1.34.647,3.749,3.749,0,0,0-.453,2.1v.264A3.8,3.8,0,0,0,42.3-2.515,1.549,1.549,0,0,0,43.664-1.872ZM48.7-4.843a5.64,5.64,0,0,1,.545-2.522,3.989,3.989,0,0,1,1.569-1.714,4.577,4.577,0,0,1,2.377-.606,4.33,4.33,0,0,1,3.142,1.178,4.727,4.727,0,0,1,1.358,3.2l.018.65a4.97,4.97,0,0,1-1.222,3.511A4.247,4.247,0,0,1,53.209.176a4.268,4.268,0,0,1-3.283-1.318A5.058,5.058,0,0,1,48.7-4.729Zm2.54.18a3.555,3.555,0,0,0,.51,2.073,1.682,1.682,0,0,0,1.459.717,1.686,1.686,0,0,0,1.441-.709,3.89,3.89,0,0,0,.519-2.267,3.519,3.519,0,0,0-.519-2.06,1.686,1.686,0,0,0-1.459-.731,1.658,1.658,0,0,0-1.441.726A3.955,3.955,0,0,0,51.24-4.662ZM61.954,0H59.405V-13.5h2.549Zm6.469.176a4.668,4.668,0,0,1-3.406-1.283A4.561,4.561,0,0,1,63.7-4.526v-.246a5.745,5.745,0,0,1,.554-2.562,4.064,4.064,0,0,1,1.569-1.74,4.4,4.4,0,0,1,2.316-.611,3.947,3.947,0,0,1,3.072,1.23,5,5,0,0,1,1.121,3.489v1.037H66.278a2.36,2.36,0,0,0,.743,1.494,2.245,2.245,0,0,0,1.569.563,2.742,2.742,0,0,0,2.294-1.063l1.248,1.4A3.813,3.813,0,0,1,70.585-.277,5.075,5.075,0,0,1,68.423.176Zm-.29-7.813a1.587,1.587,0,0,0-1.226.512,2.651,2.651,0,0,0-.6,1.466h3.533v-.2a1.891,1.891,0,0,0-.457-1.311A1.638,1.638,0,0,0,68.133-7.638Zm9.6,5.766a1.666,1.666,0,0,0,1.143-.387,1.355,1.355,0,0,0,.457-1.028h2.382a3.258,3.258,0,0,1-.527,1.771A3.48,3.48,0,0,1,79.765-.268a4.442,4.442,0,0,1-1.991.444,4.129,4.129,0,0,1-3.217-1.3A5.13,5.13,0,0,1,73.38-4.7v-.167a5.071,5.071,0,0,1,1.169-3.507,4.08,4.08,0,0,1,3.208-1.31A4,4,0,0,1,80.618-8.67a3.594,3.594,0,0,1,1.094,2.7H79.33a1.745,1.745,0,0,0-.457-1.206,1.524,1.524,0,0,0-1.16-.464,1.53,1.53,0,0,0-1.34.647,3.749,3.749,0,0,0-.453,2.1v.264a3.8,3.8,0,0,0,.448,2.113A1.549,1.549,0,0,0,77.73-1.872Zm9.387,0a1.666,1.666,0,0,0,1.143-.387,1.355,1.355,0,0,0,.457-1.028H91.1a3.258,3.258,0,0,1-.527,1.771A3.48,3.48,0,0,1,89.152-.268a4.442,4.442,0,0,1-1.991.444,4.129,4.129,0,0,1-3.217-1.3A5.13,5.13,0,0,1,82.767-4.7v-.167a5.071,5.071,0,0,1,1.169-3.507,4.08,4.08,0,0,1,3.208-1.31A4,4,0,0,1,90-8.67a3.594,3.594,0,0,1,1.094,2.7H88.717a1.745,1.745,0,0,0-.457-1.206,1.524,1.524,0,0,0-1.16-.464,1.53,1.53,0,0,0-1.34.647,3.749,3.749,0,0,0-.453,2.1v.264a3.8,3.8,0,0,0,.448,2.113A1.549,1.549,0,0,0,87.117-1.872ZM95.229,0H92.681V-9.51h2.549Zm-2.7-11.971a1.251,1.251,0,0,1,.382-.94,1.436,1.436,0,0,1,1.042-.369,1.44,1.44,0,0,1,1.037.369,1.244,1.244,0,0,1,.387.94,1.247,1.247,0,0,1-.391.949,1.443,1.443,0,0,1-1.033.369,1.443,1.443,0,0,1-1.033-.369A1.247,1.247,0,0,1,92.531-11.971Zm4.395,7.128a5.64,5.64,0,0,1,.545-2.522A3.989,3.989,0,0,1,99.04-9.079a4.577,4.577,0,0,1,2.377-.606,4.33,4.33,0,0,1,3.142,1.178,4.727,4.727,0,0,1,1.358,3.2l.018.65a4.97,4.97,0,0,1-1.222,3.511A4.247,4.247,0,0,1,101.435.176a4.268,4.268,0,0,1-3.283-1.318,5.058,5.058,0,0,1-1.226-3.586Zm2.54.18a3.555,3.555,0,0,0,.51,2.073,1.682,1.682,0,0,0,1.459.717,1.686,1.686,0,0,0,1.441-.709,3.89,3.89,0,0,0,.519-2.267,3.519,3.519,0,0,0-.519-2.06,1.686,1.686,0,0,0-1.459-.731,1.658,1.658,0,0,0-1.441.726A3.955,3.955,0,0,0,99.466-4.662Zm2.452-8.838h2.769l-2.435,2.725h-2.065Zm7.919,3.99.079,1.1a3.32,3.32,0,0,1,2.733-1.274,2.759,2.759,0,0,1,2.25.888,4.142,4.142,0,0,1,.756,2.654V0h-2.54V-6.082a1.648,1.648,0,0,0-.352-1.173,1.574,1.574,0,0,0-1.169-.365,1.747,1.747,0,0,0-1.608.914V0h-2.54V-9.51Zm7.875,8.262a1.279,1.279,0,0,1,.409-.984,1.45,1.45,0,0,1,1.024-.378,1.462,1.462,0,0,1,1.033.378,1.279,1.279,0,0,1,.409.984,1.261,1.261,0,0,1-.4.971A1.468,1.468,0,0,1,119.145.1a1.456,1.456,0,0,1-1.028-.374A1.261,1.261,0,0,1,117.712-1.248Z" transform="translate(1267.711 6562)" fill="#12263f"/>
    <path id="Trazado_1000639" data-name="Trazado 1000639" d="M-63.721-6.108a7.725,7.725,0,0,1-.668,3.313A5.03,5.03,0,0,1-66.3-.6a5.288,5.288,0,0,1-2.852.773,5.324,5.324,0,0,1-2.839-.765,5.08,5.08,0,0,1-1.934-2.184,7.5,7.5,0,0,1-.694-3.265v-.633A7.685,7.685,0,0,1-73.938-10,5.072,5.072,0,0,1-72.013-12.2a5.3,5.3,0,0,1,2.843-.769,5.3,5.3,0,0,1,2.843.769A5.072,5.072,0,0,1-64.4-10a7.663,7.663,0,0,1,.681,3.318Zm-2.672-.58a5.385,5.385,0,0,0-.721-3.059,2.349,2.349,0,0,0-2.057-1.046A2.349,2.349,0,0,0-71.218-9.76a5.324,5.324,0,0,0-.729,3.028v.624a5.453,5.453,0,0,0,.721,3.041,2.342,2.342,0,0,0,2.074,1.081,2.321,2.321,0,0,0,2.039-1.042,5.421,5.421,0,0,0,.721-3.037Zm9.765-.439a6.9,6.9,0,0,0-.914-.07,1.86,1.86,0,0,0-1.89.976V0h-2.54V-9.51h2.4l.07,1.134a2.354,2.354,0,0,1,2.118-1.31,2.662,2.662,0,0,1,.791.114ZM-52.726,0h-2.549V-9.51h2.549Zm-2.7-11.971a1.251,1.251,0,0,1,.382-.94A1.436,1.436,0,0,1-54-13.28a1.44,1.44,0,0,1,1.037.369,1.244,1.244,0,0,1,.387.94,1.247,1.247,0,0,1-.391.949A1.443,1.443,0,0,1-54-10.652a1.443,1.443,0,0,1-1.033-.369A1.247,1.247,0,0,1-55.424-11.971ZM-51-4.825A5.573,5.573,0,0,1-49.961-8.35a3.375,3.375,0,0,1,2.808-1.336,2.96,2.96,0,0,1,2.435,1.072l.105-.9h2.3V-.316a4.064,4.064,0,0,1-.567,2.171,3.641,3.641,0,0,1-1.6,1.406,5.608,5.608,0,0,1-2.408.483,5.215,5.215,0,0,1-2.039-.417,3.619,3.619,0,0,1-1.5-1.077L-49.3.7A2.975,2.975,0,0,0-47,1.767a2.178,2.178,0,0,0,1.573-.541,2.027,2.027,0,0,0,.563-1.534v-.51a2.938,2.938,0,0,1-2.312.993,3.366,3.366,0,0,1-2.773-1.34A5.572,5.572,0,0,1-51-4.72Zm2.54.189a3.47,3.47,0,0,0,.519,2.029,1.65,1.65,0,0,0,1.424.735,1.764,1.764,0,0,0,1.661-.871V-6.749A1.76,1.76,0,0,0-46.5-7.62a1.66,1.66,0,0,0-1.437.748A3.911,3.911,0,0,0-48.463-4.636ZM-35.982.176a4.668,4.668,0,0,1-3.406-1.283A4.561,4.561,0,0,1-40.7-4.526v-.246a5.745,5.745,0,0,1,.554-2.562,4.064,4.064,0,0,1,1.569-1.74,4.4,4.4,0,0,1,2.316-.611,3.947,3.947,0,0,1,3.072,1.23,5,5,0,0,1,1.121,3.489v1.037h-6.056a2.36,2.36,0,0,0,.743,1.494,2.245,2.245,0,0,0,1.569.563,2.742,2.742,0,0,0,2.294-1.063l1.248,1.4A3.813,3.813,0,0,1-33.82-.277,5.075,5.075,0,0,1-35.982.176Zm-.29-7.813a1.587,1.587,0,0,0-1.226.512,2.651,2.651,0,0,0-.6,1.466h3.533v-.2a1.891,1.891,0,0,0-.457-1.311A1.638,1.638,0,0,0-36.272-7.638Zm7.98-1.872.079,1.1a3.32,3.32,0,0,1,2.733-1.274,2.759,2.759,0,0,1,2.25.888,4.142,4.142,0,0,1,.756,2.654V0h-2.54V-6.082a1.648,1.648,0,0,0-.352-1.173,1.574,1.574,0,0,0-1.169-.365,1.747,1.747,0,0,0-1.608.914V0h-2.54V-9.51Zm11.856,4.685A5.573,5.573,0,0,1-15.394-8.35a3.375,3.375,0,0,1,2.808-1.336,2.96,2.96,0,0,1,2.435,1.072l.105-.9h2.3V-.316A4.064,4.064,0,0,1-8.31,1.854a3.641,3.641,0,0,1-1.6,1.406,5.608,5.608,0,0,1-2.408.483,5.215,5.215,0,0,1-2.039-.417,3.619,3.619,0,0,1-1.5-1.077L-14.73.7a2.975,2.975,0,0,0,2.3,1.063,2.178,2.178,0,0,0,1.573-.541,2.027,2.027,0,0,0,.563-1.534v-.51A2.938,2.938,0,0,1-12.6.176a3.366,3.366,0,0,1-2.773-1.34A5.572,5.572,0,0,1-16.436-4.72Zm2.54.189a3.47,3.47,0,0,0,.519,2.029,1.65,1.65,0,0,0,1.424.735,1.764,1.764,0,0,0,1.661-.871V-6.749a1.76,1.76,0,0,0-1.644-.871,1.66,1.66,0,0,0-1.437.748A3.911,3.911,0,0,0-13.9-4.636ZM-1.415.176A4.668,4.668,0,0,1-4.821-1.107,4.561,4.561,0,0,1-6.135-4.526v-.246a5.745,5.745,0,0,1,.554-2.562,4.064,4.064,0,0,1,1.569-1.74A4.4,4.4,0,0,1-1.7-9.686a3.947,3.947,0,0,1,3.072,1.23A5,5,0,0,1,2.5-4.966v1.037H-3.56a2.36,2.36,0,0,0,.743,1.494,2.245,2.245,0,0,0,1.569.563A2.742,2.742,0,0,0,1.046-2.936l1.248,1.4A3.813,3.813,0,0,1,.747-.277,5.075,5.075,0,0,1-1.415.176Zm-.29-7.813a1.587,1.587,0,0,0-1.226.512,2.651,2.651,0,0,0-.6,1.466H0v-.2A1.891,1.891,0,0,0-.457-7.174,1.638,1.638,0,0,0-1.705-7.638ZM3.542-4.843a5.64,5.64,0,0,1,.545-2.522A3.989,3.989,0,0,1,5.656-9.079a4.577,4.577,0,0,1,2.377-.606,4.33,4.33,0,0,1,3.142,1.178,4.727,4.727,0,0,1,1.358,3.2l.018.65a4.97,4.97,0,0,1-1.222,3.511A4.247,4.247,0,0,1,8.051.176,4.268,4.268,0,0,1,4.768-1.143,5.058,5.058,0,0,1,3.542-4.729Zm2.54.18a3.555,3.555,0,0,0,.51,2.073,1.682,1.682,0,0,0,1.459.717,1.686,1.686,0,0,0,1.441-.709,3.89,3.89,0,0,0,.519-2.267,3.519,3.519,0,0,0-.519-2.06,1.686,1.686,0,0,0-1.459-.731,1.658,1.658,0,0,0-1.441.726A3.955,3.955,0,0,0,6.082-4.662Zm7.664-.163A5.573,5.573,0,0,1,14.788-8.35,3.375,3.375,0,0,1,17.6-9.686,2.96,2.96,0,0,1,20.03-8.613l.105-.9h2.3V-.316a4.064,4.064,0,0,1-.567,2.171,3.641,3.641,0,0,1-1.6,1.406,5.608,5.608,0,0,1-2.408.483,5.215,5.215,0,0,1-2.039-.417,3.619,3.619,0,0,1-1.5-1.077L15.451.7a2.975,2.975,0,0,0,2.3,1.063,2.178,2.178,0,0,0,1.573-.541A2.027,2.027,0,0,0,19.89-.308v-.51a2.938,2.938,0,0,1-2.312.993,3.366,3.366,0,0,1-2.773-1.34A5.572,5.572,0,0,1,13.746-4.72Zm2.54.189A3.47,3.47,0,0,0,16.8-2.607a1.65,1.65,0,0,0,1.424.735,1.764,1.764,0,0,0,1.661-.871V-6.749a1.76,1.76,0,0,0-1.644-.871,1.66,1.66,0,0,0-1.437.748A3.911,3.911,0,0,0,16.286-4.636ZM29.733-7.128a6.9,6.9,0,0,0-.914-.07,1.86,1.86,0,0,0-1.89.976V0H24.39V-9.51h2.4l.07,1.134a2.354,2.354,0,0,1,2.118-1.31,2.662,2.662,0,0,1,.791.114ZM36.466,0a2.821,2.821,0,0,1-.255-.853,3.073,3.073,0,0,1-2.4,1.028A3.376,3.376,0,0,1,31.5-.633a2.6,2.6,0,0,1-.918-2.039A2.687,2.687,0,0,1,31.7-4.992a5.529,5.529,0,0,1,3.239-.817h1.169v-.545a1.567,1.567,0,0,0-.338-1.055A1.331,1.331,0,0,0,34.7-7.8a1.513,1.513,0,0,0-1.006.308,1.045,1.045,0,0,0-.365.844h-2.54a2.551,2.551,0,0,1,.51-1.529,3.37,3.37,0,0,1,1.441-1.1,5.253,5.253,0,0,1,2.092-.4,4.15,4.15,0,0,1,2.791.883,3.09,3.09,0,0,1,1.033,2.483V-2.2a4.546,4.546,0,0,0,.378,2.048V0Zm-2.1-1.767a2.188,2.188,0,0,0,1.037-.25,1.645,1.645,0,0,0,.7-.672V-4.324h-.949q-1.907,0-2.03,1.318l-.009.149a1.017,1.017,0,0,0,.334.782A1.3,1.3,0,0,0,34.365-1.767ZM35.332-13.5H38.1l-2.435,2.725H33.6ZM41.221,0V-7.646H39.806V-9.51h1.415v-.439a3.566,3.566,0,0,1,1.1-2.764,4.438,4.438,0,0,1,3.063-.971,10.16,10.16,0,0,1,2.883.519l-.369,2.1a11.248,11.248,0,0,0-1.336-.33,6.564,6.564,0,0,0-1.02-.075q-1.775,0-1.775,1.573v.387h1.872v1.863H43.77V0Zm8.235,0H46.907V-9.51h2.549Zm6.056-1.872a1.666,1.666,0,0,0,1.143-.387,1.355,1.355,0,0,0,.457-1.028h2.382a3.258,3.258,0,0,1-.527,1.771A3.48,3.48,0,0,1,57.546-.268a4.442,4.442,0,0,1-1.991.444,4.129,4.129,0,0,1-3.217-1.3A5.13,5.13,0,0,1,51.161-4.7v-.167A5.071,5.071,0,0,1,52.33-8.376a4.08,4.08,0,0,1,3.208-1.31A4,4,0,0,1,58.4-8.67a3.594,3.594,0,0,1,1.094,2.7H57.111a1.745,1.745,0,0,0-.457-1.206,1.524,1.524,0,0,0-1.16-.464,1.53,1.53,0,0,0-1.34.647,3.749,3.749,0,0,0-.453,2.1v.264a3.8,3.8,0,0,0,.448,2.113A1.549,1.549,0,0,0,55.512-1.872Zm5.036-2.971a5.64,5.64,0,0,1,.545-2.522,3.989,3.989,0,0,1,1.569-1.714,4.577,4.577,0,0,1,2.377-.606,4.33,4.33,0,0,1,3.142,1.178,4.727,4.727,0,0,1,1.358,3.2l.018.65a4.97,4.97,0,0,1-1.222,3.511A4.247,4.247,0,0,1,65.057.176a4.268,4.268,0,0,1-3.283-1.318,5.058,5.058,0,0,1-1.226-3.586Zm2.54.18a3.555,3.555,0,0,0,.51,2.073,1.682,1.682,0,0,0,1.459.717A1.686,1.686,0,0,0,66.5-2.581a3.89,3.89,0,0,0,.519-2.267,3.519,3.519,0,0,0-.519-2.06,1.686,1.686,0,0,0-1.459-.731,1.658,1.658,0,0,0-1.441.726A3.955,3.955,0,0,0,63.088-4.662Zm8.165,3.414a1.279,1.279,0,0,1,.409-.984,1.45,1.45,0,0,1,1.024-.378,1.462,1.462,0,0,1,1.033.378,1.279,1.279,0,0,1,.409.984,1.261,1.261,0,0,1-.4.971A1.468,1.468,0,0,1,72.686.1a1.456,1.456,0,0,1-1.028-.374A1.261,1.261,0,0,1,71.253-1.248Z" transform="translate(643.711 6562)" fill="#12263f"/>
    <path id="Trazado_1000637" data-name="Trazado 1000637" d="M9,0H283a9,9,0,0,1,9,9V49a9,9,0,0,1-9,9H9a9,9,0,0,1-9-9V9A9,9,0,0,1,9,0Z" transform="translate(341.711 6596)" fill="#797979"/>
    <path id="Trazado_1000643" data-name="Trazado 1000643" d="M9,0H283a9,9,0,0,1,9,9V49a9,9,0,0,1-9,9H9a9,9,0,0,1-9-9V9A9,9,0,0,1,9,0Z" transform="translate(965.711 6596)" fill="#5e3637"/>
    <path id="Trazado_1000640" data-name="Trazado 1000640" d="M9,0H283a9,9,0,0,1,9,9V49a9,9,0,0,1-9,9H9a9,9,0,0,1-9-9V9A9,9,0,0,1,9,0Z" transform="translate(653.711 6596)" fill="#c3beba"/>
    <path id="Trazado_1000646" data-name="Trazado 1000646" d="M-71.53-5.546h-5.062v3.428h5.941V0h-8.578V-12.8h8.561v2.136h-5.924v3.05h5.063ZM-66.59,0h-2.549V-13.5h2.549Zm6.179-4.843a5.64,5.64,0,0,1,.545-2.522A3.989,3.989,0,0,1-58.3-9.079a4.577,4.577,0,0,1,2.377-.606,4.33,4.33,0,0,1,3.142,1.178,4.727,4.727,0,0,1,1.358,3.2l.018.65a4.97,4.97,0,0,1-1.222,3.511A4.247,4.247,0,0,1-55.9.176a4.268,4.268,0,0,1-3.283-1.318,5.058,5.058,0,0,1-1.226-3.586Zm2.54.18a3.555,3.555,0,0,0,.51,2.073,1.682,1.682,0,0,0,1.459.717,1.686,1.686,0,0,0,1.441-.709,3.89,3.89,0,0,0,.519-2.267,3.519,3.519,0,0,0-.519-2.06,1.686,1.686,0,0,0-1.459-.731,1.658,1.658,0,0,0-1.441.726A3.955,3.955,0,0,0-57.872-4.662Zm2.452-8.838h2.769l-2.435,2.725h-2.065Zm10.925,6.372a6.9,6.9,0,0,0-.914-.07,1.86,1.86,0,0,0-1.89.976V0h-2.54V-9.51h2.4l.07,1.134a2.354,2.354,0,0,1,2.118-1.31,2.662,2.662,0,0,1,.791.114Zm.853,2.3A5.573,5.573,0,0,1-42.6-8.35a3.375,3.375,0,0,1,2.808-1.336,2.96,2.96,0,0,1,2.435,1.072l.105-.9h2.3V-.316a4.064,4.064,0,0,1-.567,2.171,3.641,3.641,0,0,1-1.6,1.406,5.608,5.608,0,0,1-2.408.483,5.215,5.215,0,0,1-2.039-.417,3.619,3.619,0,0,1-1.5-1.077L-41.937.7a2.975,2.975,0,0,0,2.3,1.063,2.178,2.178,0,0,0,1.573-.541A2.027,2.027,0,0,0-37.5-.308v-.51A2.938,2.938,0,0,1-39.81.176a3.366,3.366,0,0,1-2.773-1.34A5.572,5.572,0,0,1-43.642-4.72Zm2.54.189a3.47,3.47,0,0,0,.519,2.029,1.65,1.65,0,0,0,1.424.735A1.764,1.764,0,0,0-37.5-2.744V-6.749a1.76,1.76,0,0,0-1.644-.871,1.66,1.66,0,0,0-1.437.748A3.911,3.911,0,0,0-41.1-4.636ZM-27.488,0a2.821,2.821,0,0,1-.255-.853,3.073,3.073,0,0,1-2.4,1.028,3.376,3.376,0,0,1-2.316-.809,2.6,2.6,0,0,1-.918-2.039,2.687,2.687,0,0,1,1.121-2.32,5.529,5.529,0,0,1,3.239-.817h1.169v-.545a1.567,1.567,0,0,0-.338-1.055,1.331,1.331,0,0,0-1.068-.4,1.513,1.513,0,0,0-1.006.308,1.045,1.045,0,0,0-.365.844h-2.54a2.551,2.551,0,0,1,.51-1.529,3.37,3.37,0,0,1,1.441-1.1,5.253,5.253,0,0,1,2.092-.4,4.15,4.15,0,0,1,2.791.883A3.09,3.09,0,0,1-25.3-6.319V-2.2a4.546,4.546,0,0,0,.378,2.048V0Zm-2.1-1.767a2.188,2.188,0,0,0,1.037-.25,1.645,1.645,0,0,0,.7-.672V-4.324H-28.8q-1.907,0-2.03,1.318l-.009.149a1.017,1.017,0,0,0,.334.782A1.3,1.3,0,0,0-29.588-1.767ZM-21.01-9.51l.079,1.1A3.32,3.32,0,0,1-18.2-9.686a2.759,2.759,0,0,1,2.25.888,4.142,4.142,0,0,1,.756,2.654V0h-2.54V-6.082a1.648,1.648,0,0,0-.352-1.173,1.574,1.574,0,0,0-1.169-.365,1.747,1.747,0,0,0-1.608.914V0H-23.4V-9.51Zm7.348,4.667a5.64,5.64,0,0,1,.545-2.522,3.989,3.989,0,0,1,1.569-1.714,4.577,4.577,0,0,1,2.377-.606A4.33,4.33,0,0,1-6.029-8.508a4.727,4.727,0,0,1,1.358,3.2l.018.65A4.97,4.97,0,0,1-5.875-1.147,4.247,4.247,0,0,1-9.154.176a4.268,4.268,0,0,1-3.283-1.318,5.058,5.058,0,0,1-1.226-3.586Zm2.54.18a3.555,3.555,0,0,0,.51,2.073,1.682,1.682,0,0,0,1.459.717,1.686,1.686,0,0,0,1.441-.709,3.89,3.89,0,0,0,.519-2.267,3.519,3.519,0,0,0-.519-2.06,1.686,1.686,0,0,0-1.459-.731,1.658,1.658,0,0,0-1.441.726A3.955,3.955,0,0,0-11.123-4.662ZM1-4.825A5.731,5.731,0,0,1,2-8.367,3.237,3.237,0,0,1,4.724-9.686,2.913,2.913,0,0,1,7.018-8.648V-13.5H9.567V0H7.273L7.15-1.011A2.989,2.989,0,0,1,4.707.176,3.228,3.228,0,0,1,2.013-1.147,5.916,5.916,0,0,1,1-4.825Zm2.54.189A3.754,3.754,0,0,0,4-2.585a1.517,1.517,0,0,0,1.354.713,1.7,1.7,0,0,0,1.661-.995V-6.625A1.675,1.675,0,0,0,5.375-7.62Q3.538-7.62,3.538-4.636ZM15.913.176a4.668,4.668,0,0,1-3.406-1.283,4.561,4.561,0,0,1-1.314-3.419v-.246a5.745,5.745,0,0,1,.554-2.562,4.064,4.064,0,0,1,1.569-1.74,4.4,4.4,0,0,1,2.316-.611A3.947,3.947,0,0,1,18.7-8.455a5,5,0,0,1,1.121,3.489v1.037H13.768a2.36,2.36,0,0,0,.743,1.494,2.245,2.245,0,0,0,1.569.563,2.742,2.742,0,0,0,2.294-1.063l1.248,1.4A3.813,3.813,0,0,1,18.075-.277,5.075,5.075,0,0,1,15.913.176Zm-.29-7.813a1.587,1.587,0,0,0-1.226.512,2.651,2.651,0,0,0-.6,1.466h3.533v-.2a1.891,1.891,0,0,0-.457-1.311A1.638,1.638,0,0,0,15.623-7.638Zm10.793,5.01a.818.818,0,0,0-.461-.734,5.241,5.241,0,0,0-1.481-.479q-3.393-.712-3.393-2.883a2.613,2.613,0,0,1,1.05-2.114,4.237,4.237,0,0,1,2.747-.848,4.56,4.56,0,0,1,2.9.853,2.687,2.687,0,0,1,1.085,2.215h-2.54a1.229,1.229,0,0,0-.352-.9,1.488,1.488,0,0,0-1.1-.356,1.52,1.52,0,0,0-.993.29.916.916,0,0,0-.352.738.783.783,0,0,0,.4.681,4.114,4.114,0,0,0,1.349.448,11.019,11.019,0,0,1,1.6.426,2.628,2.628,0,0,1,2.013,2.558,2.481,2.481,0,0,1-1.116,2.1,4.815,4.815,0,0,1-2.883.8A5.029,5.029,0,0,1,22.764-.25a3.561,3.561,0,0,1-1.455-1.169,2.716,2.716,0,0,1-.527-1.6H23.19a1.326,1.326,0,0,0,.5,1.037,1.987,1.987,0,0,0,1.248.36,1.839,1.839,0,0,0,1.1-.277A.861.861,0,0,0,26.416-2.628Zm7.146-9.22V-9.51h1.626v1.863H33.561V-2.9a1.133,1.133,0,0,0,.2.756,1.015,1.015,0,0,0,.773.229,4.051,4.051,0,0,0,.747-.062V-.053a5.229,5.229,0,0,1-1.538.229,2.425,2.425,0,0,1-2.725-2.7V-7.646H29.632V-9.51h1.389v-2.338ZM39.283,0H36.734V-9.51h2.549Zm-2.7-11.971a1.251,1.251,0,0,1,.382-.94,1.436,1.436,0,0,1,1.042-.369,1.44,1.44,0,0,1,1.037.369,1.244,1.244,0,0,1,.387.94,1.247,1.247,0,0,1-.391.949,1.443,1.443,0,0,1-1.033.369,1.443,1.443,0,0,1-1.033-.369A1.247,1.247,0,0,1,36.584-11.971ZM44.055,0H41.506V-13.5h2.549Zm7.6,0A2.821,2.821,0,0,1,51.4-.853,3.073,3.073,0,0,1,49,.176a3.376,3.376,0,0,1-2.316-.809,2.6,2.6,0,0,1-.918-2.039,2.687,2.687,0,0,1,1.121-2.32,5.529,5.529,0,0,1,3.239-.817H51.3v-.545a1.567,1.567,0,0,0-.338-1.055,1.331,1.331,0,0,0-1.068-.4,1.513,1.513,0,0,0-1.006.308,1.045,1.045,0,0,0-.365.844H45.98a2.551,2.551,0,0,1,.51-1.529,3.37,3.37,0,0,1,1.441-1.1,5.253,5.253,0,0,1,2.092-.4,4.15,4.15,0,0,1,2.791.883,3.09,3.09,0,0,1,1.033,2.483V-2.2a4.546,4.546,0,0,0,.378,2.048V0Zm-2.1-1.767a2.188,2.188,0,0,0,1.037-.25,1.645,1.645,0,0,0,.7-.672V-4.324h-.949q-1.907,0-2.03,1.318l-.009.149a1.017,1.017,0,0,0,.334.782A1.3,1.3,0,0,0,49.557-1.767ZM55.4-4.825a5.731,5.731,0,0,1,1-3.542,3.237,3.237,0,0,1,2.729-1.318,2.913,2.913,0,0,1,2.294,1.037V-13.5h2.549V0H61.677l-.123-1.011A2.989,2.989,0,0,1,59.111.176a3.228,3.228,0,0,1-2.694-1.323A5.916,5.916,0,0,1,55.4-4.825Zm2.54.189a3.754,3.754,0,0,0,.466,2.051,1.517,1.517,0,0,0,1.354.713,1.7,1.7,0,0,0,1.661-.995V-6.625a1.675,1.675,0,0,0-1.644-.995Q57.942-7.62,57.942-4.636Zm7.6-.207a5.64,5.64,0,0,1,.545-2.522,3.989,3.989,0,0,1,1.569-1.714,4.577,4.577,0,0,1,2.377-.606,4.33,4.33,0,0,1,3.142,1.178,4.727,4.727,0,0,1,1.358,3.2l.018.65a4.97,4.97,0,0,1-1.222,3.511A4.247,4.247,0,0,1,70.053.176a4.268,4.268,0,0,1-3.283-1.318,5.058,5.058,0,0,1-1.226-3.586Zm2.54.18a3.555,3.555,0,0,0,.51,2.073,1.682,1.682,0,0,0,1.459.717,1.686,1.686,0,0,0,1.441-.709,3.89,3.89,0,0,0,.519-2.267,3.519,3.519,0,0,0-.519-2.06,1.686,1.686,0,0,0-1.459-.731,1.658,1.658,0,0,0-1.441.726A3.955,3.955,0,0,0,68.084-4.662ZM76.25-1.248a1.279,1.279,0,0,1,.409-.984,1.45,1.45,0,0,1,1.024-.378,1.462,1.462,0,0,1,1.033.378,1.279,1.279,0,0,1,.409.984,1.261,1.261,0,0,1-.4.971A1.468,1.468,0,0,1,77.682.1a1.456,1.456,0,0,1-1.028-.374A1.261,1.261,0,0,1,76.25-1.248Z" transform="translate(489.711 6632)" fill="#fff"/>
    <path id="Trazado_1000647" data-name="Trazado 1000647" d="M-46.819-5.546h-5.062v3.428h5.941V0h-8.578V-12.8h8.561v2.136h-5.924v3.05h5.063ZM-41.88,0h-2.549V-13.5h2.549ZM-35.7-4.843a5.684,5.684,0,0,1,1-3.542,3.261,3.261,0,0,1,2.738-1.3,2.92,2.92,0,0,1,2.435,1.169l.167-.993h2.232V3.656h-2.549V-.817a2.928,2.928,0,0,1-2.3.993A3.237,3.237,0,0,1-34.69-1.143,5.963,5.963,0,0,1-35.7-4.843Zm2.54.18a3.729,3.729,0,0,0,.479,2.077,1.533,1.533,0,0,0,1.349.713,1.708,1.708,0,0,0,1.652-.933V-6.74a1.694,1.694,0,0,0-1.635-.9,1.552,1.552,0,0,0-1.362.713A4.118,4.118,0,0,0-33.161-4.662Zm13.72,3.7a3.185,3.185,0,0,1-2.6,1.143A3,3,0,0,1-24.376-.7,3.752,3.752,0,0,1-25.2-3.278V-9.51h2.54v6.151q0,1.487,1.354,1.487a1.834,1.834,0,0,0,1.775-.9V-9.51h2.549V0h-2.391ZM-12.384,0h-2.549V-9.51h2.549Zm-2.7-11.971a1.251,1.251,0,0,1,.382-.94,1.436,1.436,0,0,1,1.042-.369,1.44,1.44,0,0,1,1.037.369,1.244,1.244,0,0,1,.387.94,1.247,1.247,0,0,1-.391.949,1.443,1.443,0,0,1-1.033.369,1.443,1.443,0,0,1-1.033-.369A1.247,1.247,0,0,1-15.082-11.971ZM-7.91-9.51l.079,1.063A3.342,3.342,0,0,1-5.1-9.686a2.536,2.536,0,0,1,2.522,1.45A3.265,3.265,0,0,1,.281-9.686a2.836,2.836,0,0,1,2.3.9A4.141,4.141,0,0,1,3.34-6.073V0H.791V-6.064A1.811,1.811,0,0,0,.475-7.247,1.4,1.4,0,0,0-.642-7.62,1.585,1.585,0,0,0-2.224-6.53L-2.215,0h-2.54V-6.056a1.789,1.789,0,0,0-.325-1.2A1.416,1.416,0,0,0-6.187-7.62a1.646,1.646,0,0,0-1.564.9V0h-2.54V-9.51ZM7.972,0H5.423V-9.51H7.972Zm-2.7-11.971a1.251,1.251,0,0,1,.382-.94A1.436,1.436,0,0,1,6.7-13.28a1.44,1.44,0,0,1,1.037.369,1.244,1.244,0,0,1,.387.94,1.247,1.247,0,0,1-.391.949,1.443,1.443,0,0,1-1.033.369,1.443,1.443,0,0,1-1.033-.369A1.247,1.247,0,0,1,5.273-11.971ZM9.668-4.843a5.64,5.64,0,0,1,.545-2.522,3.989,3.989,0,0,1,1.569-1.714,4.577,4.577,0,0,1,2.377-.606A4.33,4.33,0,0,1,17.3-8.508a4.727,4.727,0,0,1,1.358,3.2l.018.65a4.97,4.97,0,0,1-1.222,3.511A4.247,4.247,0,0,1,14.177.176a4.268,4.268,0,0,1-3.283-1.318A5.058,5.058,0,0,1,9.668-4.729Zm2.54.18a3.555,3.555,0,0,0,.51,2.073,1.682,1.682,0,0,0,1.459.717,1.686,1.686,0,0,0,1.441-.709,3.89,3.89,0,0,0,.519-2.267,3.519,3.519,0,0,0-.519-2.06,1.686,1.686,0,0,0-1.459-.731,1.658,1.658,0,0,0-1.441.726A3.955,3.955,0,0,0,12.208-4.662Zm11.074-7.185V-9.51h1.626v1.863H23.282V-2.9a1.133,1.133,0,0,0,.2.756,1.015,1.015,0,0,0,.773.229A4.051,4.051,0,0,0,25-1.978V-.053a5.229,5.229,0,0,1-1.538.229,2.425,2.425,0,0,1-2.725-2.7V-7.646H19.354V-9.51h1.389v-2.338ZM29,0H26.455V-9.51H29Zm-2.7-11.971a1.251,1.251,0,0,1,.382-.94,1.436,1.436,0,0,1,1.042-.369,1.44,1.44,0,0,1,1.037.369,1.244,1.244,0,0,1,.387.94,1.247,1.247,0,0,1-.391.949,1.443,1.443,0,0,1-1.033.369,1.443,1.443,0,0,1-1.033-.369A1.247,1.247,0,0,1,26.306-11.971Zm13.351,7.3a5.7,5.7,0,0,1-1,3.52A3.2,3.2,0,0,1,35.965.176a2.963,2.963,0,0,1-2.329-1V3.656H31.1V-9.51h2.355l.088.932a2.985,2.985,0,0,1,2.408-1.107,3.22,3.22,0,0,1,2.733,1.3A5.858,5.858,0,0,1,39.656-4.8Zm-2.54-.185a3.743,3.743,0,0,0-.47-2.048,1.532,1.532,0,0,0-1.367-.721,1.663,1.663,0,0,0-1.644.914v3.894a1.692,1.692,0,0,0,1.661.94Q37.116-1.872,37.116-4.852Zm3.718.009a5.64,5.64,0,0,1,.545-2.522,3.989,3.989,0,0,1,1.569-1.714,4.577,4.577,0,0,1,2.377-.606,4.33,4.33,0,0,1,3.142,1.178,4.727,4.727,0,0,1,1.358,3.2l.018.65a4.97,4.97,0,0,1-1.222,3.511A4.247,4.247,0,0,1,45.343.176,4.268,4.268,0,0,1,42.06-1.143a5.058,5.058,0,0,1-1.226-3.586Zm2.54.18a3.555,3.555,0,0,0,.51,2.073,1.682,1.682,0,0,0,1.459.717,1.686,1.686,0,0,0,1.441-.709A3.89,3.89,0,0,0,47.3-4.847a3.519,3.519,0,0,0-.519-2.06,1.686,1.686,0,0,0-1.459-.731,1.658,1.658,0,0,0-1.441.726A3.955,3.955,0,0,0,43.374-4.662Zm8.165,3.414a1.279,1.279,0,0,1,.409-.984,1.45,1.45,0,0,1,1.024-.378A1.462,1.462,0,0,1,54-2.232a1.279,1.279,0,0,1,.409.984,1.261,1.261,0,0,1-.4.971A1.468,1.468,0,0,1,52.972.1a1.456,1.456,0,0,1-1.028-.374A1.261,1.261,0,0,1,51.539-1.248Z" transform="translate(1111.711 6632)" fill="#fff"/>
    <path id="Trazado_1000648" data-name="Trazado 1000648" d="M-83.285-5.546h-5.062v3.428h5.941V0h-8.578V-12.8h8.561v2.136h-5.924v3.05h5.063ZM-78.346,0h-2.549V-13.5h2.549Zm8.956-9.51.079,1.063a3.342,3.342,0,0,1,2.733-1.239,2.536,2.536,0,0,1,2.522,1.45A3.265,3.265,0,0,1-61.2-9.686a2.836,2.836,0,0,1,2.3.9,4.141,4.141,0,0,1,.756,2.711V0h-2.549V-6.064A1.811,1.811,0,0,0-61-7.247a1.4,1.4,0,0,0-1.116-.374A1.585,1.585,0,0,0-63.7-6.53L-63.694,0h-2.54V-6.056a1.789,1.789,0,0,0-.325-1.2,1.416,1.416,0,0,0-1.107-.369,1.646,1.646,0,0,0-1.564.9V0h-2.54V-9.51Zm12.806,4.667a5.64,5.64,0,0,1,.545-2.522A3.989,3.989,0,0,1-54.47-9.079a4.577,4.577,0,0,1,2.377-.606,4.33,4.33,0,0,1,3.142,1.178,4.727,4.727,0,0,1,1.358,3.2l.018.65A4.97,4.97,0,0,1-48.8-1.147,4.247,4.247,0,0,1-52.075.176a4.268,4.268,0,0,1-3.283-1.318,5.058,5.058,0,0,1-1.226-3.586Zm2.54.18a3.555,3.555,0,0,0,.51,2.073,1.682,1.682,0,0,0,1.459.717,1.686,1.686,0,0,0,1.441-.709,3.89,3.89,0,0,0,.519-2.267,3.519,3.519,0,0,0-.519-2.06,1.686,1.686,0,0,0-1.459-.731,1.658,1.658,0,0,0-1.441.726A3.955,3.955,0,0,0-54.044-4.662Zm7.638-.163a5.731,5.731,0,0,1,1-3.542A3.237,3.237,0,0,1-42.68-9.686a2.913,2.913,0,0,1,2.294,1.037V-13.5h2.549V0h-2.294l-.123-1.011A2.989,2.989,0,0,1-42.7.176a3.228,3.228,0,0,1-2.694-1.323A5.916,5.916,0,0,1-46.406-4.825Zm2.54.189A3.754,3.754,0,0,0-43.4-2.585a1.517,1.517,0,0,0,1.354.713,1.7,1.7,0,0,0,1.661-.995V-6.625a1.675,1.675,0,0,0-1.644-.995Q-43.866-7.62-43.866-4.636Zm7.6-.207a5.64,5.64,0,0,1,.545-2.522A3.989,3.989,0,0,1-34.15-9.079a4.577,4.577,0,0,1,2.377-.606A4.33,4.33,0,0,1-28.63-8.508a4.727,4.727,0,0,1,1.358,3.2l.018.65a4.97,4.97,0,0,1-1.222,3.511A4.247,4.247,0,0,1-31.755.176a4.268,4.268,0,0,1-3.283-1.318,5.058,5.058,0,0,1-1.226-3.586Zm2.54.18a3.555,3.555,0,0,0,.51,2.073,1.682,1.682,0,0,0,1.459.717,1.686,1.686,0,0,0,1.441-.709,3.89,3.89,0,0,0,.519-2.267,3.519,3.519,0,0,0-.519-2.06,1.686,1.686,0,0,0-1.459-.731,1.658,1.658,0,0,0-1.441.726A3.955,3.955,0,0,0-33.724-4.662Zm12.12-.163a5.731,5.731,0,0,1,1-3.542,3.237,3.237,0,0,1,2.729-1.318,2.913,2.913,0,0,1,2.294,1.037V-13.5h2.549V0h-2.294l-.123-1.011A2.989,2.989,0,0,1-17.895.176a3.228,3.228,0,0,1-2.694-1.323A5.916,5.916,0,0,1-21.6-4.825Zm2.54.189A3.754,3.754,0,0,0-18.6-2.585a1.517,1.517,0,0,0,1.354.713,1.7,1.7,0,0,0,1.661-.995V-6.625a1.675,1.675,0,0,0-1.644-.995Q-19.063-7.62-19.063-4.636ZM-6.688.176a4.668,4.668,0,0,1-3.406-1.283,4.561,4.561,0,0,1-1.314-3.419v-.246a5.745,5.745,0,0,1,.554-2.562,4.064,4.064,0,0,1,1.569-1.74A4.4,4.4,0,0,1-6.97-9.686,3.947,3.947,0,0,1-3.9-8.455,5,5,0,0,1-2.777-4.966v1.037H-8.833A2.36,2.36,0,0,0-8.09-2.435a2.245,2.245,0,0,0,1.569.563A2.742,2.742,0,0,0-4.228-2.936l1.248,1.4A3.813,3.813,0,0,1-4.526-.277,5.075,5.075,0,0,1-6.688.176Zm-.29-7.813A1.587,1.587,0,0,0-8.2-7.126a2.651,2.651,0,0,0-.6,1.466h3.533v-.2A1.891,1.891,0,0,0-5.73-7.174,1.638,1.638,0,0,0-6.979-7.638ZM7.523.176A4.668,4.668,0,0,1,4.118-1.107,4.561,4.561,0,0,1,2.8-4.526v-.246a5.745,5.745,0,0,1,.554-2.562,4.064,4.064,0,0,1,1.569-1.74,4.4,4.4,0,0,1,2.316-.611,3.947,3.947,0,0,1,3.072,1.23,5,5,0,0,1,1.121,3.489v1.037H5.379a2.36,2.36,0,0,0,.743,1.494,2.245,2.245,0,0,0,1.569.563A2.742,2.742,0,0,0,9.984-2.936l1.248,1.4A3.813,3.813,0,0,1,9.686-.277,5.075,5.075,0,0,1,7.523.176Zm-.29-7.813a1.587,1.587,0,0,0-1.226.512,2.651,2.651,0,0,0-.6,1.466H8.938v-.2a1.891,1.891,0,0,0-.457-1.311A1.638,1.638,0,0,0,7.233-7.638Zm9.264.967L18.1-9.51h2.716L18.105-4.852,20.927,0H18.2l-1.7-2.988L14.818,0H12.085l2.821-4.852-2.7-4.658h2.725Zm8.578-5.177V-9.51H26.7v1.863H25.075V-2.9a1.133,1.133,0,0,0,.2.756,1.015,1.015,0,0,0,.773.229,4.051,4.051,0,0,0,.747-.062V-.053A5.229,5.229,0,0,1,25.26.176a2.425,2.425,0,0,1-2.725-2.7V-7.646H21.146V-9.51h1.389v-2.338Zm8.385,4.72a6.9,6.9,0,0,0-.914-.07,1.86,1.86,0,0,0-1.89.976V0h-2.54V-9.51h2.4l.07,1.134A2.354,2.354,0,0,1,32.7-9.686a2.662,2.662,0,0,1,.791.114ZM39.929,0a2.821,2.821,0,0,1-.255-.853,3.073,3.073,0,0,1-2.4,1.028,3.376,3.376,0,0,1-2.316-.809,2.6,2.6,0,0,1-.918-2.039,2.687,2.687,0,0,1,1.121-2.32A5.529,5.529,0,0,1,38.4-5.81h1.169v-.545a1.567,1.567,0,0,0-.338-1.055,1.331,1.331,0,0,0-1.068-.4,1.513,1.513,0,0,0-1.006.308,1.045,1.045,0,0,0-.365.844h-2.54a2.551,2.551,0,0,1,.51-1.529,3.37,3.37,0,0,1,1.441-1.1,5.253,5.253,0,0,1,2.092-.4,4.15,4.15,0,0,1,2.791.883,3.09,3.09,0,0,1,1.033,2.483V-2.2A4.546,4.546,0,0,0,42.5-.149V0Zm-2.1-1.767a2.188,2.188,0,0,0,1.037-.25,1.645,1.645,0,0,0,.7-.672V-4.324h-.949q-1.907,0-2.03,1.318l-.009.149a1.017,1.017,0,0,0,.334.782A1.3,1.3,0,0,0,37.828-1.767Zm10.2-.105a1.666,1.666,0,0,0,1.143-.387,1.355,1.355,0,0,0,.457-1.028H52a3.258,3.258,0,0,1-.527,1.771A3.48,3.48,0,0,1,50.058-.268a4.442,4.442,0,0,1-1.991.444,4.129,4.129,0,0,1-3.217-1.3A5.13,5.13,0,0,1,43.673-4.7v-.167a5.071,5.071,0,0,1,1.169-3.507,4.08,4.08,0,0,1,3.208-1.31A4,4,0,0,1,50.911-8.67,3.594,3.594,0,0,1,52-5.968H49.623a1.745,1.745,0,0,0-.457-1.206,1.524,1.524,0,0,0-1.16-.464,1.53,1.53,0,0,0-1.34.647,3.749,3.749,0,0,0-.453,2.1v.264a3.8,3.8,0,0,0,.448,2.113A1.549,1.549,0,0,0,48.023-1.872Zm9.387,0a1.666,1.666,0,0,0,1.143-.387,1.355,1.355,0,0,0,.457-1.028h2.382a3.258,3.258,0,0,1-.527,1.771A3.48,3.48,0,0,1,59.445-.268a4.442,4.442,0,0,1-1.991.444,4.129,4.129,0,0,1-3.217-1.3A5.13,5.13,0,0,1,53.06-4.7v-.167a5.071,5.071,0,0,1,1.169-3.507,4.08,4.08,0,0,1,3.208-1.31A4,4,0,0,1,60.3-8.67a3.594,3.594,0,0,1,1.094,2.7H59.01a1.745,1.745,0,0,0-.457-1.206,1.524,1.524,0,0,0-1.16-.464,1.53,1.53,0,0,0-1.34.647,3.749,3.749,0,0,0-.453,2.1v.264a3.8,3.8,0,0,0,.448,2.113A1.549,1.549,0,0,0,57.41-1.872ZM65.522,0H62.974V-9.51h2.549Zm-2.7-11.971a1.251,1.251,0,0,1,.382-.94,1.436,1.436,0,0,1,1.042-.369,1.44,1.44,0,0,1,1.037.369,1.244,1.244,0,0,1,.387.94,1.247,1.247,0,0,1-.391.949,1.443,1.443,0,0,1-1.033.369,1.443,1.443,0,0,1-1.033-.369A1.247,1.247,0,0,1,62.824-11.971Zm4.395,7.128a5.64,5.64,0,0,1,.545-2.522,3.989,3.989,0,0,1,1.569-1.714,4.577,4.577,0,0,1,2.377-.606,4.33,4.33,0,0,1,3.142,1.178,4.727,4.727,0,0,1,1.358,3.2l.018.65a4.97,4.97,0,0,1-1.222,3.511A4.247,4.247,0,0,1,71.728.176a4.268,4.268,0,0,1-3.283-1.318,5.058,5.058,0,0,1-1.226-3.586Zm2.54.18a3.555,3.555,0,0,0,.51,2.073,1.682,1.682,0,0,0,1.459.717,1.686,1.686,0,0,0,1.441-.709,3.89,3.89,0,0,0,.519-2.267,3.519,3.519,0,0,0-.519-2.06,1.686,1.686,0,0,0-1.459-.731,1.658,1.658,0,0,0-1.441.726A3.955,3.955,0,0,0,69.759-4.662ZM72.211-13.5h2.769l-2.435,2.725H70.479ZM80.13-9.51l.079,1.1a3.32,3.32,0,0,1,2.733-1.274,2.759,2.759,0,0,1,2.25.888,4.142,4.142,0,0,1,.756,2.654V0h-2.54V-6.082a1.648,1.648,0,0,0-.352-1.173,1.574,1.574,0,0,0-1.169-.365,1.747,1.747,0,0,0-1.608.914V0h-2.54V-9.51ZM88-1.248a1.279,1.279,0,0,1,.409-.984,1.45,1.45,0,0,1,1.024-.378,1.462,1.462,0,0,1,1.033.378,1.279,1.279,0,0,1,.409.984,1.261,1.261,0,0,1-.4.971A1.468,1.468,0,0,1,89.438.1a1.456,1.456,0,0,1-1.028-.374A1.261,1.261,0,0,1,88-1.248Z" transform="translate(799.711 6632)" fill="#12263f"/>
  </g>
</svg>
