<svg xmlns="http://www.w3.org/2000/svg" width="1228" height="128.146" viewBox="0 0 1228 128.146">
  <g id="Grupo_1178344" data-name="Grupo 1178344" transform="translate(-185.711 -11958)">
    <g id="Trazado_1000678" data-name="Trazado 1000678" transform="translate(1235.711 11996)" fill="none">
      <path d="M0,0H118V43H0Z" stroke="none"/>
      <path d="M 1 1 L 1 42 L 117 42 L 117 1 L 1 1 M 0 0 L 118 0 L 118 43 L 0 43 L 0 0 Z" stroke="none" fill="#12263f"/>
    </g>
    <path id="Trazado_1000696" data-name="Trazado 1000696" d="M0,0H123V55H0Z" transform="translate(185.711 11958)" fill="#3f2425"/>
    <path id="Trazado_1000688" data-name="Trazado 1000688" d="M0,0H124V55H0Z" transform="translate(676.711 11958)" fill="#d8bdbe"/>
    <path id="Trazado_1000692" data-name="Trazado 1000692" d="M0,0H123V55H0Z" transform="translate(431.711 11958)" fill="#8d5153"/>
    <path id="Trazado_1000684" data-name="Trazado 1000684" d="M0,0H123V55H0Z" transform="translate(922.711 11958)" fill="#e5d5ba"/>
    <path id="Trazado_1000680" data-name="Trazado 1000680" d="M0,0H123V55H0Z" transform="translate(1168.711 11958)" fill="#b7aa94"/>
    <path id="Trazado_1000694" data-name="Trazado 1000694" d="M0,0H123V55H0Z" transform="translate(308.711 11958)" fill="#6e3f40"/>
    <path id="Trazado_1000686" data-name="Trazado 1000686" d="M0,0H122V55H0Z" transform="translate(800.711 11958)" fill="#ebdede"/>
    <path id="Trazado_1000690" data-name="Trazado 1000690" d="M0,0H122V55H0Z" transform="translate(554.711 11958)" fill="#9d5a5c"/>
    <path id="Trazado_1000682" data-name="Trazado 1000682" d="M0,0H123V55H0Z" transform="translate(1045.711 11958)" fill="#cec0a7"/>
    <path id="Trazado_1000676" data-name="Trazado 1000676" d="M0,0H122V55H0Z" transform="translate(1291.711 11958)" fill="#a19582"/>
    <path id="Trazado_1000697" data-name="Trazado 1000697" d="M-19.64-4.358h-4.219V0h-2.2V-10.664h6.943v1.78h-4.746V-6.13h4.219Zm4,2.593h4.666V0h-6.863V-10.664h2.2ZM-1.425-5.09a6.438,6.438,0,0,1-.557,2.761A4.192,4.192,0,0,1-3.574-.5,4.407,4.407,0,0,1-5.951.146,4.437,4.437,0,0,1-8.317-.491a4.233,4.233,0,0,1-1.611-1.82,6.253,6.253,0,0,1-.579-2.721v-.527a6.4,6.4,0,0,1,.568-2.772,4.226,4.226,0,0,1,1.6-1.838,4.412,4.412,0,0,1,2.369-.641A4.412,4.412,0,0,1-3.6-10.17a4.226,4.226,0,0,1,1.6,1.838,6.386,6.386,0,0,1,.568,2.765Zm-2.227-.483a4.488,4.488,0,0,0-.6-2.549,1.957,1.957,0,0,0-1.714-.872,1.958,1.958,0,0,0-1.707.861A4.436,4.436,0,0,0-8.28-5.61v.52a4.544,4.544,0,0,0,.6,2.534,1.952,1.952,0,0,0,1.729.9,1.935,1.935,0,0,0,1.7-.868,4.517,4.517,0,0,0,.6-2.531ZM4.12-3.9H2.369V0H.172V-10.664H4.135a4.479,4.479,0,0,1,2.915.842,2.907,2.907,0,0,1,1.025,2.38A3.281,3.281,0,0,1,7.6-5.621,3.222,3.222,0,0,1,6.171-4.46L8.478-.1V0H6.119Zm-1.75-1.78H4.142A1.815,1.815,0,0,0,5.424-6.1a1.505,1.505,0,0,0,.454-1.161,1.611,1.611,0,0,0-.428-1.187,1.781,1.781,0,0,0-1.315-.432H2.369ZM15.765-2.2H11.913L11.18,0H8.844l3.97-10.664H14.85L18.842,0H16.505Zm-3.259-1.78h2.666l-1.34-3.992Zm9.529,2.212H26.7V0H19.838V-10.664h2.2Z" transform="translate(249.711 11992)" fill="#fff"/>
    <path id="Trazado_1000691" data-name="Trazado 1000691" d="M-9.258-5.09a6.438,6.438,0,0,1-.557,2.761A4.192,4.192,0,0,1-11.407-.5a4.407,4.407,0,0,1-2.377.645A4.437,4.437,0,0,1-16.15-.491a4.233,4.233,0,0,1-1.611-1.82,6.253,6.253,0,0,1-.579-2.721v-.527a6.4,6.4,0,0,1,.568-2.772,4.226,4.226,0,0,1,1.6-1.838,4.412,4.412,0,0,1,2.369-.641,4.412,4.412,0,0,1,2.369.641,4.226,4.226,0,0,1,1.6,1.838,6.386,6.386,0,0,1,.568,2.765Zm-2.227-.483a4.488,4.488,0,0,0-.6-2.549A1.957,1.957,0,0,0-13.8-8.994a1.958,1.958,0,0,0-1.707.861,4.436,4.436,0,0,0-.608,2.523v.52a4.544,4.544,0,0,0,.6,2.534,1.952,1.952,0,0,0,1.729.9,1.935,1.935,0,0,0,1.7-.868,4.517,4.517,0,0,0,.6-2.531Zm6.021,3.809H-.8V0H-7.661V-10.664h2.2ZM8.752-5.09A6.438,6.438,0,0,1,8.2-2.329,4.192,4.192,0,0,1,6.6-.5,4.407,4.407,0,0,1,4.226.146,4.437,4.437,0,0,1,1.86-.491,4.233,4.233,0,0,1,.249-2.311,6.253,6.253,0,0,1-.33-5.032v-.527A6.4,6.4,0,0,1,.238-8.331a4.226,4.226,0,0,1,1.6-1.838,4.412,4.412,0,0,1,2.369-.641,4.412,4.412,0,0,1,2.369.641,4.226,4.226,0,0,1,1.6,1.838,6.386,6.386,0,0,1,.568,2.765ZM6.526-5.574a4.488,4.488,0,0,0-.6-2.549,1.957,1.957,0,0,0-1.714-.872A1.958,1.958,0,0,0,2.5-8.134,4.436,4.436,0,0,0,1.9-5.61v.52a4.544,4.544,0,0,0,.6,2.534,1.952,1.952,0,0,0,1.729.9,1.935,1.935,0,0,0,1.7-.868,4.517,4.517,0,0,0,.6-2.531ZM14.3-3.9h-1.75V0h-2.2V-10.664h3.962a4.479,4.479,0,0,1,2.915.842,2.907,2.907,0,0,1,1.025,2.38,3.281,3.281,0,0,1-.472,1.82A3.222,3.222,0,0,1,16.348-4.46L18.655-.1V0H16.3Zm-1.75-1.78h1.772A1.815,1.815,0,0,0,15.6-6.1a1.505,1.505,0,0,0,.454-1.161,1.611,1.611,0,0,0-.428-1.187,1.781,1.781,0,0,0-1.315-.432H12.546ZM-21.445,14.91a6.425,6.425,0,0,1-.483,2.6,4.457,4.457,0,0,1-1.34,1.769l1.772,1.392L-22.9,21.9l-2.271-1.824a4.806,4.806,0,0,1-.806.066,4.437,4.437,0,0,1-2.366-.637,4.233,4.233,0,0,1-1.611-1.82,6.253,6.253,0,0,1-.579-2.721v-.527a6.4,6.4,0,0,1,.568-2.772,4.226,4.226,0,0,1,1.6-1.838,4.412,4.412,0,0,1,2.369-.641,4.412,4.412,0,0,1,2.369.641,4.226,4.226,0,0,1,1.6,1.838,6.386,6.386,0,0,1,.568,2.765Zm-2.227-.483a4.488,4.488,0,0,0-.6-2.549,1.957,1.957,0,0,0-1.714-.872,1.958,1.958,0,0,0-1.707.861A4.436,4.436,0,0,0-28.3,14.39v.52a4.544,4.544,0,0,0,.6,2.534,1.952,1.952,0,0,0,1.729.9,1.935,1.935,0,0,0,1.7-.868,4.517,4.517,0,0,0,.6-2.531Zm11.909-5.09V16.36a3.6,3.6,0,0,1-1.095,2.769,4.221,4.221,0,0,1-2.992,1.018,4.269,4.269,0,0,1-2.966-.989,3.535,3.535,0,0,1-1.121-2.717v-7.1h2.2v7.039a2.032,2.032,0,0,0,.5,1.527,1.926,1.926,0,0,0,1.388.48q1.853,0,1.882-1.948v-7.1ZM-7.625,20h-2.2V9.336h2.2ZM-8.306,6.458H-6L-8.027,8.728H-9.749Zm5.588,2.878L.022,17.07,2.747,9.336H5.632V20h-2.2V17.085l.22-5.032L.769,20H-.74l-2.871-7.939.22,5.024V20h-2.2V9.336ZM9.888,20H7.69V9.336h2.2ZM20.3,16.448a3.774,3.774,0,0,1-1.271,2.71A4.463,4.463,0,0,1,16,20.146a4.013,4.013,0,0,1-3.226-1.381,5.661,5.661,0,0,1-1.176-3.79v-.652a6.393,6.393,0,0,1,.542-2.71,4.062,4.062,0,0,1,1.549-1.8,4.339,4.339,0,0,1,2.34-.626,4.348,4.348,0,0,1,2.974.989,4.055,4.055,0,0,1,1.3,2.776h-2.2a2.227,2.227,0,0,0-.575-1.5,2.129,2.129,0,0,0-1.505-.465,1.867,1.867,0,0,0-1.644.787,4.413,4.413,0,0,0-.56,2.443v.806a4.723,4.723,0,0,0,.524,2.527,1.832,1.832,0,0,0,1.652.8,2.169,2.169,0,0,0,1.52-.465,2.1,2.1,0,0,0,.575-1.439ZM30.5,14.91a6.438,6.438,0,0,1-.557,2.761A4.192,4.192,0,0,1,28.348,19.5a4.707,4.707,0,0,1-4.742.007,4.233,4.233,0,0,1-1.611-1.82,6.253,6.253,0,0,1-.579-2.721v-.527a6.4,6.4,0,0,1,.568-2.772,4.226,4.226,0,0,1,1.6-1.838,4.7,4.7,0,0,1,4.739,0,4.226,4.226,0,0,1,1.6,1.838,6.386,6.386,0,0,1,.568,2.765Zm-2.227-.483a4.488,4.488,0,0,0-.6-2.549,2.122,2.122,0,0,0-3.42-.011,4.436,4.436,0,0,0-.608,2.523v.52a4.544,4.544,0,0,0,.6,2.534,2.1,2.1,0,0,0,3.428.033,4.517,4.517,0,0,0,.6-2.531Z" transform="translate(614.711 11982)" fill="#fff"/>
    <path id="Trazado_1000695" data-name="Trazado 1000695" d="M-25.261-1.765H-20.6V0h-6.863V-10.664h2.2ZM-12.92-4.622h-4.219v2.856h4.951V0h-7.148V-10.664H-12.2v1.78h-4.937v2.542h4.219ZM-2.227,0h-2.2L-8.7-7.017V0h-2.2V-10.664h2.2l4.285,7.031v-7.031h2.19ZM-3.779-13.418a2.05,2.05,0,0,1-.483,1.388,1.5,1.5,0,0,1-1.179.56,1.789,1.789,0,0,1-.494-.062,3.317,3.317,0,0,1-.6-.267,3.22,3.22,0,0,0-.549-.253,1.343,1.343,0,0,0-.366-.048.587.587,0,0,0-.436.183.712.712,0,0,0-.179.52l-1.23-.073a2.081,2.081,0,0,1,.48-1.384,1.48,1.48,0,0,1,1.176-.571,1.513,1.513,0,0,1,.414.055,4.557,4.557,0,0,1,.634.267,4.118,4.118,0,0,0,.608.256,1.387,1.387,0,0,0,.352.044.618.618,0,0,0,.443-.179A.683.683,0,0,0-5-13.5ZM8.452-5.09A6.438,6.438,0,0,1,7.9-2.329,4.192,4.192,0,0,1,6.3-.5,4.407,4.407,0,0,1,3.926.146,4.437,4.437,0,0,1,1.56-.491,4.233,4.233,0,0,1-.051-2.311,6.253,6.253,0,0,1-.63-5.032v-.527A6.4,6.4,0,0,1-.062-8.331a4.226,4.226,0,0,1,1.6-1.838,4.412,4.412,0,0,1,2.369-.641,4.412,4.412,0,0,1,2.369.641,4.226,4.226,0,0,1,1.6,1.838,6.386,6.386,0,0,1,.568,2.765ZM6.226-5.574a4.488,4.488,0,0,0-.6-2.549,1.957,1.957,0,0,0-1.714-.872A1.958,1.958,0,0,0,2.2-8.134,4.436,4.436,0,0,0,1.6-5.61v.52a4.544,4.544,0,0,0,.6,2.534,1.952,1.952,0,0,0,1.729.9,1.935,1.935,0,0,0,1.7-.868,4.517,4.517,0,0,0,.6-2.531ZM15.579-2.8a1.128,1.128,0,0,0-.439-.956,5.764,5.764,0,0,0-1.582-.7,11.215,11.215,0,0,1-1.809-.729A2.956,2.956,0,0,1,9.932-7.83a2.575,2.575,0,0,1,.487-1.542,3.177,3.177,0,0,1,1.4-1.058,5.265,5.265,0,0,1,2.047-.381A4.793,4.793,0,0,1,15.9-10.4a3.242,3.242,0,0,1,1.388,1.168,3.057,3.057,0,0,1,.494,1.714h-2.2a1.438,1.438,0,0,0-.461-1.139,1.9,1.9,0,0,0-1.3-.406,2.026,2.026,0,0,0-1.252.341,1.074,1.074,0,0,0-.447.9,1.029,1.029,0,0,0,.524.872,5.916,5.916,0,0,0,1.542.659,6.661,6.661,0,0,1,2.732,1.4,2.786,2.786,0,0,1,.857,2.08A2.566,2.566,0,0,1,16.736-.641a4.585,4.585,0,0,1-2.82.787A5.445,5.445,0,0,1,11.675-.3a3.546,3.546,0,0,1-1.542-1.234A3.161,3.161,0,0,1,9.6-3.354h2.2q0,1.765,2.109,1.765a2.052,2.052,0,0,0,1.223-.319A1.037,1.037,0,0,0,15.579-2.8Zm9.712.6H21.438L20.706,0H18.369l3.97-10.664h2.036L28.367,0H26.03Zm-3.259-1.78H24.7l-1.34-3.992Zm-55.3,18.887a6.438,6.438,0,0,1-.557,2.761A4.192,4.192,0,0,1-35.416,19.5a4.407,4.407,0,0,1-2.377.645,4.437,4.437,0,0,1-2.366-.637,4.233,4.233,0,0,1-1.611-1.82,6.253,6.253,0,0,1-.579-2.721v-.527a6.4,6.4,0,0,1,.568-2.772,4.226,4.226,0,0,1,1.6-1.838,4.412,4.412,0,0,1,2.369-.641,4.412,4.412,0,0,1,2.369.641,4.226,4.226,0,0,1,1.6,1.838,6.386,6.386,0,0,1,.568,2.765Zm-2.227-.483a4.488,4.488,0,0,0-.6-2.549,1.957,1.957,0,0,0-1.714-.872,1.958,1.958,0,0,0-1.707.861,4.436,4.436,0,0,0-.608,2.523v.52a4.544,4.544,0,0,0,.6,2.534,1.952,1.952,0,0,0,1.729.9,1.935,1.935,0,0,0,1.7-.868,4.517,4.517,0,0,0,.6-2.531Zm11.506,1.67h-1.75V20h-2.2V9.336h3.962a4.479,4.479,0,0,1,2.915.842,2.907,2.907,0,0,1,1.025,2.38,3.281,3.281,0,0,1-.472,1.82,3.222,3.222,0,0,1-1.432,1.161l2.307,4.358V20h-2.358Zm-1.75-1.78h1.772a1.815,1.815,0,0,0,1.282-.421,1.505,1.505,0,0,0,.454-1.161,1.611,1.611,0,0,0-.428-1.187,1.781,1.781,0,0,0-1.315-.432h-1.765Zm13.792,1.062h-4.219v2.856h4.951V20h-7.148V9.336h7.134v1.78h-4.937v2.542h4.219ZM-4.395,17.2a1.128,1.128,0,0,0-.439-.956,5.764,5.764,0,0,0-1.582-.7,11.215,11.215,0,0,1-1.809-.729,2.956,2.956,0,0,1-1.816-2.644,2.575,2.575,0,0,1,.487-1.542,3.177,3.177,0,0,1,1.4-1.058,5.265,5.265,0,0,1,2.047-.381A4.793,4.793,0,0,1-4.072,9.6a3.242,3.242,0,0,1,1.388,1.168,3.057,3.057,0,0,1,.494,1.714h-2.2a1.438,1.438,0,0,0-.461-1.139,1.9,1.9,0,0,0-1.3-.406,2.026,2.026,0,0,0-1.252.341,1.074,1.074,0,0,0-.447.9,1.029,1.029,0,0,0,.524.872,5.916,5.916,0,0,0,1.542.659,6.661,6.661,0,0,1,2.732,1.4,2.786,2.786,0,0,1,.857,2.08,2.566,2.566,0,0,1-1.047,2.172,4.585,4.585,0,0,1-2.82.787A5.445,5.445,0,0,1-8.3,19.7,3.546,3.546,0,0,1-9.84,18.462a3.161,3.161,0,0,1-.531-1.816h2.2q0,1.765,2.109,1.765a2.052,2.052,0,0,0,1.223-.319A1.037,1.037,0,0,0-4.395,17.2ZM1.633,20h-2.2V9.336h2.2Zm10.708,0h-2.2L5.867,12.983V20h-2.2V9.336h2.2l4.285,7.031V9.336h2.19ZM23.02,14.91a6.438,6.438,0,0,1-.557,2.761A4.192,4.192,0,0,1,20.87,19.5a4.707,4.707,0,0,1-4.742.007,4.233,4.233,0,0,1-1.611-1.82,6.253,6.253,0,0,1-.579-2.721v-.527a6.4,6.4,0,0,1,.568-2.772,4.226,4.226,0,0,1,1.6-1.838,4.7,4.7,0,0,1,4.739,0,4.226,4.226,0,0,1,1.6,1.838,6.386,6.386,0,0,1,.568,2.765Zm-2.227-.483a4.488,4.488,0,0,0-.6-2.549,2.122,2.122,0,0,0-3.42-.011,4.436,4.436,0,0,0-.608,2.523v.52a4.544,4.544,0,0,0,.6,2.534,2.1,2.1,0,0,0,3.428.033,4.517,4.517,0,0,0,.6-2.531ZM30.146,17.2a1.128,1.128,0,0,0-.439-.956,5.764,5.764,0,0,0-1.582-.7,11.215,11.215,0,0,1-1.809-.729A2.956,2.956,0,0,1,24.5,12.17a2.575,2.575,0,0,1,.487-1.542,3.177,3.177,0,0,1,1.4-1.058,5.265,5.265,0,0,1,2.047-.381,4.793,4.793,0,0,1,2.036.414,3.242,3.242,0,0,1,1.388,1.168,3.057,3.057,0,0,1,.494,1.714h-2.2a1.438,1.438,0,0,0-.461-1.139,1.9,1.9,0,0,0-1.3-.406,2.026,2.026,0,0,0-1.252.341,1.074,1.074,0,0,0-.447.9,1.029,1.029,0,0,0,.524.872,5.916,5.916,0,0,0,1.542.659,6.661,6.661,0,0,1,2.732,1.4,2.786,2.786,0,0,1,.857,2.08A2.566,2.566,0,0,1,31.3,19.359a4.585,4.585,0,0,1-2.82.787,5.445,5.445,0,0,1-2.241-.45A3.546,3.546,0,0,1,24.7,18.462a3.161,3.161,0,0,1-.531-1.816h2.2q0,1.765,2.109,1.765a2.052,2.052,0,0,0,1.223-.319A1.037,1.037,0,0,0,30.146,17.2Zm9.712.6H36.006L35.273,20H32.937l3.97-10.664h2.036L42.935,20H40.6ZM36.6,16.023h2.666l-1.34-3.992Z" transform="translate(370.711 11981)" fill="#fff"/>
    <path id="Trazado_1000689" data-name="Trazado 1000689" d="M-48.252-10.664l2.739,7.734,2.725-7.734H-39.9V0h-2.2V-2.915l.22-5.032L-44.766,0h-1.509l-2.871-7.939.22,5.024V0h-2.2V-10.664Zm16.685,6.042h-4.219v2.856h4.951V0h-7.148V-10.664h7.134v1.78h-4.937v2.542h4.219ZM-20.874,0h-2.2l-4.277-7.017V0h-2.2V-10.664h2.2l4.285,7.031v-7.031h2.19Zm9.946-8.884h-3.267V0h-2.2V-8.884h-3.223v-1.78h8.687ZM-1.121-5.09a6.438,6.438,0,0,1-.557,2.761A4.192,4.192,0,0,1-3.27-.5,4.407,4.407,0,0,1-5.647.146,4.437,4.437,0,0,1-8.013-.491a4.233,4.233,0,0,1-1.611-1.82A6.253,6.253,0,0,1-10.2-5.032v-.527a6.4,6.4,0,0,1,.568-2.772,4.226,4.226,0,0,1,1.6-1.838,4.412,4.412,0,0,1,2.369-.641,4.412,4.412,0,0,1,2.369.641,4.226,4.226,0,0,1,1.6,1.838,6.386,6.386,0,0,1,.568,2.765Zm-2.227-.483a4.488,4.488,0,0,0-.6-2.549,1.957,1.957,0,0,0-1.714-.872,1.958,1.958,0,0,0-1.707.861A4.436,4.436,0,0,0-7.976-5.61v.52a4.544,4.544,0,0,0,.6,2.534,1.952,1.952,0,0,0,1.729.9,1.935,1.935,0,0,0,1.7-.868,4.517,4.517,0,0,0,.6-2.531ZM2.673-1.765H7.339V0H.476V-10.664h2.2ZM14.758-2.2H10.906L10.173,0H7.837l3.97-10.664h2.036L17.834,0H15.5ZM11.5-3.977h2.666l-1.34-3.992ZM18.831,0V-10.664h3.281a4.983,4.983,0,0,1,2.516.634,4.418,4.418,0,0,1,1.732,1.8,5.557,5.557,0,0,1,.623,2.655v.491a5.573,5.573,0,0,1-.612,2.644A4.38,4.38,0,0,1,24.646-.645,5.021,5.021,0,0,1,22.134,0Zm2.2-8.884v7.119H22.09a2.386,2.386,0,0,0,1.97-.842,3.806,3.806,0,0,0,.7-2.41v-.564a3.867,3.867,0,0,0-.674-2.465,2.378,2.378,0,0,0-1.97-.839ZM37.339-5.09a6.438,6.438,0,0,1-.557,2.761A4.192,4.192,0,0,1,35.189-.5a4.407,4.407,0,0,1-2.377.645,4.437,4.437,0,0,1-2.366-.637,4.233,4.233,0,0,1-1.611-1.82,6.253,6.253,0,0,1-.579-2.721v-.527a6.4,6.4,0,0,1,.568-2.772,4.226,4.226,0,0,1,1.6-1.838,4.412,4.412,0,0,1,2.369-.641,4.412,4.412,0,0,1,2.369.641,4.226,4.226,0,0,1,1.6,1.838,6.386,6.386,0,0,1,.568,2.765Zm-2.227-.483a4.488,4.488,0,0,0-.6-2.549A1.957,1.957,0,0,0,32.8-8.994a1.958,1.958,0,0,0-1.707.861,4.436,4.436,0,0,0-.608,2.523v.52a4.544,4.544,0,0,0,.6,2.534,1.952,1.952,0,0,0,1.729.9,1.935,1.935,0,0,0,1.7-.868,4.517,4.517,0,0,0,.6-2.531Zm16.318.483a6.438,6.438,0,0,1-.557,2.761A4.192,4.192,0,0,1,49.281-.5,4.407,4.407,0,0,1,46.9.146a4.437,4.437,0,0,1-2.366-.637,4.233,4.233,0,0,1-1.611-1.82,6.253,6.253,0,0,1-.579-2.721v-.527a6.4,6.4,0,0,1,.568-2.772,4.226,4.226,0,0,1,1.6-1.838,4.412,4.412,0,0,1,2.369-.641,4.412,4.412,0,0,1,2.369.641,4.226,4.226,0,0,1,1.6,1.838,6.386,6.386,0,0,1,.568,2.765ZM49.2-5.574a4.488,4.488,0,0,0-.6-2.549,1.957,1.957,0,0,0-1.714-.872,1.958,1.958,0,0,0-1.707.861,4.436,4.436,0,0,0-.608,2.523v.52a4.544,4.544,0,0,0,.6,2.534,1.952,1.952,0,0,0,1.729.9,1.935,1.935,0,0,0,1.7-.868,4.517,4.517,0,0,0,.6-2.531ZM-45.937,16.1h-1.75V20h-2.2V9.336h3.962a4.479,4.479,0,0,1,2.915.842,2.907,2.907,0,0,1,1.025,2.38,3.281,3.281,0,0,1-.472,1.82,3.222,3.222,0,0,1-1.432,1.161L-41.58,19.9V20h-2.358Zm-1.75-1.78h1.772a1.815,1.815,0,0,0,1.282-.421,1.505,1.505,0,0,0,.454-1.161,1.611,1.611,0,0,0-.428-1.187,1.781,1.781,0,0,0-1.315-.432h-1.765ZM-33.9,15.378h-4.219v2.856h4.951V20h-7.148V9.336h7.134v1.78h-4.937v2.542H-33.9Zm8.438.264h-4.219V20h-2.2V9.336h6.943v1.78h-4.746V13.87h4.219Zm5.75.454h-1.75V20h-2.2V9.336h3.962a4.479,4.479,0,0,1,2.915.842,2.907,2.907,0,0,1,1.025,2.38,3.281,3.281,0,0,1-.472,1.82,3.222,3.222,0,0,1-1.432,1.161l2.307,4.358V20H-17.71Zm-1.75-1.78h1.772a1.815,1.815,0,0,0,1.282-.421,1.505,1.505,0,0,0,.454-1.161,1.611,1.611,0,0,0-.428-1.187,1.781,1.781,0,0,0-1.315-.432H-21.46Zm13.792,1.062h-4.219v2.856h4.951V20h-7.148V9.336h7.134v1.78h-4.937v2.542h4.219ZM-.117,17.2a1.128,1.128,0,0,0-.439-.956,5.764,5.764,0,0,0-1.582-.7,11.215,11.215,0,0,1-1.809-.729A2.956,2.956,0,0,1-5.764,12.17a2.575,2.575,0,0,1,.487-1.542,3.177,3.177,0,0,1,1.4-1.058,5.265,5.265,0,0,1,2.047-.381A4.793,4.793,0,0,1,.205,9.6a3.242,3.242,0,0,1,1.388,1.168,3.057,3.057,0,0,1,.494,1.714H-.11a1.438,1.438,0,0,0-.461-1.139,1.9,1.9,0,0,0-1.3-.406,2.026,2.026,0,0,0-1.252.341,1.074,1.074,0,0,0-.447.9,1.029,1.029,0,0,0,.524.872,5.916,5.916,0,0,0,1.542.659,6.661,6.661,0,0,1,2.732,1.4,2.786,2.786,0,0,1,.857,2.08A2.566,2.566,0,0,1,1.04,19.359a4.585,4.585,0,0,1-2.82.787,5.445,5.445,0,0,1-2.241-.45,3.546,3.546,0,0,1-1.542-1.234,3.161,3.161,0,0,1-.531-1.816h2.2q0,1.765,2.109,1.765a2.052,2.052,0,0,0,1.223-.319A1.037,1.037,0,0,0-.117,17.2Zm12.063-.754a3.774,3.774,0,0,1-1.271,2.71,4.463,4.463,0,0,1-3.021.989,4.013,4.013,0,0,1-3.226-1.381,5.661,5.661,0,0,1-1.176-3.79v-.652a6.393,6.393,0,0,1,.542-2.71,4.062,4.062,0,0,1,1.549-1.8,4.339,4.339,0,0,1,2.34-.626,4.348,4.348,0,0,1,2.974.989,4.055,4.055,0,0,1,1.3,2.776h-2.2a2.227,2.227,0,0,0-.575-1.5,2.129,2.129,0,0,0-1.505-.465,1.867,1.867,0,0,0-1.644.787,4.413,4.413,0,0,0-.56,2.443v.806A4.723,4.723,0,0,0,6,17.554a1.832,1.832,0,0,0,1.652.8,2.169,2.169,0,0,0,1.52-.465,2.1,2.1,0,0,0,.575-1.439ZM19.409,17.8H15.557L14.824,20H12.488l3.97-10.664h2.036L22.485,20H20.149Zm-3.259-1.78h2.666l-1.34-3.992Zm16,3.977h-2.2l-4.277-7.017V20h-2.2V9.336h2.2l4.285,7.031V9.336h2.19ZM42.1,11.116H38.833V20h-2.2V11.116H33.413V9.336H42.1Zm7.668,4.263H45.549v2.856H50.5V20H43.352V9.336h7.134v1.78H45.549v2.542h4.219Z" transform="translate(739.711 11981)" fill="#12263f"/>
    <path id="Trazado_1000685" data-name="Trazado 1000685" d="M-33.351-5.09a6.425,6.425,0,0,1-.483,2.6,4.457,4.457,0,0,1-1.34,1.769L-33.4.667-34.8,1.9-37.072.081a4.806,4.806,0,0,1-.806.066,4.437,4.437,0,0,1-2.366-.637,4.233,4.233,0,0,1-1.611-1.82,6.253,6.253,0,0,1-.579-2.721v-.527a6.4,6.4,0,0,1,.568-2.772,4.226,4.226,0,0,1,1.6-1.838,4.412,4.412,0,0,1,2.369-.641,4.412,4.412,0,0,1,2.369.641,4.226,4.226,0,0,1,1.6,1.838,6.386,6.386,0,0,1,.568,2.765Zm-2.227-.483a4.488,4.488,0,0,0-.6-2.549,1.957,1.957,0,0,0-1.714-.872,1.958,1.958,0,0,0-1.707.861,4.436,4.436,0,0,0-.608,2.523v.52a4.544,4.544,0,0,0,.6,2.534,1.952,1.952,0,0,0,1.729.9,1.935,1.935,0,0,0,1.7-.868,4.517,4.517,0,0,0,.6-2.531Zm11.909-5.09V-3.64A3.6,3.6,0,0,1-24.763-.872,4.221,4.221,0,0,1-27.755.146a4.269,4.269,0,0,1-2.966-.989A3.535,3.535,0,0,1-31.842-3.56v-7.1h2.2v7.039a2.032,2.032,0,0,0,.5,1.527,1.926,1.926,0,0,0,1.388.48q1.853,0,1.882-1.948v-7.1Zm8.218,6.042h-4.219v2.856h4.951V0h-7.148V-10.664h7.134v1.78h-4.937v2.542h4.219Zm4.893-6.042L-7.819-2.93l2.725-7.734h2.886V0h-2.2V-2.915l.22-5.032L-7.072,0H-8.58l-2.871-7.939.22,5.024V0h-2.2V-10.664ZM5.731-2.2H1.879L1.146,0H-1.19L2.78-10.664H4.816L8.807,0H6.471ZM2.472-3.977H5.138L3.8-7.969ZM9.8,0V-10.664h3.281a4.983,4.983,0,0,1,2.516.634,4.418,4.418,0,0,1,1.732,1.8,5.557,5.557,0,0,1,.623,2.655v.491a5.573,5.573,0,0,1-.612,2.644A4.38,4.38,0,0,1,15.619-.645,5.021,5.021,0,0,1,13.107,0ZM12-8.884v7.119h1.062a2.386,2.386,0,0,0,1.97-.842,3.806,3.806,0,0,0,.7-2.41v-.564a3.867,3.867,0,0,0-.674-2.465,2.378,2.378,0,0,0-1.97-.839ZM28.312-5.09a6.438,6.438,0,0,1-.557,2.761A4.192,4.192,0,0,1,26.162-.5a4.407,4.407,0,0,1-2.377.645A4.437,4.437,0,0,1,21.42-.491a4.233,4.233,0,0,1-1.611-1.82,6.253,6.253,0,0,1-.579-2.721v-.527A6.4,6.4,0,0,1,19.8-8.331a4.226,4.226,0,0,1,1.6-1.838,4.412,4.412,0,0,1,2.369-.641,4.412,4.412,0,0,1,2.369.641,4.226,4.226,0,0,1,1.6,1.838,6.386,6.386,0,0,1,.568,2.765Zm-2.227-.483a4.488,4.488,0,0,0-.6-2.549,1.957,1.957,0,0,0-1.714-.872,1.958,1.958,0,0,0-1.707.861,4.436,4.436,0,0,0-.608,2.523v.52a4.544,4.544,0,0,0,.6,2.534,1.952,1.952,0,0,0,1.729.9,1.935,1.935,0,0,0,1.7-.868,4.517,4.517,0,0,0,.6-2.531ZM42.4-5.09a6.438,6.438,0,0,1-.557,2.761A4.192,4.192,0,0,1,40.254-.5a4.407,4.407,0,0,1-2.377.645,4.437,4.437,0,0,1-2.366-.637A4.233,4.233,0,0,1,33.9-2.311a6.253,6.253,0,0,1-.579-2.721v-.527a6.4,6.4,0,0,1,.568-2.772,4.226,4.226,0,0,1,1.6-1.838,4.412,4.412,0,0,1,2.369-.641,4.412,4.412,0,0,1,2.369.641,4.226,4.226,0,0,1,1.6,1.838A6.386,6.386,0,0,1,42.4-5.566Zm-2.227-.483a4.488,4.488,0,0,0-.6-2.549,1.957,1.957,0,0,0-1.714-.872,1.958,1.958,0,0,0-1.707.861,4.436,4.436,0,0,0-.608,2.523v.52a4.544,4.544,0,0,0,.6,2.534,1.952,1.952,0,0,0,1.729.9,1.935,1.935,0,0,0,1.7-.868,4.517,4.517,0,0,0,.6-2.531ZM-29.978,17.8h-3.853l-.732,2.2H-36.9l3.97-10.664h2.036L-26.9,20h-2.336Zm-3.259-1.78h2.666l-1.34-3.992ZM-17.227,20h-2.2V15.43h-4.285V20h-2.2V9.336h2.2v4.321h4.285V9.336h2.2Zm9.99-10.664V16.36a3.6,3.6,0,0,1-1.095,2.769,4.221,4.221,0,0,1-2.992,1.018,4.269,4.269,0,0,1-2.966-.989A3.535,3.535,0,0,1-15.41,16.44v-7.1h2.2v7.039a2.032,2.032,0,0,0,.5,1.527,1.926,1.926,0,0,0,1.388.48q1.853,0,1.882-1.948v-7.1Zm4.673,0L.176,17.07,2.9,9.336H5.786V20h-2.2V17.085l.22-5.032L.923,20H-.586l-2.871-7.939.22,5.024V20h-2.2V9.336ZM13.726,17.8H9.873L9.141,20H6.8l3.97-10.664H12.81L16.8,20H14.465Zm-3.259-1.78h2.666l-1.34-3.992ZM17.8,20V9.336h3.281a4.983,4.983,0,0,1,2.516.634,4.418,4.418,0,0,1,1.732,1.8,5.557,5.557,0,0,1,.623,2.655v.491a5.573,5.573,0,0,1-.612,2.644,4.38,4.38,0,0,1-1.725,1.794A5.021,5.021,0,0,1,21.1,20ZM20,11.116v7.119h1.062a2.386,2.386,0,0,0,1.97-.842,3.806,3.806,0,0,0,.7-2.41v-.564a3.867,3.867,0,0,0-.674-2.465,2.378,2.378,0,0,0-1.97-.839ZM36.306,14.91a6.438,6.438,0,0,1-.557,2.761A4.192,4.192,0,0,1,34.156,19.5a4.707,4.707,0,0,1-4.742.007,4.233,4.233,0,0,1-1.611-1.82,6.253,6.253,0,0,1-.579-2.721v-.527a6.4,6.4,0,0,1,.568-2.772A4.226,4.226,0,0,1,29.4,9.83a4.7,4.7,0,0,1,4.739,0,4.226,4.226,0,0,1,1.6,1.838,6.386,6.386,0,0,1,.568,2.765Zm-2.227-.483a4.488,4.488,0,0,0-.6-2.549,2.122,2.122,0,0,0-3.42-.011,4.436,4.436,0,0,0-.608,2.523v.52a4.544,4.544,0,0,0,.6,2.534,2.1,2.1,0,0,0,3.428.033,4.517,4.517,0,0,0,.6-2.531Z" transform="translate(984.711 11981)" fill="#12263f"/>
    <path id="Trazado_1000693" data-name="Trazado 1000693" d="M-19.772-4.358H-23.99V0h-2.2V-10.664h6.943v1.78H-23.99V-6.13h4.219Zm5.75.454h-1.75V0h-2.2V-10.664h3.962a4.479,4.479,0,0,1,2.915.842,2.907,2.907,0,0,1,1.025,2.38,3.281,3.281,0,0,1-.472,1.82A3.222,3.222,0,0,1-11.971-4.46L-9.664-.1V0h-2.358Zm-1.75-1.78H-14A1.815,1.815,0,0,0-12.719-6.1a1.505,1.505,0,0,0,.454-1.161,1.611,1.611,0,0,0-.428-1.187,1.781,1.781,0,0,0-1.315-.432h-1.765Zm15.447-4.98V-3.64A3.6,3.6,0,0,1-1.421-.872,4.221,4.221,0,0,1-4.413.146,4.269,4.269,0,0,1-7.379-.842,3.535,3.535,0,0,1-8.5-3.56v-7.1h2.2v7.039A2.032,2.032,0,0,0-5.8-2.1a1.926,1.926,0,0,0,1.388.48q1.853,0,1.882-1.948v-7.1ZM9.5-8.884H6.237V0h-2.2V-8.884H.817v-1.78H9.5ZM15.9-2.2H12.045L11.312,0H8.976l3.97-10.664h2.036L18.973,0H16.637Zm-3.259-1.78H15.3l-1.34-3.992Zm9.529,2.212h4.666V0H19.969V-10.664h2.2ZM-31.509,20h-2.2l-4.277-7.017V20h-2.2V9.336h2.2l4.285,7.031V9.336h2.19Zm10.679-5.09a6.438,6.438,0,0,1-.557,2.761A4.192,4.192,0,0,1-22.98,19.5a4.407,4.407,0,0,1-2.377.645,4.437,4.437,0,0,1-2.366-.637,4.233,4.233,0,0,1-1.611-1.82,6.253,6.253,0,0,1-.579-2.721v-.527a6.4,6.4,0,0,1,.568-2.772,4.226,4.226,0,0,1,1.6-1.838,4.412,4.412,0,0,1,2.369-.641A4.412,4.412,0,0,1-23,9.83a4.226,4.226,0,0,1,1.6,1.838,6.386,6.386,0,0,1,.568,2.765Zm-2.227-.483a4.488,4.488,0,0,0-.6-2.549,1.957,1.957,0,0,0-1.714-.872,1.958,1.958,0,0,0-1.707.861,4.436,4.436,0,0,0-.608,2.523v.52a4.544,4.544,0,0,0,.6,2.534,1.952,1.952,0,0,0,1.729.9,1.935,1.935,0,0,0,1.7-.868,4.517,4.517,0,0,0,.6-2.531Zm15.93,2.021A3.774,3.774,0,0,1-8.4,19.158a4.463,4.463,0,0,1-3.021.989,4.013,4.013,0,0,1-3.226-1.381,5.661,5.661,0,0,1-1.176-3.79v-.652a6.393,6.393,0,0,1,.542-2.71,4.062,4.062,0,0,1,1.549-1.8,4.339,4.339,0,0,1,2.34-.626,4.348,4.348,0,0,1,2.974.989,4.055,4.055,0,0,1,1.3,2.776h-2.2a2.227,2.227,0,0,0-.575-1.5,2.129,2.129,0,0,0-1.505-.465,1.867,1.867,0,0,0-1.644.787,4.413,4.413,0,0,0-.56,2.443v.806a4.723,4.723,0,0,0,.524,2.527,1.832,1.832,0,0,0,1.652.8,2.169,2.169,0,0,0,1.52-.465,2.1,2.1,0,0,0,.575-1.439ZM-3.347,20h-2.2V9.336h2.2ZM-4.028,6.458h2.307L-3.75,8.728H-5.471ZM6.716,11.116H3.45V20h-2.2V11.116H-1.97V9.336H6.716Zm5.2,4.98h-1.75V20h-2.2V9.336h3.962a4.479,4.479,0,0,1,2.915.842,2.907,2.907,0,0,1,1.025,2.38,3.281,3.281,0,0,1-.472,1.82,3.222,3.222,0,0,1-1.432,1.161L16.274,19.9V20H13.916Zm-1.75-1.78h1.772A1.815,1.815,0,0,0,13.22,13.9a1.505,1.505,0,0,0,.454-1.161,1.611,1.611,0,0,0-.428-1.187,1.781,1.781,0,0,0-1.315-.432H10.166ZM19.878,20h-2.2V9.336h2.2Zm10.408-3.552a3.774,3.774,0,0,1-1.271,2.71,4.463,4.463,0,0,1-3.021.989,4.013,4.013,0,0,1-3.226-1.381,5.661,5.661,0,0,1-1.176-3.79v-.652a6.393,6.393,0,0,1,.542-2.71,4.062,4.062,0,0,1,1.549-1.8,4.339,4.339,0,0,1,2.34-.626A4.348,4.348,0,0,1,29,10.178a4.055,4.055,0,0,1,1.3,2.776H28.1a2.227,2.227,0,0,0-.575-1.5,2.129,2.129,0,0,0-1.505-.465,1.867,1.867,0,0,0-1.644.787,4.413,4.413,0,0,0-.56,2.443v.806a4.723,4.723,0,0,0,.524,2.527,1.832,1.832,0,0,0,1.652.8,2.169,2.169,0,0,0,1.52-.465,2.1,2.1,0,0,0,.575-1.439Zm10.2-1.538a6.438,6.438,0,0,1-.557,2.761A4.192,4.192,0,0,1,38.339,19.5a4.707,4.707,0,0,1-4.742.007,4.233,4.233,0,0,1-1.611-1.82,6.253,6.253,0,0,1-.579-2.721v-.527a6.4,6.4,0,0,1,.568-2.772,4.226,4.226,0,0,1,1.6-1.838,4.7,4.7,0,0,1,4.739,0,4.226,4.226,0,0,1,1.6,1.838,6.386,6.386,0,0,1,.568,2.765Zm-2.227-.483a4.488,4.488,0,0,0-.6-2.549,2.122,2.122,0,0,0-3.42-.011,4.436,4.436,0,0,0-.608,2.523v.52a4.544,4.544,0,0,0,.6,2.534,2.1,2.1,0,0,0,3.428.033,4.517,4.517,0,0,0,.6-2.531Z" transform="translate(493.711 11981)" fill="#fff"/>
    <path id="Trazado_1000687" data-name="Trazado 1000687" d="M-22.046,0V-10.664h3.281a4.983,4.983,0,0,1,2.516.634,4.418,4.418,0,0,1,1.732,1.8,5.557,5.557,0,0,1,.623,2.655v.491a5.573,5.573,0,0,1-.612,2.644A4.38,4.38,0,0,1-16.23-.645,5.021,5.021,0,0,1-18.743,0Zm2.2-8.884v7.119h1.062a2.386,2.386,0,0,0,1.97-.842,3.806,3.806,0,0,0,.7-2.41v-.564a3.867,3.867,0,0,0-.674-2.465,2.378,2.378,0,0,0-1.97-.839Zm15.623-1.78V-3.64A3.6,3.6,0,0,1-5.321-.872,4.221,4.221,0,0,1-8.313.146a4.269,4.269,0,0,1-2.966-.989A3.535,3.535,0,0,1-12.4-3.56v-7.1h2.2v7.039A2.032,2.032,0,0,0-9.7-2.1a1.926,1.926,0,0,0,1.388.48q1.853,0,1.882-1.948v-7.1Zm4,8.9H4.438V0H-2.424V-10.664h2.2Zm14.3-1.787A3.774,3.774,0,0,1,12.8-.842,4.463,4.463,0,0,1,9.778.146,4.013,4.013,0,0,1,6.552-1.234a5.661,5.661,0,0,1-1.176-3.79v-.652a6.393,6.393,0,0,1,.542-2.71,4.062,4.062,0,0,1,1.549-1.8,4.339,4.339,0,0,1,2.34-.626,4.348,4.348,0,0,1,2.974.989,4.055,4.055,0,0,1,1.3,2.776h-2.2a2.227,2.227,0,0,0-.575-1.5,2.129,2.129,0,0,0-1.505-.465,1.867,1.867,0,0,0-1.644.787A4.413,4.413,0,0,0,7.6-5.779v.806a4.723,4.723,0,0,0,.524,2.527,1.832,1.832,0,0,0,1.652.8,2.169,2.169,0,0,0,1.52-.465,2.1,2.1,0,0,0,.575-1.439Zm7.859-1.069H17.71v2.856h4.951V0H15.513V-10.664h7.134v1.78H17.71v2.542h4.219Z" transform="translate(860.711 11991)" fill="#12263f"/>
    <path id="Trazado_1000683" data-name="Trazado 1000683" d="M-25.684-3.789A4.025,4.025,0,0,1-27.039-.9,4.76,4.76,0,0,1-30.262.156,4.28,4.28,0,0,1-33.7-1.316a6.038,6.038,0,0,1-1.254-4.043v-.7a6.819,6.819,0,0,1,.578-2.891,4.332,4.332,0,0,1,1.652-1.918,4.629,4.629,0,0,1,2.5-.668,4.637,4.637,0,0,1,3.172,1.055,4.326,4.326,0,0,1,1.391,2.961h-2.344a2.376,2.376,0,0,0-.613-1.6,2.271,2.271,0,0,0-1.605-.5,1.991,1.991,0,0,0-1.754.84,4.707,4.707,0,0,0-.6,2.605V-5.3a5.038,5.038,0,0,0,.559,2.7,1.954,1.954,0,0,0,1.762.852,2.314,2.314,0,0,0,1.621-.5,2.241,2.241,0,0,0,.613-1.535ZM-21.652,0H-24V-11.375h2.344Zm-.727-14.445h2.461l-2.164,2.422h-1.836Zm11.461,4.969H-14.4V0h-2.344V-9.477h-3.437v-1.9h9.266Zm5.547,5.313H-7.238V0H-9.582V-11.375h4.227a4.778,4.778,0,0,1,3.109.9A3.1,3.1,0,0,1-1.152-7.937,3.5,3.5,0,0,1-1.656-6,3.437,3.437,0,0,1-3.184-4.758L-.723-.109V0H-3.238Zm-1.867-1.9h1.891A1.936,1.936,0,0,0-3.98-6.512,1.606,1.606,0,0,0-3.5-7.75a1.719,1.719,0,0,0-.457-1.266,1.9,1.9,0,0,0-1.4-.461H-7.238ZM3.121,0H.777V-11.375H3.121ZM2.395-14.445H4.855L2.691-12.023H.855ZM14.223-3.789A4.025,4.025,0,0,1,12.867-.9,4.76,4.76,0,0,1,9.645.156,4.28,4.28,0,0,1,6.2-1.316,6.038,6.038,0,0,1,4.949-5.359v-.7a6.819,6.819,0,0,1,.578-2.891A4.332,4.332,0,0,1,7.18-10.863a4.629,4.629,0,0,1,2.5-.668,4.637,4.637,0,0,1,3.172,1.055,4.326,4.326,0,0,1,1.391,2.961H11.895a2.376,2.376,0,0,0-.613-1.6,2.271,2.271,0,0,0-1.605-.5,1.991,1.991,0,0,0-1.754.84,4.707,4.707,0,0,0-.6,2.605V-5.3a5.038,5.038,0,0,0,.559,2.7,1.954,1.954,0,0,0,1.762.852,2.314,2.314,0,0,0,1.621-.5,2.241,2.241,0,0,0,.613-1.535ZM25.105-5.43a6.867,6.867,0,0,1-.594,2.945,4.472,4.472,0,0,1-1.7,1.953,4.7,4.7,0,0,1-2.535.688,4.732,4.732,0,0,1-2.523-.68,4.515,4.515,0,0,1-1.719-1.941,6.67,6.67,0,0,1-.617-2.9V-5.93a6.831,6.831,0,0,1,.605-2.957,4.508,4.508,0,0,1,1.711-1.961,4.706,4.706,0,0,1,2.527-.684,4.706,4.706,0,0,1,2.527.684A4.508,4.508,0,0,1,24.5-8.887a6.811,6.811,0,0,1,.605,2.949ZM22.73-5.945a4.787,4.787,0,0,0-.641-2.719,2.088,2.088,0,0,0-1.828-.93,2.088,2.088,0,0,0-1.82.918,4.732,4.732,0,0,0-.648,2.691v.555a4.847,4.847,0,0,0,.641,2.7,2.082,2.082,0,0,0,1.844.961,2.064,2.064,0,0,0,1.813-.926,4.819,4.819,0,0,0,.641-2.7Zm9.977,2.961A1.2,1.2,0,0,0,32.238-4a6.148,6.148,0,0,0-1.687-.75,11.963,11.963,0,0,1-1.93-.777,3.153,3.153,0,0,1-1.937-2.82A2.747,2.747,0,0,1,27.2-10,3.389,3.389,0,0,1,28.7-11.125a5.616,5.616,0,0,1,2.184-.406,5.112,5.112,0,0,1,2.172.441,3.458,3.458,0,0,1,1.48,1.246,3.261,3.261,0,0,1,.527,1.828H32.715a1.534,1.534,0,0,0-.492-1.215,2.023,2.023,0,0,0-1.383-.434A2.162,2.162,0,0,0,29.5-9.3a1.146,1.146,0,0,0-.477.957,1.1,1.1,0,0,0,.559.93,6.311,6.311,0,0,0,1.645.7,7.106,7.106,0,0,1,2.914,1.492A2.972,2.972,0,0,1,35.059-3,2.737,2.737,0,0,1,33.941-.684a4.891,4.891,0,0,1-3.008.84,5.808,5.808,0,0,1-2.391-.48A3.783,3.783,0,0,1,26.9-1.641a3.371,3.371,0,0,1-.566-1.937h2.352q0,1.883,2.25,1.883a2.189,2.189,0,0,0,1.3-.34A1.106,1.106,0,0,0,32.707-2.984Z" transform="translate(1110.711 11991)" fill="#12263f"/>
    <path id="Trazado_1000681" data-name="Trazado 1000681" d="M-57.726,0V-10.664h3.281a4.983,4.983,0,0,1,2.516.634,4.418,4.418,0,0,1,1.732,1.8,5.557,5.557,0,0,1,.623,2.655v.491a5.573,5.573,0,0,1-.612,2.644A4.38,4.38,0,0,1-51.91-.645,5.021,5.021,0,0,1-54.423,0Zm2.2-8.884v7.119h1.062a2.386,2.386,0,0,0,1.97-.842,3.806,3.806,0,0,0,.7-2.41v-.564a3.867,3.867,0,0,0-.674-2.465,2.378,2.378,0,0,0-1.97-.839Zm13.967,4.263H-45.78v2.856h4.951V0h-7.148V-10.664h7.134v1.78H-45.78v2.542h4.219ZM-34.01-2.8a1.128,1.128,0,0,0-.439-.956,5.764,5.764,0,0,0-1.582-.7,11.215,11.215,0,0,1-1.809-.729A2.956,2.956,0,0,1-39.657-7.83a2.575,2.575,0,0,1,.487-1.542,3.177,3.177,0,0,1,1.4-1.058,5.265,5.265,0,0,1,2.047-.381,4.793,4.793,0,0,1,2.036.414A3.242,3.242,0,0,1-32.3-9.229a3.057,3.057,0,0,1,.494,1.714H-34a1.438,1.438,0,0,0-.461-1.139,1.9,1.9,0,0,0-1.3-.406,2.026,2.026,0,0,0-1.252.341,1.074,1.074,0,0,0-.447.9,1.029,1.029,0,0,0,.524.872,5.916,5.916,0,0,0,1.542.659,6.661,6.661,0,0,1,2.732,1.4,2.786,2.786,0,0,1,.857,2.08A2.566,2.566,0,0,1-32.853-.641a4.585,4.585,0,0,1-2.82.787A5.445,5.445,0,0,1-37.914-.3a3.546,3.546,0,0,1-1.542-1.234,3.161,3.161,0,0,1-.531-1.816h2.2q0,1.765,2.109,1.765a2.052,2.052,0,0,0,1.223-.319A1.037,1.037,0,0,0-34.01-2.8Zm12.063-.754a3.774,3.774,0,0,1-1.271,2.71,4.463,4.463,0,0,1-3.021.989,4.013,4.013,0,0,1-3.226-1.381,5.661,5.661,0,0,1-1.176-3.79v-.652a6.393,6.393,0,0,1,.542-2.71,4.062,4.062,0,0,1,1.549-1.8,4.339,4.339,0,0,1,2.34-.626,4.348,4.348,0,0,1,2.974.989,4.055,4.055,0,0,1,1.3,2.776h-2.2a2.227,2.227,0,0,0-.575-1.5,2.129,2.129,0,0,0-1.505-.465,1.867,1.867,0,0,0-1.644.787,4.413,4.413,0,0,0-.56,2.443v.806a4.723,4.723,0,0,0,.524,2.527,1.832,1.832,0,0,0,1.652.8,2.169,2.169,0,0,0,1.52-.465,2.1,2.1,0,0,0,.575-1.439Zm10.2-1.538A6.438,6.438,0,0,1-12.3-2.329,4.192,4.192,0,0,1-13.894-.5a4.407,4.407,0,0,1-2.377.645,4.437,4.437,0,0,1-2.366-.637,4.233,4.233,0,0,1-1.611-1.82,6.253,6.253,0,0,1-.579-2.721v-.527a6.4,6.4,0,0,1,.568-2.772,4.226,4.226,0,0,1,1.6-1.838,4.412,4.412,0,0,1,2.369-.641,4.412,4.412,0,0,1,2.369.641,4.226,4.226,0,0,1,1.6,1.838,6.386,6.386,0,0,1,.568,2.765Zm-2.227-.483a4.488,4.488,0,0,0-.6-2.549,1.957,1.957,0,0,0-1.714-.872,1.958,1.958,0,0,0-1.707.861A4.436,4.436,0,0,0-18.6-5.61v.52A4.544,4.544,0,0,0-18-2.556a1.952,1.952,0,0,0,1.729.9,1.935,1.935,0,0,0,1.7-.868,4.517,4.517,0,0,0,.6-2.531Zm6.694-5.09L-4.537-2.93l2.725-7.734H1.073V0h-2.2V-2.915l.22-5.032L-3.79,0H-5.3L-8.17-7.939l.22,5.024V0h-2.2V-10.664ZM5.189-3.757V0h-2.2V-10.664h4.16a4.813,4.813,0,0,1,2.113.439,3.238,3.238,0,0,1,1.4,1.249,3.482,3.482,0,0,1,.491,1.842,3.062,3.062,0,0,1-1.073,2.472,4.469,4.469,0,0,1-2.97.9Zm0-1.78H7.152a1.93,1.93,0,0,0,1.329-.41,1.492,1.492,0,0,0,.458-1.172,1.759,1.759,0,0,0-.461-1.267,1.724,1.724,0,0,0-1.274-.5H5.189Zm15.549-5.127V-3.64A3.6,3.6,0,0,1,19.644-.872,4.221,4.221,0,0,1,16.652.146a4.269,4.269,0,0,1-2.966-.989A3.535,3.535,0,0,1,12.565-3.56v-7.1h2.2v7.039a2.032,2.032,0,0,0,.5,1.527,1.926,1.926,0,0,0,1.388.48q1.853,0,1.882-1.948v-7.1Zm8.218,6.042H24.738v2.856h4.951V0H22.54V-10.664h7.134v1.78H24.738v2.542h4.219ZM36.508-2.8a1.128,1.128,0,0,0-.439-.956,5.764,5.764,0,0,0-1.582-.7,11.215,11.215,0,0,1-1.809-.729A2.956,2.956,0,0,1,30.861-7.83a2.575,2.575,0,0,1,.487-1.542,3.177,3.177,0,0,1,1.4-1.058,5.265,5.265,0,0,1,2.047-.381,4.793,4.793,0,0,1,2.036.414,3.242,3.242,0,0,1,1.388,1.168,3.057,3.057,0,0,1,.494,1.714h-2.2a1.438,1.438,0,0,0-.461-1.139,1.9,1.9,0,0,0-1.3-.406,2.026,2.026,0,0,0-1.252.341,1.074,1.074,0,0,0-.447.9,1.029,1.029,0,0,0,.524.872,5.916,5.916,0,0,0,1.542.659,6.661,6.661,0,0,1,2.732,1.4,2.786,2.786,0,0,1,.857,2.08A2.566,2.566,0,0,1,37.665-.641a4.585,4.585,0,0,1-2.82.787A5.445,5.445,0,0,1,32.6-.3a3.546,3.546,0,0,1-1.542-1.234,3.161,3.161,0,0,1-.531-1.816h2.2q0,1.765,2.109,1.765a2.052,2.052,0,0,0,1.223-.319A1.037,1.037,0,0,0,36.508-2.8ZM48.226-8.884H44.96V0h-2.2V-8.884H39.54v-1.78h8.687ZM58.033-5.09a6.438,6.438,0,0,1-.557,2.761A4.192,4.192,0,0,1,55.884-.5a4.407,4.407,0,0,1-2.377.645,4.437,4.437,0,0,1-2.366-.637,4.233,4.233,0,0,1-1.611-1.82,6.253,6.253,0,0,1-.579-2.721v-.527a6.4,6.4,0,0,1,.568-2.772,4.226,4.226,0,0,1,1.6-1.838,4.412,4.412,0,0,1,2.369-.641,4.412,4.412,0,0,1,2.369.641,4.226,4.226,0,0,1,1.6,1.838,6.386,6.386,0,0,1,.568,2.765Zm-2.227-.483a4.488,4.488,0,0,0-.6-2.549,1.957,1.957,0,0,0-1.714-.872,1.958,1.958,0,0,0-1.707.861,4.436,4.436,0,0,0-.608,2.523v.52a4.544,4.544,0,0,0,.6,2.534,1.952,1.952,0,0,0,1.729.9,1.935,1.935,0,0,0,1.7-.868,4.517,4.517,0,0,0,.6-2.531Z" transform="translate(1230.711 11991)" fill="#12263f"/>
    <path id="Trazado_1000679" data-name="Trazado 1000679" d="M-23.555,0h-2.2V-4.57h-4.285V0h-2.2V-10.664h2.2v4.321h4.285v-4.321h2.2Zm8.335-4.622h-4.219v2.856h4.951V0h-7.148V-10.664H-14.5v1.78h-4.937v2.542h4.219ZM-13.2,0V-10.664h3.281a4.983,4.983,0,0,1,2.516.634,4.418,4.418,0,0,1,1.732,1.8,5.557,5.557,0,0,1,.623,2.655v.491a5.573,5.573,0,0,1-.612,2.644A4.38,4.38,0,0,1-7.383-.645,5.021,5.021,0,0,1-9.9,0ZM-11-8.884v7.119h1.062a2.386,2.386,0,0,0,1.97-.842,3.806,3.806,0,0,0,.7-2.41v-.564a3.867,3.867,0,0,0-.674-2.465,2.378,2.378,0,0,0-1.97-.839ZM5.31-5.09a6.438,6.438,0,0,1-.557,2.761A4.192,4.192,0,0,1,3.16-.5,4.407,4.407,0,0,1,.784.146,4.437,4.437,0,0,1-1.582-.491a4.233,4.233,0,0,1-1.611-1.82,6.253,6.253,0,0,1-.579-2.721v-.527A6.4,6.4,0,0,1-3.2-8.331,4.226,4.226,0,0,1-1.6-10.17a4.412,4.412,0,0,1,2.369-.641,4.412,4.412,0,0,1,2.369.641,4.226,4.226,0,0,1,1.6,1.838A6.386,6.386,0,0,1,5.31-5.566ZM3.083-5.574a4.488,4.488,0,0,0-.6-2.549A1.957,1.957,0,0,0,.769-8.994a1.958,1.958,0,0,0-1.707.861A4.436,4.436,0,0,0-1.545-5.61v.52a4.544,4.544,0,0,0,.6,2.534,1.952,1.952,0,0,0,1.729.9,1.935,1.935,0,0,0,1.7-.868,4.517,4.517,0,0,0,.6-2.531ZM10.854-3.9H9.1V0h-2.2V-10.664h3.962a4.479,4.479,0,0,1,2.915.842,2.907,2.907,0,0,1,1.025,2.38,3.281,3.281,0,0,1-.472,1.82A3.222,3.222,0,0,1,12.905-4.46L15.212-.1V0H12.854ZM9.1-5.684h1.772A1.815,1.815,0,0,0,12.158-6.1a1.505,1.505,0,0,0,.454-1.161,1.611,1.611,0,0,0-.428-1.187,1.781,1.781,0,0,0-1.315-.432H9.1ZM22.9-4.622H18.677v2.856h4.951V0H16.479V-10.664h7.134v1.78H18.677v2.542H22.9ZM30.447-2.8a1.128,1.128,0,0,0-.439-.956,5.764,5.764,0,0,0-1.582-.7,11.215,11.215,0,0,1-1.809-.729A2.956,2.956,0,0,1,24.8-7.83a2.575,2.575,0,0,1,.487-1.542,3.177,3.177,0,0,1,1.4-1.058,5.265,5.265,0,0,1,2.047-.381,4.793,4.793,0,0,1,2.036.414,3.242,3.242,0,0,1,1.388,1.168,3.057,3.057,0,0,1,.494,1.714h-2.2a1.438,1.438,0,0,0-.461-1.139,1.9,1.9,0,0,0-1.3-.406,2.026,2.026,0,0,0-1.252.341,1.074,1.074,0,0,0-.447.9,1.029,1.029,0,0,0,.524.872,5.916,5.916,0,0,0,1.542.659,6.661,6.661,0,0,1,2.732,1.4,2.786,2.786,0,0,1,.857,2.08A2.566,2.566,0,0,1,31.6-.641a4.585,4.585,0,0,1-2.82.787A5.445,5.445,0,0,1,26.543-.3,3.546,3.546,0,0,1,25-1.538a3.161,3.161,0,0,1-.531-1.816h2.2q0,1.765,2.109,1.765a2.052,2.052,0,0,0,1.223-.319A1.037,1.037,0,0,0,30.447-2.8ZM-49.149,20h-2.2l-4.277-7.017V20h-2.2V9.336h2.2l4.285,7.031V9.336h2.19Zm7.939-2.2h-3.853l-.732,2.2h-2.336l3.97-10.664h2.036L-38.134,20H-40.47Zm-3.259-1.78H-41.8l-1.34-3.992Zm15.278-6.687V16.36a3.6,3.6,0,0,1-1.095,2.769,4.221,4.221,0,0,1-2.992,1.018,4.269,4.269,0,0,1-2.966-.989,3.535,3.535,0,0,1-1.121-2.717v-7.1h2.2v7.039a2.032,2.032,0,0,0,.5,1.527,1.926,1.926,0,0,0,1.388.48q1.853,0,1.882-1.948v-7.1Zm7.332,7.866a1.128,1.128,0,0,0-.439-.956,5.764,5.764,0,0,0-1.582-.7,11.215,11.215,0,0,1-1.809-.729,2.956,2.956,0,0,1-1.816-2.644,2.575,2.575,0,0,1,.487-1.542,3.177,3.177,0,0,1,1.4-1.058,5.265,5.265,0,0,1,2.047-.381,4.793,4.793,0,0,1,2.036.414,3.242,3.242,0,0,1,1.388,1.168,3.057,3.057,0,0,1,.494,1.714h-2.2a1.438,1.438,0,0,0-.461-1.139,1.9,1.9,0,0,0-1.3-.406,2.026,2.026,0,0,0-1.252.341,1.074,1.074,0,0,0-.447.9,1.029,1.029,0,0,0,.524.872,5.916,5.916,0,0,0,1.542.659,6.661,6.661,0,0,1,2.732,1.4,2.786,2.786,0,0,1,.857,2.08A2.566,2.566,0,0,1-20.7,19.359a4.585,4.585,0,0,1-2.82.787,5.445,5.445,0,0,1-2.241-.45A3.546,3.546,0,0,1-27.3,18.462a3.161,3.161,0,0,1-.531-1.816h2.2q0,1.765,2.109,1.765a2.052,2.052,0,0,0,1.223-.319A1.037,1.037,0,0,0-21.859,17.2Zm10.107-1.824H-15.97v2.856h4.951V20h-7.148V9.336h7.134v1.78H-15.97v2.542h4.219ZM-3.71,17.8H-7.562L-8.295,20h-2.336l3.97-10.664h2.036L-.634,20H-2.97Zm-3.259-1.78H-4.3l-1.34-3.992ZM.363,20V9.336H4.1a4.9,4.9,0,0,1,2.944.743,2.542,2.542,0,0,1,1,2.179,2.409,2.409,0,0,1-.4,1.381,2.327,2.327,0,0,1-1.121.875,2.251,2.251,0,0,1,1.293.828,2.447,2.447,0,0,1,.472,1.523,2.814,2.814,0,0,1-.981,2.329,4.418,4.418,0,0,1-2.8.806Zm2.2-4.644v2.878H4.442a1.816,1.816,0,0,0,1.212-.37,1.268,1.268,0,0,0,.436-1.022,1.339,1.339,0,0,0-1.516-1.487Zm0-1.553H4.186q1.663-.029,1.663-1.326a1.225,1.225,0,0,0-.421-1.044A2.215,2.215,0,0,0,4.1,11.116H2.56ZM18.007,9.336V16.36a3.6,3.6,0,0,1-1.095,2.769,4.221,4.221,0,0,1-2.992,1.018,4.269,4.269,0,0,1-2.966-.989A3.535,3.535,0,0,1,9.833,16.44v-7.1h2.2v7.039a2.032,2.032,0,0,0,.5,1.527,1.926,1.926,0,0,0,1.388.48q1.853,0,1.882-1.948v-7.1ZM28.48,20h-2.2l-4.277-7.017V20h-2.2V9.336h2.2l4.285,7.031V9.336h2.19ZM30.4,20V9.336H33.68a4.983,4.983,0,0,1,2.516.634,4.418,4.418,0,0,1,1.732,1.8,5.557,5.557,0,0,1,.623,2.655v.491a5.573,5.573,0,0,1-.612,2.644,4.38,4.38,0,0,1-1.725,1.794A5.021,5.021,0,0,1,33.7,20Zm2.2-8.884v7.119h1.062a2.386,2.386,0,0,0,1.97-.842,3.806,3.806,0,0,0,.7-2.41v-.564a3.867,3.867,0,0,0-.674-2.465,2.378,2.378,0,0,0-1.97-.839ZM48.907,14.91a6.438,6.438,0,0,1-.557,2.761A4.192,4.192,0,0,1,46.758,19.5a4.707,4.707,0,0,1-4.742.007,4.233,4.233,0,0,1-1.611-1.82,6.253,6.253,0,0,1-.579-2.721v-.527a6.4,6.4,0,0,1,.568-2.772A4.226,4.226,0,0,1,42,9.83a4.7,4.7,0,0,1,4.739,0,4.226,4.226,0,0,1,1.6,1.838,6.386,6.386,0,0,1,.568,2.765Zm-2.227-.483a4.488,4.488,0,0,0-.6-2.549,2.122,2.122,0,0,0-3.42-.011,4.436,4.436,0,0,0-.608,2.523v.52a4.544,4.544,0,0,0,.6,2.534,2.1,2.1,0,0,0,3.428.033,4.517,4.517,0,0,0,.6-2.531ZM56.034,17.2a1.128,1.128,0,0,0-.439-.956,5.764,5.764,0,0,0-1.582-.7,11.215,11.215,0,0,1-1.809-.729,2.956,2.956,0,0,1-1.816-2.644,2.575,2.575,0,0,1,.487-1.542,3.177,3.177,0,0,1,1.4-1.058,5.265,5.265,0,0,1,2.047-.381,4.793,4.793,0,0,1,2.036.414,3.242,3.242,0,0,1,1.388,1.168,3.057,3.057,0,0,1,.494,1.714h-2.2a1.438,1.438,0,0,0-.461-1.139,1.9,1.9,0,0,0-1.3-.406,2.026,2.026,0,0,0-1.252.341,1.074,1.074,0,0,0-.447.9,1.029,1.029,0,0,0,.524.872,5.916,5.916,0,0,0,1.542.659,6.661,6.661,0,0,1,2.732,1.4,2.786,2.786,0,0,1,.857,2.08,2.566,2.566,0,0,1-1.047,2.172,4.585,4.585,0,0,1-2.82.787,5.445,5.445,0,0,1-2.241-.45,3.546,3.546,0,0,1-1.542-1.234,3.161,3.161,0,0,1-.531-1.816h2.2q0,1.765,2.109,1.765a2.052,2.052,0,0,0,1.223-.319A1.037,1.037,0,0,0,56.034,17.2Z" transform="translate(1294.711 12066)" fill="#12263f"/>
    <path id="Trazado_1000677" data-name="Trazado 1000677" d="M-20.515-3.9h-1.75V0h-2.2V-10.664H-20.5a4.479,4.479,0,0,1,2.915.842,2.907,2.907,0,0,1,1.025,2.38,3.281,3.281,0,0,1-.472,1.82A3.222,3.222,0,0,1-18.464-4.46L-16.157-.1V0h-2.358Zm-1.75-1.78h1.772A1.815,1.815,0,0,0-19.211-6.1a1.505,1.505,0,0,0,.454-1.161,1.611,1.611,0,0,0-.428-1.187A1.781,1.781,0,0,0-20.5-8.884h-1.765ZM-8.87-2.2h-3.853L-13.455,0h-2.336l3.97-10.664h2.036L-5.793,0H-8.13Zm-3.259-1.78h2.666L-10.8-7.969ZM3.875,0h-2.2L-2.6-7.017V0H-4.8V-10.664h2.2L1.685-3.633v-7.031h2.19ZM14.231-1.348a3.814,3.814,0,0,1-1.677,1.1,7.024,7.024,0,0,1-2.4.392,4.759,4.759,0,0,1-2.428-.6A4.03,4.03,0,0,1,6.112-2.212a6.174,6.174,0,0,1-.582-2.7V-5.64A6.557,6.557,0,0,1,6.068-8.4a3.982,3.982,0,0,1,1.553-1.787A4.473,4.473,0,0,1,10-10.811a4.454,4.454,0,0,1,2.966.9,3.866,3.866,0,0,1,1.267,2.633H12.092a2.126,2.126,0,0,0-.648-1.34,2.07,2.07,0,0,0-1.381-.425A1.948,1.948,0,0,0,8.357-8.2a4.429,4.429,0,0,0-.593,2.5v.681A4.216,4.216,0,0,0,8.4-2.476a2.182,2.182,0,0,0,1.868.857,2.437,2.437,0,0,0,1.765-.527V-3.984h-2V-5.6h4.2ZM24.771-5.09a6.438,6.438,0,0,1-.557,2.761A4.192,4.192,0,0,1,22.621-.5a4.407,4.407,0,0,1-2.377.645,4.437,4.437,0,0,1-2.366-.637,4.233,4.233,0,0,1-1.611-1.82,6.253,6.253,0,0,1-.579-2.721v-.527a6.4,6.4,0,0,1,.568-2.772,4.226,4.226,0,0,1,1.6-1.838,4.412,4.412,0,0,1,2.369-.641,4.412,4.412,0,0,1,2.369.641,4.226,4.226,0,0,1,1.6,1.838,6.386,6.386,0,0,1,.568,2.765Zm-2.227-.483a4.488,4.488,0,0,0-.6-2.549,1.957,1.957,0,0,0-1.714-.872,1.958,1.958,0,0,0-1.707.861,4.436,4.436,0,0,0-.608,2.523v.52a4.544,4.544,0,0,0,.6,2.534,1.952,1.952,0,0,0,1.729.9,1.935,1.935,0,0,0,1.7-.868,4.517,4.517,0,0,0,.6-2.531Z" transform="translate(1353.711 11991)" fill="#12263f"/>
    <path id="Trazado_1000249" data-name="Trazado 1000249" d="M1294.711,12023v10.969" transform="translate(0 16)" fill="none" stroke="#12263f" stroke-width="1"/>
  </g>
</svg>
