<svg xmlns="http://www.w3.org/2000/svg" width="47" height="47" viewBox="0 0 47 47">
  <g id="Grupo_1178117" data-name="Grupo 1178117" transform="translate(-310 -706)">
    <circle id="Elipse_6022" data-name="Elipse 6022" cx="23.5" cy="23.5" r="23.5" transform="translate(310 706)" fill="#e5d5ba"/>
    <path id="Trazado_991863" data-name="Trazado 991863" d="M1924.765,690.726a18.684,18.684,0,0,0-2.18-5.6,53.2,53.2,0,0,0-8.769-11.321c-1.328,1.5-2.72,2.943-3.991,4.488a37.849,37.849,0,0,0-6.026,9.54,11.782,11.782,0,0,0-.775,7.387,11.067,11.067,0,0,0,1.859,4.011,11.228,11.228,0,0,0,11.318,4.3l.062-.013A11.1,11.1,0,0,0,1924.765,690.726Z" transform="translate(-1580.344 40.719)" fill="#5e3637"/>
  </g>
</svg>
