<svg xmlns="http://www.w3.org/2000/svg" xmlns:xlink="http://www.w3.org/1999/xlink" width="84" height="84" viewBox="0 0 84 84">
  <defs>
    <clipPath id="clip-path">
      <rect id="Rect치ngulo_455006" data-name="Rect치ngulo 455006" width="62.77" height="61.309" fill="#3b281b"/>
    </clipPath>
  </defs>
  <g id="Grupo_1178340" data-name="Grupo 1178340" transform="translate(-602 -13094.721)">
    <g id="Grupo_1178320" data-name="Grupo 1178320" transform="translate(-104)">
      <rect id="Rect치ngulo_454665" data-name="Rect치ngulo 454665" width="84" height="84" rx="5" transform="translate(706 13094.721)" fill="#e5d5ba"/>
      <g id="Grupo_1178319" data-name="Grupo 1178319" transform="translate(714.711 13106.066)">
        <g id="Grupo_1178318" data-name="Grupo 1178318" transform="translate(0 0)" clip-path="url(#clip-path)">
          <path id="Trazado_1000574" data-name="Trazado 1000574" d="M58.772,35.257a17.345,17.345,0,0,0-1.666-1.723,9.071,9.071,0,0,0,.509-9.258.92.92,0,0,0-1.63.853,7.242,7.242,0,0,1-.315,7.246q-.67-.486-1.383-.9a5.592,5.592,0,0,0-7.256-7.98v-1.8a7.246,7.246,0,0,1,6.362.642.92.92,0,1,0,.976-1.559,9.066,9.066,0,0,0-7.338-1.017V12.633a3.013,3.013,0,0,0-.021-6.026l1.331-4.575A1.59,1.59,0,0,0,46.815,0H35.509a1.589,1.589,0,0,0-1.522,2.045l1.369,4.561H31.747a1.554,1.554,0,0,0-1.276,2.44l1.269,1.828A4.1,4.1,0,0,0,35.1,12.634h.412V27.18A2.239,2.239,0,0,1,33.669,29.4a17.064,17.064,0,0,0-7.981,3.736,24.206,24.206,0,0,0-3.468-9.978,1.3,1.3,0,0,0-2.156,0c-2.428,3.612-3.82,9.115-3.82,15.1,0,.9.034,1.8.1,2.68-.453-.506-.926-1.007-1.415-1.5-.319-.319-.645-.634-1-.963a.92.92,0,1,0-1.252,1.347c.339.314.65.614.953.917a33.685,33.685,0,0,1,4.307,5.25c-.184.13-.36.271-.532.42a9.268,9.268,0,0,0-1.846-.715l-6.571-6.57a.919.919,0,1,0-1.3,1.3l4.957,4.959a9.419,9.419,0,0,0-2.531.468c-.273-.256-.545-.518-.812-.786-3.647-3.645-6.318-7.92-7.282-11.608a23.358,23.358,0,0,1,7.412,3.7A.919.919,0,1,0,10.5,35.664a23.667,23.667,0,0,0-8.955-4.2A1.3,1.3,0,0,0,.025,32.986,21.513,21.513,0,0,0,2.7,39.61,34.315,34.315,0,0,0,8,46.364c.1.1.211.207.317.31a7.819,7.819,0,0,0-3.957,6.665c0,4.4,3.92,7.971,8.738,7.971A9.214,9.214,0,0,0,18.624,59.5a9,9,0,0,0,5.337,1.8,7.69,7.69,0,0,0,4.427-1.36,15.012,15.012,0,0,0,6.268,1.365H47.668a15.12,15.12,0,0,0,15.1-15.1A17.067,17.067,0,0,0,58.772,35.257ZM49.56,24.725a3.755,3.755,0,0,1,3.084,5.9,16.871,16.871,0,0,0-3.793-1.194,2.244,2.244,0,0,1-1.818-2.211V25.706A3.736,3.736,0,0,1,49.56,24.725ZM35.847,1.839H46.481L45.095,6.607H37.277Zm-2.6,7.987-.958-1.381H47.009a1.175,1.175,0,0,1,0,2.35H35.1a2.253,2.253,0,0,1-1.852-.968M21.142,24.895c1.925,3.29,3.06,8.2,3.06,13.358a33.849,33.849,0,0,1-.6,6.418,8.337,8.337,0,0,0-1.54-.074V33.829a.92.92,0,0,0-1.839,0V44.892c-.226.065-.449.139-.668.225q-.5-.773-1.065-1.538a34.417,34.417,0,0,1-.407-5.326C18.083,33.1,19.217,28.185,21.142,24.895ZM6.2,53.339c0-3.38,3.094-6.13,6.9-6.13a7.57,7.57,0,0,1,3.036.627,8.515,8.515,0,0,0,1.1,10.406A7.444,7.444,0,0,1,13.1,59.471C9.293,59.471,6.2,56.72,6.2,53.339Zm12.658,3.942c-2.69-2.69-2.934-6.823-.544-9.213a5.721,5.721,0,0,1,4.1-1.647c.114,0,.228,0,.343.009a7.3,7.3,0,0,1,4.766,2.181c2.69,2.69,2.934,6.823.544,9.213s-6.524,2.147-9.213-.542m28.812,2.189H34.657a13.185,13.185,0,0,1-4.791-.9,7.277,7.277,0,0,0,.71-1.041,11.969,11.969,0,0,0,4.081.712H47.668A12.048,12.048,0,0,0,59.614,47.687a.92.92,0,0,0-1.826-.226,10.205,10.205,0,0,1-10.121,8.945H34.657a10.107,10.107,0,0,1-3.386-.582,8.877,8.877,0,0,0-2.444-8.513,9.353,9.353,0,0,0-3.442-2.2,34.742,34.742,0,0,0,.595-4.762,12.243,12.243,0,0,1,8.464-6.113l13.581.025a12.247,12.247,0,0,1,9.529,9.226.919.919,0,0,0,1.791-.416A14.079,14.079,0,0,0,48.282,32.442a.855.855,0,0,0-.169-.016L34.364,32.4a1.392,1.392,0,0,0-.161.014,14.073,14.073,0,0,0-8.179,4.676q-.026-.858-.091-1.7a15.26,15.26,0,0,1,8.057-4.183,4.077,4.077,0,0,0,3.365-4.026V12.634h7.839V27.219a4.084,4.084,0,0,0,3.316,4.018,15.3,15.3,0,0,1,12.422,14.97A13.279,13.279,0,0,1,47.668,59.471Z" transform="translate(0 0)" fill="#3b281b"/>
          <path id="Trazado_1000575" data-name="Trazado 1000575" d="M7.019,41.558a.92.92,0,0,0-.92.92v1.676a.92.92,0,0,0,1.839,0V42.478A.92.92,0,0,0,7.019,41.558Z" transform="translate(1.471 10.023)" fill="#3b281b"/>
          <path id="Trazado_1000576" data-name="Trazado 1000576" d="M16.3,39.083l-1.184,1.184a.919.919,0,1,0,1.3,1.3L17.6,40.384a.92.92,0,0,0-1.3-1.3Z" transform="translate(3.58 9.362)" fill="#3b281b"/>
        </g>
      </g>
    </g>
  </g>
</svg>
