<svg xmlns="http://www.w3.org/2000/svg" xmlns:xlink="http://www.w3.org/1999/xlink" width="1228" height="295.5" viewBox="0 0 1228 295.5">
  <defs>
    <clipPath id="clip-path">
      <rect id="Rectángulo_454888" data-name="Rectángulo 454888" width="53" height="53" transform="translate(0 0.062)" fill="none"/>
    </clipPath>
    <clipPath id="clip-path-2">
      <rect id="Rectángulo_454896" data-name="Rectángulo 454896" width="52" height="52" transform="translate(-0.154 -0.154)" fill="none"/>
    </clipPath>
    <clipPath id="clip-path-3">
      <rect id="Rectángulo_454901" data-name="Rectángulo 454901" width="54.406" height="51.533" fill="none"/>
    </clipPath>
    <clipPath id="clip-path-4">
      <rect id="Rectángulo_454904" data-name="Rectángulo 454904" width="50.336" height="50.296" fill="none"/>
    </clipPath>
    <clipPath id="clip-path-5">
      <rect id="Rectángulo_454898" data-name="Rectángulo 454898" width="65" height="65" transform="translate(-0.297)" fill="none"/>
    </clipPath>
    <clipPath id="clip-path-6">
      <rect id="Rectángulo_454900" data-name="Rectángulo 454900" width="51.152" height="53.184" fill="none"/>
    </clipPath>
    <clipPath id="clip-path-7">
      <rect id="Rectángulo_454899" data-name="Rectángulo 454899" width="47" height="47" transform="translate(0 -0.199)" fill="none"/>
    </clipPath>
  </defs>
  <g id="Grupo_1178342" data-name="Grupo 1178342" transform="translate(-186 -10561)">
    <path id="Trazado_1000648" data-name="Trazado 1000648" d="M20,0H272a20,20,0,0,1,20,20V78.111a20,20,0,0,1-20,20H20a20,20,0,0,1-20-20V20A20,20,0,0,1,20,0Z" transform="translate(186 10603.389)" fill="#5e3637"/>
    <path id="Feature_One" data-name="Feature One" d="M99.374,13.568H94.523v3.059h5.73V19H91.438V6.2h8.833V8.585H94.523v2.7h4.852ZM104.5,19h-2.971V5.5H104.5Zm15.135-4.685a5.735,5.735,0,0,1-1,3.538,3.2,3.2,0,0,1-2.694,1.323,2.742,2.742,0,0,1-2.153-.958v4.438h-2.962V9.49h2.769l.088.879a2.742,2.742,0,0,1,2.241-1.055,3.224,3.224,0,0,1,2.733,1.3,5.805,5.805,0,0,1,.976,3.564Zm-2.962-.185q0-2.531-1.477-2.531a1.394,1.394,0,0,0-1.406.756V16.1a1.439,1.439,0,0,0,1.424.791q1.415,0,1.459-2.443ZM126.3,19a3.344,3.344,0,0,1-.281-.853,2.754,2.754,0,0,1-2.285,1.028,3.374,3.374,0,0,1-2.285-.813,2.588,2.588,0,0,1-.94-2.043,2.66,2.66,0,0,1,1.143-2.338,5.821,5.821,0,0,1,3.322-.791h.914v-.5q0-1.316-1.134-1.316a.927.927,0,0,0-1.055,1.042h-2.962a2.655,2.655,0,0,1,1.173-2.239,4.931,4.931,0,0,1,2.993-.86,4.323,4.323,0,0,1,2.874.888,3.086,3.086,0,0,1,1.081,2.435v4.21a4.311,4.311,0,0,0,.4,2V19Zm-1.854-1.934a1.652,1.652,0,0,0,.918-.237,1.487,1.487,0,0,0,.523-.536V14.772h-.861q-1.547,0-1.547,1.389a.848.848,0,0,0,.272.655A.986.986,0,0,0,124.441,17.066ZM133.722,19h-2.979V9.49h2.979ZM132.615,5.676h3.129L133.3,8.436l-2.417,0ZM140.6,16.328a.684.684,0,0,0-.4-.606,6.016,6.016,0,0,0-1.5-.475,6.853,6.853,0,0,1-1.828-.646,3.062,3.062,0,0,1-1.1-.971,2.319,2.319,0,0,1-.378-1.31,2.628,2.628,0,0,1,1.081-2.158,4.453,4.453,0,0,1,2.83-.848,4.934,4.934,0,0,1,3.023.853,2.666,2.666,0,0,1,1.143,2.241h-2.971q0-1.143-1.2-1.143a1.194,1.194,0,0,0-.782.259.8.8,0,0,0-.316.646.737.737,0,0,0,.387.642,3.654,3.654,0,0,0,1.235.4,10.671,10.671,0,0,1,1.49.378,2.706,2.706,0,0,1,2.145,2.646,2.491,2.491,0,0,1-1.156,2.118,5.068,5.068,0,0,1-2.993.817,5.172,5.172,0,0,1-2.18-.439,3.645,3.645,0,0,1-1.494-1.2,2.707,2.707,0,0,1-.536-1.591h2.769a1.145,1.145,0,0,0,.439.962,1.808,1.808,0,0,0,1.081.3,1.422,1.422,0,0,0,.91-.246A.787.787,0,0,0,140.6,16.328Z" transform="translate(214.758 10659.404)" fill="#fff"/>
    <path id="Trazado_1000649" data-name="Trazado 1000649" d="M42,0A42,42,0,1,1,0,42,42,42,0,0,1,42,0Z" transform="translate(289.711 10561)" fill="#e5d5ba"/>
    <g id="Grupo_1178215" data-name="Grupo 1178215" transform="translate(306.102 10574.328)">
      <path id="Trazado_1000097" data-name="Trazado 1000097" d="M58.533,344.153H7.478L15.059,325.8H50.951Z" transform="translate(-6.864 -292.491)" fill="#515151"/>
      <path id="Trazado_1000098" data-name="Trazado 1000098" d="M406.562,325.8H403.8l7.581,18.352h2.765Z" transform="translate(-362.475 -292.49)" fill="#040405"/>
      <path id="Trazado_1000099" data-name="Trazado 1000099" d="M84.439,336.045l-1.685-4.08H62.8L55.748,325.8h-4.54l-2.547,6.165H41.768l-1.685,4.08h6.893l-3.349,8.108h4.54l5.647-13.669,16.069,13.669h6.85l-9.271-8.108Z" transform="translate(-36.12 -292.49)" fill="#e7c79b"/>
      <path id="Trazado_1000100" data-name="Trazado 1000100" d="M430.274,389.9h2.765l-1.685-4.08h-2.765Z" transform="translate(-384.72 -346.342)" fill="#51330b"/>
      <path id="Trazado_1000101" data-name="Trazado 1000101" d="M63.383,331.966H56.49l2.547-6.165H65.93Z" transform="translate(-50.843 -292.49)" fill="#0d1e31"/>
      <path id="Trazado_1000102" data-name="Trazado 1000102" d="M219.6,331.966H199.639L192.59,325.8h24.46Z" transform="translate(-172.962 -292.49)" fill="#0d1e31"/>
      <path id="Trazado_1000103" data-name="Trazado 1000103" d="M409.108,331.966l-2.547-6.165H403.8l2.547,6.165Z" transform="translate(-362.475 -292.49)" fill="#964248"/>
      <path id="Trazado_1000104" data-name="Trazado 1000104" d="M124.432,371.389l-5.647,13.669H140.5Z" transform="translate(-106.739 -333.396)" fill="#0d1e31"/>
      <g id="Grupo_1178214" data-name="Grupo 1178214" transform="translate(-0.39 -0.39)">
        <g id="Grupo_1178213" data-name="Grupo 1178213" clip-path="url(#clip-path)">
          <path id="Trazado_1000105" data-name="Trazado 1000105" d="M117.782,7.534A15.882,15.882,0,0,0,101.96,23.476c0,13.407,15.822,25.743,15.822,25.743s15.823-12.336,15.823-25.743A15.882,15.882,0,0,0,117.782,7.534m0,22.3a6.358,6.358,0,1,1,6.311-6.358,6.335,6.335,0,0,1-6.311,6.358" transform="translate(-91.251 -6.525)" fill="#5c3520"/>
          <path id="Trazado_1000106" data-name="Trazado 1000106" d="M243.922,7.534c-.466,0-.927.021-1.383.061a15.9,15.9,0,0,1,14.44,15.88c0,10.968-10.587,21.217-14.44,24.584.857.749,1.383,1.159,1.383,1.159s15.823-12.336,15.823-25.743A15.882,15.882,0,0,0,243.922,7.534" transform="translate(-217.391 -6.525)" fill="#666"/>
          <path id="Trazado_1000107" data-name="Trazado 1000107" d="M194.162,107.561a7.132,7.132,0,0,0,0-14.264,7,7,0,0,0-4.009,1.253.778.778,0,0,0-.2,1.076.765.765,0,0,0,1.068.2,5.481,5.481,0,0,1,3.138-.98,5.568,5.568,0,1,1-4.92,3.011.777.777,0,0,0-.327-1.044.765.765,0,0,0-1.036.329,7.2,7.2,0,0,0-.8,3.288,7.114,7.114,0,0,0,7.079,7.132" transform="translate(-167.631 -83.479)" fill="#040506"/>
          <path id="Trazado_1000108" data-name="Trazado 1000108" d="M52.533,51.52,44.952,33.168a.768.768,0,0,0-.709-.477H36.688a39.172,39.172,0,0,0,3.648-5.956,22.963,22.963,0,0,0,2.551-10.02,16.591,16.591,0,1,0-33.181,0,22.963,22.963,0,0,0,2.551,10.02A39.151,39.151,0,0,0,15.9,32.691H8.35a.768.768,0,0,0-.709.477L2.475,45.673a.776.776,0,0,0,.414,1.012.764.764,0,0,0,1-.417l.737-1.784H9.859l-2.71,6.56H1.92l.785-1.9a.776.776,0,0,0-.414-1.012.766.766,0,0,0-1,.417L.06,51.52a.778.778,0,0,0,.07.727.766.766,0,0,0,.639.345H51.824a.766.766,0,0,0,.639-.345.779.779,0,0,0,.07-.727m-41.291-34.8a15.055,15.055,0,1,1,30.109,0c0,3.507-1.209,9.111-6.8,16.253l-.016.021q-.429.547-.892,1.1a59.1,59.1,0,0,1-7.342,7.37,59.005,59.005,0,0,1-7.322-7.346q-.475-.572-.913-1.131l-.014-.018c-5.595-7.141-6.805-12.745-6.805-16.254M8.862,34.239h5.229l-1.907,4.617H6.955Zm4.492,16.8,4.8-11.622L31.817,51.044Zm20.845,0L18.344,37.557a.765.765,0,0,0-1.2.294L11.69,51.043H8.813l2.906-7.036a.778.778,0,0,0-.07-.727.766.766,0,0,0-.639-.345H5.269L6.315,40.4H12.7a.768.768,0,0,0,.709-.477l2.35-5.688h1.333q.347.436.708.872a57.951,57.951,0,0,0,8.03,7.959.764.764,0,0,0,.94,0c.09-.07,1.31-1.028,3.048-2.667h8.7a.774.774,0,0,0,0-1.548H31.4c1.065-1.079,2.229-2.337,3.4-3.745q.362-.436.708-.872H43.73l1.907,4.617H41.585a.774.774,0,0,0,0,1.548h4.692l1.046,2.532H31.5a.768.768,0,0,0-.72.5.778.778,0,0,0,.216.855l7.717,6.749Zm6.856,0-7.5-6.56H47.962l2.71,6.56Z" transform="translate(0.235 0.235)" fill="#040506"/>
        </g>
      </g>
    </g>
    <path id="Trazado_1000650" data-name="Trazado 1000650" d="M20,0H272a20,20,0,0,1,20,20V78.111a20,20,0,0,1-20,20H20a20,20,0,0,1-20-20V20A20,20,0,0,1,20,0Z" transform="translate(498 10603.389)" fill="#5e3637"/>
    <path id="Feature_One-2" data-name="Feature One" d="M94.241,13.568H89.39v3.059h5.73V19H86.3V6.2h8.833V8.585H89.39v2.7h4.852ZM99.365,19H96.395V5.5h2.971Zm10.327-2.109a1.317,1.317,0,0,0,.967-.338,1.241,1.241,0,0,0,.334-.945h2.777a3.288,3.288,0,0,1-1.121,2.566,4.168,4.168,0,0,1-2.887,1,4.22,4.22,0,0,1-3.27-1.3,5.125,5.125,0,0,1-1.2-3.6v-.123a5.792,5.792,0,0,1,.532-2.544,3.872,3.872,0,0,1,1.534-1.7,4.573,4.573,0,0,1,2.373-.593,4.116,4.116,0,0,1,2.944,1.028,3.647,3.647,0,0,1,1.09,2.786h-2.777a1.626,1.626,0,0,0-.36-1.134,1.244,1.244,0,0,0-.967-.4q-1.151,0-1.345,1.468a10.357,10.357,0,0,0-.062,1.283,4.068,4.068,0,0,0,.343,1.986A1.187,1.187,0,0,0,109.693,16.891ZM118.148,19h-2.971V5.5h2.971Zm4.948,0h-2.971V9.49H123.1ZM119.949,7.038A1.322,1.322,0,0,1,120.406,6a1.943,1.943,0,0,1,2.373,0,1.322,1.322,0,0,1,.457,1.037,1.322,1.322,0,0,1-.457,1.037,1.943,1.943,0,0,1-2.373,0A1.322,1.322,0,0,1,119.949,7.038Zm7.77,2.452.1,1.116a3.27,3.27,0,0,1,2.716-1.292,2.407,2.407,0,0,1,2.435,1.433,3.165,3.165,0,0,1,2.795-1.433q2.892,0,2.971,3.5V19h-2.971V13a1.813,1.813,0,0,0-.246-1.063,1.048,1.048,0,0,0-.9-.334,1.4,1.4,0,0,0-1.31.782l.009.123V19h-2.971V13.015a1.906,1.906,0,0,0-.237-1.081,1.045,1.045,0,0,0-.905-.334,1.42,1.42,0,0,0-1.3.782V19h-2.962V9.49ZM145.781,19a3.344,3.344,0,0,1-.281-.853,2.754,2.754,0,0,1-2.285,1.028,3.374,3.374,0,0,1-2.285-.813,2.588,2.588,0,0,1-.94-2.043,2.66,2.66,0,0,1,1.143-2.338,5.821,5.821,0,0,1,3.322-.791h.914v-.5q0-1.316-1.134-1.316a.927.927,0,0,0-1.055,1.042h-2.962a2.655,2.655,0,0,1,1.173-2.239,4.931,4.931,0,0,1,2.993-.86,4.323,4.323,0,0,1,2.874.888,3.086,3.086,0,0,1,1.081,2.435v4.21a4.311,4.311,0,0,0,.4,2V19Zm-1.854-1.934a1.652,1.652,0,0,0,.918-.237,1.487,1.487,0,0,0,.523-.536V14.772h-.861q-1.547,0-1.547,1.389a.848.848,0,0,0,.272.655A.986.986,0,0,0,143.926,17.066Z" transform="translate(526.758 10659.404)" fill="#fff"/>
    <path id="Trazado_1000651" data-name="Trazado 1000651" d="M42,0A42,42,0,1,1,0,42,42,42,0,0,1,42,0Z" transform="translate(601.711 10561)" fill="#e5d5ba"/>
    <g id="Grupo_1178219" data-name="Grupo 1178219" transform="translate(618.662 10576.951)">
      <g id="Grupo_1178218" data-name="Grupo 1178218" transform="translate(0.203 0.203)" clip-path="url(#clip-path-2)">
        <path id="Trazado_1000109" data-name="Trazado 1000109" d="M47.018,60.034,45.355,68.9a2.566,2.566,0,0,1-4.528,1.126l-.05-.067A8.452,8.452,0,0,0,28.2,69.274l-.185.185a8.12,8.12,0,0,1-5.737,2.377A2.52,2.52,0,0,1,20.264,67.8l1.512-2.016a2.517,2.517,0,0,0,.5-1.512A7.552,7.552,0,0,0,15.8,56.8h-.008a21.65,21.65,0,0,0-4.343,4.956H15.5a2.574,2.574,0,0,1,2.579,2.579,2.533,2.533,0,0,1-.437,1.428l-.764,1.151a2.894,2.894,0,0,0-.479,1.6v4.519a2.87,2.87,0,0,0,2.083,2.764l1.714.487a2.874,2.874,0,0,1-.79,5.636H17.534A4.557,4.557,0,0,1,13.46,79.4a4.557,4.557,0,0,0-4.074-2.52H8V96.2a1.685,1.685,0,0,0,1.68,1.68,1.692,1.692,0,0,0,1.68-1.68v-6.72a1.685,1.685,0,0,1,1.68-1.68,1.692,1.692,0,0,1,1.68,1.68V100.4a1.685,1.685,0,0,0,1.68,1.68,1.692,1.692,0,0,0,1.68-1.68V86.956a1.685,1.685,0,0,1,1.68-1.68,1.692,1.692,0,0,1,1.68,1.68v10.08a1.685,1.685,0,0,0,1.68,1.68h2.52v2.52h2.52v-8.4a1.685,1.685,0,0,1,1.68-1.68,1.692,1.692,0,0,1,1.68,1.68v7.56a1.685,1.685,0,0,0,1.68,1.68,1.692,1.692,0,0,0,1.68-1.68v-2.52h3.36v-3.36a1.691,1.691,0,0,1,.672-1.344l2.016-1.512a1.691,1.691,0,0,0,.672-1.344v-3.36a1.685,1.685,0,0,0-1.68-1.68h-.84A1.692,1.692,0,0,1,37.4,83.6a1.685,1.685,0,0,1,1.68-1.68h4.2a1.692,1.692,0,0,0,1.68-1.68,1.685,1.685,0,0,0-1.68-1.68H41.6a1.685,1.685,0,0,1-1.68-1.68v-2.52a11.709,11.709,0,0,1,8.4,3.545V65.956a3.339,3.339,0,0,1,.974-2.369,21.476,21.476,0,0,0-2.276-3.553" transform="translate(-7.354 -51.03)" fill="#5ec1e5"/>
        <path id="Trazado_1000110" data-name="Trazado 1000110" d="M113.463,16.358l-1.663,8.87a2.566,2.566,0,0,1-4.528,1.126l-.05-.067A8.452,8.452,0,0,0,94.647,25.6l-.185.185a8.12,8.12,0,0,1-5.737,2.377,2.52,2.52,0,0,1-2.016-4.032l1.512-2.016a2.517,2.517,0,0,0,.5-1.512,7.552,7.552,0,0,0-6.485-7.476,21.823,21.823,0,0,1,31.223,3.234" transform="translate(-73.799 -7.354)" fill="#afc96a"/>
        <path id="Trazado_1000111" data-name="Trazado 1000111" d="M8.26,119.12H8v-3.36A21.642,21.642,0,0,1,11.444,104H15.5a2.574,2.574,0,0,1,2.579,2.579,2.533,2.533,0,0,1-.437,1.428l-.764,1.151a2.9,2.9,0,0,0-.479,1.6v4.519a2.87,2.87,0,0,0,2.083,2.764l1.714.487a2.874,2.874,0,0,1-.79,5.636H17.534a4.557,4.557,0,0,1-4.074-2.52,4.557,4.557,0,0,0-4.074-2.52Z" transform="translate(-7.354 -93.274)" fill="#afc96a"/>
        <path id="Trazado_1000112" data-name="Trazado 1000112" d="M370.08,138.947a.535.535,0,0,0-.118-.067h.118V115.36a3.362,3.362,0,0,0-5.737-2.377l-.008.008a3.339,3.339,0,0,0-.974,2.369v23.587a6.72,6.72,0,1,0,6.72,0" transform="translate(-322.394 -100.434)" fill="#e1cdce"/>
        <path id="Trazado_1000113" data-name="Trazado 1000113" d="M48.721,38.241V15.12a4.2,4.2,0,0,0-4.2-4.2,4.146,4.146,0,0,0-2.111.591A22.674,22.674,0,0,0,0,22.68V45.36a2.52,2.52,0,1,0,5.04,0V38.64a.84.84,0,0,1,1.68,0v10.92a2.52,2.52,0,1,0,5.04,0V36.12a.84.84,0,1,1,1.68,0V46.2a2.523,2.523,0,0,0,2.52,2.52h2.52V47.04H15.96a.84.84,0,0,1-.84-.84V36.12a2.52,2.52,0,1,0-5.04,0v13.44a.84.84,0,0,1-1.68,0V38.64a2.52,2.52,0,0,0-5.04,0v6.72a.84.84,0,0,1-1.68,0V26.88h.543a3.7,3.7,0,0,1,3.326,2.056,5.366,5.366,0,0,0,4.828,2.985h1.87a3.713,3.713,0,0,0,1.02-7.283l-1.712-.489a2.043,2.043,0,0,1-1.475-1.956V17.67a2.035,2.035,0,0,1,.341-1.128l.764-1.147A3.419,3.419,0,0,0,8.341,10.08H5.892A21.181,21.181,0,0,1,8.885,6.867a6.741,6.741,0,0,1,5.4,6.573,1.7,1.7,0,0,1-.335,1.008l-1.514,2.017A3.36,3.36,0,0,0,15.12,21.84a8.89,8.89,0,0,0,6.329-2.621l.192-.191a7.608,7.608,0,0,1,11.322.628l.052.066a3.4,3.4,0,0,0,6-1.5l1.3-6.929q.43.665.812,1.369a4.161,4.161,0,0,0-.809,2.456v10.1a12.443,12.443,0,0,0-7.152-2.536l-2.538-3.173A2.741,2.741,0,0,0,28.48,18.48H27.066a2.763,2.763,0,0,0-2.707,2.781,1.07,1.07,0,0,1-.779,1.008l-.63.18a6.191,6.191,0,0,0-4.47,5.927v2.482A6.05,6.05,0,0,0,23.8,36.768a4.5,4.5,0,0,1,1.98.809l.758.552a.843.843,0,0,1,.347.68V49.561a.84.84,0,0,1-1.68,0V42a2.52,2.52,0,1,0-5.04,0v8.4h1.68V42a.84.84,0,1,1,1.68,0v7.56a2.52,2.52,0,1,0,5.04,0V38.808a2.529,2.529,0,0,0-1.037-2.038l-.759-.552a6.2,6.2,0,0,0-2.72-1.112,4.382,4.382,0,0,1-3.884-4.248V28.376a4.5,4.5,0,0,1,3.252-4.312l.631-.18a2.743,2.743,0,0,0,2-2.584,1.09,1.09,0,0,1,1.027-1.141H28.48a1.069,1.069,0,0,1,.839.4l2.6,3.252V26.04a2.523,2.523,0,0,0,2.52,2.52h1.68a.84.84,0,0,1,0,1.68h-4.2a2.52,2.52,0,1,0,0,5.04h.84a.84.84,0,0,1,.84.84v3.36a.843.843,0,0,1-.336.672l-2.016,1.513A2.527,2.527,0,0,0,30.24,43.68v3.36h1.68V43.68a.843.843,0,0,1,.336-.672L34.272,41.5A2.526,2.526,0,0,0,35.28,39.48V36.12a2.523,2.523,0,0,0-2.52-2.52h-.84a.84.84,0,0,1,0-1.68h4.2a2.52,2.52,0,0,0,0-5.04H34.44a.841.841,0,0,1-.84-.84V24.4a10.78,10.78,0,0,1,6.72,3.027V38.241a7.547,7.547,0,0,0-3.267,7.486,7.561,7.561,0,1,0,11.667-7.485M8.341,11.76a1.738,1.738,0,0,1,1.446,2.7L9.023,15.61A3.713,3.713,0,0,0,8.4,17.67v4.523a3.729,3.729,0,0,0,2.693,3.57l1.712.489a2.033,2.033,0,0,1-.558,3.988h-1.87a3.7,3.7,0,0,1-3.326-2.056A5.366,5.366,0,0,0,2.223,25.2H1.68V22.68A20.872,20.872,0,0,1,4.749,11.76Zm29.026,6.154a1.724,1.724,0,0,1-3.042.758l-.052-.066a9.289,9.289,0,0,0-13.82-.767l-.192.191a7.221,7.221,0,0,1-5.142,2.13,1.681,1.681,0,0,1-1.345-2.688l1.514-2.017a3.385,3.385,0,0,0,.671-2.015A8.434,8.434,0,0,0,10.5,5.589,20.981,20.981,0,0,1,38.962,9.408ZM48.442,48.9a5.821,5.821,0,0,1-4.6,1.46,5.876,5.876,0,0,1-2.265-10.929L42,39.191V15.12a2.52,2.52,0,1,1,5.04,0v2.52H43.68v1.68h3.36V21H45.36v1.68h1.68v1.68H43.68v1.68h3.36v1.68H45.36V29.4h1.68v1.68H43.68v1.68h3.36v1.68H45.36v1.68h1.68V37.8H43.68v1.68h3.849a5.869,5.869,0,0,1,.912,9.422" transform="translate(-0.194 -0.194)" fill="#040506"/>
        <path id="Trazado_1000114" data-name="Trazado 1000114" d="M385.68,424H384a4.2,4.2,0,0,0,4.2,4.2v-1.68a2.523,2.523,0,0,1-2.52-2.52" transform="translate(-343.874 -379.674)" fill="#040506"/>
        <rect id="Rectángulo_454889" data-name="Rectángulo 454889" width="2" height="2" transform="translate(21.846 3.846)" fill="#040506"/>
        <rect id="Rectángulo_454890" data-name="Rectángulo 454890" width="1" height="2" transform="translate(28.846 9.846)" fill="#040506"/>
        <rect id="Rectángulo_454891" data-name="Rectángulo 454891" width="2" height="2" transform="translate(14.846 15.846)" fill="#040506"/>
        <rect id="Rectángulo_454892" data-name="Rectángulo 454892" width="2" height="2" transform="translate(15.846 5.846)" fill="#040506"/>
        <rect id="Rectángulo_454893" data-name="Rectángulo 454893" width="1" height="2" transform="translate(21.846 11.846)" fill="#040506"/>
        <rect id="Rectángulo_454894" data-name="Rectángulo 454894" width="1" height="2" transform="translate(28.846 5.846)" fill="#040506"/>
        <rect id="Rectángulo_454895" data-name="Rectángulo 454895" width="2" height="2" transform="translate(17.846 9.846)" fill="#040506"/>
      </g>
    </g>
    <path id="Trazado_1000657" data-name="Trazado 1000657" d="M20,0H272a20,20,0,0,1,20,20V78.111a20,20,0,0,1-20,20H20a20,20,0,0,1-20-20V20A20,20,0,0,1,20,0Z" transform="translate(602 10758.389)" fill="#5e3637"/>
    <path id="Feature_One-3" data-name="Feature One" d="M73.429,8.585H69.588V19H66.5V8.585H62.733V6.2h10.7ZM77.718,19H74.747V9.49h2.971ZM74.572,7.038A1.322,1.322,0,0,1,75.029,6,1.943,1.943,0,0,1,77.4,6a1.322,1.322,0,0,1,.457,1.037A1.322,1.322,0,0,1,77.4,8.075a1.943,1.943,0,0,1-2.373,0A1.322,1.322,0,0,1,74.572,7.038Zm13.8,7.277a5.735,5.735,0,0,1-1,3.538,3.2,3.2,0,0,1-2.694,1.323,2.742,2.742,0,0,1-2.153-.958v4.438H79.564V9.49h2.769l.088.879a2.742,2.742,0,0,1,2.241-1.055,3.224,3.224,0,0,1,2.733,1.3,5.805,5.805,0,0,1,.976,3.564Zm-2.962-.185q0-2.531-1.477-2.531a1.394,1.394,0,0,0-1.406.756V16.1a1.439,1.439,0,0,0,1.424.791q1.415,0,1.459-2.443Zm3.894.026a5.613,5.613,0,0,1,.554-2.536,3.96,3.96,0,0,1,1.591-1.709,4.791,4.791,0,0,1,2.435-.6,4.373,4.373,0,0,1,3.366,1.323,5.076,5.076,0,0,1,1.23,3.6v.105a4.925,4.925,0,0,1-1.235,3.529A4.384,4.384,0,0,1,93.9,19.176a4.434,4.434,0,0,1-3.261-1.217,4.761,4.761,0,0,1-1.327-3.3Zm2.962.185a3.538,3.538,0,0,0,.413,1.934,1.376,1.376,0,0,0,1.222.615q1.582,0,1.617-2.435v-.3q0-2.558-1.635-2.558-1.485,0-1.608,2.206Zm11.628-.167a5.809,5.809,0,0,1,.976-3.56,3.211,3.211,0,0,1,2.725-1.3,2.731,2.731,0,0,1,2.145,1V5.5h2.971V19h-2.663l-.149-1.02a2.8,2.8,0,0,1-2.32,1.2,3.205,3.205,0,0,1-2.689-1.3A5.993,5.993,0,0,1,103.892,14.175Zm2.962.185q0,2.531,1.477,2.531a1.458,1.458,0,0,0,1.406-.826V12.443a1.419,1.419,0,0,0-1.389-.844q-1.371,0-1.485,2.215Zm12.138,4.816a4.889,4.889,0,0,1-3.542-1.305,4.507,4.507,0,0,1-1.354-3.4v-.246a5.84,5.84,0,0,1,.541-2.575,3.955,3.955,0,0,1,1.578-1.727,4.763,4.763,0,0,1,2.461-.611,4.117,4.117,0,0,1,3.164,1.244A4.887,4.887,0,0,1,123,14.025v1.151h-5.889a2.135,2.135,0,0,0,.694,1.257,2.066,2.066,0,0,0,1.389.457,2.662,2.662,0,0,0,2.2-.984l1.354,1.6a3.784,3.784,0,0,1-1.569,1.217A5.3,5.3,0,0,1,118.991,19.176Zm-.334-7.576q-1.3,0-1.547,1.723H120.1v-.229a1.467,1.467,0,0,0-.36-1.1A1.434,1.434,0,0,0,118.657,11.6Zm14.994,4.729a.684.684,0,0,0-.4-.606,6.016,6.016,0,0,0-1.5-.475,6.853,6.853,0,0,1-1.828-.646,3.062,3.062,0,0,1-1.1-.971,2.319,2.319,0,0,1-.378-1.31,2.628,2.628,0,0,1,1.081-2.158,4.453,4.453,0,0,1,2.83-.848,4.934,4.934,0,0,1,3.023.853,2.666,2.666,0,0,1,1.143,2.241h-2.971q0-1.143-1.2-1.143a1.194,1.194,0,0,0-.782.259.8.8,0,0,0-.316.646.737.737,0,0,0,.387.642,3.654,3.654,0,0,0,1.235.4,10.671,10.671,0,0,1,1.49.378,2.707,2.707,0,0,1,2.145,2.646,2.491,2.491,0,0,1-1.156,2.118,5.068,5.068,0,0,1-2.993.817,5.172,5.172,0,0,1-2.18-.439,3.645,3.645,0,0,1-1.494-1.2,2.707,2.707,0,0,1-.536-1.591h2.769a1.145,1.145,0,0,0,.439.962,1.808,1.808,0,0,0,1.081.3,1.422,1.422,0,0,0,.91-.246A.787.787,0,0,0,133.652,16.328Zm9.905,1.644a3.054,3.054,0,0,1-2.54,1.2,3,3,0,0,1-2.369-.91,3.826,3.826,0,0,1-.8-2.615V9.49h2.962v6.179a1.065,1.065,0,0,0,1.187,1.222,1.548,1.548,0,0,0,1.45-.729V9.49h2.979V19h-2.777Zm9.088,1.2a4.889,4.889,0,0,1-3.542-1.305,4.507,4.507,0,0,1-1.354-3.4v-.246a5.84,5.84,0,0,1,.541-2.575,3.955,3.955,0,0,1,1.578-1.727,4.763,4.763,0,0,1,2.461-.611,4.117,4.117,0,0,1,3.164,1.244,4.887,4.887,0,0,1,1.16,3.467v1.151h-5.889a2.135,2.135,0,0,0,.694,1.257,2.066,2.066,0,0,0,1.389.457,2.662,2.662,0,0,0,2.2-.984l1.354,1.6a3.784,3.784,0,0,1-1.569,1.217A5.3,5.3,0,0,1,152.645,19.176Zm-.334-7.576q-1.3,0-1.547,1.723h2.988v-.229a1.467,1.467,0,0,0-.36-1.1A1.434,1.434,0,0,0,152.311,11.6Zm8.657,7.4H158V5.5h2.971Zm1.45-4.843a5.613,5.613,0,0,1,.554-2.536,3.96,3.96,0,0,1,1.591-1.709,4.791,4.791,0,0,1,2.435-.6,4.373,4.373,0,0,1,3.366,1.323,5.076,5.076,0,0,1,1.23,3.6v.105a4.925,4.925,0,0,1-1.235,3.529,4.384,4.384,0,0,1-3.344,1.305,4.434,4.434,0,0,1-3.261-1.217,4.761,4.761,0,0,1-1.327-3.3Zm2.962.185a3.538,3.538,0,0,0,.413,1.934,1.376,1.376,0,0,0,1.222.615q1.582,0,1.617-2.435v-.3q0-2.558-1.635-2.558-1.485,0-1.608,2.206Z" transform="translate(630.758 10814.404)" fill="#fff"/>
    <path id="Trazado_1000653" data-name="Trazado 1000653" d="M42,0A42,42,0,1,1,0,42,42,42,0,0,1,42,0Z" transform="translate(705.711 10716)" fill="#e5d5ba"/>
    <g id="Grupo_1178238" data-name="Grupo 1178238" transform="translate(720.711 10730.428)">
      <path id="Trazado_1000201" data-name="Trazado 1000201" d="M60.95,372.113H8.213V361.985l26.369-2.4,26.369,2.4Z" transform="translate(-7.34 -321.376)" fill="#51330b"/>
      <path id="Trazado_1000202" data-name="Trazado 1000202" d="M36.173,359.731l-1.592-.145-26.369,2.4v10.128H11.4V361.985Z" transform="translate(-7.34 -321.376)" fill="#5c3520"/>
      <path id="Trazado_1000203" data-name="Trazado 1000203" d="M60.95,186.089l-26.369,2.442L8.213,186.089v-3.3H60.95Z" transform="translate(-7.34 -163.369)" fill="#040405"/>
      <path id="Trazado_1000204" data-name="Trazado 1000204" d="M8.212,252.236v-13.19L10.9,237.4l23.68-.608,23.765.608,2.6,1.648v13.191Z" transform="translate(-7.34 -211.627)" fill="#e7c79b"/>
      <g id="Grupo_1178237" data-name="Grupo 1178237">
        <g id="Grupo_1178236" data-name="Grupo 1178236" clip-path="url(#clip-path-3)">
          <path id="Trazado_1000205" data-name="Trazado 1000205" d="M8.212,218.51c2.56.025,2.586,1.273,5.2,1.273,2.637,0,2.637-1.273,5.274-1.273s2.637,1.273,5.274,1.273,2.637-1.273,5.274-1.273,2.637,1.273,5.273,1.273,2.637-1.273,5.273-1.273,2.637,1.273,5.274,1.273,2.637-1.273,5.274-1.273,2.637,1.273,5.274,1.273,2.637-1.273,5.274-1.273h.077v-4.7H8.212Z" transform="translate(-7.339 -191.092)" fill="#51330b"/>
          <path id="Trazado_1000206" data-name="Trazado 1000206" d="M87.408,415.433a1.648,1.648,0,1,1-1.648,1.648,1.648,1.648,0,0,1,1.648-1.648" transform="translate(-76.647 -371.288)" fill="#964248"/>
          <path id="Trazado_1000207" data-name="Trazado 1000207" d="M320.047,415.433a1.648,1.648,0,1,1-1.648,1.648,1.648,1.648,0,0,1,1.648-1.648" transform="translate(-284.565 -371.288)" fill="#964248"/>
          <path id="Trazado_1000208" data-name="Trazado 1000208" d="M279.523,20.05c-3.333.9-6.509-.122-7.432-3.429-.94-3.366,1.223-6.634,4.521-7.789,8.255-2.891,13.985.032,13.985.032-4.553,1.224-5.05,9.566-11.074,11.186" transform="translate(-242.981 -6.753)" fill="#248433"/>
          <path id="Trazado_1000209" data-name="Trazado 1000209" d="M275.276,16.622c-.94-3.366,1.223-6.634,4.521-7.789a22.393,22.393,0,0,1,5.647-1.213,21.371,21.371,0,0,0-8.83,1.213c-3.3,1.155-5.46,4.423-4.521,7.789.869,3.113,3.735,4.2,6.849,3.566a4.822,4.822,0,0,1-3.666-3.566" transform="translate(-242.982 -6.754)" fill="#104010"/>
          <path id="Trazado_1000210" data-name="Trazado 1000210" d="M68.856,41.22c3.33.91,6.509-.1,7.446-3.4.953-3.362-1.2-6.639-4.489-7.807-8.243-2.924-13.985-.025-13.985-.025,4.548,1.243,5.011,9.586,11.029,11.231" transform="translate(-51.682 -25.657)" fill="#248433"/>
          <path id="Trazado_1000211" data-name="Trazado 1000211" d="M72.039,41.224c-4.926-1.346-6.13-7.181-8.9-9.935a1.3,1.3,0,0,1,.662-2.182,18.225,18.225,0,0,1,2.287-.331,16.783,16.783,0,0,0-8.262,1.217c4.548,1.243,5.011,9.586,11.029,11.231a7.711,7.711,0,0,0,3.795.146q-.3-.062-.611-.146" transform="translate(-51.682 -25.661)" fill="#104010"/>
          <path id="Trazado_1000212" data-name="Trazado 1000212" d="M54.257,180.191H46.181a.8.8,0,0,1,0-1.592h7.28v-1.7H2.315v1.7h40.4a.8.8,0,1,1,0,1.592H1.519a.8.8,0,0,1-.8-.8v-3.3a.8.8,0,0,1,.8-.8H54.257a.8.8,0,0,1,.8.8v3.3a.8.8,0,0,1-.8.8" transform="translate(-0.646 -156.675)" fill="#040506"/>
          <path id="Trazado_1000213" data-name="Trazado 1000213" d="M497.818,225.784a.8.8,0,0,1-.8-.8V207.1a.8.8,0,1,1,1.592,0v17.891a.8.8,0,0,1-.8.8" transform="translate(-444.207 -184.379)" fill="#040506"/>
          <path id="Trazado_1000214" data-name="Trazado 1000214" d="M1.519,225.784a.8.8,0,0,1-.8-.8V207.1a.8.8,0,1,1,1.592,0v17.891a.8.8,0,0,1-.8.8" transform="translate(-0.646 -184.379)" fill="#040506"/>
          <path id="Trazado_1000215" data-name="Trazado 1000215" d="M48.259,253.4a6.022,6.022,0,0,1-2.983-.716,4.985,4.985,0,0,0-4.582,0,6.573,6.573,0,0,1-5.966,0,4.985,4.985,0,0,0-4.581,0,6.573,6.573,0,0,1-5.966,0,4.483,4.483,0,0,0-2.291-.557,4.483,4.483,0,0,0-2.291.557,6.02,6.02,0,0,1-2.983.716,6.02,6.02,0,0,1-2.983-.716,4.482,4.482,0,0,0-2.291-.558,4.483,4.483,0,0,0-2.291.558,6.021,6.021,0,0,1-2.983.716,6.021,6.021,0,0,1-2.983-.716A4.483,4.483,0,0,0,.8,252.124a.8.8,0,0,1,0-1.592,6.021,6.021,0,0,1,2.983.716,4.482,4.482,0,0,0,2.291.558,4.483,4.483,0,0,0,2.291-.557,6.02,6.02,0,0,1,2.983-.716,6.019,6.019,0,0,1,2.983.716,4.483,4.483,0,0,0,2.291.557,4.482,4.482,0,0,0,2.291-.558,6.021,6.021,0,0,1,2.983-.716,6.021,6.021,0,0,1,2.983.716,4.985,4.985,0,0,0,4.581,0,6.573,6.573,0,0,1,5.966,0,4.985,4.985,0,0,0,4.581,0,6.574,6.574,0,0,1,5.966,0,4.986,4.986,0,0,0,4.582,0,6.021,6.021,0,0,1,2.983-.716.8.8,0,0,1,0,1.592,4.484,4.484,0,0,0-2.291.558,6.022,6.022,0,0,1-2.983.716" transform="translate(0 -223.91)" fill="#040506"/>
          <path id="Trazado_1000216" data-name="Trazado 1000216" d="M54.257,388.405H1.519a.8.8,0,0,1-.8-.8v-9.888a.8.8,0,0,1,.8-.8h11.45a.8.8,0,0,1,0,1.592H2.315v8.3H53.461v-8.3H16.438a.8.8,0,0,1,0-1.592H54.257a.8.8,0,0,1,.8.8v9.888a.8.8,0,0,1-.8.8" transform="translate(-0.646 -336.872)" fill="#040506"/>
          <path id="Trazado_1000217" data-name="Trazado 1000217" d="M32.536,440.557a.774.774,0,0,1-.155-.016.734.734,0,0,1-.149-.046.811.811,0,0,1-.358-.292.848.848,0,0,1-.118-.287.761.761,0,0,1-.016-.155.8.8,0,0,1,.234-.563.773.773,0,0,1,.12-.1.861.861,0,0,1,.138-.073.8.8,0,0,1,.867.172.805.805,0,0,1,.233.563.843.843,0,0,1-.015.155.8.8,0,0,1-.046.149.816.816,0,0,1-.073.138.772.772,0,0,1-.1.12.84.84,0,0,1-.121.1.769.769,0,0,1-.137.072.756.756,0,0,1-.149.046.784.784,0,0,1-.156.016" transform="translate(-28.367 -392.32)" fill="#040506"/>
          <path id="Trazado_1000218" data-name="Trazado 1000218" d="M80.714,412.831a2.444,2.444,0,1,1,2.444-2.444,2.447,2.447,0,0,1-2.444,2.444m0-3.3a.852.852,0,1,0,.852.852.853.853,0,0,0-.852-.852" transform="translate(-69.953 -364.594)" fill="#040506"/>
          <path id="Trazado_1000219" data-name="Trazado 1000219" d="M313.354,412.831a2.444,2.444,0,1,1,2.444-2.444,2.447,2.447,0,0,1-2.444,2.444m0-3.3a.852.852,0,1,0,.852.852.853.853,0,0,0-.852-.852" transform="translate(-277.872 -364.594)" fill="#040506"/>
          <path id="Trazado_1000220" data-name="Trazado 1000220" d="M172.126,409.535a.786.786,0,0,1-.156-.016.831.831,0,0,1-.149-.045.808.808,0,0,1-.137-.073.84.84,0,0,1-.121-.1.716.716,0,0,1-.1-.12.818.818,0,0,1-.073-.138.806.806,0,0,1-.046-.149.816.816,0,0,1,0-.31.805.805,0,0,1,.046-.149.816.816,0,0,1,.073-.138.712.712,0,0,1,.1-.12.85.85,0,0,1,.121-.1.736.736,0,0,1,.137-.072.745.745,0,0,1,.149-.046.769.769,0,0,1,.311,0,.725.725,0,0,1,.149.046.735.735,0,0,1,.137.072.793.793,0,0,1,.121.1.713.713,0,0,1,.1.12.816.816,0,0,1,.073.138.805.805,0,0,1,.046.149.763.763,0,0,1,0,.31.806.806,0,0,1-.046.149.818.818,0,0,1-.073.138.716.716,0,0,1-.1.12.8.8,0,0,1-.562.234" transform="translate(-153.124 -364.594)" fill="#040506"/>
          <path id="Trazado_1000221" data-name="Trazado 1000221" d="M249.666,430.913a.764.764,0,0,1-.155-.016.813.813,0,0,1-.149-.046.774.774,0,0,1-.138-.073.715.715,0,0,1-.12-.1.728.728,0,0,1-.1-.121.741.741,0,0,1-.073-.137.729.729,0,0,1-.046-.149.768.768,0,0,1-.016-.155.8.8,0,0,1,.234-.563.775.775,0,0,1,.12-.1.858.858,0,0,1,.138-.073.8.8,0,0,1,.149-.046.81.81,0,0,1,.311,0,.806.806,0,0,1,.407.218.8.8,0,0,1-.563,1.359" transform="translate(-222.425 -383.7)" fill="#040506"/>
          <path id="Trazado_1000222" data-name="Trazado 1000222" d="M404.766,440.554a.788.788,0,0,1-.156-.016.834.834,0,0,1-.286-.118.789.789,0,0,1-.121-.1.716.716,0,0,1-.1-.12.82.82,0,0,1-.073-.138.811.811,0,0,1-.046-.149.852.852,0,0,1-.015-.155.805.805,0,0,1,.233-.563.782.782,0,0,1,.121-.1.778.778,0,0,1,.286-.118.769.769,0,0,1,.311,0,.778.778,0,0,1,.286.118.775.775,0,0,1,.121.1.8.8,0,0,1,.233.563.769.769,0,0,1-.015.155.8.8,0,0,1-.046.149.818.818,0,0,1-.073.138.718.718,0,0,1-.1.12.781.781,0,0,1-.121.1.726.726,0,0,1-.137.072.739.739,0,0,1-.149.046.78.78,0,0,1-.155.016" transform="translate(-361.043 -392.317)" fill="#040506"/>
          <path id="Trazado_1000223" data-name="Trazado 1000223" d="M466.8,418.255a.8.8,0,0,1-.8-.8.78.78,0,0,1,.016-.156.8.8,0,0,1,.046-.149.737.737,0,0,1,.073-.137.72.72,0,0,1,.1-.121.794.794,0,0,1,1.125,0,.769.769,0,0,1,.1.121.8.8,0,0,1,.073.137.812.812,0,0,1,.046.149.869.869,0,0,1,.015.156.8.8,0,0,1-.8.8" transform="translate(-416.482 -372.387)" fill="#040506"/>
          <path id="Trazado_1000224" data-name="Trazado 1000224" d="M270.6,14.4a5.834,5.834,0,0,1-5.962-4.322c-1.014-3.632,1.146-7.4,5.024-8.754,8.479-2.969,14.364-.052,14.61.074a.8.8,0,0,1-.155,1.477c-1.8.485-2.916,2.378-4.205,4.569-1.562,2.656-3.332,5.666-6.869,6.617a9.428,9.428,0,0,1-2.443.339m2.236-1.107h0ZM277.2,1.6A21.166,21.166,0,0,0,270.19,2.83c-3.076,1.077-4.8,4.011-4.017,6.824a4,4,0,0,0,2.353,2.77,6.448,6.448,0,0,0,4.105.1c2.908-.782,4.434-3.377,5.91-5.886a14.6,14.6,0,0,1,3.366-4.414,16.288,16.288,0,0,0-2.083-.441A18.276,18.276,0,0,0,277.2,1.6" transform="translate(-236.296 0)" fill="#040506"/>
          <path id="Trazado_1000225" data-name="Trazado 1000225" d="M249.491,84.125a.8.8,0,0,1-.8-.8V69.581a20.968,20.968,0,0,1,2.249-10.25,11.925,11.925,0,0,1,8.051-5.971.8.8,0,1,1,.36,1.55,10.393,10.393,0,0,0-7.021,5.2,19.426,19.426,0,0,0-2.047,9.475V83.329a.8.8,0,0,1-.8.8" transform="translate(-222.268 -47.671)" fill="#040506"/>
          <path id="Trazado_1000226" data-name="Trazado 1000226" d="M64.425,35.64a9.4,9.4,0,0,1-2.475-.349c-3.533-.965-5.291-3.983-6.842-6.645-1.28-2.2-2.385-4.094-4.187-4.586a.8.8,0,0,1-.149-1.478A17.264,17.264,0,0,1,59,21.251a.8.8,0,1,1-.092,1.589,18.1,18.1,0,0,0-5.417.482q-.188.047-.36.1a14.6,14.6,0,0,1,3.349,4.428c1.466,2.515,2.981,5.117,5.886,5.911a6.447,6.447,0,0,0,4.106-.087,4,4,0,0,0,2.364-2.761c.8-2.81-.918-5.751-3.989-6.84a22.819,22.819,0,0,0-2.6-.754.8.8,0,1,1,.35-1.553,24.416,24.416,0,0,1,2.782.806c3.873,1.374,6.018,5.146,4.988,8.774a5.829,5.829,0,0,1-5.947,4.3" transform="translate(-44.987 -18.961)" fill="#040506"/>
          <path id="Trazado_1000227" data-name="Trazado 1000227" d="M165.524,86.56a.8.8,0,0,1-.637-.318,16.174,16.174,0,0,0-6.642-5.191l-3.707-1.565a.8.8,0,0,1,.619-1.466l3.707,1.565a17.767,17.767,0,0,1,7.3,5.7.8.8,0,0,1-.636,1.273" transform="translate(-137.681 -69.673)" fill="#040506"/>
          <path id="Trazado_1000228" data-name="Trazado 1000228" d="M179.27,302.639a.8.8,0,0,1-.713-1.149l1.722-3.485a.8.8,0,0,1,.474-.406l5.656-1.784a.8.8,0,0,1,.479,1.518l-5.332,1.682-1.572,3.18a.8.8,0,0,1-.714.444" transform="translate(-159.51 -264.348)" fill="#040506"/>
          <path id="Trazado_1000229" data-name="Trazado 1000229" d="M167.137,298.661a.792.792,0,0,1-.381-.1l-3.369-1.843a.8.8,0,0,1,.764-1.4l3.369,1.843a.8.8,0,0,1-.383,1.494" transform="translate(-145.654 -263.855)" fill="#040506"/>
          <path id="Trazado_1000230" data-name="Trazado 1000230" d="M257.045,302.639a.8.8,0,0,1-.714-.444l-1.572-3.18-5.332-1.682a.8.8,0,1,1,.479-1.518l5.656,1.784a.8.8,0,0,1,.474.406l1.722,3.485a.8.8,0,0,1-.713,1.149" transform="translate(-222.425 -264.348)" fill="#040506"/>
          <path id="Trazado_1000231" data-name="Trazado 1000231" d="M302.895,298.662a.8.8,0,0,1-.383-1.494l3.369-1.843a.8.8,0,0,1,.764,1.4l-3.369,1.843a.793.793,0,0,1-.381.1" transform="translate(-269.996 -263.856)" fill="#040506"/>
        </g>
      </g>
    </g>
    <path id="Trazado_1000658" data-name="Trazado 1000658" d="M20,0H376a20,20,0,0,1,20,20V78.111a20,20,0,0,1-20,20H20a20,20,0,0,1-20-20V20A20,20,0,0,1,20,0Z" transform="translate(914 10758.389)" fill="#5e3637"/>
    <path id="Trazado_1000655" data-name="Trazado 1000655" d="M42,0A42,42,0,1,1,0,42,42,42,0,0,1,42,0Z" transform="translate(1069.711 10716)" fill="#e5d5ba"/>
    <path id="Feature_One-4" data-name="Feature One" d="M33.773,8.585H29.932V19H26.847V8.585H23.076V6.2h10.7ZM38.062,19H35.091V9.49h2.971ZM34.915,7.038A1.322,1.322,0,0,1,35.372,6a1.943,1.943,0,0,1,2.373,0A1.322,1.322,0,0,1,38.2,7.038a1.322,1.322,0,0,1-.457,1.037,1.943,1.943,0,0,1-2.373,0A1.322,1.322,0,0,1,34.915,7.038Zm13.8,7.277a5.735,5.735,0,0,1-1,3.538,3.2,3.2,0,0,1-2.694,1.323,2.742,2.742,0,0,1-2.153-.958v4.438H39.907V9.49h2.769l.088.879a2.742,2.742,0,0,1,2.241-1.055,3.224,3.224,0,0,1,2.733,1.3,5.805,5.805,0,0,1,.976,3.564Zm-2.962-.185q0-2.531-1.477-2.531a1.394,1.394,0,0,0-1.406.756V16.1a1.439,1.439,0,0,0,1.424.791q1.415,0,1.459-2.443Zm3.894.026a5.613,5.613,0,0,1,.554-2.536A3.96,3.96,0,0,1,51.79,9.912a4.791,4.791,0,0,1,2.435-.6,4.373,4.373,0,0,1,3.366,1.323,5.076,5.076,0,0,1,1.23,3.6v.105a4.925,4.925,0,0,1-1.235,3.529,4.384,4.384,0,0,1-3.344,1.305,4.434,4.434,0,0,1-3.261-1.217,4.761,4.761,0,0,1-1.327-3.3Zm2.962.185a3.538,3.538,0,0,0,.413,1.934,1.376,1.376,0,0,0,1.222.615q1.582,0,1.617-2.435v-.3q0-2.558-1.635-2.558-1.485,0-1.608,2.206Zm11.628-.167a5.809,5.809,0,0,1,.976-3.56,3.211,3.211,0,0,1,2.725-1.3,2.731,2.731,0,0,1,2.145,1V5.5h2.971V19H70.388l-.149-1.02a2.8,2.8,0,0,1-2.32,1.2,3.205,3.205,0,0,1-2.689-1.3A5.993,5.993,0,0,1,64.235,14.175Zm2.962.185q0,2.531,1.477,2.531a1.458,1.458,0,0,0,1.406-.826V12.443a1.419,1.419,0,0,0-1.389-.844q-1.371,0-1.485,2.215Zm12.138,4.816a4.889,4.889,0,0,1-3.542-1.305,4.507,4.507,0,0,1-1.354-3.4v-.246a5.84,5.84,0,0,1,.541-2.575,3.955,3.955,0,0,1,1.578-1.727,4.763,4.763,0,0,1,2.461-.611,4.117,4.117,0,0,1,3.164,1.244,4.887,4.887,0,0,1,1.16,3.467v1.151H77.454a2.135,2.135,0,0,0,.694,1.257,2.066,2.066,0,0,0,1.389.457,2.662,2.662,0,0,0,2.2-.984l1.354,1.6a3.784,3.784,0,0,1-1.569,1.217A5.3,5.3,0,0,1,79.335,19.176ZM79,11.6q-1.3,0-1.547,1.723h2.988v-.229a1.467,1.467,0,0,0-.36-1.1A1.434,1.434,0,0,0,79,11.6Zm13.808,3.876,1.5-5.985h3.12L94.329,19H91.306L88.2,9.49h3.129Zm10.107,3.7a4.889,4.889,0,0,1-3.542-1.305,4.507,4.507,0,0,1-1.354-3.4v-.246a5.84,5.84,0,0,1,.541-2.575,3.955,3.955,0,0,1,1.578-1.727,4.763,4.763,0,0,1,2.461-.611,4.117,4.117,0,0,1,3.164,1.244,4.887,4.887,0,0,1,1.16,3.467v1.151h-5.889a2.135,2.135,0,0,0,.694,1.257,2.066,2.066,0,0,0,1.389.457,2.662,2.662,0,0,0,2.2-.984l1.354,1.6a3.784,3.784,0,0,1-1.569,1.217A5.3,5.3,0,0,1,102.916,19.176Zm-.334-7.576q-1.3,0-1.547,1.723h2.988v-.229a1.467,1.467,0,0,0-.36-1.1A1.434,1.434,0,0,0,102.582,11.6Zm5.186,2.575a6.421,6.421,0,0,1,.475-2.549A3.821,3.821,0,0,1,109.6,9.917a3.591,3.591,0,0,1,2.065-.6,2.855,2.855,0,0,1,2.32,1l.105-.826h2.689V18.64a4.009,4.009,0,0,1-.584,2.184,3.75,3.75,0,0,1-1.692,1.424,6.219,6.219,0,0,1-2.566.5,5.365,5.365,0,0,1-2.026-.4,3.657,3.657,0,0,1-1.5-1.028l1.239-1.74a2.716,2.716,0,0,0,2.18.976,1.764,1.764,0,0,0,1.969-2.021v-.3a2.781,2.781,0,0,1-2.153.94,3.437,3.437,0,0,1-2.812-1.332,5.517,5.517,0,0,1-1.072-3.564Zm2.971.185a3.383,3.383,0,0,0,.439,1.85,1.387,1.387,0,0,0,1.23.681,1.573,1.573,0,0,0,1.4-.642v-4a1.534,1.534,0,0,0-1.38-.65,1.4,1.4,0,0,0-1.239.708A3.858,3.858,0,0,0,110.738,14.359Zm12.331,4.816a4.889,4.889,0,0,1-3.542-1.305,4.507,4.507,0,0,1-1.354-3.4v-.246a5.84,5.84,0,0,1,.541-2.575,3.955,3.955,0,0,1,1.578-1.727,4.763,4.763,0,0,1,2.461-.611,4.117,4.117,0,0,1,3.164,1.244,4.887,4.887,0,0,1,1.16,3.467v1.151h-5.889a2.135,2.135,0,0,0,.694,1.257,2.066,2.066,0,0,0,1.389.457,2.662,2.662,0,0,0,2.2-.984l1.354,1.6a3.784,3.784,0,0,1-1.569,1.217A5.3,5.3,0,0,1,123.069,19.176Zm-.334-7.576q-1.3,0-1.547,1.723h2.988v-.229a1.467,1.467,0,0,0-.36-1.1A1.434,1.434,0,0,0,122.735,11.6Zm8.982-4.474V9.49h1.564v2.057h-1.564V15.9a1.111,1.111,0,0,0,.193.747,1.037,1.037,0,0,0,.765.211,4.345,4.345,0,0,0,.738-.053v2.118a5.466,5.466,0,0,1-1.67.255,3.1,3.1,0,0,1-2.259-.721,2.954,2.954,0,0,1-.729-2.188v-4.72h-1.213V9.49h1.213V7.126ZM139.8,19a3.344,3.344,0,0,1-.281-.853,2.754,2.754,0,0,1-2.285,1.028,3.374,3.374,0,0,1-2.285-.813,2.588,2.588,0,0,1-.94-2.043,2.66,2.66,0,0,1,1.143-2.338,5.821,5.821,0,0,1,3.322-.791h.914v-.5q0-1.316-1.134-1.316a.927.927,0,0,0-1.055,1.042H134.24a2.655,2.655,0,0,1,1.173-2.239,4.931,4.931,0,0,1,2.993-.86,4.323,4.323,0,0,1,2.874.888,3.086,3.086,0,0,1,1.081,2.435v4.21a4.311,4.311,0,0,0,.4,2V19Zm-1.854-1.934a1.652,1.652,0,0,0,.918-.237,1.487,1.487,0,0,0,.523-.536V14.772h-.861q-1.547,0-1.547,1.389a.848.848,0,0,0,.272.655A.986.986,0,0,0,137.949,17.066Zm10.072-.176a1.317,1.317,0,0,0,.967-.338,1.241,1.241,0,0,0,.334-.945H152.1a3.288,3.288,0,0,1-1.121,2.566,4.168,4.168,0,0,1-2.887,1,4.22,4.22,0,0,1-3.27-1.3,5.125,5.125,0,0,1-1.2-3.6v-.123a5.792,5.792,0,0,1,.532-2.544,3.872,3.872,0,0,1,1.534-1.7,4.573,4.573,0,0,1,2.373-.593,4.116,4.116,0,0,1,2.944,1.028,3.647,3.647,0,0,1,1.09,2.786h-2.777a1.626,1.626,0,0,0-.36-1.134,1.244,1.244,0,0,0-.967-.4q-1.151,0-1.345,1.468a10.357,10.357,0,0,0-.062,1.283,4.068,4.068,0,0,0,.343,1.986A1.187,1.187,0,0,0,148.022,16.891ZM156.477,19h-2.971V9.49h2.971ZM153.33,7.038A1.322,1.322,0,0,1,153.787,6a1.943,1.943,0,0,1,2.373,0,1.322,1.322,0,0,1,.457,1.037,1.322,1.322,0,0,1-.457,1.037,1.943,1.943,0,0,1-2.373,0A1.322,1.322,0,0,1,153.33,7.038Zm4.6,7.119a5.613,5.613,0,0,1,.554-2.536,3.96,3.96,0,0,1,1.591-1.709,4.791,4.791,0,0,1,2.435-.6,4.373,4.373,0,0,1,3.366,1.323,5.076,5.076,0,0,1,1.23,3.6v.105a4.925,4.925,0,0,1-1.235,3.529,4.384,4.384,0,0,1-3.344,1.305,4.434,4.434,0,0,1-3.261-1.217,4.761,4.761,0,0,1-1.327-3.3Zm2.962.185a3.538,3.538,0,0,0,.413,1.934,1.376,1.376,0,0,0,1.222.615q1.582,0,1.617-2.435v-.3q0-2.558-1.635-2.558-1.485,0-1.608,2.206ZM162.91,5.5h3.129L163.6,8.26l-2.417,0Zm8.218,3.99.1,1.116a3.225,3.225,0,0,1,2.716-1.292,2.713,2.713,0,0,1,2.219.888,4.226,4.226,0,0,1,.76,2.672V19h-2.971V13a1.6,1.6,0,0,0-.29-1.059A1.342,1.342,0,0,0,172.6,11.6a1.413,1.413,0,0,0-1.292.686V19h-2.962V9.49Zm11.54,4.658a5.709,5.709,0,0,1,.984-3.551,3.233,3.233,0,0,1,2.716-1.283,2.761,2.761,0,0,1,2.338,1.2l.211-1.02h2.566V22.656h-2.971V18.209a2.757,2.757,0,0,1-2.162.967,3.2,3.2,0,0,1-2.685-1.305A6.027,6.027,0,0,1,182.668,14.148Zm2.962.185q0,2.558,1.477,2.558a1.43,1.43,0,0,0,1.406-.773V12.355a1.4,1.4,0,0,0-1.389-.756q-1.38,0-1.485,2.206Zm13.192,3.639a3.054,3.054,0,0,1-2.54,1.2,3,3,0,0,1-2.369-.91,3.826,3.826,0,0,1-.8-2.615V9.49h2.962v6.179a1.065,1.065,0,0,0,1.187,1.222,1.548,1.548,0,0,0,1.45-.729V9.49h2.979V19H198.91Zm9.088,1.2a4.889,4.889,0,0,1-3.542-1.305,4.507,4.507,0,0,1-1.354-3.4v-.246a5.84,5.84,0,0,1,.541-2.575,3.955,3.955,0,0,1,1.578-1.727,4.763,4.763,0,0,1,2.461-.611,4.117,4.117,0,0,1,3.164,1.244,4.887,4.887,0,0,1,1.16,3.467v1.151h-5.889a2.135,2.135,0,0,0,.694,1.257,2.066,2.066,0,0,0,1.389.457,2.662,2.662,0,0,0,2.2-.984l1.354,1.6a3.784,3.784,0,0,1-1.569,1.217A5.3,5.3,0,0,1,207.91,19.176Zm-.334-7.576q-1.3,0-1.547,1.723h2.988v-.229a1.467,1.467,0,0,0-.36-1.1A1.434,1.434,0,0,0,207.576,11.6Zm14.036,5.291a1.317,1.317,0,0,0,.967-.338,1.241,1.241,0,0,0,.334-.945h2.777a3.288,3.288,0,0,1-1.121,2.566,4.168,4.168,0,0,1-2.887,1,4.22,4.22,0,0,1-3.27-1.3,5.125,5.125,0,0,1-1.2-3.6v-.123a5.792,5.792,0,0,1,.532-2.544,3.872,3.872,0,0,1,1.534-1.7,4.573,4.573,0,0,1,2.373-.593,4.116,4.116,0,0,1,2.944,1.028,3.647,3.647,0,0,1,1.09,2.786h-2.777a1.626,1.626,0,0,0-.36-1.134,1.244,1.244,0,0,0-.967-.4q-1.151,0-1.345,1.468a10.357,10.357,0,0,0-.062,1.283,4.068,4.068,0,0,0,.343,1.986A1.187,1.187,0,0,0,221.612,16.891Zm11.083-4.72-.976-.07a1.752,1.752,0,0,0-1.793.879V19h-2.962V9.49h2.777l.1,1.222a2.294,2.294,0,0,1,2.083-1.4,2.888,2.888,0,0,1,.826.105Zm5.669,7a4.889,4.889,0,0,1-3.542-1.305,4.507,4.507,0,0,1-1.354-3.4v-.246a5.84,5.84,0,0,1,.541-2.575,3.955,3.955,0,0,1,1.578-1.727,4.763,4.763,0,0,1,2.461-.611,4.117,4.117,0,0,1,3.164,1.244,4.887,4.887,0,0,1,1.16,3.467v1.151h-5.889a2.135,2.135,0,0,0,.694,1.257,2.066,2.066,0,0,0,1.389.457,2.662,2.662,0,0,0,2.2-.984l1.354,1.6a3.784,3.784,0,0,1-1.569,1.217A5.3,5.3,0,0,1,238.364,19.176ZM238.03,11.6q-1.3,0-1.547,1.723h2.988v-.229a1.467,1.467,0,0,0-.36-1.1A1.434,1.434,0,0,0,238.03,11.6Zm9.554,5.291a1.317,1.317,0,0,0,.967-.338,1.241,1.241,0,0,0,.334-.945h2.777a3.288,3.288,0,0,1-1.121,2.566,4.168,4.168,0,0,1-2.887,1,4.22,4.22,0,0,1-3.27-1.3,5.125,5.125,0,0,1-1.2-3.6v-.123a5.792,5.792,0,0,1,.532-2.544,3.872,3.872,0,0,1,1.534-1.7,4.573,4.573,0,0,1,2.373-.593,4.116,4.116,0,0,1,2.944,1.028,3.647,3.647,0,0,1,1.09,2.786h-2.777a1.626,1.626,0,0,0-.36-1.134,1.244,1.244,0,0,0-.967-.4q-1.151,0-1.345,1.468a10.357,10.357,0,0,0-.062,1.283,4.068,4.068,0,0,0,.343,1.986A1.187,1.187,0,0,0,247.584,16.891Zm9.932,2.285a4.888,4.888,0,0,1-3.542-1.305,4.507,4.507,0,0,1-1.354-3.4v-.246a5.84,5.84,0,0,1,.541-2.575,3.955,3.955,0,0,1,1.578-1.727,4.763,4.763,0,0,1,2.461-.611,4.117,4.117,0,0,1,3.164,1.244,4.887,4.887,0,0,1,1.16,3.467v1.151h-5.889a2.135,2.135,0,0,0,.694,1.257,2.066,2.066,0,0,0,1.389.457,2.662,2.662,0,0,0,2.2-.984l1.354,1.6a3.784,3.784,0,0,1-1.569,1.217A5.3,5.3,0,0,1,257.516,19.176Zm-.334-7.576q-1.3,0-1.547,1.723h2.988v-.229a1.467,1.467,0,0,0-.36-1.1A1.434,1.434,0,0,0,257.182,11.6ZM272.554,19a3.344,3.344,0,0,1-.281-.853,2.754,2.754,0,0,1-2.285,1.028,3.374,3.374,0,0,1-2.285-.813,2.588,2.588,0,0,1-.94-2.043,2.66,2.66,0,0,1,1.143-2.338,5.821,5.821,0,0,1,3.322-.791h.914v-.5q0-1.316-1.134-1.316a.927.927,0,0,0-1.055,1.042H266.99a2.655,2.655,0,0,1,1.173-2.239,4.931,4.931,0,0,1,2.993-.86,4.323,4.323,0,0,1,2.874.888,3.086,3.086,0,0,1,1.081,2.435v4.21a4.311,4.311,0,0,0,.4,2V19ZM270.7,17.066a1.652,1.652,0,0,0,.918-.237,1.487,1.487,0,0,0,.523-.536V14.772h-.861q-1.547,0-1.547,1.389a.848.848,0,0,0,.272.655A.986.986,0,0,0,270.7,17.066ZM279.875,19H276.9V5.5h2.971Zm7.576-6.829-.976-.07a1.752,1.752,0,0,0-1.793.879V19h-2.962V9.49H284.5l.1,1.222a2.294,2.294,0,0,1,2.083-1.4,2.888,2.888,0,0,1,.826.105Zm5.669,7a4.889,4.889,0,0,1-3.542-1.305,4.507,4.507,0,0,1-1.354-3.4v-.246a5.84,5.84,0,0,1,.541-2.575,3.955,3.955,0,0,1,1.578-1.727,4.763,4.763,0,0,1,2.461-.611,4.117,4.117,0,0,1,3.164,1.244,4.887,4.887,0,0,1,1.16,3.467v1.151h-5.889a2.135,2.135,0,0,0,.694,1.257,2.066,2.066,0,0,0,1.389.457,2.662,2.662,0,0,0,2.2-.984l1.354,1.6a3.784,3.784,0,0,1-1.569,1.217A5.3,5.3,0,0,1,293.12,19.176Zm-.334-7.576q-1.3,0-1.547,1.723h2.988v-.229a1.467,1.467,0,0,0-.36-1.1A1.434,1.434,0,0,0,292.786,11.6Zm5.159,2.575a5.809,5.809,0,0,1,.976-3.56,3.211,3.211,0,0,1,2.725-1.3,2.731,2.731,0,0,1,2.145,1V5.5h2.971V19H304.1l-.149-1.02a2.8,2.8,0,0,1-2.32,1.2,3.205,3.205,0,0,1-2.689-1.3A5.993,5.993,0,0,1,297.945,14.175Zm2.962.185q0,2.531,1.477,2.531a1.458,1.458,0,0,0,1.406-.826V12.443A1.419,1.419,0,0,0,302.4,11.6q-1.371,0-1.485,2.215Zm12.138,4.816a4.889,4.889,0,0,1-3.542-1.305,4.507,4.507,0,0,1-1.354-3.4v-.246a5.84,5.84,0,0,1,.541-2.575,3.955,3.955,0,0,1,1.578-1.727,4.763,4.763,0,0,1,2.461-.611,4.117,4.117,0,0,1,3.164,1.244,4.887,4.887,0,0,1,1.16,3.467v1.151h-5.889a2.135,2.135,0,0,0,.694,1.257,2.066,2.066,0,0,0,1.389.457,2.662,2.662,0,0,0,2.2-.984l1.354,1.6a3.784,3.784,0,0,1-1.569,1.217A5.3,5.3,0,0,1,313.045,19.176Zm-.334-7.576q-1.3,0-1.547,1.723h2.988v-.229a1.467,1.467,0,0,0-.36-1.1A1.434,1.434,0,0,0,312.711,11.6Zm5.159,2.575a5.809,5.809,0,0,1,.976-3.56,3.211,3.211,0,0,1,2.725-1.3,2.731,2.731,0,0,1,2.145,1V5.5h2.971V19h-2.663l-.149-1.02a2.8,2.8,0,0,1-2.32,1.2,3.205,3.205,0,0,1-2.689-1.3A5.993,5.993,0,0,1,317.87,14.175Zm2.962.185q0,2.531,1.477,2.531a1.458,1.458,0,0,0,1.406-.826V12.443a1.419,1.419,0,0,0-1.389-.844q-1.371,0-1.485,2.215Zm7.163-.2a5.613,5.613,0,0,1,.554-2.536,3.96,3.96,0,0,1,1.591-1.709,4.791,4.791,0,0,1,2.435-.6,4.373,4.373,0,0,1,3.366,1.323,5.076,5.076,0,0,1,1.23,3.6v.105a4.925,4.925,0,0,1-1.235,3.529,4.384,4.384,0,0,1-3.344,1.305,4.434,4.434,0,0,1-3.261-1.217,4.761,4.761,0,0,1-1.327-3.3Zm2.962.185a3.538,3.538,0,0,0,.413,1.934,1.376,1.376,0,0,0,1.222.615q1.582,0,1.617-2.435v-.3q0-2.558-1.635-2.558-1.485,0-1.608,2.206Zm13.271-2.171-.976-.07a1.752,1.752,0,0,0-1.793.879V19H338.5V9.49h2.777l.1,1.222a2.294,2.294,0,0,1,2.083-1.4,2.888,2.888,0,0,1,.826.105Z" transform="translate(925.468 10814.404)" fill="#fff"/>
    <g id="Grupo_1178241" data-name="Grupo 1178241" transform="translate(1086.832 10732.852)">
      <rect id="Rectángulo_454902" data-name="Rectángulo 454902" width="48.862" height="8.193" transform="translate(0.737 41.357)" fill="#b27544"/>
      <path id="Trazado_1000232" data-name="Trazado 1000232" d="M11.826,420.587v8.191l44.536.015h0L7.5,428.779v-8.193Z" transform="translate(-6.763 -379.237)" fill="#a36534"/>
      <g id="Grupo_1178240" data-name="Grupo 1178240">
        <g id="Grupo_1178239" data-name="Grupo 1178239" clip-path="url(#clip-path-4)">
          <path id="Trazado_1000233" data-name="Trazado 1000233" d="M310.184,148.188c-2.609-13.772-4.684-26.793-4.684-26.793a38.411,38.411,0,0,1,9.758,10.25l2.6,4.254v12.289Z" transform="translate(-297.551 -109.46)" fill="#97b42d"/>
          <path id="Trazado_1000234" data-name="Trazado 1000234" d="M187.329,31.076a77.341,77.341,0,0,0-1.5-16.494,35.813,35.813,0,0,0-6.657,17.337l2.212,19.908h5.9V31.083" transform="translate(-154.647 -13.148)" fill="#748e1a"/>
          <path id="Trazado_1000235" data-name="Trazado 1000235" d="M244.414,45.255c0-29.909-7.391-37.743-7.391-37.743,17.95,11.038,15.65,37.733,15.649,37.743Z" transform="translate(-225.735 -6.773)" fill="#7e9b17"/>
          <path id="Trazado_1000236" data-name="Trazado 1000236" d="M379.4,237.958c0-11.459-4.9-17.114-4.9-17.114,8.557,2.838,10.331,9.146,10.331,9.146a50.229,50.229,0,0,1,2.334,7.919H379.4" transform="translate(-373.647 -199.132)" fill="#748e1a"/>
          <path id="Trazado_1000237" data-name="Trazado 1000237" d="M409.5,220.844a18.349,18.349,0,0,1,6.5,3.653,31.885,31.885,0,0,1,2.72,13.412H414.4v.049c0-11.459-4.9-17.114-4.9-17.114" transform="translate(-408.651 -199.132)" fill="#63791c"/>
          <path id="Trazado_1000238" data-name="Trazado 1000238" d="M15.039,181.3s.594-18.813,15.726-23.019c0,0-6.485,5.41-6.485,23.019Z" transform="translate(18.092 -142.724)" fill="#748e1a"/>
          <path id="Trazado_1000239" data-name="Trazado 1000239" d="M42.641,69.361s0-21.659,19.3-35.115c0,0-10.358,13.038-10.358,35.115Z" transform="translate(-15.802 -30.879)" fill="#97b42d"/>
          <path id="Trazado_1000240" data-name="Trazado 1000240" d="M8.672,301.348s2.37-9.93,11.24-9.93a13.45,13.45,0,0,0-4.555,9.93Z" transform="translate(29.572 -262.768)" fill="#7e9b17"/>
          <rect id="Rectángulo_454903" data-name="Rectángulo 454903" width="48.862" height="2.925" transform="translate(0.737 38.453)" fill="#d9db72"/>
          <path id="Trazado_1000241" data-name="Trazado 1000241" d="M7.5,391.078h4.326V394l44.536.009h0L7.5,394Z" transform="translate(-6.763 -352.63)" fill="#c2cd52"/>
          <path id="Trazado_1000242" data-name="Trazado 1000242" d="M0,38.448a.749.749,0,0,1,.737-.737H5.012A29.962,29.962,0,0,0,2.665,26.148,15.6,15.6,0,0,0,.313,22.214a.744.744,0,0,1,.771-1.2A18.13,18.13,0,0,1,9.7,26.761C8.222,18.355,7.232,12.125,7.221,12.05a.744.744,0,0,1,1.151-.72,38.612,38.612,0,0,1,8.316,8.107A67.009,67.009,0,0,0,14.327,8.731C12.912,4.316,11.371,1.9,10.756,1.248A.741.741,0,0,1,11.675.11a28.612,28.612,0,0,1,6.8,5.844.738.738,0,0,1-1.123.956,27.435,27.435,0,0,0-3.528-3.462,35.67,35.67,0,0,1,1.842,4.639c3,9.223,3.683,21.085,3.713,29.628H26.12c.012-.267.033-.611.067-1.023a57.4,57.4,0,0,0-.35-8.01c-.568-5.022-2.088-12.318-6.106-18.564a.738.738,0,0,1,1.241-.8,36.89,36.89,0,0,1,3.27,6.441,38.63,38.63,0,0,1,3.4-9.975A28.633,28.633,0,0,1,30.615.967a.744.744,0,0,1,1.295.326,83.876,83.876,0,0,1,1.543,14.186q.45-.7.924-1.386A45.207,45.207,0,0,1,45.722,2.761a.741.741,0,0,1,.994,1.07,45.546,45.546,0,0,0-6.141,11.61.738.738,0,0,1-1.38-.52,55.347,55.347,0,0,1,3.887-8.262A43.363,43.363,0,0,0,35.609,14.9a46.238,46.238,0,0,0-7.95,21.937c-.012.343-.025.636-.038.875h7.458A66.681,66.681,0,0,1,37.88,18.8a.738.738,0,0,1,1.411.427q-.3,1.007-.574,2.028a19.532,19.532,0,0,1,9.943-6.406.743.743,0,0,1,.666,1.28,11.863,11.863,0,0,0-2.358,3.22,32.23,32.23,0,0,0-3.186,10.1,10.947,10.947,0,0,1,5.7-1.541.743.743,0,0,1,.445,1.326,12.238,12.238,0,0,0-4.278,8.482H49.6a.737.737,0,0,1,.737.737v2.906h0v8.193a.747.747,0,0,1-.738.737L.737,50.279A.737.737,0,0,1,0,49.542V41.373H0ZM17.093,22.592c-.006-.008-.012-.017-.017-.025a38.3,38.3,0,0,0-8.109-8.955c.49,3.006,1.563,9.481,2.928,17.049a.753.753,0,0,1,.023.128q.113.629.23,1.268a.738.738,0,0,1-1.451.264q-.12-.662-.238-1.314A11.182,11.182,0,0,0,8.6,27.743a15.876,15.876,0,0,0-5.718-4.429c1.46,2.477,3.481,7.184,3.607,14.4H11.7q-.157-.83-.31-1.652a.738.738,0,0,1,1.45-.27q.179.955.361,1.923h4.711a142,142,0,0,0-.814-15.122M31.949,18a.743.743,0,0,1,0-.11A73.564,73.564,0,0,0,30.777,3.288a36.479,36.479,0,0,0-5.5,15.418,53.528,53.528,0,0,1,2.134,10.815c.3-1.2.679-2.491,1.14-3.843A47.579,47.579,0,0,1,31.949,18m6.469,17.922a.738.738,0,0,1,1.352.59c-.194.445-.345.846-.459,1.174h4.863a13.516,13.516,0,0,1,3.309-8.113,9.7,9.7,0,0,0-5.916,3.847.738.738,0,0,1-1.172-.9,12.893,12.893,0,0,1,1.721-1.854c.908-7.079,2.948-11.281,4.459-13.528A18.781,18.781,0,0,0,37.869,25c-.012.019-.024.037-.037.055a66.563,66.563,0,0,0-1.278,12.665h1.2a16.932,16.932,0,0,1,.668-1.793m10.444,12.9v-6.7H28.707a.747.747,0,0,1,0-1.493l20.154,0V39.195l-47.387-.01v1.427l23.3.013a.747.747,0,0,1,0,1.493l-23.3-.008V48.8Z" transform="translate(0 0)" fill="#040506"/>
          <path id="Trazado_1000243" data-name="Trazado 1000243" d="M39.467,445.922a.738.738,0,0,1,0,1.475.738.738,0,0,1,0-1.475" transform="translate(6.347 -402.082)" fill="#040506"/>
          <path id="Trazado_1000244" data-name="Trazado 1000244" d="M89.467,467.922a.738.738,0,0,1,0,1.475.738.738,0,0,1,0-1.475" transform="translate(-48.569 -421.919)" fill="#040506"/>
          <path id="Trazado_1000245" data-name="Trazado 1000245" d="M203.467,453.922a.738.738,0,0,1,0,1.475.738.738,0,0,1,0-1.475" transform="translate(-173.777 -409.295)" fill="#040506"/>
          <path id="Trazado_1000246" data-name="Trazado 1000246" d="M281.467,440.922a.738.738,0,0,1,0,1.475.738.738,0,0,1,0-1.475" transform="translate(-259.445 -397.574)" fill="#040506"/>
          <path id="Trazado_1000247" data-name="Trazado 1000247" d="M389.467,463.922a.738.738,0,0,1,0,1.475.738.738,0,0,1,0-1.475" transform="translate(-378.063 -418.312)" fill="#040506"/>
          <path id="Trazado_1000248" data-name="Trazado 1000248" d="M451.467,447.922a.738.738,0,0,1,0,1.475.738.738,0,0,1,0-1.475" transform="translate(-446.158 -403.885)" fill="#040506"/>
        </g>
      </g>
    </g>
    <path id="Trazado_1000652" data-name="Trazado 1000652" d="M20,0H272a20,20,0,0,1,20,20V78.111a20,20,0,0,1-20,20H20a20,20,0,0,1-20-20V20A20,20,0,0,1,20,0Z" transform="translate(810 10603.389)" fill="#5e3637"/>
    <path id="Feature_One-5" data-name="Feature One" d="M21.934,16.627H27.3V19H18.849V6.2h3.085Zm6.161-2.47a5.613,5.613,0,0,1,.554-2.536,3.96,3.96,0,0,1,1.591-1.709,4.791,4.791,0,0,1,2.435-.6,4.373,4.373,0,0,1,3.366,1.323,5.076,5.076,0,0,1,1.23,3.6v.105a4.925,4.925,0,0,1-1.235,3.529,4.384,4.384,0,0,1-3.344,1.305,4.434,4.434,0,0,1-3.261-1.217,4.761,4.761,0,0,1-1.327-3.3Zm2.962.185a3.538,3.538,0,0,0,.413,1.934,1.376,1.376,0,0,0,1.222.615q1.582,0,1.617-2.435v-.3q0-2.558-1.635-2.558-1.485,0-1.608,2.206Zm12.5,1.986a.684.684,0,0,0-.4-.606,6.016,6.016,0,0,0-1.5-.475,6.853,6.853,0,0,1-1.828-.646,3.062,3.062,0,0,1-1.1-.971,2.319,2.319,0,0,1-.378-1.31,2.628,2.628,0,0,1,1.081-2.158,4.453,4.453,0,0,1,2.83-.848,4.934,4.934,0,0,1,3.023.853,2.666,2.666,0,0,1,1.143,2.241H43.458q0-1.143-1.2-1.143a1.194,1.194,0,0,0-.782.259.8.8,0,0,0-.316.646.737.737,0,0,0,.387.642,3.654,3.654,0,0,0,1.235.4,10.671,10.671,0,0,1,1.49.378,2.706,2.706,0,0,1,2.145,2.646,2.491,2.491,0,0,1-1.156,2.118,5.068,5.068,0,0,1-2.993.817,5.172,5.172,0,0,1-2.18-.439,3.645,3.645,0,0,1-1.494-1.2,2.707,2.707,0,0,1-.536-1.591h2.769a1.145,1.145,0,0,0,.439.962,1.808,1.808,0,0,0,1.081.3,1.422,1.422,0,0,0,.91-.246A.787.787,0,0,0,43.555,16.328Zm8.35-2.153a5.809,5.809,0,0,1,.976-3.56,3.211,3.211,0,0,1,2.725-1.3,2.731,2.731,0,0,1,2.145,1V5.5H60.72V19H58.057l-.149-1.02a2.8,2.8,0,0,1-2.32,1.2,3.205,3.205,0,0,1-2.689-1.3A5.993,5.993,0,0,1,51.9,14.175Zm2.962.185q0,2.531,1.477,2.531a1.458,1.458,0,0,0,1.406-.826V12.443a1.419,1.419,0,0,0-1.389-.844q-1.371,0-1.485,2.215ZM65.633,19H62.654V9.49h2.979ZM64.526,5.676h3.129l-2.443,2.76-2.417,0ZM72.893,19a3.344,3.344,0,0,1-.281-.853,2.754,2.754,0,0,1-2.285,1.028,3.374,3.374,0,0,1-2.285-.813,2.588,2.588,0,0,1-.94-2.043,2.66,2.66,0,0,1,1.143-2.338,5.821,5.821,0,0,1,3.322-.791h.914v-.5q0-1.316-1.134-1.316a.927.927,0,0,0-1.055,1.042H67.329A2.655,2.655,0,0,1,68.5,10.175a4.931,4.931,0,0,1,2.993-.86,4.323,4.323,0,0,1,2.874.888,3.086,3.086,0,0,1,1.081,2.435v4.21a4.311,4.311,0,0,0,.4,2V19Zm-1.854-1.934a1.652,1.652,0,0,0,.918-.237,1.487,1.487,0,0,0,.523-.536V14.772h-.861q-1.547,0-1.547,1.389a.848.848,0,0,0,.272.655A.986.986,0,0,0,71.038,17.066Zm11.03-.738a.684.684,0,0,0-.4-.606,6.016,6.016,0,0,0-1.5-.475,6.853,6.853,0,0,1-1.828-.646,3.062,3.062,0,0,1-1.1-.971,2.319,2.319,0,0,1-.378-1.31,2.628,2.628,0,0,1,1.081-2.158,4.453,4.453,0,0,1,2.83-.848,4.934,4.934,0,0,1,3.023.853,2.666,2.666,0,0,1,1.143,2.241H81.972q0-1.143-1.2-1.143a1.194,1.194,0,0,0-.782.259.8.8,0,0,0-.316.646.737.737,0,0,0,.387.642,3.654,3.654,0,0,0,1.235.4,10.671,10.671,0,0,1,1.49.378,2.706,2.706,0,0,1,2.145,2.646,2.491,2.491,0,0,1-1.156,2.118,5.068,5.068,0,0,1-2.993.817,5.172,5.172,0,0,1-2.18-.439,3.645,3.645,0,0,1-1.494-1.2,2.707,2.707,0,0,1-.536-1.591h2.769a1.145,1.145,0,0,0,.439.962,1.808,1.808,0,0,0,1.081.3,1.422,1.422,0,0,0,.91-.246A.787.787,0,0,0,82.069,16.328Zm8.35-2.153a5.809,5.809,0,0,1,.976-3.56,3.211,3.211,0,0,1,2.725-1.3,2.731,2.731,0,0,1,2.145,1V5.5h2.971V19H96.571l-.149-1.02a2.8,2.8,0,0,1-2.32,1.2,3.205,3.205,0,0,1-2.689-1.3A5.993,5.993,0,0,1,90.418,14.175Zm2.962.185q0,2.531,1.477,2.531a1.458,1.458,0,0,0,1.406-.826V12.443a1.419,1.419,0,0,0-1.389-.844q-1.371,0-1.485,2.215Zm12.138,4.816a4.889,4.889,0,0,1-3.542-1.305,4.507,4.507,0,0,1-1.354-3.4v-.246a5.84,5.84,0,0,1,.541-2.575,3.955,3.955,0,0,1,1.578-1.727,4.763,4.763,0,0,1,2.461-.611,4.117,4.117,0,0,1,3.164,1.244,4.887,4.887,0,0,1,1.16,3.467v1.151h-5.889a2.135,2.135,0,0,0,.694,1.257,2.066,2.066,0,0,0,1.389.457,2.662,2.662,0,0,0,2.2-.984l1.354,1.6a3.784,3.784,0,0,1-1.569,1.217A5.3,5.3,0,0,1,105.518,19.176Zm-.334-7.576q-1.3,0-1.547,1.723h2.988v-.229a1.467,1.467,0,0,0-.36-1.1A1.434,1.434,0,0,0,105.184,11.6Zm14.994,4.729a.684.684,0,0,0-.4-.606,6.016,6.016,0,0,0-1.5-.475,6.853,6.853,0,0,1-1.828-.646,3.062,3.062,0,0,1-1.1-.971,2.319,2.319,0,0,1-.378-1.31,2.628,2.628,0,0,1,1.081-2.158,4.453,4.453,0,0,1,2.83-.848,4.934,4.934,0,0,1,3.023.853,2.666,2.666,0,0,1,1.143,2.241h-2.971q0-1.143-1.2-1.143a1.194,1.194,0,0,0-.782.259.8.8,0,0,0-.316.646.737.737,0,0,0,.387.642,3.654,3.654,0,0,0,1.235.4,10.671,10.671,0,0,1,1.49.378,2.706,2.706,0,0,1,2.145,2.646,2.491,2.491,0,0,1-1.156,2.118,5.068,5.068,0,0,1-2.993.817,5.172,5.172,0,0,1-2.18-.439,3.645,3.645,0,0,1-1.494-1.2,2.707,2.707,0,0,1-.536-1.591h2.769a1.145,1.145,0,0,0,.439.962,1.808,1.808,0,0,0,1.081.3,1.422,1.422,0,0,0,.91-.246A.787.787,0,0,0,120.178,16.328Zm3.867-2.171a5.613,5.613,0,0,1,.554-2.536,3.96,3.96,0,0,1,1.591-1.709,4.791,4.791,0,0,1,2.435-.6,4.373,4.373,0,0,1,3.366,1.323,5.076,5.076,0,0,1,1.23,3.6v.105a4.925,4.925,0,0,1-1.235,3.529,4.384,4.384,0,0,1-3.344,1.305,4.434,4.434,0,0,1-3.261-1.217,4.761,4.761,0,0,1-1.327-3.3Zm2.962.185a3.538,3.538,0,0,0,.413,1.934,1.376,1.376,0,0,0,1.222.615q1.582,0,1.617-2.435v-.3q0-2.558-1.635-2.558-1.485,0-1.608,2.206ZM137.651,19H134.68V5.5h2.971Zm10.907.176a4.889,4.889,0,0,1-3.542-1.305,4.507,4.507,0,0,1-1.354-3.4v-.246a5.84,5.84,0,0,1,.541-2.575,3.955,3.955,0,0,1,1.578-1.727,4.763,4.763,0,0,1,2.461-.611,4.117,4.117,0,0,1,3.164,1.244,4.887,4.887,0,0,1,1.16,3.467v1.151h-5.889a2.135,2.135,0,0,0,.694,1.257,2.066,2.066,0,0,0,1.389.457,2.662,2.662,0,0,0,2.2-.984l1.354,1.6a3.784,3.784,0,0,1-1.569,1.217A5.3,5.3,0,0,1,148.558,19.176Zm-.334-7.576q-1.3,0-1.547,1.723h2.988v-.229a1.467,1.467,0,0,0-.36-1.1A1.434,1.434,0,0,0,148.224,11.6Zm8.253-2.109.1,1.116a3.225,3.225,0,0,1,2.716-1.292,2.713,2.713,0,0,1,2.219.888,4.226,4.226,0,0,1,.76,2.672V19H159.3V13a1.6,1.6,0,0,0-.29-1.059,1.342,1.342,0,0,0-1.055-.338,1.413,1.413,0,0,0-1.292.686V19H153.7V9.49Zm16.515,9.686a4.889,4.889,0,0,1-3.542-1.305,4.507,4.507,0,0,1-1.354-3.4v-.246a5.84,5.84,0,0,1,.541-2.575,3.955,3.955,0,0,1,1.578-1.727,4.763,4.763,0,0,1,2.461-.611,4.117,4.117,0,0,1,3.164,1.244A4.887,4.887,0,0,1,177,14.025v1.151h-5.889a2.135,2.135,0,0,0,.694,1.257,2.066,2.066,0,0,0,1.389.457,2.662,2.662,0,0,0,2.2-.984l1.354,1.6a3.784,3.784,0,0,1-1.569,1.217A5.3,5.3,0,0,1,172.991,19.176Zm-.334-7.576q-1.3,0-1.547,1.723H174.1v-.229a1.467,1.467,0,0,0-.36-1.1A1.434,1.434,0,0,0,172.657,11.6Zm8.657,7.4h-2.971V5.5h2.971Zm11.663,0a3.344,3.344,0,0,1-.281-.853,2.754,2.754,0,0,1-2.285,1.028,3.374,3.374,0,0,1-2.285-.813,2.588,2.588,0,0,1-.94-2.043,2.66,2.66,0,0,1,1.143-2.338,5.821,5.821,0,0,1,3.322-.791h.914v-.5q0-1.316-1.134-1.316a.927.927,0,0,0-1.055,1.042h-2.962a2.655,2.655,0,0,1,1.173-2.239,4.931,4.931,0,0,1,2.993-.86,4.323,4.323,0,0,1,2.874.888,3.086,3.086,0,0,1,1.081,2.435v4.21a4.311,4.311,0,0,0,.4,2V19Zm-1.854-1.934a1.652,1.652,0,0,0,.918-.237,1.487,1.487,0,0,0,.523-.536V14.772H191.7q-1.547,0-1.547,1.389a.848.848,0,0,0,.272.655A.986.986,0,0,0,191.123,17.066Zm8.771-7.576.1,1.116a3.225,3.225,0,0,1,2.716-1.292,2.713,2.713,0,0,1,2.219.888,4.226,4.226,0,0,1,.76,2.672V19h-2.971V13a1.6,1.6,0,0,0-.29-1.059,1.342,1.342,0,0,0-1.055-.338,1.413,1.413,0,0,0-1.292.686V19h-2.962V9.49Zm4.913-3.92a2.562,2.562,0,0,1-.584,1.7,1.813,1.813,0,0,1-1.446.7,2.852,2.852,0,0,1-1.292-.369,2.7,2.7,0,0,0-1.151-.369.66.66,0,0,0-.479.193.8.8,0,0,0-.2.6l-1.644-.088a2.576,2.576,0,0,1,.584-1.687,1.793,1.793,0,0,1,1.437-.712,2.967,2.967,0,0,1,1.151.325,7.07,7.07,0,0,0,.9.369,1.74,1.74,0,0,0,.4.044.671.671,0,0,0,.483-.2.807.807,0,0,0,.2-.6Zm2.145,8.587a5.613,5.613,0,0,1,.554-2.536A3.96,3.96,0,0,1,209.1,9.912a4.791,4.791,0,0,1,2.435-.6,4.373,4.373,0,0,1,3.366,1.323,5.076,5.076,0,0,1,1.23,3.6v.105a4.925,4.925,0,0,1-1.235,3.529,4.384,4.384,0,0,1-3.344,1.305,4.434,4.434,0,0,1-3.261-1.217,4.761,4.761,0,0,1-1.327-3.3Zm2.962.185a3.538,3.538,0,0,0,.413,1.934,1.376,1.376,0,0,0,1.222.615q1.582,0,1.617-2.435v-.3q0-2.558-1.635-2.558-1.485,0-1.608,2.206Z" transform="translate(838.758 10659.404)" fill="#fff"/>
    <path id="Trazado_1000654" data-name="Trazado 1000654" d="M42,0A42,42,0,1,1,0,42,42,42,0,0,1,42,0Z" transform="translate(913.711 10561)" fill="#e5d5ba"/>
    <g id="Grupo_1178229" data-name="Grupo 1178229" transform="translate(924.008 10571)">
      <g id="Grupo_1178228" data-name="Grupo 1178228" clip-path="url(#clip-path-5)">
        <path id="Trazado_1000115" data-name="Trazado 1000115" d="M16.611,17.282a.591.591,0,0,1,.761-.761l8.6,3.053.58-9.328a.594.594,0,0,1,1-.413l7.222,6.509L38.432,7.85a.591.591,0,0,1,1.076,0l3.655,8.581L50.44,9.906a.594.594,0,0,1,1,.415l.164,9.056,8.929-2.767a.591.591,0,0,1,.761.761l-3.429,9.2,9.7-.014a.594.594,0,0,1,.413,1l-6.738,7.451,8.721,3.426a.591.591,0,0,1,0,1.076l-9.008,4.377,6.952,6.554a.594.594,0,0,1-.415,1s-10.449.119-10.329.164,4.04,8.929,4.04,8.929a.591.591,0,0,1-.761.761l-9.009-3.528-.175,9.8a.594.594,0,0,1-1,.413l-6.818-6.738-4.059,8.721a.591.591,0,0,1-1.076,0l-4.132-9.041-6.8,6.985a.594.594,0,0,1-1-.415L26.2,58.121,17.283,61.2a.591.591,0,0,1-.761-.761l3.731-9.009-10.007-.175a.594.594,0,0,1-.413-1l6.6-6.626L7.851,39.381a.591.591,0,0,1,0-1.076l9.228-3.913L9.907,27.373a.594.594,0,0,1,.415-1l9.43-.152Z" transform="translate(-6.555 -6.555)" fill="#ffe366"/>
        <path id="Trazado_1000116" data-name="Trazado 1000116" d="M106.638,76.113a24.973,24.973,0,0,0-2.476-6.189l-2.938,0,1.063-2.853a25.277,25.277,0,0,0-5.1-5.03l-2.229.691-.04-2.185a24.982,24.982,0,0,0-6.333-2.614L86.523,59.79l-1.044-2.452a25.386,25.386,0,0,0-6.319-.013L78.136,59.7l-2.008-1.81a24.974,24.974,0,0,0-6.65,2.739l-.143,2.3-2.157-.765a25.284,25.284,0,0,0-4.943,4.923l.876,2.492-2.567.041a24.991,24.991,0,0,0-2.47,5.815l2.363,2.313-3.1,1.315a25.346,25.346,0,0,0,.046,6.733l2.407,1.193-1.8,1.8a24.975,24.975,0,0,0,2.449,5.94l3.169.055-1.2,2.887a25.281,25.281,0,0,0,4.706,4.643l2.434-.842.048,2.5a24.989,24.989,0,0,0,5.815,2.476l2.114-2.172,1.318,2.884a25.3,25.3,0,0,0,6.751.011l1.2-2.575,1.968,1.945a24.975,24.975,0,0,0,5.972-2.459l.053-2.964,2.767,1.084a25.272,25.272,0,0,0,4.353-4.27c-.733-1.628-1.344-2.958-1.39-2.976s1.538-.047,3.48-.076a24.994,24.994,0,0,0,2.417-5.657l-2.1-1.985,2.824-1.372a25.235,25.235,0,0,0,.095-6.472L104.6,78.365Z" transform="translate(-49.915 -49.914)" fill="#ffd616"/>
        <path id="Trazado_1000117" data-name="Trazado 1000117" d="M131.12,110A21.119,21.119,0,1,1,110,88.882,21.119,21.119,0,0,1,131.12,110Z" transform="translate(-77.649 -77.65)" fill="#ffc900"/>
        <path id="Trazado_1000118" data-name="Trazado 1000118" d="M116.823,133.423a21.12,21.12,0,0,1-12.692-38A21.122,21.122,0,1,0,122.7,132.594,21.139,21.139,0,0,1,116.823,133.423Z" transform="translate(-77.65 -83.364)" fill="#ffb800"/>
        <path id="Trazado_1000119" data-name="Trazado 1000119" d="M159.78,143.508a16.273,16.273,0,1,1-16.272-16.272,16.272,16.272,0,0,1,16.272,16.272" transform="translate(-111.156 -111.157)" fill="#ffd616"/>
        <path id="Trazado_1000120" data-name="Trazado 1000120" d="M127.234,193.651A16.272,16.272,0,0,0,142.6,209.9a21.15,21.15,0,0,1-12.634-25.266A16.2,16.2,0,0,0,127.234,193.651Z" transform="translate(-111.155 -161.299)" fill="#ffc900"/>
        <path id="Trazado_1000121" data-name="Trazado 1000121" d="M194.146,168.839l-3.773,9.515a.715.715,0,0,0,.665.979h5.519a.715.715,0,0,1,.7.87l-2.368,10.7a.715.715,0,0,0,1.271.584l10.711-14.262a.715.715,0,0,0-.572-1.145h-2.6a.715.715,0,0,1-.6-1.1l3.482-5.5a.715.715,0,0,0-.6-1.1H194.811A.716.716,0,0,0,194.146,168.839Z" transform="translate(-166.27 -147.107)" fill="#fff8dd"/>
        <path id="Trazado_1000122" data-name="Trazado 1000122" d="M273.447,144.164a20.172,20.172,0,0,1-19.642,20.164.948.948,0,0,0,.024,1.9h.025a22.067,22.067,0,0,0,14.709-37.973.948.948,0,0,0-1.314,1.367A20,20,0,0,1,273.447,144.164Z" transform="translate(-220.924 -111.813)" fill="#040506"/>
        <path id="Trazado_1000123" data-name="Trazado 1000123" d="M115.4,84.9a22.068,22.068,0,1,0-15.59,40.318.966.966,0,0,0,.156.013.948.948,0,0,0,.154-1.883,20.172,20.172,0,1,1,14.251-36.854A.948.948,0,1,0,115.4,84.9Z" transform="translate(-71.096 -71.097)" fill="#040506"/>
        <path id="Trazado_1000124" data-name="Trazado 1000124" d="M190.365,185.5l5.856-7.8a.948.948,0,1,0-1.516-1.139l-5.211,6.938,2.136-9.65a1.663,1.663,0,0,0-1.624-2.023H184.83l3.589-9.049H199l-3.256,5.138a1.663,1.663,0,0,0,1.405,2.554h2.133l-2.149,2.861a.948.948,0,1,0,1.516,1.139l2.428-3.233a1.663,1.663,0,0,0-1.33-2.662h-2.176l3.256-5.138a1.663,1.663,0,0,0-1.405-2.554H188.261a1.654,1.654,0,0,0-1.546,1.05l-3.774,9.515a1.663,1.663,0,0,0,1.546,2.277h5.229l-2.306,10.416a1.652,1.652,0,0,0,.929,1.871,1.677,1.677,0,0,0,.7.155A1.654,1.654,0,0,0,190.365,185.5Z" transform="translate(-159.72 -140.555)" fill="#040506"/>
        <path id="Trazado_1000125" data-name="Trazado 1000125" d="M223.877,8.13a.948.948,0,0,0,1.255-.472L227.513,2.4l2.382,5.253a.948.948,0,1,0,1.727-.783L228.915.9a1.539,1.539,0,0,0-2.8,0L223.4,6.875A.948.948,0,0,0,223.877,8.13Z" transform="translate(-195.098 0)" fill="#040506"/>
        <path id="Trazado_1000126" data-name="Trazado 1000126" d="M372.337,75.933l5.4-2.031-2.031,5.4a.948.948,0,1,0,1.775.668l2.308-6.136a1.539,1.539,0,0,0-1.982-1.982l-6.136,2.308a.948.948,0,0,0,.668,1.775" transform="translate(-324.164 -62.682)" fill="#040506"/>
        <path id="Trazado_1000127" data-name="Trazado 1000127" d="M454.309,226.112l-5.971-2.707a.948.948,0,1,0-.783,1.727l5.253,2.382-5.253,2.381a.948.948,0,1,0,.783,1.727l5.971-2.707a1.539,1.539,0,0,0,0-2.8" transform="translate(-390.51 -195.098)" fill="#040506"/>
        <path id="Trazado_1000128" data-name="Trazado 1000128" d="M376.773,371.669a.948.948,0,0,0-1.775.668l2.031,5.4-5.4-2.031a.948.948,0,1,0-.668,1.775l6.136,2.308a1.556,1.556,0,0,0,.549.1,1.542,1.542,0,0,0,1.433-2.083Z" transform="translate(-323.546 -324.164)" fill="#040506"/>
        <path id="Trazado_1000129" data-name="Trazado 1000129" d="M230.148,447.083a.948.948,0,0,0-1.255.472l-2.382,5.253-2.382-5.253a.948.948,0,1,0-1.727.783l2.707,5.971a1.539,1.539,0,0,0,2.8,0l2.707-5.971A.948.948,0,0,0,230.148,447.083Z" transform="translate(-194.223 -390.51)" fill="#040506"/>
        <path id="Trazado_1000130" data-name="Trazado 1000130" d="M78.595,375l-5.4,2.031,2.031-5.4a.948.948,0,0,0-1.775-.668L71.144,377.1a1.542,1.542,0,0,0,1.433,2.083,1.555,1.555,0,0,0,.549-.1l6.136-2.308A.948.948,0,1,0,78.595,375Z" transform="translate(-62.065 -323.546)" fill="#040506"/>
        <path id="Trazado_1000131" data-name="Trazado 1000131" d="M7.266,230.7a.948.948,0,0,0,.392-1.812L2.4,226.512l5.253-2.382a.948.948,0,1,0-.783-1.727L.9,225.11a1.539,1.539,0,0,0,0,2.8l5.971,2.707A.946.946,0,0,0,7.266,230.7Z" transform="translate(0 -194.223)" fill="#040506"/>
        <path id="Trazado_1000132" data-name="Trazado 1000132" d="M74.158,79.26a.948.948,0,0,0,1.775-.668l-2.031-5.4,5.4,2.031a.948.948,0,0,0,.668-1.775l-6.136-2.308a1.539,1.539,0,0,0-1.982,1.982Z" transform="translate(-62.681 -62.063)" fill="#040506"/>
        <path id="Trazado_1000133" data-name="Trazado 1000133" d="M311.579,23.052l3.191-2.981.139,4.38a.948.948,0,0,0,.947.918h.031a.948.948,0,0,0,.917-.977l-.164-5.162a1.541,1.541,0,0,0-2.593-1.077l-3.763,3.515a.948.948,0,1,0,1.294,1.386" transform="translate(-270.81 -15.493)" fill="#040506"/>
        <path id="Trazado_1000134" data-name="Trazado 1000134" d="M434.557,150.29a.948.948,0,0,0,.915.98l4.367.148-3,3.2a.948.948,0,0,0,1.383,1.3l3.534-3.766a1.541,1.541,0,0,0-1.072-2.6l-5.148-.175a.945.945,0,0,0-.98.915" transform="translate(-379.64 -130.497)" fill="#040506"/>
        <path id="Trazado_1000135" data-name="Trazado 1000135" d="M437.554,310.285a.948.948,0,0,0-1.386,1.295l2.981,3.191-4.38.14a.948.948,0,0,0,.03,1.9h.031l5.162-.164a1.542,1.542,0,0,0,1.077-2.593Z" transform="translate(-379.025 -270.81)" fill="#040506"/>
        <path id="Trazado_1000136" data-name="Trazado 1000136" d="M314.448,434.558a.95.95,0,0,0-.98.915l-.148,4.367-3.2-3a.948.948,0,0,0-1.3,1.383l3.766,3.534a1.527,1.527,0,0,0,1.049.42,1.556,1.556,0,0,0,.595-.119,1.525,1.525,0,0,0,.952-1.372l.175-5.148A.948.948,0,0,0,314.448,434.558Z" transform="translate(-269.538 -379.641)" fill="#040506"/>
        <path id="Trazado_1000137" data-name="Trazado 1000137" d="M153.265,436.168l-3.191,2.981-.139-4.38a.948.948,0,0,0-1.9.06l.164,5.162a1.525,1.525,0,0,0,.949,1.375,1.555,1.555,0,0,0,.6.121,1.527,1.527,0,0,0,1.046-.418l3.763-3.515a.948.948,0,1,0-1.295-1.385Z" transform="translate(-129.331 -379.024)" fill="#040506"/>
        <path id="Trazado_1000138" data-name="Trazado 1000138" d="M24.763,314.447a.948.948,0,0,0-.915-.98l-4.367-.148,3-3.2a.948.948,0,1,0-1.383-1.3l-3.534,3.766a1.541,1.541,0,0,0,1.072,2.6l5.148.175h.033A.948.948,0,0,0,24.763,314.447Z" transform="translate(-14.977 -269.537)" fill="#040506"/>
        <path id="Trazado_1000139" data-name="Trazado 1000139" d="M21.664,154.559a.948.948,0,1,0,1.386-1.294l-2.981-3.191,4.38-.14a.948.948,0,0,0-.06-1.9l-5.162.164a1.542,1.542,0,0,0-1.077,2.593Z" transform="translate(-15.49 -129.331)" fill="#040506"/>
        <path id="Trazado_1000140" data-name="Trazado 1000140" d="M150.291,24.763h.033a.948.948,0,0,0,.947-.916l.148-4.367,3.2,3a.948.948,0,0,0,1.3-1.383l-3.766-3.534a1.541,1.541,0,0,0-2.6,1.072l-.175,5.148A.948.948,0,0,0,150.291,24.763Z" transform="translate(-130.498 -14.977)" fill="#040506"/>
      </g>
    </g>
    <path id="Trazado_1000656" data-name="Trazado 1000656" d="M20,0H272a20,20,0,0,1,20,20V78.111a20,20,0,0,1-20,20H20a20,20,0,0,1-20-20V20A20,20,0,0,1,20,0Z" transform="translate(1122 10603.389)" fill="#5e3637"/>
    <path id="Feature_One-6" data-name="Feature One" d="M51.324,16.609H47.1L46.359,19h-3.3L47.756,6.2h2.9L55.385,19H52.072Zm-3.489-2.382h2.751l-1.38-4.438ZM59.3,19H56.334V5.5H59.3ZM64.578,7.126V9.49h1.564v2.057H64.578V15.9a1.111,1.111,0,0,0,.193.747,1.037,1.037,0,0,0,.765.211,4.345,4.345,0,0,0,.738-.053v2.118a5.466,5.466,0,0,1-1.67.255,3.1,3.1,0,0,1-2.259-.721,2.954,2.954,0,0,1-.729-2.188v-4.72H60.4V9.49h1.213V7.126ZM70.432,19H67.461V9.49h2.971ZM67.285,7.038A1.322,1.322,0,0,1,67.742,6a1.943,1.943,0,0,1,2.373,0,1.322,1.322,0,0,1,.457,1.037,1.322,1.322,0,0,1-.457,1.037,1.943,1.943,0,0,1-2.373,0A1.322,1.322,0,0,1,67.285,7.038Zm8.42.088V9.49H77.27v2.057H75.705V15.9a1.111,1.111,0,0,0,.193.747,1.037,1.037,0,0,0,.765.211A4.345,4.345,0,0,0,77.4,16.8v2.118a5.466,5.466,0,0,1-1.67.255,3.1,3.1,0,0,1-2.259-.721,2.954,2.954,0,0,1-.729-2.188v-4.72H71.531V9.49h1.213V7.126ZM84.1,17.972a3.054,3.054,0,0,1-2.54,1.2,3,3,0,0,1-2.369-.91,3.826,3.826,0,0,1-.8-2.615V9.49h2.962v6.179a1.065,1.065,0,0,0,1.187,1.222,1.548,1.548,0,0,0,1.45-.729V9.49h2.979V19H84.187Zm4.113-3.8a5.809,5.809,0,0,1,.976-3.56,3.211,3.211,0,0,1,2.725-1.3,2.731,2.731,0,0,1,2.145,1V5.5h2.971V19H94.364l-.149-1.02a2.8,2.8,0,0,1-2.32,1.2,3.205,3.205,0,0,1-2.689-1.3A5.993,5.993,0,0,1,88.212,14.175Zm2.962.185q0,2.531,1.477,2.531a1.458,1.458,0,0,0,1.406-.826V12.443a1.419,1.419,0,0,0-1.389-.844q-1.371,0-1.485,2.215Zm11.646-.185a5.809,5.809,0,0,1,.976-3.56,3.211,3.211,0,0,1,2.725-1.3,2.731,2.731,0,0,1,2.145,1V5.5h2.971V19h-2.663l-.149-1.02a2.8,2.8,0,0,1-2.32,1.2,3.205,3.205,0,0,1-2.689-1.3A5.993,5.993,0,0,1,102.82,14.175Zm2.962.185q0,2.531,1.477,2.531a1.458,1.458,0,0,0,1.406-.826V12.443a1.419,1.419,0,0,0-1.389-.844q-1.371,0-1.485,2.215Zm12.138,4.816a4.889,4.889,0,0,1-3.542-1.305,4.507,4.507,0,0,1-1.354-3.4v-.246a5.84,5.84,0,0,1,.541-2.575,3.955,3.955,0,0,1,1.578-1.727,4.763,4.763,0,0,1,2.461-.611,4.117,4.117,0,0,1,3.164,1.244,4.887,4.887,0,0,1,1.16,3.467v1.151h-5.889a2.135,2.135,0,0,0,.694,1.257,2.066,2.066,0,0,0,1.389.457,2.662,2.662,0,0,0,2.2-.984l1.354,1.6a3.784,3.784,0,0,1-1.569,1.217A5.3,5.3,0,0,1,117.919,19.176Zm-.334-7.576q-1.3,0-1.547,1.723h2.988v-.229a1.467,1.467,0,0,0-.36-1.1A1.434,1.434,0,0,0,117.585,11.6Zm8.657,7.4h-2.971V5.5h2.971ZM136,7.126V9.49h1.564v2.057H136V15.9a1.111,1.111,0,0,0,.193.747,1.037,1.037,0,0,0,.765.211,4.345,4.345,0,0,0,.738-.053v2.118a5.466,5.466,0,0,1-1.67.255,3.1,3.1,0,0,1-2.259-.721,2.954,2.954,0,0,1-.729-2.188v-4.72h-1.213V9.49h1.213V7.126Zm7.33,12.05a4.889,4.889,0,0,1-3.542-1.305,4.507,4.507,0,0,1-1.354-3.4v-.246a5.84,5.84,0,0,1,.541-2.575,3.955,3.955,0,0,1,1.578-1.727,4.763,4.763,0,0,1,2.461-.611,4.117,4.117,0,0,1,3.164,1.244,4.887,4.887,0,0,1,1.16,3.467v1.151h-5.889a2.135,2.135,0,0,0,.694,1.257,2.066,2.066,0,0,0,1.389.457,2.662,2.662,0,0,0,2.2-.984l1.354,1.6a3.784,3.784,0,0,1-1.569,1.217A5.3,5.3,0,0,1,143.328,19.176Zm-.334-7.576q-1.3,0-1.547,1.723h2.988v-.229a1.467,1.467,0,0,0-.36-1.1A1.434,1.434,0,0,0,142.994,11.6Zm11.285.571-.976-.07a1.752,1.752,0,0,0-1.793.879V19h-2.962V9.49h2.777l.1,1.222a2.294,2.294,0,0,1,2.083-1.4,2.888,2.888,0,0,1,.826.105Zm6.82,0-.976-.07a1.752,1.752,0,0,0-1.793.879V19h-2.962V9.49h2.777l.1,1.222a2.294,2.294,0,0,1,2.083-1.4,2.888,2.888,0,0,1,.826.105Zm5.669,7a4.889,4.889,0,0,1-3.542-1.305,4.507,4.507,0,0,1-1.354-3.4v-.246a5.84,5.84,0,0,1,.541-2.575,3.955,3.955,0,0,1,1.578-1.727,4.763,4.763,0,0,1,2.461-.611,4.117,4.117,0,0,1,3.164,1.244,4.887,4.887,0,0,1,1.16,3.467v1.151h-5.889a2.135,2.135,0,0,0,.694,1.257,2.066,2.066,0,0,0,1.389.457,2.662,2.662,0,0,0,2.2-.984l1.354,1.6a3.784,3.784,0,0,1-1.569,1.217A5.3,5.3,0,0,1,166.769,19.176Zm-.334-7.576q-1.3,0-1.547,1.723h2.988v-.229a1.467,1.467,0,0,0-.36-1.1A1.434,1.434,0,0,0,166.435,11.6Zm8.253-2.109.1,1.116A3.225,3.225,0,0,1,177.5,9.314a2.713,2.713,0,0,1,2.219.888,4.226,4.226,0,0,1,.76,2.672V19h-2.971V13a1.6,1.6,0,0,0-.29-1.059,1.342,1.342,0,0,0-1.055-.338,1.413,1.413,0,0,0-1.292.686V19H171.91V9.49Zm7.058,4.667a5.613,5.613,0,0,1,.554-2.536,3.96,3.96,0,0,1,1.591-1.709,4.791,4.791,0,0,1,2.435-.6,4.373,4.373,0,0,1,3.366,1.323,5.076,5.076,0,0,1,1.23,3.6v.105a4.925,4.925,0,0,1-1.235,3.529,4.384,4.384,0,0,1-3.344,1.305,4.434,4.434,0,0,1-3.261-1.217,4.761,4.761,0,0,1-1.327-3.3Zm2.962.185a3.538,3.538,0,0,0,.413,1.934,1.376,1.376,0,0,0,1.222.615q1.582,0,1.617-2.435v-.3q0-2.558-1.635-2.558-1.485,0-1.608,2.206Z" transform="translate(1150.758 10659.404)" fill="#fff"/>
    <path id="Trazado_1000659" data-name="Trazado 1000659" d="M42,0A42,42,0,1,1,0,42,42,42,0,0,1,42,0Z" transform="translate(1225.711 10561)" fill="#e5d5ba"/>
    <g id="Grupo_1178235" data-name="Grupo 1178235" transform="translate(1242.397 10574.57)">
      <g id="Grupo_1178234" data-name="Grupo 1178234" clip-path="url(#clip-path-6)">
        <path id="Trazado_1000155" data-name="Trazado 1000155" d="M194.961,200.663c-3.874.735-5.78-4.338-8.8-2.489a2.41,2.41,0,0,1-2.368.161h-.173l2.151,6.393a1.575,1.575,0,0,0,.959.985l2.059.745a1.764,1.764,0,0,1,.985.884l1.974,3.824a4.445,4.445,0,0,1,1.127.262.676.676,0,0,0,.628-.089,5.235,5.235,0,0,1,7.094,1Z" transform="translate(-151.316 -162.973)" fill="#9b563f"/>
        <path id="Trazado_1000156" data-name="Trazado 1000156" d="M192.676,206.1a4.857,4.857,0,0,0-2.724-2.445l-.037-.013a2.893,2.893,0,0,1-1.762-1.809l-1.215-3.66a2.813,2.813,0,0,0-.778.336,2.409,2.409,0,0,1-2.368.16h-.173l2.151,6.393a1.576,1.576,0,0,0,.959.985l2.059.745a1.765,1.765,0,0,1,.985.884l1.974,3.824a4.442,4.442,0,0,1,1.127.262.677.677,0,0,0,.628-.089,5.222,5.222,0,0,1,1.537-.743Z" transform="translate(-151.315 -163.31)" fill="#844734"/>
        <path id="Trazado_1000157" data-name="Trazado 1000157" d="M192.3,168.524l-2.311-4.726a1.764,1.764,0,0,0-.985-.884l-2.6-.94a1.765,1.765,0,0,1-.952-.819l-1.229-2.272a.651.651,0,0,0-1.157.024l-2.821,5.343.628,1.89a2.377,2.377,0,0,0,2.505-.082c3.05-1.868,4.965,3.329,8.919,2.465" transform="translate(-148.54 -130.65)" fill="#844734"/>
        <path id="Trazado_1000158" data-name="Trazado 1000158" d="M184.227,173.43l-1.832-5.516-2.143,4.059.628,1.89a2.377,2.377,0,0,0,2.505-.082,2.775,2.775,0,0,1,.842-.352" transform="translate(-148.54 -138.373)" fill="#6a3a2a"/>
        <path id="Trazado_1000159" data-name="Trazado 1000159" d="M21.4,37.043a3.466,3.466,0,0,1,3.408-2.189,3.913,3.913,0,0,1,1.458.281,4.988,4.988,0,0,0,.063-.86,2.967,2.967,0,0,0-2.966-2.91h-.023a.5.5,0,0,1-.463-.306,4.49,4.49,0,0,0-8.271,0,.5.5,0,0,1-.463.306h-.023a2.967,2.967,0,0,0-2.966,2.91A3.021,3.021,0,0,0,14.185,37.3H21.09a.434.434,0,0,0,.308-.256" transform="translate(-9.189 -23.336)" fill="#7bbce9"/>
        <path id="Trazado_1000160" data-name="Trazado 1000160" d="M15.82,34.275a2.967,2.967,0,0,1,2.966-2.91h.022a.5.5,0,0,0,.463-.306,4.509,4.509,0,0,1,1.8-2.086A4.489,4.489,0,0,0,14.6,31.06a.5.5,0,0,1-.463.306h-.022a2.967,2.967,0,0,0-2.966,2.91A3.021,3.021,0,0,0,14.184,37.3h4.67a3.021,3.021,0,0,1-3.033-3.024" transform="translate(-9.188 -23.336)" fill="#54a5de"/>
        <path id="Trazado_1000161" data-name="Trazado 1000161" d="M53.712,72.139h6.916l1.927-4.787a.938.938,0,0,1,.175-.277,4.107,4.107,0,0,0-1-.123h-.02a.435.435,0,0,1-.4-.267,3.925,3.925,0,0,0-7.231,0,.435.435,0,0,1-.4.267h-.02A2.594,2.594,0,0,0,51.061,69.5a2.641,2.641,0,0,0,2.652,2.644" transform="translate(-42.077 -52.978)" fill="#a2d4f4"/>
        <path id="Trazado_1000162" data-name="Trazado 1000162" d="M55.156,69.5a2.594,2.594,0,0,1,2.593-2.543h.02a.435.435,0,0,0,.4-.267,3.94,3.94,0,0,1,1.567-1.817,3.921,3.921,0,0,0-5.664,1.817.435.435,0,0,1-.4.267h-.02A2.594,2.594,0,0,0,51.06,69.5a2.641,2.641,0,0,0,2.652,2.644h4.1A2.641,2.641,0,0,1,55.156,69.5" transform="translate(-42.077 -52.978)" fill="#7bbce9"/>
        <path id="Trazado_1000163" data-name="Trazado 1000163" d="M42.268,157.442a1.766,1.766,0,0,0-.985-.884l-2.059-.745a1.575,1.575,0,0,1-.959-.985l-4.485-13.5c-4.692,2.158-6.664-4.131-9.974-2.1-1.782,1.091-3.012-.242-3.778-1.754l-2.491,6.188a2.806,2.806,0,0,1-1.742,1.623l-.94.3a2.806,2.806,0,0,0-1.66,1.438L4.571,164.652a.718.718,0,0,0,.645,1.033H24.807a.42.42,0,0,1-.07-.33,2.651,2.651,0,0,1,2.583-2.114,2.584,2.584,0,0,1,1.165.284.433.433,0,0,0,.469-.045,3.036,3.036,0,0,1,2.99-.485.444.444,0,0,0,.418-.053,3.549,3.549,0,0,1,3.651-.3H36.2a3.8,3.8,0,0,1,4.007-.347.629.629,0,0,0,.681-.068,4.455,4.455,0,0,1,2.8-.986c.15,0,.3.008.443.022Z" transform="translate(-3.706 -113.281)" fill="#ae6750"/>
        <path id="Trazado_1000164" data-name="Trazado 1000164" d="M23.807,139.219c-1.782,1.091-3.012-.243-3.778-1.754l-2.491,6.188a2.806,2.806,0,0,1-1.742,1.623l-.94.3a2.805,2.805,0,0,0-1.66,1.438L4.572,164.652a.718.718,0,0,0,.645,1.033H11.38a.718.718,0,0,1-.645-1.033l8.624-17.634a2.806,2.806,0,0,1,1.66-1.438l.94-.3a2.806,2.806,0,0,0,1.742-1.623l1.929-4.793a2.432,2.432,0,0,0-1.823.359" transform="translate(-3.707 -113.281)" fill="#9b563f"/>
        <path id="Trazado_1000165" data-name="Trazado 1000165" d="M198.15,28.241a3.158,3.158,0,1,0,3.158,3.158,3.158,3.158,0,0,0-3.158-3.158" transform="translate(-160.687 -23.273)" fill="#ffc800"/>
        <path id="Trazado_1000166" data-name="Trazado 1000166" d="M197.961,31.4a3.157,3.157,0,0,1,1.673-2.787,3.158,3.158,0,1,0,0,5.574,3.157,3.157,0,0,1-1.673-2.787" transform="translate(-160.686 -23.273)" fill="#ffb200"/>
        <path id="Trazado_1000167" data-name="Trazado 1000167" d="M103.36,83.731l-.754-2.272a.942.942,0,0,0-.895-.645.941.941,0,0,1-.81-.462l-.913-1.543a.942.942,0,0,0-.811-.462h-1.8a.942.942,0,0,0-.874.59l-4,9.926c.763,1.548,2.006,2.959,3.825,1.846,3.324-2.036,5.3,4.318,10.034,2.078Z" transform="translate(-76.234 -64.563)" fill="#9b563f"/>
        <path id="Trazado_1000168" data-name="Trazado 1000168" d="M98.066,90.334l3.824-9.5a.941.941,0,0,0-.179-.018.941.941,0,0,1-.81-.462l-.913-1.543a.942.942,0,0,0-.811-.462h-1.8a.942.942,0,0,0-.874.59l-4,9.926c.763,1.548,2.006,2.96,3.825,1.846a2.441,2.441,0,0,1,1.732-.375" transform="translate(-76.234 -64.563)" fill="#844734"/>
        <path id="Trazado_1000169" data-name="Trazado 1000169" d="M149.4,96.55h-.02a.434.434,0,0,1-.4-.267,3.925,3.925,0,0,0-7.231,0,.435.435,0,0,1-.4.267h-.02a2.594,2.594,0,0,0-2.593,2.544,2.641,2.641,0,0,0,2.652,2.644h7.963a2.641,2.641,0,0,0,2.652-2.644A2.594,2.594,0,0,0,149.4,96.55" transform="translate(-114.317 -77.369)" fill="#d7e7f8"/>
        <path id="Trazado_1000170" data-name="Trazado 1000170" d="M142.819,99.094a2.594,2.594,0,0,1,2.593-2.544h.02a.435.435,0,0,0,.4-.267,3.938,3.938,0,0,1,1.567-1.817,3.921,3.921,0,0,0-5.663,1.817.435.435,0,0,1-.4.267h-.02a2.594,2.594,0,0,0-2.593,2.544,2.641,2.641,0,0,0,2.652,2.644h4.1a2.641,2.641,0,0,1-2.652-2.644" transform="translate(-114.317 -77.37)" fill="#a2d4f4"/>
        <path id="Trazado_1000171" data-name="Trazado 1000171" d="M202.363,272.488a5.253,5.253,0,0,0-5.173-4.475,5.177,5.177,0,0,0-3.016.965.671.671,0,0,1-.628.09,4.438,4.438,0,0,0-4.373.709.624.624,0,0,1-.681.068,3.771,3.771,0,0,0-4.058.389,3.657,3.657,0,0,1,1.6,2.516.446.446,0,0,1-.435.517H201.7a.672.672,0,0,0,.659-.778" transform="translate(-151.987 -220.862)" fill="#3f9f51"/>
        <path id="Trazado_1000172" data-name="Trazado 1000172" d="M190.008,276.085a5.292,5.292,0,0,1,2.419-3.683,4.418,4.418,0,0,0-3.254.972.623.623,0,0,1-.681.068,3.771,3.771,0,0,0-4.058.389,3.657,3.657,0,0,1,1.6,2.516.446.446,0,0,1-.435.517h5.071a.672.672,0,0,1-.659-.778" transform="translate(-151.987 -224.459)" fill="#2f9941"/>
        <path id="Trazado_1000173" data-name="Trazado 1000173" d="M130.964,280.182a3.665,3.665,0,0,0-3.613-3.143,3.612,3.612,0,0,0-2.116.682.452.452,0,0,1-.426.054,3.1,3.1,0,0,0-3.051.495.442.442,0,0,1-.479.046,2.64,2.64,0,0,0-1.189-.29,2.7,2.7,0,0,0-2.636,2.157.437.437,0,0,0,.428.522h12.643a.45.45,0,0,0,.439-.522" transform="translate(-96.783 -228.3)" fill="#55ab75"/>
        <path id="Trazado_1000174" data-name="Trazado 1000174" d="M122.462,282.834a3.736,3.736,0,0,1,2.1-2.63,3.1,3.1,0,0,0-2.8.576.442.442,0,0,1-.479.046,2.637,2.637,0,0,0-1.189-.29,2.7,2.7,0,0,0-2.636,2.157.437.437,0,0,0,.428.522h4.629a.588.588,0,0,1-.049-.38" transform="translate(-96.783 -230.81)" fill="#3f9f51"/>
        <path id="Trazado_1000175" data-name="Trazado 1000175" d="M104.8,216.956a.377.377,0,0,1-.044-.353,2.589,2.589,0,0,0-.4-2.517.378.378,0,0,1-.048-.406,2.2,2.2,0,0,0,.24-.989,2.218,2.218,0,0,0-4.012-1.318,2.673,2.673,0,0,1-.218.6.458.458,0,0,0,.059.492,3.138,3.138,0,0,1,.481,3.051.459.459,0,0,0,.053.428,3.67,3.67,0,0,1-.663,4.964,3.026,3.026,0,0,0,4.55-3.949" transform="translate(-82.614 -173.433)" fill="#3f9f51"/>
        <path id="Trazado_1000176" data-name="Trazado 1000176" d="M103.288,215.74a1.186,1.186,0,0,1-.091-.643,5.171,5.171,0,0,0-.409-2.8,1.158,1.158,0,0,1-.08-.683,4.676,4.676,0,0,0,.079-.829c0-.092,0-.184-.007-.275a2.163,2.163,0,0,0-.334-.046,2.214,2.214,0,0,0-1.907.911,2.68,2.68,0,0,1-.218.6.458.458,0,0,0,.059.492,3.138,3.138,0,0,1,.481,3.052.458.458,0,0,0,.053.428,3.67,3.67,0,0,1-.663,4.964,3.013,3.013,0,0,0,1.879.828,3.084,3.084,0,0,0,.315,0,5.741,5.741,0,0,0,1.339-3.669,5.672,5.672,0,0,0-.5-2.328" transform="translate(-82.613 -173.433)" fill="#2f9941"/>
        <path id="Trazado_1000177" data-name="Trazado 1000177" d="M72.905,204.723a.452.452,0,0,1-.054-.428,3.1,3.1,0,0,0-.489-3.052.452.452,0,0,1-.06-.492,2.638,2.638,0,0,0,.3-1.2,2.732,2.732,0,0,0-5.464-.016,2.639,2.639,0,0,0,.292,1.208.447.447,0,0,1-.049.49,3.1,3.1,0,0,0-.5,3.06.452.452,0,0,1-.054.428,3.62,3.62,0,0,0-.678,2.422,3.732,3.732,0,0,0,7.446-.3,3.617,3.617,0,0,0-.69-2.127" transform="translate(-54.502 -162.216)" fill="#55ab75"/>
        <path id="Trazado_1000178" data-name="Trazado 1000178" d="M69.023,207.146a3.621,3.621,0,0,1,.678-2.422.452.452,0,0,0,.055-.428,3.1,3.1,0,0,1,.5-3.06.447.447,0,0,0,.049-.49,2.637,2.637,0,0,1-.292-1.207,2.679,2.679,0,0,1,1.29-2.285,2.732,2.732,0,0,0-4.164,2.285,2.637,2.637,0,0,0,.292,1.207.447.447,0,0,1-.049.49,3.1,3.1,0,0,0-.5,3.06.452.452,0,0,1-.054.428,3.62,3.62,0,0,0-.678,2.422,3.714,3.714,0,0,0,3.468,3.369,3.78,3.78,0,0,0,1.688-.276,3.693,3.693,0,0,1-2.282-3.092" transform="translate(-54.502 -162.216)" fill="#3f9f51"/>
        <path id="Trazado_1000179" data-name="Trazado 1000179" d="M209.223,3.052a.779.779,0,0,1-.779-.779V.779a.779.779,0,1,1,1.558,0V2.273a.779.779,0,0,1-.779.779" transform="translate(-171.773)" fill="#040506"/>
        <path id="Trazado_1000180" data-name="Trazado 1000180" d="M209.223,78.084a.779.779,0,0,1-.779-.779V75.812a.779.779,0,1,1,1.558,0v1.493a.779.779,0,0,1-.779.779" transform="translate(-171.773 -61.832)" fill="#040506"/>
        <path id="Trazado_1000181" data-name="Trazado 1000181" d="M180.75,14.846a.776.776,0,0,1-.551-.228l-1.056-1.056a.779.779,0,0,1,1.1-1.1l1.056,1.056a.779.779,0,0,1-.551,1.33" transform="translate(-147.439 -10.08)" fill="#040506"/>
        <path id="Trazado_1000182" data-name="Trazado 1000182" d="M233.806,67.9a.776.776,0,0,1-.551-.228L232.2,66.617a.779.779,0,0,1,1.1-1.1l1.056,1.056a.779.779,0,0,1-.551,1.33" transform="translate(-191.161 -53.802)" fill="#040506"/>
        <path id="Trazado_1000183" data-name="Trazado 1000183" d="M168.956,43.32h-1.493a.779.779,0,1,1,0-1.558h1.493a.779.779,0,1,1,0,1.558" transform="translate(-137.359 -34.415)" fill="#040506"/>
        <path id="Trazado_1000184" data-name="Trazado 1000184" d="M243.988,43.32H242.5a.779.779,0,1,1,0-1.558h1.493a.779.779,0,1,1,0,1.558" transform="translate(-199.191 -34.415)" fill="#040506"/>
        <path id="Trazado_1000185" data-name="Trazado 1000185" d="M179.694,67.9a.779.779,0,0,1-.551-1.33l1.056-1.056a.779.779,0,0,1,1.1,1.1l-1.056,1.056a.776.776,0,0,1-.551.228" transform="translate(-147.439 -53.802)" fill="#040506"/>
        <path id="Trazado_1000186" data-name="Trazado 1000186" d="M232.75,14.846a.779.779,0,0,1-.551-1.33l1.056-1.056a.779.779,0,0,1,1.1,1.1L233.3,14.618a.776.776,0,0,1-.551.228" transform="translate(-191.161 -10.08)" fill="#040506"/>
        <path id="Trazado_1000187" data-name="Trazado 1000187" d="M194.433,31.687a3.937,3.937,0,1,1,3.937-3.936,3.941,3.941,0,0,1-3.937,3.936m0-6.315a2.379,2.379,0,1,0,2.379,2.379,2.381,2.381,0,0,0-2.379-2.379" transform="translate(-156.982 -19.624)" fill="#040506"/>
        <path id="Trazado_1000188" data-name="Trazado 1000188" d="M145.621,98.868h-7.963a3.478,3.478,0,0,1-2.466-1.039,3.317,3.317,0,0,1-.965-2.4,3.391,3.391,0,0,1,3.17-3.3,4.7,4.7,0,0,1,8.483,0,3.391,3.391,0,0,1,3.17,3.3,3.316,3.316,0,0,1-.965,2.4,3.477,3.477,0,0,1-2.466,1.039m-8.009-5.187H137.6a1.824,1.824,0,0,0-1.814,1.779,1.77,1.77,0,0,0,.519,1.278,1.91,1.91,0,0,0,1.354.572h7.963a1.91,1.91,0,0,0,1.354-.572,1.769,1.769,0,0,0,.519-1.278,1.823,1.823,0,0,0-1.814-1.779h-.03a1.209,1.209,0,0,1-1.112-.743,3.146,3.146,0,0,0-5.8,0,1.212,1.212,0,0,1-1.118.742h-.011m8.044-1.558h0Zm-8.042,0h0" transform="translate(-110.612 -73.721)" fill="#040506"/>
        <path id="Trazado_1000189" data-name="Trazado 1000189" d="M188.676,165.751a7.441,7.441,0,0,1-4.268-1.782c-1.47-1.04-2.287-1.553-3.36-.9a2.781,2.781,0,0,1-3.122.075.778.778,0,0,1-.322-.412l-.628-1.891a.778.778,0,0,1,.04-.588l2.613-5.343a1.43,1.43,0,0,1,2.542-.052l1.229,2.272a.984.984,0,0,0,.531.458l2.6.94a2.532,2.532,0,0,1,1.419,1.274l2.311,4.726a.779.779,0,0,1-.534,1.1,4.911,4.911,0,0,1-1.05.116m-6.7-4.534a6.086,6.086,0,0,1,3.332,1.48,6.646,6.646,0,0,0,3.043,1.479l-1.8-3.686A.982.982,0,0,0,186,160l-2.6-.94a2.541,2.541,0,0,1-1.372-1.181l-1.111-2.053-2.364,4.833.43,1.294a1.32,1.32,0,0,0,1.249-.206,3.286,3.286,0,0,1,1.742-.527" transform="translate(-145.809 -127)" fill="#040506"/>
        <path id="Trazado_1000190" data-name="Trazado 1000190" d="M66.1,207.653q-.149,0-.3-.01a4.451,4.451,0,0,1-3.429-6.879,3.919,3.919,0,0,1,.539-3.5,3.469,3.469,0,0,1,3.362-4.841,3.5,3.5,0,0,1,3.292,3.485,3.426,3.426,0,0,1-.285,1.355,3.919,3.919,0,0,1,.539,3.5,4.42,4.42,0,0,1,.727,2.438,4.468,4.468,0,0,1-1.408,3.248,4.408,4.408,0,0,1-3.039,1.2m0-13.676a1.91,1.91,0,0,0-1.707,2.768,1.237,1.237,0,0,1-.136,1.328,2.36,2.36,0,0,0-.366,2.3,1.238,1.238,0,0,1-.148,1.153,2.866,2.866,0,0,0-.525,1.91,2.9,2.9,0,0,0,2.689,2.652,2.893,2.893,0,0,0,2.552-4.562,1.236,1.236,0,0,1-.148-1.153,2.358,2.358,0,0,0-.362-2.293,1.242,1.242,0,0,1-.143-1.33,1.885,1.885,0,0,0,.206-.85,1.929,1.929,0,0,0-1.812-1.92l-.1,0m3.627,6.645h0m0,0h0Z" transform="translate(-50.799 -158.567)" fill="#040506"/>
        <path id="Trazado_1000191" data-name="Trazado 1000191" d="M98.618,218.868q-.128,0-.256-.008A3.8,3.8,0,0,1,96,217.82a.779.779,0,0,1,.041-1.167,2.891,2.891,0,0,0,.523-3.911,1.236,1.236,0,0,1-.148-1.153,2.357,2.357,0,0,0-.361-2.293,1.241,1.241,0,0,1-.143-1.33,1.876,1.876,0,0,0,.154-.422.782.782,0,0,1,.129-.28,2.993,2.993,0,0,1,2.576-1.23,3.028,3.028,0,0,1,2.845,3.012,2.969,2.969,0,0,1-.216,1.1,3.371,3.371,0,0,1,.439,2.883,3.78,3.78,0,0,1,.587,2.031,3.823,3.823,0,0,1-1.2,2.779,3.771,3.771,0,0,1-2.6,1.029m-.885-1.74a2.192,2.192,0,0,0,.729.177,2.25,2.25,0,0,0,1.986-3.547,1.154,1.154,0,0,1-.139-1.08,1.81,1.81,0,0,0-.278-1.758,1.16,1.16,0,0,1-.132-1.245,1.422,1.422,0,0,0,.154-.64,1.453,1.453,0,0,0-1.365-1.446,1.434,1.434,0,0,0-1.157.49,3.451,3.451,0,0,1-.145.4,3.919,3.919,0,0,1,.54,3.5,4.452,4.452,0,0,1-.194,5.149m4.035-3.9h0m-.051-.372h0Zm-3.887-1.016h0m3.459-1.457v0" transform="translate(-78.908 -169.783)" fill="#040506"/>
        <path id="Trazado_1000192" data-name="Trazado 1000192" d="M108.137,275.806a.779.779,0,0,1-.779-.779v-4.1a.779.779,0,0,1,1.558,0v4.1a.779.779,0,0,1-.779.779" transform="translate(-88.471 -222.623)" fill="#040506"/>
        <path id="Trazado_1000193" data-name="Trazado 1000193" d="M83.292,275.807a.779.779,0,0,1-.779-.779v-4.1a.779.779,0,1,1,1.558,0v4.1a.779.779,0,0,1-.779.779" transform="translate(-67.997 -222.624)" fill="#040506"/>
        <path id="Trazado_1000194" data-name="Trazado 1000194" d="M33.6,114.1H1.5a1.5,1.5,0,0,1-1.345-2.154L8.778,94.309a3.6,3.6,0,0,1,2.12-1.837l.94-.3A2.022,2.022,0,0,0,13.1,91l6.439-16a1.714,1.714,0,0,1,1.6-1.078h1.8a1.727,1.727,0,0,1,1.481.845l.913,1.542a.162.162,0,0,0,.138.08h0A1.718,1.718,0,0,1,27.1,77.565l.754,2.272a.779.779,0,0,1-.552,1,1.184,1.184,0,0,1-.3.036h-.012a1.824,1.824,0,0,0-1.814,1.779,1.769,1.769,0,0,0,.519,1.278,1.91,1.91,0,0,0,1.354.572h1.8a.779.779,0,0,1,.739.534l5.705,17.179a.792.792,0,0,0,.485.5l2.059.745a2.531,2.531,0,0,1,1.419,1.274l1.87,3.824a.779.779,0,0,1-.776,1.117c-.126-.012-.249-.019-.367-.019a3.654,3.654,0,0,0-2.314.815,1.412,1.412,0,0,1-1.522.155,3.014,3.014,0,0,0-1.361-.33h-.017a2.982,2.982,0,0,0-.987.167,4.387,4.387,0,0,1,1.027,2.23,1.221,1.221,0,0,1-1.2,1.4m-.339-1.178h0M1.6,112.54H33.177a2.845,2.845,0,0,0-1.169-1.572.779.779,0,0,1-.048-1.269,4.624,4.624,0,0,1,2.8-.961h.025a4.557,4.557,0,0,1,1.975.458,5.274,5.274,0,0,1,2.426-1.038l-1.34-2.74a.982.982,0,0,0-.55-.494l-2.059-.745a2.341,2.341,0,0,1-1.433-1.472L28.28,86.062H27.046a3.478,3.478,0,0,1-2.466-1.039,3.316,3.316,0,0,1-.964-2.4,3.394,3.394,0,0,1,2.466-3.182l-.46-1.386a.163.163,0,0,0-.155-.112h0a1.727,1.727,0,0,1-1.48-.845l-.913-1.543a.163.163,0,0,0-.14-.08h-1.8a.163.163,0,0,0-.151.1l-6.439,16a3.576,3.576,0,0,1-2.226,2.074l-.94.3a2.037,2.037,0,0,0-1.2,1.039ZM27,79.317h0" transform="translate(0 -60.914)" fill="#040506"/>
        <path id="Trazado_1000195" data-name="Trazado 1000195" d="M126.675,278.175H114.161a1.209,1.209,0,0,1-.941-.448,1.2,1.2,0,0,1-.245-1,3.441,3.441,0,0,1,3.357-2.735h.02a3.386,3.386,0,0,1,1.334.279,3.869,3.869,0,0,1,3.446-.531,4.365,4.365,0,0,1,2.4-.715,4.419,4.419,0,0,1,4.347,3.746h0a1.228,1.228,0,0,1-.284.983,1.216,1.216,0,0,1-.921.422m-12.03-1.558h11.609a2.856,2.856,0,0,0-2.721-2.034,2.817,2.817,0,0,0-1.643.524,1.23,1.23,0,0,1-1.148.148,2.313,2.313,0,0,0-2.257.363,1.221,1.221,0,0,1-1.314.133,1.845,1.845,0,0,0-.83-.2h-.01a1.907,1.907,0,0,0-1.686,1.068" transform="translate(-93.078 -224.991)" fill="#040506"/>
        <path id="Trazado_1000196" data-name="Trazado 1000196" d="M197.989,270.638H181.881a.779.779,0,0,1-.391-1.453,2.843,2.843,0,0,0-1.2-1.677.779.779,0,0,1-.048-1.269,4.622,4.622,0,0,1,2.8-.961h.025a4.556,4.556,0,0,1,1.975.458,5.256,5.256,0,0,1,5-.785,6.015,6.015,0,0,1,9.372,4.018,1.446,1.446,0,0,1-1.428,1.669m-.112-1.431h0m-14.817-.127h14.8a4.487,4.487,0,0,0-4.382-3.644,4.427,4.427,0,0,0-2.567.813,1.454,1.454,0,0,1-1.35.182,3.7,3.7,0,0,0-3.611.58,1.411,1.411,0,0,1-1.522.155,3.021,3.021,0,0,0-1.361-.33h-.017a2.981,2.981,0,0,0-.986.167,4.392,4.392,0,0,1,1,2.077" transform="translate(-148.283 -217.454)" fill="#040506"/>
        <path id="Trazado_1000197" data-name="Trazado 1000197" d="M17.165,34.43h-6.7a3.866,3.866,0,0,1-2.741-1.154,3.682,3.682,0,0,1-1.071-2.663,3.766,3.766,0,0,1,3.587-3.67,5.269,5.269,0,0,1,9.558,0,3.766,3.766,0,0,1,3.587,3.67,3.65,3.65,0,0,1-.08.829A.779.779,0,0,1,22.256,32a3.147,3.147,0,0,0-4.066,1.7h0a1.217,1.217,0,0,1-.86.713.771.771,0,0,1-.166.018m.308-1.035h0ZM10.4,27.717,10.4,28.5a2.2,2.2,0,0,0-2.186,2.145,2.133,2.133,0,0,0,.626,1.542,2.3,2.3,0,0,0,1.629.688h6.388a4.71,4.71,0,0,1,4.936-2.6A2.2,2.2,0,0,0,19.643,28.5H19.61a1.272,1.272,0,0,1-1.171-.781,3.711,3.711,0,0,0-6.836,0,1.275,1.275,0,0,1-1.177.781h-.01Zm9.21-.779h0Z" transform="translate(-5.484 -19.688)" fill="#040506"/>
        <path id="Trazado_1000198" data-name="Trazado 1000198" d="M56.7,69.268H50A3.478,3.478,0,0,1,47.53,68.23a3.316,3.316,0,0,1-.964-2.4,3.391,3.391,0,0,1,3.17-3.3,4.7,4.7,0,0,1,8.483,0,3.375,3.375,0,0,1,.824.154.779.779,0,0,1,.343,1.263.168.168,0,0,0-.032.046L57.428,68.78a.779.779,0,0,1-.723.488m-6.753-5.187h-.014a1.823,1.823,0,0,0-1.814,1.779,1.769,1.769,0,0,0,.519,1.278A1.91,1.91,0,0,0,50,67.71h6.182l1.479-3.675a1.215,1.215,0,0,1-.782-.7,3.146,3.146,0,0,0-5.8,0,1.212,1.212,0,0,1-1.119.743h-.01M58,62.523h0Zm-8.042,0h0" transform="translate(-38.373 -49.328)" fill="#040506"/>
        <path id="Trazado_1000199" data-name="Trazado 1000199" d="M100.653,90.4a5.071,5.071,0,0,1-1.847-.359.779.779,0,0,1,.563-1.453,3.4,3.4,0,0,0,2.31.093l-.87-2.621H99.575a3.478,3.478,0,0,1-2.466-1.039,3.316,3.316,0,0,1-.964-2.4,3.394,3.394,0,0,1,2.466-3.182l-.46-1.386A.163.163,0,0,0,98,77.944h0a1.726,1.726,0,0,1-1.479-.844L95.6,75.557a.164.164,0,0,0-.14-.08h-1.8a.163.163,0,0,0-.151.1l-3.861,9.594a2.809,2.809,0,0,0,1.422,1.466,1.406,1.406,0,0,0,1.139-.243,3.624,3.624,0,0,1,4.113.3.779.779,0,0,1-.831,1.318c-1.068-.674-1.714-.749-2.468-.287a2.906,2.906,0,0,1-2.386.411,4.484,4.484,0,0,1-2.544-2.578.78.78,0,0,1-.024-.635l4-9.926a1.714,1.714,0,0,1,1.6-1.078h1.8a1.727,1.727,0,0,1,1.481.845l.913,1.543a.162.162,0,0,0,.138.08h0a1.718,1.718,0,0,1,1.634,1.179l.754,2.271a.779.779,0,0,1-.552,1,1.045,1.045,0,0,1-.3.036h-.012A1.824,1.824,0,0,0,97.7,82.654a1.769,1.769,0,0,0,.519,1.278,1.91,1.91,0,0,0,1.354.572h1.8a.779.779,0,0,1,.739.534l1.28,3.855a.779.779,0,0,1-.406.95,5.41,5.41,0,0,1-2.332.561M99.53,79.317h0" transform="translate(-72.529 -60.914)" fill="#040506"/>
        <path id="Trazado_1000200" data-name="Trazado 1000200" d="M195.078,176.935a.778.778,0,0,1-.607-.29,4.456,4.456,0,0,0-6.038-.85,1.454,1.454,0,0,1-1.351.182,3.673,3.673,0,0,0-.93-.216.779.779,0,0,1-.623-.433l-1.87-3.824a.982.982,0,0,0-.55-.494l-2.059-.745a2.342,2.342,0,0,1-1.433-1.472l-2.639-7.947a.778.778,0,0,1,.04-.588l2.613-5.343a1.43,1.43,0,0,1,2.542-.052l1.229,2.272a.986.986,0,0,0,.532.458l2.6.94a2.531,2.531,0,0,1,1.42,1.274l3.636,7.435a.779.779,0,0,1-1.4.684l-3.636-7.435A.982.982,0,0,0,186,160l-2.6-.94a2.542,2.542,0,0,1-1.372-1.182l-1.111-2.053-2.364,4.834,2.539,7.645a.793.793,0,0,0,.485.5l2.059.745a2.532,2.532,0,0,1,1.42,1.274l1.689,3.454a5.222,5.222,0,0,1,.824.223,6.03,6.03,0,0,1,5.478-.715l-1.264-2.584a.779.779,0,0,1,1.4-.685l2.593,5.3a.779.779,0,0,1-.7,1.121" transform="translate(-145.809 -126.999)" fill="#040506"/>
      </g>
    </g>
    <g id="Grupo_1178226" data-name="Grupo 1178226" transform="translate(104 155)">
      <rect id="Rectángulo_409253" data-name="Rectángulo 409253" width="292" height="98.111" rx="20" transform="translate(186 10603.389)" fill="#5e3637"/>
      <text id="Feature_One-7" data-name="Feature One" transform="translate(214.758 10659.404)" fill="#fff" font-size="18" font-family="Roboto-Black, Roboto" font-weight="800"><tspan x="30.679" y="19">Minerales en el suelo</tspan></text>
      <circle id="Elipse_13708" data-name="Elipse 13708" cx="42" cy="42" r="42" transform="translate(289.711 10561)" fill="#e5d5ba"/>
    </g>
    <g id="Grupo_1178232" data-name="Grupo 1178232" transform="translate(412.613 10734.199)">
      <g id="Grupo_1178230" data-name="Grupo 1178230" transform="translate(0.098)" clip-path="url(#clip-path-7)">
        <path id="Trazado_1000141" data-name="Trazado 1000141" d="M53.867,196.267V222.06a2.345,2.345,0,0,1-2.345,2.345H10.879a2.345,2.345,0,0,1-2.345-2.345V196.267Z" transform="translate(-7.848 -178.29)" fill="#51330b"/>
        <path id="Trazado_1000142" data-name="Trazado 1000142" d="M79.145,281.6a2.345,2.345,0,1,1-2.345,2.345,2.345,2.345,0,0,1,2.345-2.345" transform="translate(-69.861 -255.807)" fill="#666"/>
        <path id="Trazado_1000143" data-name="Trazado 1000143" d="M224.212,256a2.345,2.345,0,1,1-2.345,2.345A2.345,2.345,0,0,1,224.212,256" transform="translate(-201.641 -232.552)" fill="#666"/>
        <path id="Trazado_1000144" data-name="Trazado 1000144" d="M140.05,366.933a3.517,3.517,0,1,1-3.517,3.517,3.517,3.517,0,0,1,3.517-3.517" transform="translate(-124.123 -333.324)" fill="#666"/>
        <path id="Trazado_1000145" data-name="Trazado 1000145" d="M285.117,384a3.517,3.517,0,1,1-3.517,3.517A3.517,3.517,0,0,1,285.117,384" transform="translate(-255.902 -348.828)" fill="#666"/>
        <path id="Trazado_1000146" data-name="Trazado 1000146" d="M370.45,281.6a3.517,3.517,0,1,1-3.517,3.517,3.517,3.517,0,0,1,3.517-3.517" transform="translate(-333.419 -255.807)" fill="#666"/>
        <path id="Trazado_1000147" data-name="Trazado 1000147" d="M53.867,68.267V82.336c-3.627-.055-3.689-1.563-7.433-1.563-3.814,0-3.814,1.563-7.621,1.563S35,80.773,31.193,80.773s-3.814,1.563-7.621,1.563-3.806-1.563-7.621-1.563c-3.736,0-3.806,1.509-7.417,1.563V68.267Z" transform="translate(-7.848 -62.014)" fill="#5c3520"/>
        <path id="Trazado_1000148" data-name="Trazado 1000148" d="M53.867,10.878V18.3a3.517,3.517,0,1,1-7.034,0v-.258A3.217,3.217,0,0,0,44.011,14.8a3.126,3.126,0,0,0-3.416,2.807q-.015.152-.015.3v.649A3.217,3.217,0,0,1,37.758,21.8,3.126,3.126,0,0,1,34.342,19q-.015-.152-.015-.3v-.649A3.217,3.217,0,0,0,31.505,14.8a3.126,3.126,0,0,0-3.416,2.807q-.015.152-.015.3v.649A3.217,3.217,0,0,1,25.252,21.8,3.126,3.126,0,0,1,21.836,19q-.015-.152-.015-.3v-.649A3.217,3.217,0,0,0,19,14.8a3.126,3.126,0,0,0-3.416,2.807q-.015.152-.015.3V18.3a3.517,3.517,0,1,1-7.034,0V10.878a2.345,2.345,0,0,1,2.345-2.345H51.522a2.345,2.345,0,0,1,2.345,2.345" transform="translate(-7.848 -7.751)" fill="#e7c79b"/>
        <path id="Trazado_1000149" data-name="Trazado 1000149" d="M43.77,0H3.126A3.126,3.126,0,0,0,0,3.126v21.1a.782.782,0,0,0,1.563,0V21.065a9.268,9.268,0,0,0,3.126-.8A7.923,7.923,0,0,1,8.2,19.54a7.922,7.922,0,0,1,3.512.723,9.364,9.364,0,0,0,4.106.84,9.369,9.369,0,0,0,4.107-.84,7.925,7.925,0,0,1,3.512-.723,7.925,7.925,0,0,1,3.517.723,9.38,9.38,0,0,0,4.1.84,9.368,9.368,0,0,0,4.107-.84,7.926,7.926,0,0,1,3.513-.723,7.942,7.942,0,0,1,3.517.723,9.272,9.272,0,0,0,3.136.8v22.7a1.563,1.563,0,0,1-1.563,1.563H3.126A1.563,1.563,0,0,1,1.563,43.77V27.356a.782.782,0,0,0-1.563,0V43.77A3.126,3.126,0,0,0,3.126,46.9H43.77A3.126,3.126,0,0,0,46.9,43.77V3.126A3.126,3.126,0,0,0,43.77,0m-.981,18.816a9.379,9.379,0,0,0-4.109-.839,9.357,9.357,0,0,0-4.107.84,7.928,7.928,0,0,1-3.517.723,7.929,7.929,0,0,1-3.517-.723,9.379,9.379,0,0,0-4.1-.84,9.359,9.359,0,0,0-4.107.84,7.925,7.925,0,0,1-3.517.723,7.922,7.922,0,0,1-3.512-.723,9.366,9.366,0,0,0-4.1-.84,9.364,9.364,0,0,0-4.106.84,7.908,7.908,0,0,1-2.532.677V13.866A4.3,4.3,0,0,0,8.6,10.552v-.391a2.345,2.345,0,0,1,2.579-2.334,2.437,2.437,0,0,1,2.11,2.468v.647a3.908,3.908,0,0,0,3.907,3.909q.191,0,.381-.019A4.012,4.012,0,0,0,21.1,10.808v-.647a2.345,2.345,0,0,1,2.579-2.334,2.437,2.437,0,0,1,2.11,2.468v.647A3.908,3.908,0,0,0,29.7,14.851q.191,0,.381-.019a4.012,4.012,0,0,0,3.527-4.024v-.647a2.345,2.345,0,0,1,2.579-2.334A2.437,2.437,0,0,1,38.3,10.3v.256a4.3,4.3,0,0,0,7.034,3.313v5.628a7.947,7.947,0,0,1-2.544-.676M42.6,13.287a2.736,2.736,0,0,1-2.736-2.736V10.3a4.012,4.012,0,0,0-3.527-4.024,3.908,3.908,0,0,0-4.27,3.509q-.019.19-.019.381v.647a2.437,2.437,0,0,1-2.11,2.468,2.345,2.345,0,0,1-2.568-2.1q-.012-.117-.012-.235V10.3a4.012,4.012,0,0,0-3.527-4.024,3.908,3.908,0,0,0-4.27,3.509q-.019.19-.019.381v.647a2.437,2.437,0,0,1-2.11,2.468,2.345,2.345,0,0,1-2.568-2.1,2.321,2.321,0,0,1-.012-.235V10.3a4.012,4.012,0,0,0-3.527-4.024A3.908,3.908,0,0,0,7.053,9.78q-.019.19-.019.381v.391a2.736,2.736,0,1,1-5.471,0V3.126A1.563,1.563,0,0,1,3.126,1.563H43.77a1.563,1.563,0,0,1,1.563,1.563v7.425A2.736,2.736,0,0,1,42.6,13.287" transform="translate(-0.095)" fill="#0d1e31"/>
        <path id="Trazado_1000150" data-name="Trazado 1000150" d="M71.393,273.067a3.126,3.126,0,1,0,3.126,3.126,3.126,3.126,0,0,0-3.126-3.126m0,4.69a1.563,1.563,0,1,1,1.563-1.563,1.563,1.563,0,0,1-1.563,1.563" transform="translate(-62.109 -248.056)" fill="#0d1e31"/>
        <path id="Trazado_1000151" data-name="Trazado 1000151" d="M216.46,247.467a3.126,3.126,0,1,0,3.126,3.126,3.126,3.126,0,0,0-3.126-3.126m0,4.69a1.563,1.563,0,1,1,1.563-1.563,1.563,1.563,0,0,1-1.563,1.563" transform="translate(-193.889 -224.801)" fill="#0d1e31"/>
        <path id="Trazado_1000152" data-name="Trazado 1000152" d="M132.3,358.4a4.3,4.3,0,1,0,4.3,4.3,4.3,4.3,0,0,0-4.3-4.3m0,7.034a2.736,2.736,0,1,1,2.736-2.736,2.736,2.736,0,0,1-2.736,2.736" transform="translate(-116.371 -325.573)" fill="#0d1e31"/>
        <path id="Trazado_1000153" data-name="Trazado 1000153" d="M277.366,375.467a4.3,4.3,0,1,0,4.3,4.3,4.3,4.3,0,0,0-4.3-4.3m0,7.034a2.736,2.736,0,1,1,2.736-2.736,2.736,2.736,0,0,1-2.736,2.736" transform="translate(-248.151 -341.077)" fill="#0d1e31"/>
        <path id="Trazado_1000154" data-name="Trazado 1000154" d="M362.7,281.664a4.3,4.3,0,1,0-4.3-4.3,4.3,4.3,0,0,0,4.3,4.3m0-7.034a2.736,2.736,0,1,1-2.736,2.736,2.736,2.736,0,0,1,2.736-2.736" transform="translate(-325.668 -248.055)" fill="#0d1e31"/>
      </g>
    </g>
  </g>
</svg>
