<svg xmlns="http://www.w3.org/2000/svg" xmlns:xlink="http://www.w3.org/1999/xlink" width="1228.652" height="496.568" viewBox="0 0 1228.652 496.568">
  <defs>
    <clipPath id="clip-path">
      <path id="Rectángulo_454540" data-name="Rectángulo 454540" d="M18,0H409.974a0,0,0,0,1,0,0V496.568a0,0,0,0,1,0,0H18a18,18,0,0,1-18-18V18A18,18,0,0,1,18,0Z" transform="translate(186 7726)" fill="#5f4205"/>
    </clipPath>
    <clipPath id="clip-path-2">
      <rect id="Rectángulo_454538" data-name="Rectángulo 454538" width="165.523" height="71.339" fill="#cec6b3"/>
    </clipPath>
    <clipPath id="clip-path-3">
      <rect id="Rectángulo_454935" data-name="Rectángulo 454935" width="101.046" height="78.346" fill="none"/>
    </clipPath>
    <clipPath id="clip-path-4">
      <rect id="Rectángulo_454541" data-name="Rectángulo 454541" width="409.974" height="496.568" transform="translate(595.043 7726)" fill="#9d5a5c"/>
    </clipPath>
    <clipPath id="clip-path-6">
      <rect id="Rectángulo_454937" data-name="Rectángulo 454937" width="71.332" height="84.714" fill="none"/>
    </clipPath>
    <clipPath id="clip-path-7">
      <path id="Rectángulo_454542" data-name="Rectángulo 454542" d="M0,0H391.974a18,18,0,0,1,18,18V478.568a18,18,0,0,1-18,18H0a0,0,0,0,1,0,0V0A0,0,0,0,1,0,0Z" transform="translate(1004.025 7726)" fill="#e5d5ba" opacity="0.76"/>
    </clipPath>
    <clipPath id="clip-path-8">
      <rect id="Rectángulo_454538-3" data-name="Rectángulo 454538" width="165.523" height="71.339" fill="#9d5a5c"/>
    </clipPath>
    <clipPath id="clip-path-9">
      <rect id="Rectángulo_454940" data-name="Rectángulo 454940" width="69.836" height="80.539" fill="none"/>
    </clipPath>
  </defs>
  <g id="Grupo_1178345" data-name="Grupo 1178345" transform="translate(-186 -12344.785)">
    <g id="Enmascarar_grupo_1119132" data-name="Enmascarar grupo 1119132" transform="translate(0 4618.785)" clip-path="url(#clip-path)">
      <path id="Rectángulo_347472" data-name="Rectángulo 347472" d="M18,0H409.974a0,0,0,0,1,0,0V496.568a0,0,0,0,1,0,0H18a18,18,0,0,1-18-18V18A18,18,0,0,1,18,0Z" transform="translate(186 7726)" fill="#5f4205"/>
      <path id="Trazado_991609" data-name="Trazado 991609" d="M201.4,365.741c-20.769,16.325-40.12,35.835-51.433,60.489s-13.5,55.206-.759,79.065c14.816,27.75,47.294,41.219,77.258,38.58s57.5-18.936,80.927-38.926c14.336-12.234,27.668-26.069,43.761-35.53s36.028-14.077,52.952-6.42" transform="translate(-326.141 7799.359) rotate(-69)" fill="none" stroke="#fff" stroke-linecap="round" stroke-miterlimit="10" stroke-width="10"/>
      <g id="Grupo_1176877" data-name="Grupo 1176877" transform="translate(278.106 8137.959)">
        <rect id="Rectángulo_454537" data-name="Rectángulo 454537" width="29.275" height="29.275" rx="14.637" transform="translate(169.966 31.611)" fill="#cec6b3"/>
        <g id="Grupo_1176871" data-name="Grupo 1176871" transform="translate(21.377 46.251)">
          <g id="Grupo_1176870" data-name="Grupo 1176870" clip-path="url(#clip-path-2)">
            <line id="Línea_3253" data-name="Línea 3253" x1="106.499" y1="106.499" transform="translate(6.766 -11.208)" fill="none" stroke="#000" stroke-miterlimit="10" stroke-width="0.25"/>
            <line id="Línea_3254" data-name="Línea 3254" x1="106.499" y1="106.499" transform="translate(2.664 -7.106)" fill="none" stroke="#000" stroke-miterlimit="10" stroke-width="0.25"/>
            <line id="Línea_3255" data-name="Línea 3255" x1="106.499" y1="106.499" transform="translate(-1.437 -3.004)" fill="none" stroke="#000" stroke-miterlimit="10" stroke-width="0.25"/>
            <line id="Línea_3256" data-name="Línea 3256" x1="106.499" y1="106.499" transform="translate(-5.539 1.097)" fill="none" stroke="#000" stroke-miterlimit="10" stroke-width="0.25"/>
            <line id="Línea_3257" data-name="Línea 3257" x1="106.499" y1="106.499" transform="translate(-9.641 5.199)" fill="none" stroke="#000" stroke-miterlimit="10" stroke-width="0.25"/>
            <line id="Línea_3258" data-name="Línea 3258" x1="106.499" y1="106.499" transform="translate(-13.743 9.301)" fill="none" stroke="#000" stroke-miterlimit="10" stroke-width="0.25"/>
            <line id="Línea_3259" data-name="Línea 3259" x1="106.499" y1="106.499" transform="translate(-17.845 13.403)" fill="none" stroke="#000" stroke-miterlimit="10" stroke-width="0.25"/>
            <line id="Línea_3260" data-name="Línea 3260" x1="106.499" y1="106.499" transform="translate(-21.947 17.505)" fill="none" stroke="#000" stroke-miterlimit="10" stroke-width="0.25"/>
            <line id="Línea_3261" data-name="Línea 3261" x1="106.499" y1="106.499" transform="translate(-26.049 21.607)" fill="none" stroke="#000" stroke-miterlimit="10" stroke-width="0.25"/>
            <line id="Línea_3262" data-name="Línea 3262" x1="106.499" y1="106.499" transform="translate(-30.15 25.709)" fill="none" stroke="#000" stroke-miterlimit="10" stroke-width="0.25"/>
            <line id="Línea_3263" data-name="Línea 3263" x1="106.499" y1="106.499" transform="translate(-34.252 29.81)" fill="none" stroke="#000" stroke-miterlimit="10" stroke-width="0.25"/>
            <line id="Línea_3264" data-name="Línea 3264" x1="106.499" y1="106.499" transform="translate(-38.354 33.912)" fill="none" stroke="#000" stroke-miterlimit="10" stroke-width="0.25"/>
            <line id="Línea_3265" data-name="Línea 3265" x1="106.499" y1="106.499" transform="translate(-42.456 38.014)" fill="none" stroke="#000" stroke-miterlimit="10" stroke-width="0.25"/>
            <line id="Línea_3266" data-name="Línea 3266" x1="106.499" y1="106.499" transform="translate(-46.558 42.116)" fill="none" stroke="#000" stroke-miterlimit="10" stroke-width="0.25"/>
            <line id="Línea_3267" data-name="Línea 3267" x1="106.499" y1="106.499" transform="translate(11.289 -15.731)" fill="none" stroke="#000" stroke-miterlimit="10" stroke-width="0.25"/>
            <line id="Línea_3268" data-name="Línea 3268" x1="106.499" y1="106.499" transform="translate(15.812 -20.254)" fill="none" stroke="#000" stroke-miterlimit="10" stroke-width="0.25"/>
            <line id="Línea_3269" data-name="Línea 3269" x1="106.499" y1="106.499" transform="translate(20.336 -24.777)" fill="none" stroke="#000" stroke-miterlimit="10" stroke-width="0.25"/>
            <line id="Línea_3270" data-name="Línea 3270" x1="106.499" y1="106.499" transform="translate(24.859 -29.3)" fill="none" stroke="#000" stroke-miterlimit="10" stroke-width="0.25"/>
            <line id="Línea_3271" data-name="Línea 3271" x1="106.499" y1="106.499" transform="translate(29.382 -33.823)" fill="none" stroke="#000" stroke-miterlimit="10" stroke-width="0.25"/>
            <line id="Línea_3272" data-name="Línea 3272" x1="106.499" y1="106.499" transform="translate(33.905 -38.347)" fill="none" stroke="#000" stroke-miterlimit="10" stroke-width="0.25"/>
            <line id="Línea_3273" data-name="Línea 3273" x1="106.499" y1="106.499" transform="translate(38.428 -42.87)" fill="none" stroke="#000" stroke-miterlimit="10" stroke-width="0.25"/>
            <line id="Línea_3274" data-name="Línea 3274" x1="106.499" y1="106.499" transform="translate(42.951 -47.393)" fill="none" stroke="#000" stroke-miterlimit="10" stroke-width="0.25"/>
            <line id="Línea_3275" data-name="Línea 3275" x1="106.499" y1="106.499" transform="translate(47.474 -51.916)" fill="none" stroke="#000" stroke-miterlimit="10" stroke-width="0.25"/>
            <line id="Línea_3276" data-name="Línea 3276" x1="106.499" y1="106.499" transform="translate(51.997 -56.439)" fill="none" stroke="#000" stroke-miterlimit="10" stroke-width="0.25"/>
            <line id="Línea_3277" data-name="Línea 3277" x1="106.499" y1="106.499" transform="translate(56.52 -60.962)" fill="none" stroke="#000" stroke-miterlimit="10" stroke-width="0.25"/>
            <line id="Línea_3278" data-name="Línea 3278" x1="106.499" y1="106.499" transform="translate(61.044 -65.485)" fill="none" stroke="#000" stroke-miterlimit="10" stroke-width="0.25"/>
            <line id="Línea_3279" data-name="Línea 3279" x1="106.499" y1="106.499" transform="translate(65.567 -70.008)" fill="none" stroke="#000" stroke-miterlimit="10" stroke-width="0.25"/>
            <line id="Línea_3280" data-name="Línea 3280" x1="106.499" y1="106.499" transform="translate(70.09 -74.532)" fill="none" stroke="#000" stroke-miterlimit="10" stroke-width="0.25"/>
            <line id="Línea_3281" data-name="Línea 3281" x1="106.499" y1="106.499" transform="translate(74.613 -79.055)" fill="none" stroke="#000" stroke-miterlimit="10" stroke-width="0.25"/>
            <line id="Línea_3282" data-name="Línea 3282" x1="106.499" y1="106.499" transform="translate(79.136 -83.578)" fill="none" stroke="#000" stroke-miterlimit="10" stroke-width="0.25"/>
          </g>
        </g>
      </g>
      <path id="Trazado_991786" data-name="Trazado 991786" d="M577.323,648.527c-23.128,15.722-53.925,4.428-81.307-1.258-112.864-23.436-228.878,60.043-340.777,32.365-31.605-7.817-63.779-28.221-70.315-60.116-4.127-20.141,2.738-40.73,9.508-60.143l23.895-68.509c7.248-20.783,15.341-42.768,32.8-56.175,26.282-20.185,63.413-13.982,95.976-20.133,30.344-5.732,57.4-22.681,81.659-41.795s46.565-40.743,72.079-58.14,55.205-30.611,86.08-29.985,62.684,17.617,74.2,46.271c9.8,24.392,3.878,51.95,6.065,78.146,2.44,29.224,14.988,56.486,26.4,83.5s22.034,55.5,20.292,84.776-19.054,59.558-47.262,67.577S577.323,648.527,577.323,648.527Z" transform="matrix(-0.966, 0.259, -0.259, -0.966, 580.223, 8600.721)" fill="#cec6b3" opacity="0.07"/>
      <text id="Far_far_away_behind" data-name="Far far away, behind" transform="translate(229.295 7984.03)" fill="#fff" font-size="16" font-family="Roboto-Regular, Roboto" letter-spacing="0.003em"><tspan x="0" y="17">- Habitaciones con humedad relativa alta y </tspan><tspan x="0" y="41">temperatura constante.</tspan><tspan x="0" y="65">- Minima circulación de aire que pueda </tspan><tspan x="0" y="89">afectar el proceso.</tspan><tspan x="0" y="113">- Iluminación e insonorización adecuada </tspan><tspan x="0" y="137">para evitar la distracción del catador.</tspan></text>
      <text id="Feature_One" data-name="Feature One" transform="translate(229.572 7944.418)" fill="#fff" font-size="20" font-family="Roboto-Black, Roboto" font-weight="800"><tspan x="107.893" y="21">AMBIENTE</tspan></text>
      <g id="Elipse_13710" data-name="Elipse 13710" transform="translate(321.711 7776.215)" fill="#e5d5ba" stroke="#707070" stroke-width="1">
        <circle cx="65.5" cy="65.5" r="65.5" stroke="none"/>
        <circle cx="65.5" cy="65.5" r="65" fill="none"/>
      </g>
      <g id="Grupo_1178252" data-name="Grupo 1178252" transform="translate(336.503 7795.567)">
        <g id="Grupo_1178253" data-name="Grupo 1178253" transform="translate(0 0)" clip-path="url(#clip-path-3)">
          <path id="Trazado_1000276" data-name="Trazado 1000276" d="M23.818,70.079A10.854,10.854,0,1,1,12.963,59.225,10.854,10.854,0,0,1,23.818,70.079" transform="translate(-0.63 -17.684)" fill="#301d13"/>
          <path id="Trazado_1000277" data-name="Trazado 1000277" d="M16.324,59.225a10.882,10.882,0,0,0-2.96.408,10.858,10.858,0,0,1,0,20.891,10.855,10.855,0,1,0,2.96-21.3" transform="translate(-3.99 -17.684)" fill="#404040"/>
          <rect id="Rectángulo_454930" data-name="Rectángulo 454930" width="5.921" height="10.656" transform="translate(85.747 59.894)" fill="#4f2d0c"/>
          <path id="Trazado_1000278" data-name="Trazado 1000278" d="M132.7,70.079a10.854,10.854,0,1,1-10.854-10.854A10.854,10.854,0,0,1,132.7,70.079" transform="translate(-33.142 -17.684)" fill="#301d13"/>
          <path id="Trazado_1000279" data-name="Trazado 1000279" d="M125.211,59.225a10.882,10.882,0,0,0-2.96.408,10.858,10.858,0,0,1,0,20.891,10.855,10.855,0,1,0,2.96-21.3" transform="translate(-36.503 -17.684)" fill="#404040"/>
          <path id="Trazado_1000280" data-name="Trazado 1000280" d="M89.028,72.527h-59.2V29.336l29.6-22.719,29.6,22.718Z" transform="translate(-8.905 -1.976)" fill="#e7c79b"/>
          <path id="Trazado_1000281" data-name="Trazado 1000281" d="M92.071,28.77,58.129,2.721a2.96,2.96,0,0,0-3.6,0L20.58,28.77a2.96,2.96,0,0,0,3.6,4.7L56.325,8.8,88.466,33.467a2.96,2.96,0,0,0,3.64-4.669l-.036-.028" transform="translate(-5.805 -0.63)" fill="#5f301e"/>
          <path id="Trazado_1000282" data-name="Trazado 1000282" d="M97.035,106.9H5.268a3.158,3.158,0,1,1,0-6.315H97.035a3.158,3.158,0,1,1,0,6.315" transform="translate(-0.63 -30.034)" fill="#4f2d0c"/>
          <path id="Trazado_1000283" data-name="Trazado 1000283" d="M134.923,100.584H129a3.158,3.158,0,1,1,0,6.315h5.921a3.158,3.158,0,1,0,0-6.315" transform="translate(-38.519 -30.034)" fill="#43260e"/>
          <rect id="Rectángulo_454931" data-name="Rectángulo 454931" width="17.761" height="28.418" transform="translate(29.404 42.133)" fill="#ecb880"/>
          <rect id="Rectángulo_454932" data-name="Rectángulo 454932" width="5.921" height="28.418" transform="translate(41.245 42.133)" fill="#4f2d0c"/>
          <path id="Trazado_1000284" data-name="Trazado 1000284" d="M95.084,82.871H75.349a.79.79,0,0,1-.79-.789V77.74a.79.79,0,0,1,.79-.79H95.084a.789.789,0,0,1,.789.79v4.342a.789.789,0,0,1-.789.789" transform="translate(-22.263 -22.977)" fill="#5f301e"/>
          <path id="Trazado_1000285" data-name="Trazado 1000285" d="M101.3,76.95H95.38a.79.79,0,0,1,.79.789v4.342a.79.79,0,0,1-.79.79H101.3a.789.789,0,0,0,.789-.79V77.739A.789.789,0,0,0,101.3,76.95Z" transform="translate(-28.48 -22.977)" fill="#4f2514"/>
          <rect id="Rectángulo_454933" data-name="Rectángulo 454933" width="17.366" height="11.841" transform="translate(54.271 42.133)" fill="#fff"/>
          <rect id="Rectángulo_454934" data-name="Rectángulo 454934" width="5.921" height="11.841" transform="translate(65.716 42.133)" fill="#545454"/>
          <path id="Trazado_1000286" data-name="Trazado 1000286" d="M75.994,33.926a6.907,6.907,0,1,1-6.907-6.907,6.907,6.907,0,0,1,6.907,6.907" transform="translate(-18.567 -8.068)" fill="#fff"/>
          <path id="Trazado_1000287" data-name="Trazado 1000287" d="M18.655,98.136H12.734a1.481,1.481,0,0,1-1.481-1.481V88.945a1.481,1.481,0,0,1,2.961-.072c0,.024,0,.048,0,.072v6.23h2.959v-6.23a1.481,1.481,0,0,1,2.961-.072v7.783a1.481,1.481,0,0,1-1.481,1.481" transform="translate(-3.36 -26.106)" fill="#301d13"/>
          <path id="Trazado_1000288" data-name="Trazado 1000288" d="M12.334,81.782A12.334,12.334,0,1,1,22.088,61.9a1.48,1.48,0,0,1-2.339,1.813,9.374,9.374,0,1,0,0,11.472,1.481,1.481,0,1,1,2.392,1.746q-.025.035-.053.067a12.261,12.261,0,0,1-9.754,4.785" transform="translate(0 -17.054)" fill="#301d13"/>
          <path id="Trazado_1000289" data-name="Trazado 1000289" d="M127.54,98.136h-5.921a1.481,1.481,0,0,1-1.481-1.481V88.945a1.481,1.481,0,0,1,2.961-.074q0,.037,0,.074v6.23h2.96v-6.23a1.48,1.48,0,0,1,2.96-.074q0,.037,0,.074v7.711a1.481,1.481,0,0,1-1.479,1.481" transform="translate(-35.873 -26.106)" fill="#301d13"/>
          <path id="Trazado_1000290" data-name="Trazado 1000290" d="M122.186,81.781A12.261,12.261,0,0,1,112.432,77a1.48,1.48,0,1,1,2.339-1.813,9.372,9.372,0,1,0,0-11.473,1.48,1.48,0,1,1-2.339-1.813,12.334,12.334,0,1,1,9.754,19.884" transform="translate(-33.479 -17.054)" fill="#301d13"/>
          <path id="Trazado_1000291" data-name="Trazado 1000291" d="M88.4,84.635h-59.2a1.481,1.481,0,0,1-1.481-1.481V43.733a1.481,1.481,0,1,1,2.961-.072c0,.024,0,.048,0,.072V81.676H86.917V43.732a1.481,1.481,0,0,1,2.961-.073V83.154A1.481,1.481,0,0,1,88.4,84.635" transform="translate(-8.275 -12.605)" fill="#301d13"/>
          <path id="Trazado_1000292" data-name="Trazado 1000292" d="M96.405,107.75H88.467a1.48,1.48,0,0,1,0-2.96h7.938a1.678,1.678,0,0,0,.006-3.356H4.639a1.678,1.678,0,0,0,0,3.356H82.073a1.48,1.48,0,0,1,0,2.96H4.639a4.638,4.638,0,0,1,0-9.275H96.405a4.638,4.638,0,1,1,.01,9.275Z" transform="translate(-0.002 -29.404)" fill="#301d13"/>
          <path id="Trazado_1000293" data-name="Trazado 1000293" d="M89.635,34.93a4.4,4.4,0,0,1-2.7-.917L55.7,10.037,24.456,34.013a4.441,4.441,0,0,1-5.406-7.046L52.993.917a4.447,4.447,0,0,1,5.406,0L75.389,13.956a1.48,1.48,0,1,1-1.8,2.348L56.6,3.265a1.482,1.482,0,0,0-1.8,0L20.852,29.316a1.481,1.481,0,0,0,1.716,2.414c.029-.021.058-.043.086-.066L54.8,7a1.48,1.48,0,0,1,1.8,0L88.743,31.663a1.479,1.479,0,0,0,2.075-.272h0a1.482,1.482,0,0,0-.273-2.075L78.6,20.148A1.48,1.48,0,1,1,80.4,17.8l11.946,9.167a4.441,4.441,0,0,1-2.705,7.963" transform="translate(-5.176 0)" fill="#301d13"/>
          <path id="Trazado_1000294" data-name="Trazado 1000294" d="M59.054,89.337H41.293a1.48,1.48,0,0,1-1.481-1.481V83.312a1.48,1.48,0,1,1,2.96-.072c0,.024,0,.048,0,.072v3.064H57.578V60.919H42.773V76.956a1.48,1.48,0,0,1-2.96.073c0-.025,0-.048,0-.073V59.439a1.48,1.48,0,0,1,1.481-1.481h17.76a1.481,1.481,0,0,1,1.48,1.481V87.857a1.48,1.48,0,0,1-1.48,1.481" transform="translate(-11.888 -17.306)" fill="#301d13"/>
          <path id="Trazado_1000295" data-name="Trazado 1000295" d="M94.449,83.719H74.719a2.271,2.271,0,0,1-2.27-2.27V77.109a2.272,2.272,0,0,1,2.27-2.27H94.449a2.272,2.272,0,0,1,2.27,2.27v4.342a2.271,2.271,0,0,1-2.27,2.268M75.405,80.76H93.763V77.8H75.409Z" transform="translate(-21.633 -22.347)" fill="#301d13"/>
          <path id="Trazado_1000296" data-name="Trazado 1000296" d="M94.111,72.759H76.744a1.481,1.481,0,0,1-1.481-1.479V59.439a1.481,1.481,0,0,1,1.481-1.481H94.111a1.48,1.48,0,0,1,1.481,1.479h0V71.28a1.48,1.48,0,0,1-1.481,1.479M78.225,69.8H92.631v-8.88H78.223Z" transform="translate(-22.473 -17.306)" fill="#301d13"/>
          <path id="Trazado_1000297" data-name="Trazado 1000297" d="M89.123,72.885a1.481,1.481,0,0,1-1.48-1.481V60.138a1.481,1.481,0,0,1,2.961-.073c0,.024,0,.048,0,.073V71.4a1.481,1.481,0,0,1-1.481,1.481" transform="translate(-26.17 -17.504)" fill="#301d13"/>
          <path id="Trazado_1000298" data-name="Trazado 1000298" d="M68.459,41.688A8.384,8.384,0,1,1,76.843,33.3a8.384,8.384,0,0,1-8.384,8.384m0-13.815A5.427,5.427,0,1,0,73.886,33.3a5.428,5.428,0,0,0-5.427-5.427" transform="translate(-17.938 -7.441)" fill="#301d13"/>
          <path id="Trazado_1000299" data-name="Trazado 1000299" d="M75.236,37.847H61.816a1.48,1.48,0,1,1-.073-2.96H75.236a1.48,1.48,0,1,1,.073,2.96h-.073" transform="translate(-18.005 -10.417)" fill="#301d13"/>
          <path id="Trazado_1000300" data-name="Trazado 1000300" d="M71.4,41.716a1.481,1.481,0,0,1-1.481-1.481V26.816a1.481,1.481,0,0,1,2.961,0V40.236A1.481,1.481,0,0,1,71.4,41.716" transform="translate(-20.877 -7.576)" fill="#301d13"/>
        </g>
      </g>
    </g>
    <g id="Enmascarar_grupo_1119133" data-name="Enmascarar grupo 1119133" transform="translate(0.652 4618.785)" clip-path="url(#clip-path-4)">
      <rect id="Rectángulo_347470" data-name="Rectángulo 347470" width="409.974" height="496.568" transform="translate(595.043 7726)" fill="#9d5a5c"/>
      <text id="Far_far_away_behind-2" data-name="Far far away, behind" transform="translate(623.615 7984.03)" fill="#fff" font-size="16" font-family="Roboto-Regular, Roboto" letter-spacing="0.003em"><tspan x="0" y="17">- Es la persona encargada de evaluar los olores.</tspan><tspan x="0" y="41">- Cualquiera podría hacerlo, sin embargo, </tspan><tspan x="0" y="65">requiere de la sensibilidad hacia estos estímulos.</tspan><tspan x="0" y="89">- En las escuelas se mejora la planificación de la </tspan><tspan x="0" y="113">memoria olfativa y se amplía el espectro de </tspan><tspan x="0" y="137">posibilidades.</tspan><tspan x="0" y="161">- La capacidad de memorizar la experiencia en el </tspan></text>
      <text id="Feature_One-2" data-name="Feature One" transform="translate(642.576 7944.418)" fill="#fff" font-size="20" font-family="Roboto-Black, Roboto" font-weight="800"><tspan x="112.244" y="21">CATADOR</tspan></text>
      <path id="Trazado_991788" data-name="Trazado 991788" d="M183.736,365.741c-14.74,12.838-28.474,28.182-36.5,47.57s-9.58,43.416-.539,62.179c10.516,21.824,33.566,32.416,54.832,30.341s40.81-14.892,57.436-30.613c10.175-9.621,19.637-20.5,31.058-27.941s25.57-11.07,37.581-5.049" transform="translate(309.156 7712.838) rotate(-69)" fill="none" stroke="#fff" stroke-linecap="round" stroke-miterlimit="10" stroke-width="10"/>
      <g id="Grupo_1176878" data-name="Grupo 1176878" transform="translate(732.641 8127.959)">
        <rect id="Rectángulo_454537-2" data-name="Rectángulo 454537" width="29.275" height="29.275" rx="14.637" transform="translate(126.364 51.611)" fill="#cec6b3"/>
        <g id="Grupo_1176871-2" data-name="Grupo 1176871" transform="translate(-22.225 66.251)">
          <g id="Grupo_1176870-2" data-name="Grupo 1176870" clip-path="url(#clip-path-2)">
            <line id="Línea_3253-2" data-name="Línea 3253" x1="106.499" y1="106.499" transform="translate(6.766 -11.208)" fill="none" stroke="#000" stroke-miterlimit="10" stroke-width="0.25"/>
            <line id="Línea_3254-2" data-name="Línea 3254" x1="106.499" y1="106.499" transform="translate(2.664 -7.106)" fill="none" stroke="#000" stroke-miterlimit="10" stroke-width="0.25"/>
            <line id="Línea_3255-2" data-name="Línea 3255" x1="106.499" y1="106.499" transform="translate(-1.437 -3.004)" fill="none" stroke="#000" stroke-miterlimit="10" stroke-width="0.25"/>
            <line id="Línea_3256-2" data-name="Línea 3256" x1="106.499" y1="106.499" transform="translate(-5.539 1.097)" fill="none" stroke="#000" stroke-miterlimit="10" stroke-width="0.25"/>
            <line id="Línea_3257-2" data-name="Línea 3257" x1="106.499" y1="106.499" transform="translate(-9.641 5.199)" fill="none" stroke="#000" stroke-miterlimit="10" stroke-width="0.25"/>
            <line id="Línea_3258-2" data-name="Línea 3258" x1="106.499" y1="106.499" transform="translate(-13.743 9.301)" fill="none" stroke="#000" stroke-miterlimit="10" stroke-width="0.25"/>
            <line id="Línea_3259-2" data-name="Línea 3259" x1="106.499" y1="106.499" transform="translate(-17.845 13.403)" fill="none" stroke="#000" stroke-miterlimit="10" stroke-width="0.25"/>
            <line id="Línea_3260-2" data-name="Línea 3260" x1="106.499" y1="106.499" transform="translate(-21.947 17.505)" fill="none" stroke="#000" stroke-miterlimit="10" stroke-width="0.25"/>
            <line id="Línea_3261-2" data-name="Línea 3261" x1="106.499" y1="106.499" transform="translate(-26.049 21.607)" fill="none" stroke="#000" stroke-miterlimit="10" stroke-width="0.25"/>
            <line id="Línea_3262-2" data-name="Línea 3262" x1="106.499" y1="106.499" transform="translate(-30.15 25.709)" fill="none" stroke="#000" stroke-miterlimit="10" stroke-width="0.25"/>
            <line id="Línea_3263-2" data-name="Línea 3263" x1="106.499" y1="106.499" transform="translate(-34.252 29.81)" fill="none" stroke="#000" stroke-miterlimit="10" stroke-width="0.25"/>
            <line id="Línea_3264-2" data-name="Línea 3264" x1="106.499" y1="106.499" transform="translate(-38.354 33.912)" fill="none" stroke="#000" stroke-miterlimit="10" stroke-width="0.25"/>
            <line id="Línea_3265-2" data-name="Línea 3265" x1="106.499" y1="106.499" transform="translate(-42.456 38.014)" fill="none" stroke="#000" stroke-miterlimit="10" stroke-width="0.25"/>
            <line id="Línea_3266-2" data-name="Línea 3266" x1="106.499" y1="106.499" transform="translate(-46.558 42.116)" fill="none" stroke="#000" stroke-miterlimit="10" stroke-width="0.25"/>
            <line id="Línea_3267-2" data-name="Línea 3267" x1="106.499" y1="106.499" transform="translate(11.289 -15.731)" fill="none" stroke="#000" stroke-miterlimit="10" stroke-width="0.25"/>
            <line id="Línea_3268-2" data-name="Línea 3268" x1="106.499" y1="106.499" transform="translate(15.812 -20.254)" fill="none" stroke="#000" stroke-miterlimit="10" stroke-width="0.25"/>
            <line id="Línea_3269-2" data-name="Línea 3269" x1="106.499" y1="106.499" transform="translate(20.336 -24.777)" fill="none" stroke="#000" stroke-miterlimit="10" stroke-width="0.25"/>
            <line id="Línea_3270-2" data-name="Línea 3270" x1="106.499" y1="106.499" transform="translate(24.859 -29.3)" fill="none" stroke="#000" stroke-miterlimit="10" stroke-width="0.25"/>
            <line id="Línea_3271-2" data-name="Línea 3271" x1="106.499" y1="106.499" transform="translate(29.382 -33.823)" fill="none" stroke="#000" stroke-miterlimit="10" stroke-width="0.25"/>
            <line id="Línea_3272-2" data-name="Línea 3272" x1="106.499" y1="106.499" transform="translate(33.905 -38.347)" fill="none" stroke="#000" stroke-miterlimit="10" stroke-width="0.25"/>
            <line id="Línea_3273-2" data-name="Línea 3273" x1="106.499" y1="106.499" transform="translate(38.428 -42.87)" fill="none" stroke="#000" stroke-miterlimit="10" stroke-width="0.25"/>
            <line id="Línea_3274-2" data-name="Línea 3274" x1="106.499" y1="106.499" transform="translate(42.951 -47.393)" fill="none" stroke="#000" stroke-miterlimit="10" stroke-width="0.25"/>
            <line id="Línea_3275-2" data-name="Línea 3275" x1="106.499" y1="106.499" transform="translate(47.474 -51.916)" fill="none" stroke="#000" stroke-miterlimit="10" stroke-width="0.25"/>
            <line id="Línea_3276-2" data-name="Línea 3276" x1="106.499" y1="106.499" transform="translate(51.997 -56.439)" fill="none" stroke="#000" stroke-miterlimit="10" stroke-width="0.25"/>
            <line id="Línea_3277-2" data-name="Línea 3277" x1="106.499" y1="106.499" transform="translate(56.52 -60.962)" fill="none" stroke="#000" stroke-miterlimit="10" stroke-width="0.25"/>
            <line id="Línea_3278-2" data-name="Línea 3278" x1="106.499" y1="106.499" transform="translate(61.044 -65.485)" fill="none" stroke="#000" stroke-miterlimit="10" stroke-width="0.25"/>
            <line id="Línea_3279-2" data-name="Línea 3279" x1="106.499" y1="106.499" transform="translate(65.567 -70.008)" fill="none" stroke="#000" stroke-miterlimit="10" stroke-width="0.25"/>
            <line id="Línea_3280-2" data-name="Línea 3280" x1="106.499" y1="106.499" transform="translate(70.09 -74.532)" fill="none" stroke="#000" stroke-miterlimit="10" stroke-width="0.25"/>
            <line id="Línea_3281-2" data-name="Línea 3281" x1="106.499" y1="106.499" transform="translate(74.613 -79.055)" fill="none" stroke="#000" stroke-miterlimit="10" stroke-width="0.25"/>
            <line id="Línea_3282-2" data-name="Línea 3282" x1="106.499" y1="106.499" transform="translate(79.136 -83.578)" fill="none" stroke="#000" stroke-miterlimit="10" stroke-width="0.25"/>
          </g>
        </g>
      </g>
      <path id="Trazado_991789" data-name="Trazado 991789" d="M577.323,648.527c-23.128,15.722-53.925,4.428-81.307-1.258-112.864-23.436-228.878,60.043-340.777,32.365-31.605-7.817-63.779-28.221-70.315-60.116-4.127-20.141,2.738-40.73,9.508-60.143l23.895-68.509c7.248-20.783,15.341-42.768,32.8-56.175,26.282-20.185,63.413-13.982,95.976-20.133,30.344-5.732,57.4-22.681,81.659-41.795s46.565-40.743,72.079-58.14,55.205-30.611,86.08-29.985,62.684,17.617,74.2,46.271c9.8,24.392,3.878,51.95,6.065,78.146,2.44,29.224,14.988,56.486,26.4,83.5s22.034,55.5,20.292,84.776-19.054,59.558-47.262,67.577S577.323,648.527,577.323,648.527Z" transform="matrix(-0.966, 0.259, -0.259, -0.966, 956.512, 8600.721)" fill="#cec6b3" opacity="0.07"/>
      <g id="Elipse_13713" data-name="Elipse 13713" transform="translate(734.059 7776.215)" fill="#e5d5ba" stroke="#707070" stroke-width="1">
        <circle cx="65.5" cy="65.5" r="65.5" stroke="none"/>
        <circle cx="65.5" cy="65.5" r="65" fill="none"/>
      </g>
      <g id="Grupo_1178258" data-name="Grupo 1178258" transform="translate(768.059 7799.358)">
        <g id="Grupo_1178255" data-name="Grupo 1178255" clip-path="url(#clip-path-6)">
          <path id="Trazado_1000313" data-name="Trazado 1000313" d="M297.285,116.792a11.092,11.092,0,1,1-11.091,11.091,11.092,11.092,0,0,1,11.091-11.091" transform="translate(-238.053 -97.146)" fill="#5f9b1e"/>
          <path id="Trazado_1000314" data-name="Trazado 1000314" d="M344.653,116.792a11.188,11.188,0,0,0-1.513.115,11.078,11.078,0,0,1,0,21.953,11.087,11.087,0,1,0,1.513-22.068" transform="translate(-285.42 -97.146)" fill="#518422"/>
          <line id="Línea_3533" data-name="Línea 3533" x1="0.748" y2="2.598" transform="translate(11.238 39.717)" fill="#dbb78a"/>
          <line id="Línea_3534" data-name="Línea 3534" x1="0.748" y1="2.598" transform="translate(50.219 39.717)" fill="#dbb78a"/>
          <path id="Trazado_1000315" data-name="Trazado 1000315" d="M68.058,59.229A12.707,12.707,0,0,1,51.384,71.3a19.717,19.717,0,0,1-25.95,0,12.707,12.707,0,1,1-6.142-24.595l8.7-30.44a10.835,10.835,0,0,1,20.839,0l8.7,30.44A12.707,12.707,0,0,1,68.058,59.229Z" transform="translate(-7.306 -6.988)" fill="#ffd7a1"/>
          <path id="Trazado_1000316" data-name="Trazado 1000316" d="M193.547,46.707l-8.7-30.44A10.826,10.826,0,0,0,174.431,8.4a10.682,10.682,0,0,0-2.118.231,10.81,10.81,0,0,1,8.3,7.633l8.7,30.44a12.707,12.707,0,0,1-.082,25.044,12.707,12.707,0,0,0,4.317-25.044" transform="translate(-143.328 -6.99)" fill="#dbb78a"/>
          <path id="Trazado_1000317" data-name="Trazado 1000317" d="M47.99,308.427a3.493,3.493,0,0,1-2.245.8,3.53,3.53,0,0,1,0-7.059,3.313,3.313,0,0,1,.762.085Z" transform="translate(-35.114 -251.344)" fill="#804420"/>
          <path id="Trazado_1000318" data-name="Trazado 1000318" d="M294.744,302.258a3.334,3.334,0,0,1,.762-.085,3.53,3.53,0,0,1,0,7.06,3.493,3.493,0,0,1-2.245-.8Z" transform="translate(-243.932 -251.344)" fill="#804420"/>
          <path id="Trazado_1000319" data-name="Trazado 1000319" d="M292.3,110.8a12.1,12.1,0,1,0,12.1,12.1,12.1,12.1,0,0,0-12.1-12.1m0,22.183A10.083,10.083,0,1,1,302.382,122.9,10.083,10.083,0,0,1,292.3,132.981" transform="translate(-233.066 -92.161)" fill="#301d13"/>
          <path id="Trazado_1000320" data-name="Trazado 1000320" d="M330.49,153.161l-5.352,7.137-1.195-1.195a1.008,1.008,0,0,0-1.426,1.426c2.2,2.2,2.186,2.312,2.73,2.312a1.008,1.008,0,0,0,.807-.4l6.05-8.067a1.008,1.008,0,1,0-1.613-1.21" transform="translate(-268.031 -127.063)" fill="#301d13"/>
          <path id="Trazado_1000321" data-name="Trazado 1000321" d="M51.353,38.522,42.882,8.889a12.257,12.257,0,0,0-23.57,0L10.841,38.522a14.11,14.11,0,1,0,6.945,27.349,21.093,21.093,0,0,0,26.611,0,14.11,14.11,0,1,0,6.945-27.349ZM46.924,63.447a21.219,21.219,0,0,0,3.028-4.429,4.932,4.932,0,1,0,2.328-9.53,1.412,1.412,0,0,0-2.824-.071,18.354,18.354,0,1,1-36.709,0,1.412,1.412,0,0,0-2.824.071,4.932,4.932,0,1,0,2.328,9.53,21.228,21.228,0,0,0,3.028,4.423A11.275,11.275,0,0,1,9.925,41.772,1.415,1.415,0,1,0,12.6,42.7c20.19-70.663.256-.9,9.437-33.031a9.431,9.431,0,0,1,18.137,0c9.243,32.351-10.79-37.76,9.437,33.038a1.413,1.413,0,1,0,2.716-.777l-.045-.155a11.275,11.275,0,0,1-5.358,21.675ZM52.061,52.3a2.118,2.118,0,0,1,1.632,2.056,2.085,2.085,0,0,1-2.616,2.033A20.955,20.955,0,0,0,52.061,52.3ZM11.129,56.392a2.087,2.087,0,0,1-2.616-2.033A2.118,2.118,0,0,1,10.145,52.3,20.955,20.955,0,0,0,11.129,56.392Z" transform="translate(0)" fill="#301d13"/>
          <path id="Trazado_1000322" data-name="Trazado 1000322" d="M16.776,411.709a1.412,1.412,0,0,0-1.539-.306c-.378.157-.106-.048-4.694,4.541a1.412,1.412,0,0,0,2,2l1.827-1.825v2.239A5.647,5.647,0,0,1,8.718,424H1.659a1.412,1.412,0,0,0,0,2.824H8.718a8.48,8.48,0,0,0,8.471-8.471v-2.239l1.826,1.825a1.412,1.412,0,0,0,2-2Z" transform="translate(-0.205 -342.111)" fill="#301d13"/>
          <path id="Trazado_1000323" data-name="Trazado 1000323" d="M263.5,423.994h-7.059a5.647,5.647,0,0,1-5.648-5.647v-2.239l1.826,1.826a1.412,1.412,0,0,0,2-2l-4.236-4.236a1.412,1.412,0,0,0-1.539-.306c-.378.157-.106-.048-4.694,4.541a1.412,1.412,0,0,0,2,2l1.827-1.824v2.239a8.48,8.48,0,0,0,8.471,8.471H263.5a1.412,1.412,0,0,0,0-2.824Z" transform="translate(-202.75 -342.104)" fill="#301d13"/>
          <path id="Trazado_1000324" data-name="Trazado 1000324" d="M158.054,436.889a1.412,1.412,0,0,0-1.539-.306c-.378.157-.106-.048-4.694,4.541a1.412,1.412,0,0,0,2,2l1.827-1.825v5.063a1.412,1.412,0,1,0,2.824,0v-5.063l1.826,1.825a1.412,1.412,0,1,0,2-2Z" transform="translate(-125.953 -363.056)" fill="#301d13"/>
        </g>
      </g>
    </g>
    <g id="Enmascarar_grupo_1119134" data-name="Enmascarar grupo 1119134" transform="translate(0.652 4618.785)" clip-path="url(#clip-path-7)">
      <path id="Trazado_999240" data-name="Trazado 999240" d="M0,0H391.974a18,18,0,0,1,18,18V478.568a18,18,0,0,1-18,18H0Z" transform="translate(1004.025 7726)" fill="#b0c0d2" opacity="0.76"/>
      <text id="Far_far_away_behind-3" data-name="Far far away, behind" transform="translate(1047.598 7984.03)" fill="#12263f" font-size="16" font-family="Roboto-Regular, Roboto" letter-spacing="0.003em"><tspan x="0" y="17">- Para la toma de muestras se emplean </tspan><tspan x="0" y="41">tirillas de un papel especial que es </tspan><tspan x="0" y="65">absorbente y sin ningún aditivo que permite </tspan><tspan x="0" y="89">la rápida penetración del líquido.</tspan><tspan x="0" y="113">- El tamaño de estas tirillas es de 12 a 15 cm </tspan><tspan x="0" y="137">por 0.5 a 1 cm.</tspan></text>
      <text id="Feature_One-3" data-name="Feature One" transform="translate(1051.559 7944.418)" fill="#12263f" font-size="20" font-family="Roboto-Black, Roboto" font-weight="800"><tspan x="115.579" y="21">TÉCNICA</tspan></text>
      <g id="Grupo_1176879" data-name="Grupo 1176879" transform="translate(1110.106 8147.968)">
        <rect id="Rectángulo_454537-3" data-name="Rectángulo 454537" width="29.275" height="29.275" rx="14.637" transform="translate(169.966 31.611)" fill="#9d5a5c"/>
        <g id="Grupo_1176871-3" data-name="Grupo 1176871" transform="translate(21.377 46.251)">
          <g id="Grupo_1176870-3" data-name="Grupo 1176870" clip-path="url(#clip-path-8)">
            <line id="Línea_3253-3" data-name="Línea 3253" x1="106.499" y1="106.499" transform="translate(6.766 -11.208)" fill="none" stroke="#000" stroke-miterlimit="10" stroke-width="0.25"/>
            <line id="Línea_3254-3" data-name="Línea 3254" x1="106.499" y1="106.499" transform="translate(2.664 -7.106)" fill="none" stroke="#000" stroke-miterlimit="10" stroke-width="0.25"/>
            <line id="Línea_3255-3" data-name="Línea 3255" x1="106.499" y1="106.499" transform="translate(-1.437 -3.004)" fill="none" stroke="#000" stroke-miterlimit="10" stroke-width="0.25"/>
            <line id="Línea_3256-3" data-name="Línea 3256" x1="106.499" y1="106.499" transform="translate(-5.539 1.097)" fill="none" stroke="#000" stroke-miterlimit="10" stroke-width="0.25"/>
            <line id="Línea_3257-3" data-name="Línea 3257" x1="106.499" y1="106.499" transform="translate(-9.641 5.199)" fill="none" stroke="#000" stroke-miterlimit="10" stroke-width="0.25"/>
            <line id="Línea_3258-3" data-name="Línea 3258" x1="106.499" y1="106.499" transform="translate(-13.743 9.301)" fill="none" stroke="#000" stroke-miterlimit="10" stroke-width="0.25"/>
            <line id="Línea_3259-3" data-name="Línea 3259" x1="106.499" y1="106.499" transform="translate(-17.845 13.403)" fill="none" stroke="#000" stroke-miterlimit="10" stroke-width="0.25"/>
            <line id="Línea_3260-3" data-name="Línea 3260" x1="106.499" y1="106.499" transform="translate(-21.947 17.505)" fill="none" stroke="#000" stroke-miterlimit="10" stroke-width="0.25"/>
            <line id="Línea_3261-3" data-name="Línea 3261" x1="106.499" y1="106.499" transform="translate(-26.049 21.607)" fill="none" stroke="#000" stroke-miterlimit="10" stroke-width="0.25"/>
            <line id="Línea_3262-3" data-name="Línea 3262" x1="106.499" y1="106.499" transform="translate(-30.15 25.709)" fill="none" stroke="#000" stroke-miterlimit="10" stroke-width="0.25"/>
            <line id="Línea_3263-3" data-name="Línea 3263" x1="106.499" y1="106.499" transform="translate(-34.252 29.81)" fill="none" stroke="#000" stroke-miterlimit="10" stroke-width="0.25"/>
            <line id="Línea_3264-3" data-name="Línea 3264" x1="106.499" y1="106.499" transform="translate(-38.354 33.912)" fill="none" stroke="#000" stroke-miterlimit="10" stroke-width="0.25"/>
            <line id="Línea_3265-3" data-name="Línea 3265" x1="106.499" y1="106.499" transform="translate(-42.456 38.014)" fill="none" stroke="#000" stroke-miterlimit="10" stroke-width="0.25"/>
            <line id="Línea_3266-3" data-name="Línea 3266" x1="106.499" y1="106.499" transform="translate(-46.558 42.116)" fill="none" stroke="#000" stroke-miterlimit="10" stroke-width="0.25"/>
            <line id="Línea_3267-3" data-name="Línea 3267" x1="106.499" y1="106.499" transform="translate(11.289 -15.731)" fill="none" stroke="#000" stroke-miterlimit="10" stroke-width="0.25"/>
            <line id="Línea_3268-3" data-name="Línea 3268" x1="106.499" y1="106.499" transform="translate(15.812 -20.254)" fill="none" stroke="#000" stroke-miterlimit="10" stroke-width="0.25"/>
            <line id="Línea_3269-3" data-name="Línea 3269" x1="106.499" y1="106.499" transform="translate(20.336 -24.777)" fill="none" stroke="#000" stroke-miterlimit="10" stroke-width="0.25"/>
            <line id="Línea_3270-3" data-name="Línea 3270" x1="106.499" y1="106.499" transform="translate(24.859 -29.3)" fill="none" stroke="#000" stroke-miterlimit="10" stroke-width="0.25"/>
            <line id="Línea_3271-3" data-name="Línea 3271" x1="106.499" y1="106.499" transform="translate(29.382 -33.823)" fill="none" stroke="#000" stroke-miterlimit="10" stroke-width="0.25"/>
            <line id="Línea_3272-3" data-name="Línea 3272" x1="106.499" y1="106.499" transform="translate(33.905 -38.347)" fill="none" stroke="#000" stroke-miterlimit="10" stroke-width="0.25"/>
            <line id="Línea_3273-3" data-name="Línea 3273" x1="106.499" y1="106.499" transform="translate(38.428 -42.87)" fill="none" stroke="#000" stroke-miterlimit="10" stroke-width="0.25"/>
            <line id="Línea_3274-3" data-name="Línea 3274" x1="106.499" y1="106.499" transform="translate(42.951 -47.393)" fill="none" stroke="#000" stroke-miterlimit="10" stroke-width="0.25"/>
            <line id="Línea_3275-3" data-name="Línea 3275" x1="106.499" y1="106.499" transform="translate(47.474 -51.916)" fill="none" stroke="#000" stroke-miterlimit="10" stroke-width="0.25"/>
            <line id="Línea_3276-3" data-name="Línea 3276" x1="106.499" y1="106.499" transform="translate(51.997 -56.439)" fill="none" stroke="#000" stroke-miterlimit="10" stroke-width="0.25"/>
            <line id="Línea_3277-3" data-name="Línea 3277" x1="106.499" y1="106.499" transform="translate(56.52 -60.962)" fill="none" stroke="#000" stroke-miterlimit="10" stroke-width="0.25"/>
            <line id="Línea_3278-3" data-name="Línea 3278" x1="106.499" y1="106.499" transform="translate(61.044 -65.485)" fill="none" stroke="#000" stroke-miterlimit="10" stroke-width="0.25"/>
            <line id="Línea_3279-3" data-name="Línea 3279" x1="106.499" y1="106.499" transform="translate(65.567 -70.008)" fill="none" stroke="#000" stroke-miterlimit="10" stroke-width="0.25"/>
            <line id="Línea_3280-3" data-name="Línea 3280" x1="106.499" y1="106.499" transform="translate(70.09 -74.532)" fill="none" stroke="#000" stroke-miterlimit="10" stroke-width="0.25"/>
            <line id="Línea_3281-3" data-name="Línea 3281" x1="106.499" y1="106.499" transform="translate(74.613 -79.055)" fill="none" stroke="#000" stroke-miterlimit="10" stroke-width="0.25"/>
            <line id="Línea_3282-3" data-name="Línea 3282" x1="106.499" y1="106.499" transform="translate(79.136 -83.578)" fill="none" stroke="#000" stroke-miterlimit="10" stroke-width="0.25"/>
          </g>
        </g>
      </g>
      <path id="Trazado_991790" data-name="Trazado 991790" d="M577.323,648.527c-23.128,15.722-53.925,4.428-81.307-1.258-112.864-23.436-228.878,60.043-340.777,32.365-31.605-7.817-63.779-28.221-70.315-60.116-4.127-20.141,2.738-40.73,9.508-60.143l23.895-68.509c7.248-20.783,15.341-42.768,32.8-56.175,26.282-20.185,63.413-13.982,95.976-20.133,30.344-5.732,57.4-22.681,81.659-41.795s46.565-40.743,72.079-58.14,55.205-30.611,86.08-29.985,62.684,17.617,74.2,46.271c9.8,24.392,3.878,51.95,6.065,78.146,2.44,29.224,14.988,56.486,26.4,83.5s22.034,55.5,20.292,84.776-19.054,59.558-47.262,67.577S577.323,648.527,577.323,648.527Z" transform="matrix(-0.966, 0.259, -0.259, -0.966, 2036.86, 8180.437)" fill="#5e3637" opacity="0.07"/>
      <path id="Trazado_991791" data-name="Trazado 991791" d="M201.4,365.741c-20.769,16.325-40.12,35.835-51.433,60.489s-13.5,55.206-.759,79.065c14.816,27.75,47.294,41.219,77.258,38.58s57.5-18.936,80.927-38.926c14.336-12.234,27.668-26.069,43.761-35.53s36.028-14.077,52.952-6.42" transform="translate(521.534 7799.359) rotate(-69)" fill="none" stroke="#9d5a5c" stroke-linecap="round" stroke-miterlimit="10" stroke-width="10"/>
      <g id="Elipse_13712" data-name="Elipse 13712" transform="translate(1143.059 7776.215)" fill="#e5d5ba" stroke="#707070" stroke-width="1">
        <circle cx="65.5" cy="65.5" r="65.5" stroke="none"/>
        <circle cx="65.5" cy="65.5" r="65" fill="none"/>
      </g>
      <g id="Grupo_1178257" data-name="Grupo 1178257" transform="translate(1178.679 7803.533)">
        <g id="Grupo_1178257-2" data-name="Grupo 1178257" clip-path="url(#clip-path-9)">
          <path id="Trazado_1000325" data-name="Trazado 1000325" d="M54.361,82.54H4.559a2.888,2.888,0,0,1-2.887-2.888V13.681a2.888,2.888,0,0,1,2.887-2.888h49.8a2.888,2.888,0,0,1,2.888,2.888v65.97a2.888,2.888,0,0,1-2.888,2.888" transform="translate(-0.493 -3.181)" fill="#51330b"/>
          <path id="Trazado_1000326" data-name="Trazado 1000326" d="M72.338,10.793H62.673a2.888,2.888,0,0,1,2.888,2.888v65.97a2.888,2.888,0,0,1-2.888,2.888h9.665a2.888,2.888,0,0,0,2.888-2.888V13.681A2.888,2.888,0,0,0,72.338,10.793Z" transform="translate(-18.47 -3.181)" fill="#5c3520"/>
          <rect id="Rectángulo_454938" data-name="Rectángulo 454938" width="46.137" height="62.306" rx="1.464" transform="translate(5.899 12.333)" fill="#fff"/>
          <path id="Trazado_1000327" data-name="Trazado 1000327" d="M68.276,17.486H58.611a1.032,1.032,0,0,1,1.032,1.033V78.76a1.032,1.032,0,0,1-1.032,1.033h9.665a1.033,1.033,0,0,0,1.033-1.033V18.519a1.033,1.033,0,0,0-1.033-1.033" transform="translate(-17.273 -5.153)" fill="#fff"/>
          <path id="Trazado_1000328" data-name="Trazado 1000328" d="M42.025,5.267V3.747a2.074,2.074,0,0,0-2.074-2.074H31.829a2.074,2.074,0,0,0-2.074,2.074V5.267a.848.848,0,0,1-.848.848h-3.38A2.037,2.037,0,0,0,23.49,8.151v4.674h24.8V8.152a2.036,2.036,0,0,0-2.036-2.036h-3.38a.848.848,0,0,1-.848-.848" transform="translate(-6.923 -0.493)" fill="#964248"/>
          <path id="Trazado_1000329" data-name="Trazado 1000329" d="M16.878,36.686V27.595A1.824,1.824,0,0,1,18.7,25.771h9.091a1.823,1.823,0,0,1,1.823,1.824v9.091a1.823,1.823,0,0,1-1.823,1.824H18.7a1.824,1.824,0,0,1-1.824-1.824" transform="translate(-4.974 -7.595)" fill="#e7c79b"/>
          <path id="Trazado_1000330" data-name="Trazado 1000330" d="M16.878,63.54V54.449A1.824,1.824,0,0,1,18.7,52.625h9.091a1.823,1.823,0,0,1,1.823,1.824V63.54a1.823,1.823,0,0,1-1.823,1.824H18.7a1.824,1.824,0,0,1-1.824-1.824" transform="translate(-4.974 -15.509)" fill="#e7c79b"/>
          <path id="Trazado_1000331" data-name="Trazado 1000331" d="M16.878,90.394V81.3A1.824,1.824,0,0,1,18.7,79.479h9.091A1.823,1.823,0,0,1,29.616,81.3v9.091a1.823,1.823,0,0,1-1.823,1.824H18.7a1.824,1.824,0,0,1-1.824-1.824" transform="translate(-4.974 -23.423)" fill="#e7c79b"/>
          <path id="Trazado_1000332" data-name="Trazado 1000332" d="M78.09,43.45l-1.158-1.526L72.6,39.179l-1.666-.262L48.737,73.986a9.149,9.149,0,0,0-1.162,2.746,7.149,7.149,0,0,1,6.335,4.012A9.128,9.128,0,0,0,55.9,78.519Z" transform="translate(-14.021 -11.469)" fill="#666"/>
          <path id="Trazado_1000333" data-name="Trazado 1000333" d="M91.978,29.334l-1.873-1.186a3.128,3.128,0,0,0-4.317.97l-1.717,2.714.548,1.1,5.211,3.3,1.4.128,1.718-2.715a3.128,3.128,0,0,0-.97-4.316" transform="translate(-24.776 -8.152)" fill="#515151"/>
          <rect id="Rectángulo_454939" data-name="Rectángulo 454939" width="4.46" height="8.474" transform="translate(56.913 27.437) rotate(-57.659)" fill="#0d1e31"/>
          <path id="Trazado_1000334" data-name="Trazado 1000334" d="M53.1,96.546l-6.319,5.092a1.2,1.2,0,0,1-1.918-1.215l1.9-7.89A7.15,7.15,0,0,1,53.1,96.546" transform="translate(-13.211 -27.27)" fill="#040405"/>
          <path id="Trazado_1000335" data-name="Trazado 1000335" d="M27.583,30.415a1.18,1.18,0,0,0-1.65.25L23.6,33.838l-.8-1.1a1.18,1.18,0,1,0-1.908,1.389l1.377,1.892a1.646,1.646,0,0,0,1.322.674h0a1.644,1.644,0,0,0,1.32-.667l2.919-3.965A1.18,1.18,0,0,0,27.583,30.415Z" transform="translate(-6.09 -8.896)" fill="#040506"/>
          <path id="Trazado_1000336" data-name="Trazado 1000336" d="M27.583,57.854a1.18,1.18,0,0,0-1.65.25L23.6,61.277l-.8-1.1a1.18,1.18,0,1,0-1.908,1.389l1.377,1.892a1.644,1.644,0,0,0,1.321.674h0a1.644,1.644,0,0,0,1.321-.668L27.834,59.5A1.18,1.18,0,0,0,27.583,57.854Z" transform="translate(-6.09 -16.982)" fill="#040506"/>
          <path id="Trazado_1000337" data-name="Trazado 1000337" d="M27.583,84.123a1.179,1.179,0,0,0-1.65.251L23.6,87.546l-.8-1.1a1.18,1.18,0,1,0-1.908,1.389l1.377,1.892a1.644,1.644,0,0,0,1.321.674h0a1.644,1.644,0,0,0,1.321-.668l2.919-3.964A1.18,1.18,0,0,0,27.583,84.123Z" transform="translate(-6.09 -24.724)" fill="#040506"/>
          <path id="Trazado_1000338" data-name="Trazado 1000338" d="M42.776,31.994H57.36a1.18,1.18,0,1,0,0-2.36H42.776a1.18,1.18,0,0,0,0,2.36Z" transform="translate(-12.259 -8.733)" fill="#040506"/>
          <path id="Trazado_1000339" data-name="Trazado 1000339" d="M42.776,38.984h7.292a1.18,1.18,0,1,0,0-2.36H42.776a1.18,1.18,0,1,0,0,2.36Z" transform="translate(-12.259 -10.793)" fill="#040506"/>
          <path id="Trazado_1000340" data-name="Trazado 1000340" d="M42.776,58.848h9.785a1.18,1.18,0,0,0,0-2.36H42.776a1.18,1.18,0,0,0,0,2.36Z" transform="translate(-12.259 -16.647)" fill="#040506"/>
          <path id="Trazado_1000341" data-name="Trazado 1000341" d="M50.069,65.838a1.18,1.18,0,1,0,0-2.36H42.777a1.18,1.18,0,1,0,0,2.36Z" transform="translate(-12.259 -18.707)" fill="#040506"/>
          <path id="Trazado_1000342" data-name="Trazado 1000342" d="M27.3,24.1H18.209a3.008,3.008,0,0,0-3,3v9.091a3.008,3.008,0,0,0,3,3H27.3a3.008,3.008,0,0,0,3-3V27.1a3.007,3.007,0,0,0-3-3m.644,12.1a.645.645,0,0,1-.644.644H18.21a.645.645,0,0,1-.644-.644V27.1a.644.644,0,0,1,.644-.643H27.3a.644.644,0,0,1,.644.643Z" transform="translate(-4.481 -7.102)" fill="#040506"/>
          <path id="Trazado_1000343" data-name="Trazado 1000343" d="M27.3,50.952H18.209a3.008,3.008,0,0,0-3,3v9.091a3.008,3.008,0,0,0,3,3H27.3a3.008,3.008,0,0,0,3-3V53.956a3.007,3.007,0,0,0-3-3m.644,12.1a.645.645,0,0,1-.644.644H18.21a.645.645,0,0,1-.644-.644V53.956a.644.644,0,0,1,.644-.643H27.3a.644.644,0,0,1,.644.643Z" transform="translate(-4.481 -15.016)" fill="#040506"/>
          <path id="Trazado_1000344" data-name="Trazado 1000344" d="M27.3,77.806H18.209a3.008,3.008,0,0,0-3,3V89.9a3.008,3.008,0,0,0,3,3H27.3a3.008,3.008,0,0,0,3-3V80.81a3.007,3.007,0,0,0-3-3m.644,12.1a.645.645,0,0,1-.644.644H18.21a.645.645,0,0,1-.644-.644V80.81a.644.644,0,0,1,.644-.643H27.3a.644.644,0,0,1,.644.643Z" transform="translate(-4.481 -22.93)" fill="#040506"/>
          <path id="Trazado_1000345" data-name="Trazado 1000345" d="M67.834,20.185,65.961,19a4.307,4.307,0,0,0-5.946,1.336L58.3,23.048l-2.385,3.768-2.7,4.261V13.365A2.215,2.215,0,0,0,51,11.153H42.548V8.792H53.869A1.71,1.71,0,0,1,55.576,10.5V20.72a1.18,1.18,0,0,0,2.361,0V10.5a4.073,4.073,0,0,0-4.068-4.068H42.3a3.22,3.22,0,0,0-2.972-1.99H36.284V3.254A3.258,3.258,0,0,0,33.03,0H24.907a3.258,3.258,0,0,0-3.254,3.254V4.443H18.6a3.22,3.22,0,0,0-2.972,1.99H4.068A4.073,4.073,0,0,0,0,10.5v65.97a4.073,4.073,0,0,0,4.068,4.068h49.8a4.073,4.073,0,0,0,4.068-4.068V50.012a1.18,1.18,0,0,0-2.36,0V76.471a1.71,1.71,0,0,1-1.708,1.708H4.068A1.71,1.71,0,0,1,2.36,76.471V10.5A1.711,1.711,0,0,1,4.068,8.792H15.389v2.361H6.932a2.214,2.214,0,0,0-2.212,2.212V73.607a2.214,2.214,0,0,0,2.212,2.212H51a2.214,2.214,0,0,0,2.212-2.212V51.337l11.85-18.725h0l2.384-3.766,1.719-2.716A4.314,4.314,0,0,0,67.834,20.185Zm-4.6.553a1.935,1.935,0,0,1,1.47.255l1.873,1.186a1.951,1.951,0,0,1,.6,2.688l-1.087,1.718-5.165-3.27L62.01,21.6A1.933,1.933,0,0,1,63.229,20.738ZM40.88,66.419a7.968,7.968,0,0,1-.748,1,8.306,8.306,0,0,0-1.254-1.343L60.866,31.35l1.576,1Zm-8.059,7.038a.161.161,0,0,0-.022-.008h0c2.556-10.616,1.311-5.448,1.667-6.923a5.937,5.937,0,0,1,3.9,2.467C32.112,74.028,32.91,73.377,32.821,73.457ZM59.661,25.308l5.164,3.27L63.7,30.352l-5.165-3.27ZM17.749,7.685l0-.043V7.626A.857.857,0,0,1,18.6,6.8h3.38a2.031,2.031,0,0,0,2.028-2.028V3.254a.9.9,0,0,1,.894-.894H33.03a.9.9,0,0,1,.894.894v1.52A2.03,2.03,0,0,0,35.952,6.8h3.381a.856.856,0,0,1,.854.824v.016c0,.014,0,.028,0,.043v3.468H17.749ZM7.08,13.513H50.857V34.808L38.506,54.325A1.18,1.18,0,1,0,40.5,55.586l16.777-26.51,1.6,1.01L36.883,64.81a8.3,8.3,0,0,0-1.75-.56,7.939,7.939,0,0,1,.581-1.1l1.834-2.9a1.18,1.18,0,1,0-1.994-1.262l-1.834,2.9a10.279,10.279,0,0,0-1.313,3.1h0l-1.9,7.889a2.426,2.426,0,0,0-.068.581H7.08ZM50.857,73.458H36.581l4.05-3.263a10.289,10.289,0,0,0,2.242-2.514l7.983-12.615Z" transform="translate(0 0)" fill="#040506"/>
        </g>
      </g>
    </g>
  </g>
</svg>
