<svg xmlns="http://www.w3.org/2000/svg" xmlns:xlink="http://www.w3.org/1999/xlink" width="396" height="287.36" viewBox="0 0 396 287.36">
  <defs>
    <clipPath id="clip-path">
      <rect id="Rectángulo_455008" data-name="Rectángulo 455008" width="34.696" height="29.046" fill="none"/>
    </clipPath>
    <clipPath id="clip-path-2">
      <rect id="Rectángulo_455009" data-name="Rectángulo 455009" width="32.467" height="30.812" fill="none"/>
    </clipPath>
    <clipPath id="clip-path-3">
      <rect id="Rectángulo_455010" data-name="Rectángulo 455010" width="31.737" height="31.738" fill="#3b281b"/>
    </clipPath>
    <clipPath id="clip-path-4">
      <rect id="Rectángulo_455011" data-name="Rectángulo 455011" width="33.373" height="33.374" fill="#fff"/>
    </clipPath>
    <clipPath id="clip-path-5">
      <rect id="Rectángulo_455013" data-name="Rectángulo 455013" width="31.133" height="31.069" fill="none"/>
    </clipPath>
  </defs>
  <g id="Grupo_1178325" data-name="Grupo 1178325" transform="translate(-863.855 -13802.866)">
    <path id="Trazado_999184" data-name="Trazado 999184" d="M-5732.055-2982.075s118.364,109.982,0,241.391" transform="translate(6608.801 16804.643)" fill="none" stroke="#9d5a5c" stroke-width="6"/>
    <rect id="Rectángulo_454755" data-name="Rectángulo 454755" width="352.498" height="42.648" rx="21.324" transform="translate(888.651 13809.468)" fill="#5f4205"/>
    <rect id="Rectángulo_455007" data-name="Rectángulo 455007" width="352.498" height="42.648" rx="21.324" transform="translate(888.651 14040.417)" fill="#5f4205"/>
    <rect id="Rectángulo_454756" data-name="Rectángulo 454756" width="347.222" height="42.648" rx="21.324" transform="translate(900.642 13866.129)" fill="#5e3637"/>
    <rect id="Rectángulo_454757" data-name="Rectángulo 454757" width="359.213" height="42.648" rx="21.324" transform="translate(900.642 13925.836)" fill="#e5d5ba"/>
    <rect id="Rectángulo_454758" data-name="Rectángulo 454758" width="344.293" height="42.648" rx="21.324" transform="translate(903.571 13984.325)" fill="#3b281b"/>
    <g id="Elipse_13653" data-name="Elipse 13653" transform="translate(882.562 13975.397)" fill="#3b281b" stroke="#e5d5ba" stroke-width="6">
      <ellipse cx="29.217" cy="28.206" rx="29.217" ry="28.206" stroke="none"/>
      <ellipse cx="29.217" cy="28.206" rx="26.217" ry="25.206" fill="none"/>
    </g>
    <g id="Elipse_13654" data-name="Elipse 13654" transform="translate(888.469 13918.985)" fill="#e5d5ba" stroke="#3b281b" stroke-width="6">
      <ellipse cx="29.217" cy="28.206" rx="29.217" ry="28.206" stroke="none"/>
      <ellipse cx="29.217" cy="28.206" rx="26.217" ry="25.206" fill="none"/>
    </g>
    <g id="Elipse_13655" data-name="Elipse 13655" transform="translate(888.469 13859.278)" fill="#5e3637" stroke="#3b281b" stroke-width="6">
      <ellipse cx="29.217" cy="28.206" rx="29.217" ry="28.206" stroke="none"/>
      <ellipse cx="29.217" cy="28.206" rx="26.217" ry="25.206" fill="none"/>
    </g>
    <g id="Elipse_13656" data-name="Elipse 13656" transform="translate(863.855 13802.866)" fill="#5f4205" stroke="#3b281b" stroke-width="6">
      <ellipse cx="29.217" cy="28.206" rx="29.217" ry="28.206" stroke="none"/>
      <ellipse cx="29.217" cy="28.206" rx="26.217" ry="25.206" fill="none"/>
    </g>
    <g id="Elipse_13714" data-name="Elipse 13714" transform="translate(863.855 14033.814)" fill="#5f4205" stroke="#3b281b" stroke-width="6">
      <ellipse cx="29.217" cy="28.206" rx="29.217" ry="28.206" stroke="none"/>
      <ellipse cx="29.217" cy="28.206" rx="26.217" ry="25.206" fill="none"/>
    </g>
    <text id="La_especie" data-name="La especie" transform="translate(948.606 13822.21)" fill="#fff" font-size="16" font-family="Roboto-Bold, Roboto" font-weight="700"><tspan x="0" y="17">La especie</tspan></text>
    <text id="El_tamaño_del_animal" data-name="El tamaño del animal" transform="translate(948.606 14053.158)" fill="#fff" font-size="16" font-family="Roboto-Bold, Roboto" font-weight="700"><tspan x="0" y="17">El tamaño del animal</tspan></text>
    <text id="Las_condiciones_fisiológicas_del_animal" data-name="Las condiciones fisiológicas del animal" transform="translate(961.228 13877.096)" fill="#fff" font-size="16" font-family="Roboto-Bold, Roboto" font-weight="700"><tspan x="0" y="17">Las condiciones fisiológicas del </tspan></text>
    <text id="La_raza" data-name="La raza" transform="translate(961.228 13936.772)" fill="#12263f" font-size="16" font-family="Roboto-Bold, Roboto" font-weight="700"><tspan x="0" y="17">La raza</tspan></text>
    <text id="La_genetica" data-name="La genetica" transform="translate(967.312 13997.017)" fill="#fff" font-size="16" font-family="Roboto-Bold, Roboto" font-weight="700"><tspan x="0" y="17">La genetica</tspan></text>
    <g id="Grupo_1178327" data-name="Grupo 1178327" transform="translate(875.725 13816.043)">
      <g id="Grupo_1178326" data-name="Grupo 1178326" clip-path="url(#clip-path)">
        <path id="Trazado_1000580" data-name="Trazado 1000580" d="M18.284,62.049a.508.508,0,0,1-.465-.3,2.282,2.282,0,0,1,2.87-3.067l1.1.4a.508.508,0,1,1-.349.955l-1.1-.4a1.266,1.266,0,0,0-1.591,1.7.508.508,0,0,1-.259.67.5.5,0,0,1-.205.044" transform="translate(-12.038 -39.986)" fill="#fff"/>
        <path id="Trazado_1000581" data-name="Trazado 1000581" d="M3.216,13.656a.507.507,0,0,1-.359-.149L2.2,12.852A7.529,7.529,0,1,1,12.848,2.205l1.867,1.867,1.866-1.867a7.53,7.53,0,0,1,9.671-.823.508.508,0,1,1-.587.829,6.514,6.514,0,0,0-8.365.713L15.075,5.15a.509.509,0,0,1-.719,0L12.13,2.924a6.512,6.512,0,1,0-9.209,9.21l.655.655a.508.508,0,0,1-.359.868" transform="translate(0 0)" fill="#fff"/>
        <path id="Trazado_1000582" data-name="Trazado 1000582" d="M83.2,19.654a.508.508,0,0,1-.359-.868l.151-.151a6.5,6.5,0,0,0,.746-8.318.508.508,0,0,1,.835-.581,7.518,7.518,0,0,1-.862,9.618l-.151.151a.507.507,0,0,1-.359.149" transform="translate(-56.484 -6.502)" fill="#fff"/>
        <path id="Trazado_1000583" data-name="Trazado 1000583" d="M21.168,53.013a.507.507,0,0,1-.359-.149l-6.686-6.685a.508.508,0,0,1,.719-.719l6.685,6.685a.508.508,0,0,1-.359.868" transform="translate(-9.545 -30.949)" fill="#fff"/>
        <path id="Trazado_1000584" data-name="Trazado 1000584" d="M30.629,69.735H29.67a.516.516,0,0,1-.094-.009l-.891-.167a.508.508,0,1,1,.187-1l.845.158h.912a.508.508,0,1,1,0,1.016" transform="translate(-19.31 -46.824)" fill="#fff"/>
        <path id="Trazado_1000585" data-name="Trazado 1000585" d="M10.627,70.546a.507.507,0,0,1-.162-.027,2.282,2.282,0,0,1,1.15-4.406l1.654.31a.508.508,0,1,1-.187,1l-1.654-.309a1.266,1.266,0,0,0-.638,2.443.508.508,0,0,1-.162.99" transform="translate(-6.088 -45.132)" fill="#fff"/>
        <path id="Trazado_1000586" data-name="Trazado 1000586" d="M30.913,74.4H20.3a.5.5,0,0,1-.093-.009l-5.626-1.045a2.282,2.282,0,1,1,.836-4.487l4.88.913h2.325a.508.508,0,1,1,0,1.016H20.254a.513.513,0,0,1-.094-.009l-4.926-.922a1.266,1.266,0,1,0-.464,2.489l5.58,1.036H30.913A3.164,3.164,0,0,0,33,72.6l6.126-5.382a3.266,3.266,0,0,1,2.157-.813h1.59a.508.508,0,1,1,0,1.016h-1.59a2.251,2.251,0,0,0-1.486.56l-6.126,5.382A4.181,4.181,0,0,1,30.913,74.4" transform="translate(-8.688 -45.357)" fill="#fff"/>
        <path id="Trazado_1000587" data-name="Trazado 1000587" d="M42.3,53.077a2.827,2.827,0,0,1-.843-.129l-5.033-1.477a2.476,2.476,0,0,1,1.172-4.8l3.518.687c.866-1.7,4.722-8.73,9.278-8.73h7.461a.508.508,0,1,1,0,1.016H50.392c-2.271,0-4.454,2.274-5.885,4.182a28.94,28.94,0,0,0-2.651,4.324.508.508,0,0,1-.556.281l-3.9-.761a1.459,1.459,0,0,0-.69,2.832l5.037,1.479.009,0a1.794,1.794,0,0,0,1.556-.232L49.4,47.587a.508.508,0,1,1,.573.839l-6.089,4.158a2.806,2.806,0,0,1-1.586.493" transform="translate(-23.665 -26.381)" fill="#fff"/>
        <path id="Trazado_1000588" data-name="Trazado 1000588" d="M34.986,24.46a1.863,1.863,0,1,1,1.848-2.1h0a1.865,1.865,0,0,1-1.607,2.087,1.9,1.9,0,0,1-.242.016m0-2.709a.856.856,0,0,0-.11.007.847.847,0,1,0,.11-.007" transform="translate(-22.626 -14.163)" fill="#fff"/>
        <path id="Trazado_1000589" data-name="Trazado 1000589" d="M48.21,22.739a1.867,1.867,0,1,1,.244-.016,1.849,1.849,0,0,1-.244.016m0-2.709a.857.857,0,0,0-.11.007.847.847,0,1,0,.11-.007" transform="translate(-31.66 -12.987)" fill="#fff"/>
        <path id="Trazado_1000590" data-name="Trazado 1000590" d="M27.544,35.8a1.863,1.863,0,1,1,1.851-2.1h0a1.865,1.865,0,0,1-1.851,2.1m0-2.709a.857.857,0,0,0-.11.007.847.847,0,1,0,.11-.007" transform="translate(-17.544 -21.907)" fill="#fff"/>
        <path id="Trazado_1000591" data-name="Trazado 1000591" d="M58.306,31.8a1.867,1.867,0,1,1,.242-.016,1.893,1.893,0,0,1-.242.016m0-2.709a.857.857,0,0,0-.11.007.846.846,0,1,0,.948.73h0a.848.848,0,0,0-.839-.737" transform="translate(-38.554 -19.173)" fill="#fff"/>
        <path id="Trazado_1000592" data-name="Trazado 1000592" d="M38.844,40.544a2.417,2.417,0,0,1-2.351-1.9,2.391,2.391,0,0,1,.54-2.084,1.6,1.6,0,0,0,.4-1.087,2.405,2.405,0,0,1,4.71-.733,1.575,1.575,0,0,0,.758.924A2.406,2.406,0,0,1,41.158,40.1,1.606,1.606,0,0,0,40,40.249a2.394,2.394,0,0,1-1.013.29c-.048,0-.1,0-.143,0m1-6.51a1.388,1.388,0,0,0-1.391,1.415,2.617,2.617,0,0,1-.65,1.776,1.389,1.389,0,0,0,1.712,2.132,2.62,2.62,0,0,1,1.889-.246,1.389,1.389,0,0,0,1.006-2.563,2.584,2.584,0,0,1-1.238-1.523,1.387,1.387,0,0,0-1.328-.991" transform="translate(-24.89 -22.553)" fill="#fff"/>
      </g>
    </g>
    <g id="Grupo_1178329" data-name="Grupo 1178329" transform="translate(902.05 13871.154)">
      <g id="Grupo_1178328" data-name="Grupo 1178328" clip-path="url(#clip-path-2)">
        <path id="Trazado_1000593" data-name="Trazado 1000593" d="M.793,7.113H2.983v2.18a.793.793,0,0,0,.793.793H6.343a.793.793,0,0,0,.793-.793V7.113H9.327a.793.793,0,0,0,.793-.793V3.765a.793.793,0,0,0-.793-.793H7.136V.793A.794.794,0,0,0,6.343,0H3.776a.794.794,0,0,0-.793.793v2.18H.793A.793.793,0,0,0,0,3.765V6.32a.793.793,0,0,0,.793.793M.951,3.923H3.142a.794.794,0,0,0,.793-.793V.951h2.25v2.18a.793.793,0,0,0,.793.793H9.168V6.162H6.978a.794.794,0,0,0-.793.793v2.18H3.935V6.954a.794.794,0,0,0-.793-.793H.951Z" fill="#fff"/>
        <path id="Trazado_1000594" data-name="Trazado 1000594" d="M261.351,112.524a.476.476,0,0,0-.476.476v1.166a.476.476,0,1,0,.951,0V113a.476.476,0,0,0-.476-.476" transform="translate(-244.332 -105.389)" fill="#fff"/>
        <path id="Trazado_1000595" data-name="Trazado 1000595" d="M26.329,50.171A4.069,4.069,0,0,0,22.7,56.012l-.089.042H19.958V50.577a.476.476,0,1,0-.951,0v8.275H13.615a2.182,2.182,0,0,1,2.169-2.158h.888a.476.476,0,0,0,.476-.476V43.559h1.247a4.7,4.7,0,0,0,3.378-1.436l.892,3.712a.476.476,0,0,0,.462.365.464.464,0,0,0,.111-.013.475.475,0,0,0,.351-.573l-.115-.478a11.812,11.812,0,0,1,1.144.835.476.476,0,0,0,.605-.734,11.886,11.886,0,0,0-2.057-1.381l-.655-2.725a4.776,4.776,0,0,0,.246-4.155,4.023,4.023,0,0,0-.9-4.288,3.961,3.961,0,0,0-2.118-1.115.476.476,0,0,0-.436.148,4,4,0,0,0-.593.852,3.957,3.957,0,0,0-2-1,.476.476,0,0,0-.436.148,4.026,4.026,0,0,0-.975,3.487,4.78,4.78,0,0,0-1.381,2.069h-.528a3.1,3.1,0,0,0-.533.047,1.331,1.331,0,0,0-.83-.291h-.909a1.35,1.35,0,0,0-.718,2.49,3.143,3.143,0,0,0,2.99,4.037H16.2V55.743h-.412a3.134,3.134,0,0,0-3.119,3.109H12.1v0a.794.794,0,0,0-.771-.792v-2.94a.476.476,0,0,0-.951,0v3.1a.794.794,0,0,0,.771.792v.419H9.705V55.346a.476.476,0,1,0-.951,0v3.505H8.662v0a.794.794,0,0,0-.709-.788V55.346a.476.476,0,1,0-.951,0v2.867a.794.794,0,0,0,.71.788v.423H6.325V55.346a.476.476,0,1,0-.951,0v3.505H3.492a12.775,12.775,0,0,1,2.016-7c.182-.267.364-.5.541-.714a4.653,4.653,0,0,0,2.875.971,4.8,4.8,0,0,0,1.457-.225v.947a.476.476,0,0,0,.951,0V51.459A3.854,3.854,0,0,0,13.3,48.172a3.554,3.554,0,0,0-.055-.623,3.211,3.211,0,0,0,.728-3.1.675.675,0,0,0-.454-.454,3.218,3.218,0,0,0-.914-.133,3.183,3.183,0,0,0-1.98.685,4.832,4.832,0,0,0-3.408,0,3.184,3.184,0,0,0-1.98-.685,3.219,3.219,0,0,0-.913.132.674.674,0,0,0-.455.455,3.211,3.211,0,0,0,.729,3.1,3.571,3.571,0,0,0-.055.623,3.657,3.657,0,0,0,.826,2.3,9.838,9.838,0,0,0-.648.846,11.709,11.709,0,0,0-1.445,2.995,6.16,6.16,0,0,1,.968-3.5,1.1,1.1,0,1,0-1.855-1.188,8.378,8.378,0,0,0,.139,9.233H.476a.476.476,0,0,0,0,.951h4.93a.794.794,0,0,0,.761.573h1.7A.793.793,0,0,0,8.63,59.8h.156a.794.794,0,0,0,.761.573h1.764a.794.794,0,0,0,.761-.573H25.111a.476.476,0,1,0,0-.951H21.8a2.2,2.2,0,0,1,1.711-2.108.476.476,0,0,0,.291-.735,3.117,3.117,0,0,1,2.532-4.886.475.475,0,1,0,0-.951M16.8,32.568a3.017,3.017,0,0,1,1.348.789c.069.07.133.142.195.216a4.111,4.111,0,0,0-.074.468,4.666,4.666,0,0,0-2.094.556,3.074,3.074,0,0,1,.625-2.029m-5.688,6.214a.4.4,0,0,1,0-.8h.909a.4.4,0,0,1,0,.8Zm2.272,3.826a2.189,2.189,0,0,1-2.058-2.875h.7a1.348,1.348,0,0,0,1.343-1.351,1.313,1.313,0,0,0-.009-.154H13.7a4.775,4.775,0,0,0,1.86,4.381H13.389ZM14.62,38.8a3.8,3.8,0,0,1,3.673-3.806,4.017,4.017,0,0,0,.586,1.6.476.476,0,0,0,.8-.509,3.093,3.093,0,0,1,.15-3.519,3.016,3.016,0,0,1,1.348.789,3.077,3.077,0,0,1,.545,3.6.475.475,0,0,0,.2.641.5.5,0,0,0,.053.024A3.78,3.78,0,1,1,14.62,38.8m-2.011,6.012a2.262,2.262,0,0,1,.495.055,2.259,2.259,0,0,1-.234,1.6,4.077,4.077,0,0,0-1.277-1.411,2.243,2.243,0,0,1,1.017-.242m-3.684.374a3.015,3.015,0,1,1,0,5.974,3.015,3.015,0,1,1,0-5.974M4.98,46.464a2.259,2.259,0,0,1-.234-1.6,2.262,2.262,0,0,1,1.511.187A4.084,4.084,0,0,0,4.98,46.464M2.664,57.145a7.429,7.429,0,0,1,.529-7.014.15.15,0,0,1,.127-.069.145.145,0,0,1,.08.024.15.15,0,0,1,.046.208,7.129,7.129,0,0,0-.7,6.254q-.046.291-.083.6m18.181,1.706h-.886V57.005H21.47a3.147,3.147,0,0,0-.625,1.846" transform="translate(0 -29.564)" fill="#fff"/>
        <path id="Trazado_1000596" data-name="Trazado 1000596" d="M114.96,271.4a.476.476,0,0,0,.476-.476v-.541a.476.476,0,0,0-.951,0v.541a.476.476,0,0,0,.476.476" transform="translate(-107.224 -252.795)" fill="#fff"/>
        <path id="Trazado_1000597" data-name="Trazado 1000597" d="M152.464,271.4a.476.476,0,0,0,.476-.476v-.541a.476.476,0,0,0-.951,0v.541a.475.475,0,0,0,.476.476" transform="translate(-142.35 -252.795)" fill="#fff"/>
        <path id="Trazado_1000598" data-name="Trazado 1000598" d="M111.012,300.738a1.265,1.265,0,0,0,.7-.21,1.267,1.267,0,0,0,1.965-1.056.476.476,0,0,0-.951,0,.315.315,0,0,1-.594.147.475.475,0,0,0-.84,0,.315.315,0,0,1-.594-.147.476.476,0,0,0-.951,0,1.268,1.268,0,0,0,1.266,1.266" transform="translate(-102.787 -280.036)" fill="#fff"/>
        <path id="Trazado_1000599" data-name="Trazado 1000599" d="M416.847,282.587h-1.758v-2.554a5.288,5.288,0,0,0,2.171-3.863,8.925,8.925,0,0,0-.168-3.069.759.759,0,0,0-.734-.57.789.789,0,0,0-.088.005.762.762,0,0,0-.67.737,3.982,3.982,0,0,1-1.091,2.548,13.529,13.529,0,0,0-2.759-5.206.476.476,0,0,0-.724.618,13.353,13.353,0,0,1,3.105,8.556l.006.951v1.846H412.25a.476.476,0,0,0,0,.951h4.6a.476.476,0,0,0,0-.951m-2.077-5.676a5.659,5.659,0,0,0,1.579-2.389,7.782,7.782,0,0,1-.032,1.53,4.579,4.579,0,0,1-1.283,2.787,16.417,16.417,0,0,0-.264-1.929" transform="translate(-384.856 -253.299)" fill="#fff"/>
      </g>
    </g>
    <g id="Grupo_1178331" data-name="Grupo 1178331" transform="translate(902.05 13929.108)">
      <g id="Grupo_1178330" data-name="Grupo 1178330" clip-path="url(#clip-path-3)">
        <path id="Trazado_1000600" data-name="Trazado 1000600" d="M269.8,329.791a10.968,10.968,0,0,1-4.514-.972.465.465,0,0,1-.274-.424V325.7a.465.465,0,1,1,.93,0v2.386a10.044,10.044,0,0,0,7.716,0V325.7a.465.465,0,1,1,.93,0V328.4a.465.465,0,0,1-.274.424,10.969,10.969,0,0,1-4.514.972" transform="translate(-252.693 -310.118)" fill="#3b281b"/>
        <path id="Trazado_1000601" data-name="Trazado 1000601" d="M329.25,347.516a3.024,3.024,0,0,1-1.682-.508.465.465,0,0,1,.515-.774,2.109,2.109,0,0,0,2.333,0,.465.465,0,1,1,.516.774,3.021,3.021,0,0,1-1.682.508" transform="translate(-312.141 -330.063)" fill="#3b281b"/>
        <path id="Trazado_1000602" data-name="Trazado 1000602" d="M454.673,168.6a.465.465,0,0,1-.186-.891,3.8,3.8,0,0,0,2.28-3.48v-3.456a.465.465,0,1,1,.93,0v3.456a4.725,4.725,0,0,1-2.838,4.332.464.464,0,0,1-.186.039" transform="translate(-433.09 -152.851)" fill="#3b281b"/>
        <path id="Trazado_1000603" data-name="Trazado 1000603" d="M209.778,168.6a.464.464,0,0,1-.186-.039,4.725,4.725,0,0,1-2.837-4.331v-3.456a.465.465,0,1,1,.93,0v3.456a3.8,3.8,0,0,0,2.279,3.479.465.465,0,0,1-.186.891" transform="translate(-197.143 -152.851)" fill="#3b281b"/>
        <path id="Trazado_1000604" data-name="Trazado 1000604" d="M277.927,35.879a.465.465,0,0,1-.1-.918,4.756,4.756,0,0,1,1.076-.123h5.547a4.76,4.76,0,0,1,1.076.123.465.465,0,1,1-.211.906,3.826,3.826,0,0,0-.866-.1H278.9a3.828,3.828,0,0,0-.866.1.464.464,0,0,1-.106.012" transform="translate(-264.563 -33.218)" fill="#3b281b"/>
        <path id="Trazado_1000605" data-name="Trazado 1000605" d="M265.652,205.957a2.784,2.784,0,0,1-2.319-1.244,2.81,2.81,0,0,1-.352.428,2.784,2.784,0,0,1-4.753-1.969v-2.447A2.77,2.77,0,0,1,261,197.959h.055a.465.465,0,0,1,0,.93H261a1.839,1.839,0,0,0-1.837,1.837v2.447a1.854,1.854,0,1,0,3.709,0,.465.465,0,1,1,.93,0,1.854,1.854,0,1,0,3.709,0v-2.447a1.839,1.839,0,0,0-1.837-1.837h-.054a.465.465,0,1,1,0-.93h.054a2.77,2.77,0,0,1,2.767,2.767v2.447a2.784,2.784,0,0,1-2.784,2.785" transform="translate(-246.223 -188.755)" fill="#3b281b"/>
        <path id="Trazado_1000606" data-name="Trazado 1000606" d="M310.9,183.717a1.239,1.239,0,0,1-1.238-1.238v-.237a1.643,1.643,0,0,1,.1-3.283h2.283a1.643,1.643,0,0,1,.1,3.283v.237a1.239,1.239,0,0,1-1.238,1.238m-1.141-3.829a.713.713,0,1,0,0,1.426h.368a.465.465,0,0,1,.465.465v.7a.308.308,0,0,0,.616,0v-.7a.465.465,0,0,1,.465-.465h.368a.713.713,0,0,0,0-1.426Z" transform="translate(-293.791 -170.638)" fill="#3b281b"/>
        <path id="Trazado_1000607" data-name="Trazado 1000607" d="M149.005,8.413a2.127,2.127,0,0,1-1.508-.627l-1.323-1.323a2.142,2.142,0,0,1,0-3.026L148.959.651a2.14,2.14,0,0,1,3.529,2.231L151.026,6.99a2.129,2.129,0,0,1-1.545,1.37,2.161,2.161,0,0,1-.475.053M150.472.955a1.206,1.206,0,0,0-.856.354l-2.786,2.786a1.211,1.211,0,0,0,0,1.711l1.323,1.323a1.21,1.21,0,0,0,2-.45l1.463-4.109a1.209,1.209,0,0,0-1.14-1.615M149.288.98h0Z" transform="translate(-138.781 -0.024)" fill="#3b281b"/>
        <path id="Trazado_1000608" data-name="Trazado 1000608" d="M442.143,8.389a2.161,2.161,0,0,1-.475-.053,2.129,2.129,0,0,1-1.546-1.369l-1.462-4.109a2.148,2.148,0,0,1,.5-2.23,2.139,2.139,0,0,1,3.026,0l.689.689a.465.465,0,0,1-.658.657l-.689-.689a1.209,1.209,0,0,0-1.711,0,1.214,1.214,0,0,0-.284,1.261L441,6.655a1.21,1.21,0,0,0,2,.45l1.324-1.323a1.212,1.212,0,0,0,0-1.711l-.8-.8a.465.465,0,1,1,.657-.658l.8.8a2.143,2.143,0,0,1,0,3.026l-1.324,1.323a2.128,2.128,0,0,1-1.508.627" transform="translate(-418.148)" fill="#3b281b"/>
        <path id="Trazado_1000609" data-name="Trazado 1000609" d="M250.411,386.031a.465.465,0,0,1-.444-.6c.029-.094.062-.191.1-.289l.609-1.7a.465.465,0,1,1,.875.313l-.61,1.7c-.031.086-.059.17-.084.25a.465.465,0,0,1-.444.327" transform="translate(-238.325 -365.316)" fill="#3b281b"/>
        <path id="Trazado_1000610" data-name="Trazado 1000610" d="M452.54,388.968h-.022a.465.465,0,0,1-.443-.486,7.867,7.867,0,0,0-.455-3.027l-.61-1.7a.465.465,0,0,1,.875-.314l.61,1.7a8.791,8.791,0,0,1,.508,3.383.465.465,0,0,1-.464.444" transform="translate(-430.016 -365.316)" fill="#3b281b"/>
        <path id="Trazado_1000611" data-name="Trazado 1000611" d="M283.015,144.127c0,.59-.3,1.068-.663,1.068s-.663-.478-.663-1.068.3-1.068.663-1.068.663.478.663,1.068" transform="translate(-268.594 -136.408)" fill="#3b281b"/>
        <path id="Trazado_1000612" data-name="Trazado 1000612" d="M282.194,145.044c-.37,0-.67-.482-.67-1.075s.3-1.075.67-1.075.67.482.67,1.075-.3,1.075-.67,1.075m0-2.135c-.361,0-.655.475-.655,1.06s.294,1.06.655,1.06.655-.475.655-1.06-.294-1.06-.655-1.06" transform="translate(-268.435 -136.25)" fill="#3b281b"/>
        <path id="Trazado_1000613" data-name="Trazado 1000613" d="M427.132,144.127c0,.59-.3,1.068-.663,1.068s-.663-.478-.663-1.068.3-1.068.663-1.068.663.478.663,1.068" transform="translate(-406.01 -136.408)" fill="#3b281b"/>
        <path id="Trazado_1000614" data-name="Trazado 1000614" d="M426.31,145.044c-.37,0-.67-.482-.67-1.075s.3-1.075.67-1.075.67.482.67,1.075-.3,1.075-.67,1.075m0-2.135c-.361,0-.655.475-.655,1.06s.294,1.06.655,1.06.655-.475.655-1.06-.294-1.06-.655-1.06" transform="translate(-405.851 -136.25)" fill="#3b281b"/>
        <path id="Trazado_1000615" data-name="Trazado 1000615" d="M337.46,42.468h-2.154a.465.465,0,0,1-.465-.465V35.3a.465.465,0,0,1,.465-.465h2.154a.465.465,0,0,1,.465.465V42a.465.465,0,0,1-.465.465m-1.689-.93h1.224V35.768h-1.224Z" transform="translate(-319.274 -33.218)" fill="#3b281b"/>
        <path id="Trazado_1000616" data-name="Trazado 1000616" d="M109.408,445.814H97.555a.465.465,0,0,1,0-.93h11.853a9.121,9.121,0,0,0,3.993-.926l8.649-4.241a2.381,2.381,0,0,0,1.008-3.339A2.39,2.39,0,0,0,121,435.2a2.36,2.36,0,0,0-1.033.237L111,439.753a.465.465,0,0,1-.2.046h-.71a.465.465,0,1,1,0-.93h.6l8.869-4.274a3.283,3.283,0,0,1,1.436-.329,3.312,3.312,0,0,1,1.46,6.286l-8.649,4.241a10.056,10.056,0,0,1-4.4,1.021" transform="translate(-92.576 -414.076)" fill="#3b281b"/>
        <path id="Trazado_1000617" data-name="Trazado 1000617" d="M97.56,435.766a.465.465,0,0,1-.465-.465,4.229,4.229,0,0,1,.331-1.647.465.465,0,0,1,.857.36,3.3,3.3,0,0,0-.258,1.287.465.465,0,0,1-.465.465" transform="translate(-92.581 -413.22)" fill="#3b281b"/>
        <path id="Trazado_1000618" data-name="Trazado 1000618" d="M137.374,391.933h-5.939a.465.465,0,1,1,0-.93h5.939a1.782,1.782,0,0,0,1.232-.492l.025-.022a2.263,2.263,0,0,0-1.436-4.011h-3.62a.465.465,0,0,1-.418-.26,3.324,3.324,0,0,0-5.077-1.123.465.465,0,1,1-.585-.723,4.267,4.267,0,0,1,2.677-.947,4.224,4.224,0,0,1,3.682,2.124h3.341a3.193,3.193,0,0,1,2.04,5.648,2.708,2.708,0,0,1-1.86.736" transform="translate(-121.402 -365.598)" fill="#3b281b"/>
        <path id="Trazado_1000619" data-name="Trazado 1000619" d="M4.979,475.056H.465A.465.465,0,0,1,0,474.591V465.4a.465.465,0,0,1,.465-.465H4.979a.465.465,0,0,1,.465.465v9.193a.465.465,0,0,1-.465.465m-4.049-.93H4.514v-8.263H.93Z" transform="translate(0 -443.317)" fill="#3b281b"/>
      </g>
    </g>
    <g id="Grupo_1178333" data-name="Grupo 1178333" transform="translate(895.98 13986.917)">
      <g id="Grupo_1178332" data-name="Grupo 1178332" clip-path="url(#clip-path-4)">
        <path id="Trazado_1000620" data-name="Trazado 1000620" d="M223.109,16.252a.652.652,0,0,1-.639-.528A11.738,11.738,0,0,1,225.7,5.186l2.773-2.773a.65.65,0,1,0-.92-.92l-2.773,2.773a13.1,13.1,0,0,0-3.735,10.716.652.652,0,1,1-1.3.147,14.4,14.4,0,0,1,4.108-11.786L226.627.571a1.954,1.954,0,0,1,2.763,2.764l-2.773,2.773a10.436,10.436,0,0,0-2.868,9.369.653.653,0,0,1-.641.776" transform="translate(-205.337 0.001)" fill="#fff"/>
        <path id="Trazado_1000621" data-name="Trazado 1000621" d="M136.14,278.912a1.953,1.953,0,0,1-1.382-3.335l2.773-2.773a10.436,10.436,0,0,0,2.868-9.369.652.652,0,1,1,1.28-.247,11.738,11.738,0,0,1-3.226,10.538L135.68,276.5a.65.65,0,1,0,.92.92l2.773-2.773a13.1,13.1,0,0,0,3.735-10.716.652.652,0,1,1,1.3-.147,14.4,14.4,0,0,1-4.108,11.786l-2.773,2.773a1.949,1.949,0,0,1-1.382.571" transform="translate(-125.439 -245.538)" fill="#fff"/>
        <path id="Trazado_1000622" data-name="Trazado 1000622" d="M1.953,150.08a1.954,1.954,0,0,1-1.382-3.336l2.773-2.773a14.394,14.394,0,0,1,13.846-3.719,10.474,10.474,0,0,0,10.075-2.706l2.773-2.773a1.954,1.954,0,1,1,2.764,2.763l-2.773,2.773a14.379,14.379,0,0,1-13.845,3.719,10.473,10.473,0,0,0-10.075,2.706l-2.773,2.773a1.941,1.941,0,0,1-1.382.572m-.46-1.494a.65.65,0,0,0,.92,0l2.773-2.773a11.782,11.782,0,0,1,11.333-3.044,13.086,13.086,0,0,0,12.588-3.381l2.773-2.773a.65.65,0,0,0-.92-.92l-2.773,2.773a11.769,11.769,0,0,1-11.333,3.044,13.086,13.086,0,0,0-12.588,3.381l-2.773,2.773a.651.651,0,0,0,0,.92" transform="translate(0 -125.453)" fill="#fff"/>
        <path id="Trazado_1000623" data-name="Trazado 1000623" d="M345.364,56.439a.65.65,0,0,1-.461-.191L338,49.342a.652.652,0,0,1,.922-.922l6.906,6.906a.652.652,0,0,1-.461,1.113" transform="translate(-315.786 -45.085)" fill="#fff"/>
        <path id="Trazado_1000624" data-name="Trazado 1000624" d="M303.7,99.533a.65.65,0,0,1-.461-.191l-6.8-6.8a.652.652,0,1,1,.922-.922l6.8,6.8a.652.652,0,0,1-.461,1.113" transform="translate(-276.937 -85.47)" fill="#fff"/>
        <path id="Trazado_1000625" data-name="Trazado 1000625" d="M272.837,153.432a.65.65,0,0,1-.461-.191l-5.073-5.073a.652.652,0,1,1,.922-.922l5.073,5.073a.652.652,0,0,1-.461,1.113" transform="translate(-249.701 -137.47)" fill="#fff"/>
        <path id="Trazado_1000626" data-name="Trazado 1000626" d="M55.773,346.031a.65.65,0,0,1-.461-.191l-6.906-6.906a.652.652,0,0,1,.922-.922l6.906,6.906a.652.652,0,0,1-.461,1.113" transform="translate(-45.072 -315.8)" fill="#fff"/>
        <path id="Trazado_1000627" data-name="Trazado 1000627" d="M98.865,304.366a.65.65,0,0,1-.461-.191l-6.8-6.8a.652.652,0,0,1,.922-.922l6.8,6.8a.652.652,0,0,1-.461,1.113" transform="translate(-85.455 -276.951)" fill="#fff"/>
        <path id="Trazado_1000628" data-name="Trazado 1000628" d="M152.77,273.512a.65.65,0,0,1-.461-.191l-5.072-5.072a.652.652,0,1,1,.922-.922l5.072,5.072a.652.652,0,0,1-.461,1.113" transform="translate(-137.461 -249.723)" fill="#fff"/>
      </g>
    </g>
    <g id="Grupo_1178335" data-name="Grupo 1178335" transform="translate(878.681 14044.098)">
      <g id="Grupo_1178334" data-name="Grupo 1178334" clip-path="url(#clip-path-5)">
        <path id="Trazado_1000629" data-name="Trazado 1000629" d="M48.756,38.944a.5.5,0,1,1-.5.5.5.5,0,0,1,.5-.5" transform="translate(-27.144 -21.906)" fill="#fff"/>
        <path id="Trazado_1000630" data-name="Trazado 1000630" d="M35.011,22.908a.5.5,0,1,1-.5.5.5.5,0,0,1,.5-.5" transform="translate(-19.412 -12.886)" fill="#fff"/>
        <path id="Trazado_1000631" data-name="Trazado 1000631" d="M12.1,13.745a.5.5,0,1,1-.5.5.5.5,0,0,1,.5-.5" transform="translate(-6.526 -7.732)" fill="#fff"/>
        <path id="Trazado_1000632" data-name="Trazado 1000632" d="M28.139,45.816a.5.5,0,1,1-.5.5.5.5,0,0,1,.5-.5" transform="translate(-15.547 -25.772)" fill="#fff"/>
        <path id="Trazado_1000633" data-name="Trazado 1000633" d="M12.1,41.235a.5.5,0,1,1-.5.5.5.5,0,0,1,.5-.5" transform="translate(-6.526 -23.195)" fill="#fff"/>
        <rect id="Rectángulo_455012" data-name="Rectángulo 455012" width="1.002" height="2.005" transform="translate(5.076 21.046)" fill="#fff"/>
        <path id="Trazado_1000634" data-name="Trazado 1000634" d="M18.693,9.02h-.088v1h.088a2.309,2.309,0,0,0,.837-.161,4.531,4.531,0,0,0,3.85,2.166h7.752v-1H23.38a3.525,3.525,0,0,1-3.008-1.7l-.009-.015a2.3,2.3,0,0,0,.574-1.037l.314-1.254H20.109V6.468a5.3,5.3,0,0,0-.892-2.948,1.154,1.154,0,0,0-2.114.64,3.575,3.575,0,0,1-.71,2.132l-.542.722h-.043a2.99,2.99,0,0,0-.594.063L13.957,4.388A7.6,7.6,0,0,0,2.316,1.666l-.9.721L2.883,4.836a5.474,5.474,0,0,0-.836,1.283L0,10.554l1.9,3.171L6.1,11.1a.5.5,0,0,1,.266-.076h.266l.345,3.106a2.007,2.007,0,0,0-.4.174,1.982,1.982,0,0,0-1-.273,2.007,2.007,0,0,0-2,2,1.979,1.979,0,0,0,.3,1.041,3.114,3.114,0,0,0-.6.989,2.418,2.418,0,0,0-2.054,1.812L.926,21.046H3.071v3.006H.065v7.016H31.133V24.053H25.12v-.884a5.221,5.221,0,0,0-.222-1.5,3.4,3.4,0,0,0,1.224-2.628h-1a2.407,2.407,0,0,1-2.052,2.391l-3.779.581A4.6,4.6,0,0,1,18.1,18.92v-.07l1.271-.635a1.509,1.509,0,0,0,.811-1.1l.138-.829a1.5,1.5,0,0,1,1.483-1.256h.306v.7a2,2,0,0,0,.892,1.667l1.112.741L25.23,17.4a2,2,0,0,0,.892-1.667V15.4a1.584,1.584,0,0,1,.5.717l.07.21A2.5,2.5,0,0,0,29.07,18.04h2.063v-1H29.07a1.5,1.5,0,0,1-1.426-1.028l-.07-.21a2.6,2.6,0,0,0-1.661-1.64,1.989,1.989,0,0,0-3.521-.129h-.585a2.5,2.5,0,0,0-2.471,2.093l-.138.828a.5.5,0,0,1-.27.366l-.477.238a2.535,2.535,0,0,1-.346-1.278,3.484,3.484,0,0,0-.553-1.889,2.577,2.577,0,0,0,1.555-2.363h-1a1.582,1.582,0,0,1-1.084,1.5l-.987.329a2.491,2.491,0,0,0-1.211.873l-.526.7a1.512,1.512,0,0,1-1.2.6,1.482,1.482,0,0,1-.644-.151l1.5-1.5-.708-.709-1.5,1.5a1.475,1.475,0,0,1-.151-.644v-1a.5.5,0,0,1,.2-.4l.752-.564a3.023,3.023,0,0,0,1.18-2.032l.094-.759a2.007,2.007,0,0,1,1.989-1.756h.544l.843-1.123a4.546,4.546,0,0,0,.407-.655l1.506.575v.21a2.3,2.3,0,0,0-1.952,1.27l.9.449a1.305,1.305,0,0,1,1.173-.726h.743l0,.009A1.31,1.31,0,0,1,18.693,9.02Zm9.433,16.035h2v2h-2Zm0,3.006h2v2h-2Zm-2-3.006h1v5.011h-1ZM23.115,15.033a1,1,0,0,1,2,0v.7a1,1,0,0,1-.447.833l-.556.371-.556-.371a1,1,0,0,1-.447-.833ZM12.794,4.325c.091.158.177.32.255.486l.535,1.147-1.6.8-.129-.335a6.252,6.252,0,0,0-.455-.938Zm-.568-.831-1.4,1.168a6.272,6.272,0,0,0-.981-.946l.937-1.561A6.644,6.644,0,0,1,12.226,3.494ZM9.912,1.655,9.059,3.078a4.086,4.086,0,0,0-.728-1.949A6.6,6.6,0,0,1,9.912,1.655ZM6.371,1.044,5.691,3.082l-.015,0L4.83,1.4a6.608,6.608,0,0,1,1.541-.352M2.724,2.623l.218-.175a6.581,6.581,0,0,1,.973-.643l.815,1.63a5.537,5.537,0,0,0-1.107.685Zm2.853,12.41a.994.994,0,0,1,.667.261l.335.3.335-.3a.989.989,0,0,1,.667-.262A1,1,0,0,1,8.227,16.8a3.1,3.1,0,0,0-3.567-.359,1,1,0,0,1,.917-1.407m-1.5,4.124a2.119,2.119,0,0,1,4.13-.67L8.609,19.7a3.653,3.653,0,0,0,.382.8,2,2,0,0,0-.678,1.064l-.372,1.488h2.528l1,.5a1.106,1.106,0,0,1,.492.5H4.073Zm5.152,2.891.061-.243a1,1,0,0,1,.8-.744v.987Zm-7.013-2a1.419,1.419,0,0,1,.86-.909c0,.007,0,.014,0,.021v.887ZM2.069,30.066h-1V25.055h1Zm3.007,0h-2v-2h2Zm0-3.007h-2v-2h2Zm2,3.007h-1V25.055h1Zm3.007,0h-2v-2h2Zm0-3.007h-2v-2h2Zm2,3.007h-1V25.055h1Zm-.171-7.411-.831-.415V21.046a2,2,0,0,1,4.009,0v.264a4.1,4.1,0,0,0,1.049,2.742H13.03A2.109,2.109,0,0,0,11.919,22.655ZM15.1,30.066h-2v-2h2Zm0-3.007h-2v-2h2Zm2,3.007h-1V25.055h1Zm3.007,0h-2v-2h2Zm0-3.007h-2v-2h2Zm2,3.007h-1V25.055h1Zm3.007,0h-2v-2h2Zm0-3.007h-2v-2h2Zm-13.178-15.3-.753.564a1.511,1.511,0,0,0-.6,1.2v1a2.506,2.506,0,0,0,4.51,1.5l.526-.7a1.494,1.494,0,0,1,.727-.524l.209-.07a2.493,2.493,0,0,1,.542,1.553,3.523,3.523,0,0,0,.448,1.714l-.448.224v.689a5.6,5.6,0,0,0,1.65,3.984l.179.179,4.289-.66A3.441,3.441,0,0,0,24,22.2a4.212,4.212,0,0,1,.115.964v.885h-6.38A3.1,3.1,0,0,1,16.1,21.311v-.264a3,3,0,0,0-5.838-1h0a2.075,2.075,0,0,0-.336.028,2.636,2.636,0,0,1-.363-.688L9.155,18.17a3.126,3.126,0,0,0-.283-.6,2,2,0,0,0-.892-3.5l-.34-3.058a2.69,2.69,0,0,0,2.422-1.835L9.11,8.861A1.7,1.7,0,0,1,7.5,10.022H6.366a1.5,1.5,0,0,0-.8.228L2.236,12.333l-1.1-1.841L2.957,6.539A4.538,4.538,0,0,1,6.177,4l.285-.057.834-2.5a3.106,3.106,0,0,1,.786,2.069v.31l.277.138a5.269,5.269,0,0,1,2.566,2.825L12.547,11A2.011,2.011,0,0,1,11.942,11.763Zm.983-2.574L12.351,7.7l1.658-.829.266.571a3.009,3.009,0,0,0-1.351,1.75M17.956,5.3A4.558,4.558,0,0,0,18.1,4.161a.158.158,0,0,1,.278-.084,4.3,4.3,0,0,1,.65,1.636Z" transform="translate(0 0)" fill="#fff"/>
      </g>
    </g>
  </g>
</svg>
