<svg xmlns="http://www.w3.org/2000/svg" width="85" height="85" viewBox="0 0 85 85">
  <g id="Grupo_1178119" data-name="Grupo 1178119" transform="translate(-186 -1583)">
    <rect id="Rectángulo_402006" data-name="Rectángulo 402006" width="85" height="85" rx="5" transform="translate(186 1583)" fill="#9d5a5c"/>
    <g id="Grupo_1178118" data-name="Grupo 1178118">
      <path id="Trazado_991775" data-name="Trazado 991775" d="M439.542,563.625c0-1.777.043-3.65-.008-5.522a42.142,42.142,0,0,1,4.807-20.458c1.725-3.409,3.552-6.823,4.135-10.653a67.025,67.025,0,0,0,.428-7.017.763.763,0,0,0-.382-.58,1.851,1.851,0,0,1-1.049-2.173,17.14,17.14,0,0,1,.376-1.875c.338-1.553,1.008-2.746,2.912-2.535-.177-1.4-.4-2.711-.5-4.031a2.608,2.608,0,0,1,2.588-3.065,50.065,50.065,0,0,1,5.839-.1c2.034.089,2.973,1.195,2.856,3.216-.075,1.3-.307,2.582-.486,4.007,1.941-.462,2.445.9,2.8,2.283A14.508,14.508,0,0,1,464.2,518a1.339,1.339,0,0,1-.9,1.42c-.227.094-.358.627-.385.971a27.887,27.887,0,0,0,2.941,14.627c.216.444.381.913.6,1.454,1.5-7.828,7-11.738,13.7-14.559,2.931-1.234,5.779-2.668,8.664-4.011.183-.085.365-.17.552-.246,1.2-.483,1.817-.091,1.768,1.219a33.487,33.487,0,0,1-.347,4.215c-.919,5.534-3.248,10.289-7.923,13.638a15.6,15.6,0,0,1-9.626,3.329,25.482,25.482,0,0,1-3.431-.67c-.455-.078-1.093-.174-1.36.063-.227.2-.181.928-.015,1.32a40.745,40.745,0,0,1,3.5,12.858c.3,4.02.5,8.056-.5,12.027a8.346,8.346,0,0,1-8.286,6.638c-4.871.065-9.745.1-14.615-.007a8.391,8.391,0,0,1-7.73-4.766c-.232-.446-.818-.715-1.255-1.047a3.1,3.1,0,0,0-3.31-.306c-4.97,1.8-11.035-1-13.621-6.052a17.268,17.268,0,0,1-1.84-6.753c-.124-1.793.582-2.181,2.258-1.506,2.546,1.026,5.169,1.86,7.725,2.865,3.369,1.325,6.227,3.3,7.866,6.679C439,562.17,439.281,562.985,439.542,563.625Zm11.732-44.178c0,.479.018.906,0,1.332-.1,1.907-.068,3.833-.336,5.717-.56,3.934-2.278,7.486-3.943,11.043A61.522,61.522,0,0,0,443,547.513c-1.274,4.718-1.179,9.506-.979,14.306a17.81,17.81,0,0,0,.565,3.569,5.966,5.966,0,0,0,5.847,4.652c4.8.035,9.608.046,14.41-.016,3.618-.047,5.788-1.846,6.467-5.41a37.654,37.654,0,0,0-.222-14.706,55.6,55.6,0,0,0-4.8-12.886c-2.563-5.325-4.227-10.8-3.741-16.785a4.888,4.888,0,0,0-.064-.79Zm17.732,16.227c3.568-2.693,6.94-5.24,10.315-7.782.347-.261.7-.644,1.084-.69a1.6,1.6,0,0,1,1.294.382c.217.3.09.92-.028,1.362-.065.243-.409.424-.649.6q-4.348,3.265-8.7,6.522c-.5.375-.975.781-1.513,1.214,7.872,2.761,18.929-7.514,17.805-16.5-.325.123-.633.228-.931.356q-2.171.935-4.337,1.881c-3.038,1.333-6.156,2.505-8.807,4.586A14.266,14.266,0,0,0,469.006,535.674Zm-32.345,26.939a10.886,10.886,0,0,0-3.776-4.282c-2.355-1.587-5.1-2.184-7.73-3.061-.61-.2-1.22-.4-1.9-.629,1.426,6.662,6.728,11.1,11.437,9.531-1.674-.947-3.273-1.839-4.858-2.757a14.523,14.523,0,0,1-1.927-1.261c-.23-.188-.437-.74-.325-.936a1.344,1.344,0,0,1,.975-.667,5.155,5.155,0,0,1,1.876.607C432.464,560.241,434.458,561.384,436.661,562.613Zm22.079-49.827c.207-1.345.4-2.565.581-3.788.108-.744-.175-1.131-.989-1.117-1.608.028-3.217.018-4.825,0-.778-.007-1.133.34-1,1.111.183,1.089.361,2.181.618,3.253a.9.9,0,0,0,.674.515C455.4,512.808,457,512.786,458.74,512.786Zm2.753,2.343H450.336l-.459,1.9h12.05c-.055-.32-.087-.579-.147-.832C461.7,515.844,461.592,515.495,461.493,515.129Z" transform="translate(-227.449 1086.539)" fill="#fff"/>
      <path id="Trazado_991776" data-name="Trazado 991776" d="M554.414,667.125c0-2.281.052-4.564-.034-6.842a4.885,4.885,0,0,0-.721-1.844,6.2,6.2,0,0,1,.588-7.245c.625-.783,1.1-1.684,1.672-2.51a1.335,1.335,0,0,1,2.441-.04c2.663,3.7,2.466,8.619-1.191,11.463a1.511,1.511,0,0,0-.515.982c-.067,1.036-.024,2.078-.024,3.076,1.377-.446,2.708-.949,4.08-1.293a9.917,9.917,0,0,1,2.5-.194c1.342.015,1.8.576,1.615,1.939-.443,3.2-2.365,5.329-5.092,6.826a20.445,20.445,0,0,1-2.3,1.012,4.009,4.009,0,0,0-2.584,3.216,8.042,8.042,0,0,1-.276,1.173c-.187.54-.565,1.1-1.155.809a1.88,1.88,0,0,1-.962-1.288,11.3,11.3,0,0,1,.451-2.356,8.97,8.97,0,0,0,.194-1.8c-.051-1.835-.416-2.225-2.186-2.677a8.193,8.193,0,0,1-6.4-6.743c-.345-1.662.231-2.333,1.89-2.174C549.979,660.963,553.157,662.182,554.414,667.125Zm1.654,3.383c2.806-1.058,5.29-2.319,6.274-5.409C558.5,665.015,557.109,666.612,556.068,670.508Zm.008-12.6a5.183,5.183,0,0,0,1.05-6.632C554.968,653.837,554.182,654.931,556.076,657.912ZM547,663.007a5.572,5.572,0,0,0,4.865,4.256A5.076,5.076,0,0,0,547,663.007Z" transform="translate(-325.916 976.077)" fill="#fff"/>
    </g>
  </g>
</svg>
