<svg xmlns="http://www.w3.org/2000/svg" xmlns:xlink="http://www.w3.org/1999/xlink" width="84" height="84" viewBox="0 0 84 84">
  <defs>
    <clipPath id="clip-path">
      <rect id="Rect치ngulo_454870" data-name="Rect치ngulo 454870" width="56.25" height="53.049" fill="none"/>
    </clipPath>
  </defs>
  <g id="Grupo_1178341" data-name="Grupo 1178341" transform="translate(-186 -10410.013)">
    <g id="Grupo_1178190" data-name="Grupo 1178190" transform="translate(0 -425)">
      <rect id="Rect치ngulo_454681" data-name="Rect치ngulo 454681" width="84" height="84" rx="5" transform="translate(186 10835.013)" fill="#9d5a5c"/>
      <g id="Grupo_1178189" data-name="Grupo 1178189" transform="translate(199.875 10850.488)">
        <g id="Grupo_1178188" data-name="Grupo 1178188" clip-path="url(#clip-path)">
          <path id="Trazado_1000089" data-name="Trazado 1000089" d="M450.534,23.645a33.663,33.663,0,0,1-5.225-.436.859.859,0,0,1-.715-.715c-1.221-7.751.123-13.64,3.993-17.5a15.681,15.681,0,0,1,5.7-3.555,23.531,23.531,0,0,1,5.942-1.3,28.824,28.824,0,0,1,6.609.115.859.859,0,0,1,.713.713,28.826,28.826,0,0,1,.115,6.609,23.531,23.531,0,0,1-1.3,5.942,15.682,15.682,0,0,1-3.555,5.7c-2.942,2.947-7.059,4.43-12.278,4.43M446.2,21.6c6.864.967,12.039-.242,15.392-3.6a13.961,13.961,0,0,0,3.155-5.064,21.753,21.753,0,0,0,1.209-5.489,28.8,28.8,0,0,0-.018-5.587,28.81,28.81,0,0,0-5.587-.018,21.756,21.756,0,0,0-5.489,1.209A13.962,13.962,0,0,0,449.8,6.212c-3.354,3.352-4.563,8.528-3.6,15.392" transform="translate(-416.892 -0.001)" fill="#fff"/>
          <path id="Trazado_1000090" data-name="Trazado 1000090" d="M451.956,127.69a.859.859,0,0,1-.608-1.467l14.667-14.667a.859.859,0,0,1,1.215,1.215l-14.667,14.667a.857.857,0,0,1-.608.252" transform="translate(-423.406 -104.471)" fill="#fff"/>
          <path id="Trazado_1000091" data-name="Trazado 1000091" d="M104.247,23.645c-5.22,0-9.336-1.482-12.278-4.43a15.681,15.681,0,0,1-3.555-5.7,23.525,23.525,0,0,1-1.3-5.942A28.821,28.821,0,0,1,87.226.96a.859.859,0,0,1,.713-.713A28.821,28.821,0,0,1,94.548.132a23.528,23.528,0,0,1,5.942,1.3,15.681,15.681,0,0,1,5.7,3.555c3.87,3.863,5.214,9.752,3.993,17.5a.86.86,0,0,1-.715.715,33.678,33.678,0,0,1-5.225.436M88.845,1.866a28.806,28.806,0,0,0-.018,5.587,21.753,21.753,0,0,0,1.209,5.489,13.962,13.962,0,0,0,3.155,5.064c3.352,3.354,8.528,4.563,15.392,3.6.966-6.863-.242-12.039-3.6-15.392a13.961,13.961,0,0,0-5.064-3.155,21.753,21.753,0,0,0-5.489-1.209,28.8,28.8,0,0,0-5.587.018" transform="translate(-81.64 0)" fill="#fff"/>
          <path id="Trazado_1000092" data-name="Trazado 1000092" d="M226.86,140.74a.857.857,0,0,1-.608-.252l-13.813-13.813a.859.859,0,1,1,1.215-1.215l13.813,13.813a.859.859,0,0,1-.608,1.467" transform="translate(-199.162 -117.522)" fill="#fff"/>
          <path id="Trazado_1000093" data-name="Trazado 1000093" d="M415.16,357.1a.859.859,0,0,1-.841-1.039,71.341,71.341,0,0,0,1.234-12.362.859.859,0,0,1,.859-.833h1.16a.859.859,0,0,1,.859.833,80.632,80.632,0,0,0,.984,11.071.859.859,0,0,1-.451.911,25.155,25.155,0,0,1-3.556,1.382.86.86,0,0,1-.248.037m1.832-8.1c-.2,2.537-.459,4.492-.711,5.957.424-.155.9-.338,1.335-.534-.259-1.612-.467-3.425-.623-5.424" transform="translate(-388.868 -321.817)" fill="#fff"/>
          <path id="Trazado_1000094" data-name="Trazado 1000094" d="M30.516,450.22q-.466,0-.932-.016a24.506,24.506,0,0,1-11.995-3.481L8.619,441.2l-6.77-4.184a3.9,3.9,0,0,1-1.272-5.357,6.186,6.186,0,0,1,8.5-2.021l7.4,4.476a7.232,7.232,0,0,1,2.618-1.9,11.065,11.065,0,0,1,3.23-.692c.519-.059,1.01-.114,1.457-.2a24.777,24.777,0,0,0,9.6-4.17,24.322,24.322,0,0,1,5.368-2.845,16.932,16.932,0,0,1,5.26-1.143,10.683,10.683,0,0,1,5.727,1.293l6.073,3.365a.86.86,0,0,1,.443.752v15.966a.859.859,0,0,1-.974.852,24.105,24.105,0,0,0-9.747.789,21.4,21.4,0,0,0-4.035,1.574l-.033.018a24.779,24.779,0,0,1-10.946,2.456M5.845,430.437a4.461,4.461,0,0,0-3.8,2.119,2.178,2.178,0,0,0,.711,2.993l6.77,4.184,8.969,5.526a22.787,22.787,0,0,0,11.154,3.227,23.256,23.256,0,0,0,11.032-2.251,22.843,22.843,0,0,1,4.324-1.7,26.113,26.113,0,0,1,9.531-.966v-14.5L48.9,425.951a8.981,8.981,0,0,0-4.8-1.078,15.171,15.171,0,0,0-4.706,1.021,22.89,22.89,0,0,0-5.009,2.646l-.039.028A26.7,26.7,0,0,1,24.1,433c-.511.1-1.058.159-1.586.219a9.879,9.879,0,0,0-2.727.556,4.7,4.7,0,0,0-2.863,3.138,2.671,2.671,0,0,0,.974,2.632c1.117.754,2.957.515,4.436.322l.247-.032a47.583,47.583,0,0,0,11.48-3.041l.145-.058a.859.859,0,1,1,.637,1.6l-.146.058a49.3,49.3,0,0,1-11.9,3.15l-.244.032c-1.673.218-3.964.516-5.62-.6a4.4,4.4,0,0,1-1.686-4.443,5.627,5.627,0,0,1,.315-.96L8.183,431.1l-.006,0a4.433,4.433,0,0,0-2.332-.662" transform="translate(0 -397.171)" fill="#fff"/>
          <path id="Trazado_1000095" data-name="Trazado 1000095" d="M73.381,479.994a.855.855,0,0,1-.434-.118l-8.728-5.117-.016-.01a3.844,3.844,0,0,0-5.264,1.215l-.216.465a.859.859,0,0,1-1.559-.723l.238-.514a.864.864,0,0,1,.048-.089,5.563,5.563,0,0,1,7.646-1.823l8.72,5.113a.859.859,0,0,1-.435,1.6" transform="translate(-53.58 -443.455)" fill="#fff"/>
          <path id="Trazado_1000096" data-name="Trazado 1000096" d="M146.5,454.044a.856.856,0,0,1-.436-.119l-9.99-5.895-.014-.008a3.845,3.845,0,0,0-4.938.774.859.859,0,0,1-1.308-1.115,5.564,5.564,0,0,1,7.141-1.126l9.983,5.89a.86.86,0,0,1-.438,1.6" transform="translate(-121.655 -418.37)" fill="#fff"/>
        </g>
      </g>
    </g>
  </g>
</svg>
