<svg xmlns="http://www.w3.org/2000/svg" xmlns:xlink="http://www.w3.org/1999/xlink" width="79.936" height="79.936" viewBox="0 0 79.936 79.936">
  <defs>
    <clipPath id="clip-path">
      <rect id="Rect치ngulo_455000" data-name="Rect치ngulo 455000" width="59.151" height="63.701" fill="#fff"/>
    </clipPath>
  </defs>
  <g id="Grupo_1178310" data-name="Grupo 1178310" transform="translate(-190.354 -12177.564)">
    <rect id="Rect치ngulo_454681" data-name="Rect치ngulo 454681" width="79.936" height="79.936" rx="5" transform="translate(190.354 12177.564)" fill="#9d5a5c"/>
    <g id="Grupo_1178309" data-name="Grupo 1178309" transform="translate(200.746 12184.27)">
      <g id="Grupo_1178309-2" data-name="Grupo 1178309" clip-path="url(#clip-path)">
        <path id="Trazado_1000354" data-name="Trazado 1000354" d="M42.128,68.514A21.5,21.5,0,0,0,35.3,69.635,13.65,13.65,0,1,0,21.637,83.3a21.6,21.6,0,1,0,20.49-14.785M21.652,81.025A11.375,11.375,0,1,1,33.027,69.65c0,.328-.036.624-.063.93a21.712,21.712,0,0,0-10.393,10.4C22.277,81.009,21.972,81.025,21.652,81.025Zm20.475,28.438A19.337,19.337,0,1,1,61.465,90.126a19.359,19.359,0,0,1-19.338,19.338" transform="translate(-6.864 -48.037)" fill="#fff"/>
        <path id="Trazado_1000355" data-name="Trazado 1000355" d="M141.563,199.056a1.137,1.137,0,0,0,1.089-.81,13.662,13.662,0,0,1,10-9.355,1.137,1.137,0,1,0-.508-2.217,15.944,15.944,0,0,0-11.673,10.916,1.138,1.138,0,0,0,1.089,1.466Z" transform="translate(-120.459 -160.106)" fill="#fff"/>
        <path id="Trazado_1000356" data-name="Trazado 1000356" d="M158.932,337.52a13.633,13.633,0,0,1-12.579-8.337,1.138,1.138,0,1,0-2.1.887,15.9,15.9,0,0,0,14.674,9.725,1.138,1.138,0,1,0,0-2.275Z" transform="translate(-123.668 -281.782)" fill="#fff"/>
        <path id="Trazado_1000357" data-name="Trazado 1000357" d="M49.1,88A9.111,9.111,0,0,0,40,97.1a1.138,1.138,0,0,0,2.275,0A6.832,6.832,0,0,1,49.1,90.275,1.138,1.138,0,1,0,49.1,88" transform="translate(-34.314 -75.487)" fill="#fff"/>
        <path id="Trazado_1000358" data-name="Trazado 1000358" d="M231.965,15.925A7.963,7.963,0,1,0,224,7.963a7.972,7.972,0,0,0,7.963,7.963m0-13.65a5.688,5.688,0,1,1-5.688,5.688,5.694,5.694,0,0,1,5.688-5.688" transform="translate(-192.151)" fill="#fff"/>
        <path id="Trazado_1000359" data-name="Trazado 1000359" d="M354.283,91.893a1.137,1.137,0,1,0,1.608-1.608l-1.95-1.951a1.138,1.138,0,0,0-1.608,1.61Z" transform="translate(-301.949 -75.488)" fill="#fff"/>
        <path id="Trazado_1000360" data-name="Trazado 1000360" d="M387.426,92.222a1.134,1.134,0,0,0,.8-.333l1.95-1.951a1.138,1.138,0,1,0-1.608-1.61l-1.95,1.951a1.138,1.138,0,0,0,.8,1.943" transform="translate(-331.362 -75.484)" fill="#fff"/>
        <path id="Trazado_1000361" data-name="Trazado 1000361" d="M388.23,122.62a1.137,1.137,0,0,0-1.608,1.608l1.95,1.95a1.137,1.137,0,1,0,1.608-1.608Z" transform="translate(-331.362 -104.898)" fill="#fff"/>
        <path id="Trazado_1000362" data-name="Trazado 1000362" d="M353.138,126.511a1.134,1.134,0,0,0,.8-.333l1.95-1.95a1.137,1.137,0,1,0-1.608-1.608l-1.95,1.95a1.138,1.138,0,0,0,.8,1.942" transform="translate(-301.949 -104.898)" fill="#fff"/>
        <path id="Trazado_1000363" data-name="Trazado 1000363" d="M1.942,336.334a1.138,1.138,0,0,0-1.608,1.61l1.95,1.951a1.137,1.137,0,1,0,1.608-1.608Z" transform="translate(0 -288.225)" fill="#fff"/>
        <path id="Trazado_1000364" data-name="Trazado 1000364" d="M36.571,336.333l-1.95,1.951a1.137,1.137,0,1,0,1.608,1.608l1.95-1.951a1.137,1.137,0,1,0-1.608-1.608" transform="translate(-29.413 -288.224)" fill="#fff"/>
        <path id="Trazado_1000365" data-name="Trazado 1000365" d="M36.23,370.62a1.137,1.137,0,1,0-1.608,1.608l1.95,1.95a1.137,1.137,0,0,0,1.608-1.608Z" transform="translate(-29.413 -317.635)" fill="#fff"/>
        <path id="Trazado_1000366" data-name="Trazado 1000366" d="M2.283,370.62l-1.95,1.95a1.137,1.137,0,1,0,1.608,1.608l1.95-1.95a1.137,1.137,0,1,0-1.608-1.608" transform="translate(0 -317.635)" fill="#fff"/>
      </g>
    </g>
  </g>
</svg>
