<svg xmlns="http://www.w3.org/2000/svg" xmlns:xlink="http://www.w3.org/1999/xlink" width="1228" height="227" viewBox="0 0 1228 227">
  <defs>
    <clipPath id="clip-path">
      <rect id="Rectángulo_33824" data-name="Rectángulo 33824" width="1228" height="227" transform="translate(185.457 2856)" fill="#fff7da"/>
    </clipPath>
    <clipPath id="clip-path-2">
      <rect id="Rectángulo_454856" data-name="Rectángulo 454856" width="1227.711" height="868.994" fill="none"/>
    </clipPath>
    <clipPath id="clip-path-3">
      <rect id="Rectángulo_454849" data-name="Rectángulo 454849" width="1227.706" height="868.994" fill="none"/>
    </clipPath>
    <clipPath id="clip-path-4">
      <rect id="Rectángulo_454846" data-name="Rectángulo 454846" width="170.94" height="23.868" fill="none"/>
    </clipPath>
    <clipPath id="clip-path-5">
      <rect id="Rectángulo_454847" data-name="Rectángulo 454847" width="164.307" height="23.868" fill="none"/>
    </clipPath>
    <clipPath id="clip-path-6">
      <rect id="Rectángulo_454848" data-name="Rectángulo 454848" width="111.223" height="112.734" fill="none"/>
    </clipPath>
    <clipPath id="clip-path-7">
      <rect id="Rectángulo_454851" data-name="Rectángulo 454851" width="817.324" height="620.289" fill="none"/>
    </clipPath>
    <clipPath id="clip-path-8">
      <rect id="Rectángulo_454850" data-name="Rectángulo 454850" width="313.678" height="23.868" fill="none"/>
    </clipPath>
    <clipPath id="clip-path-10">
      <rect id="Rectángulo_454852" data-name="Rectángulo 454852" width="1093.559" height="315.707" fill="none"/>
    </clipPath>
    <clipPath id="clip-path-11">
      <rect id="Rectángulo_454853" data-name="Rectángulo 454853" width="113.547" height="23.868" fill="none"/>
    </clipPath>
    <clipPath id="clip-path-12">
      <rect id="Rectángulo_454854" data-name="Rectángulo 454854" width="113.55" height="23.868" fill="none"/>
    </clipPath>
  </defs>
  <g id="Enmascarar_grupo_1119160" data-name="Enmascarar grupo 1119160" transform="translate(-185.457 -2856)" clip-path="url(#clip-path)">
    <g id="Grupo_1178155" data-name="Grupo 1178155" transform="translate(186 2567.506)">
      <g id="Grupo_1178154" data-name="Grupo 1178154" clip-path="url(#clip-path-2)">
        <rect id="Rectángulo_454844" data-name="Rectángulo 454844" width="1227.291" height="830.609" transform="translate(0 38.385)" fill="#fff"/>
        <rect id="Rectángulo_454845" data-name="Rectángulo 454845" width="1227.108" height="248.027" transform="translate(0.598 620.843)" fill="#797979"/>
        <g id="Grupo_1178137" data-name="Grupo 1178137">
          <g id="Grupo_1178136" data-name="Grupo 1178136" clip-path="url(#clip-path-3)">
            <path id="Trazado_999870" data-name="Trazado 999870" d="M585.163,620.844s-35.3-88.834-81.752-101.821c-36.053-10.08-70.15,8.813-101.7,0-33.363-9.318-60.187-109.636-112.55-119.3-35.344-6.524-46.52,29.851-88.915,27.921-55.191-2.515-55.9-91.018-103.547-122.093C49.423,274.719.607,293.751.607,293.751V620.433Z" transform="translate(-0.009)" fill="#a36466"/>
            <path id="Trazado_999871" data-name="Trazado 999871" d="M566.027,620.844s-20.256-73.81-105.535-73.275c-33.737.213-64.161,6.342-93.022,0-30.514-6.707-55.052-78.9-102.938-85.854-32.327-4.7-42.554,21.481-81.325,20.093-50.48-1.809-51.124-65.5-94.708-87.865C45.256,371.755.607,385.452.607,385.452v235.1Z" transform="translate(-0.009)" fill="#9d5a5c"/>
            <path id="Trazado_999872" data-name="Trazado 999872" d="M1237.465,620.433l-584.557.411s35.3-88.834,81.752-101.821c36.053-10.08,70.149,8.813,101.7,0,33.363-9.318,60.187-109.636,112.55-119.3,35.343-6.524,46.52,29.851,88.915,27.921,55.19-2.515,55.9-91.018,103.547-122.093" transform="translate(-9.759)" fill="#a36466"/>
            <path id="Trazado_999873" data-name="Trazado 999873" d="M672.331,620.844s20.259-73.815,105.538-73.275c33.737.213,64.161,6.342,93.023,0,30.514-6.707,55.052-78.9,102.938-85.854,32.326-4.7,42.554,21.481,81.325,20.093,50.48-1.809,51.124-65.5,94.708-87.865,43.238-22.187,87.887-8.491,87.887-8.491v235.1Z" transform="translate(-10.049)" fill="#9d5a5c"/>
            <g id="Grupo_1178129" data-name="Grupo 1178129" transform="translate(280.608 641.082)" opacity="0.3" style="mix-blend-mode: multiply;isolation: isolate">
              <g id="Grupo_1178128" data-name="Grupo 1178128">
                <g id="Grupo_1178127" data-name="Grupo 1178127" clip-path="url(#clip-path-4)">
                  <path id="Trazado_999874" data-name="Trazado 999874" d="M370.336,641.082c47.2,0,85.47,5.343,85.47,11.934s-38.266,11.934-85.47,11.934-85.47-5.343-85.47-11.934,38.266-11.934,85.47-11.934" transform="translate(-284.866 -641.082)" fill="#5972de"/>
                </g>
              </g>
            </g>
            <path id="Trazado_999875" data-name="Trazado 999875" d="M457.018,450.49s12.988-3.767,16.025-2.055-6.409,3.254-6.916,3.425,8.434,0,9.447,2.4-8.266,1.541-8.266,1.541,6.748.855,7.59,3.425-8.6,1.2-8.6,1.2,6.411.513,6.748,3.081-8.433-2.568-13.662.686-10.964-4.111-7.76-7.878a78.056,78.056,0,0,1,5.4-5.825" transform="translate(-6.737)" fill="#d4937a"/>
            <path id="Trazado_999876" data-name="Trazado 999876" d="M371.332,445.591s-8.339,46.562,27.031,55.068c29.814,7.169,47.018-27.526,58.874-29.373,6.963-1.085-3.923-21.355-9.857-23.182s-21.179,17.264-41.027,22.415c-13.988,3.631-6.963-50.18-12.433-50.678s-21.076,16.658-22.586,25.75" transform="translate(-5.537)" fill="#e6e6e6"/>
            <path id="Trazado_999877" data-name="Trazado 999877" d="M360.017,336.4a8.438,8.438,0,0,1,11.933,1.713,8.738,8.738,0,0,1-1.687,12.114,8.438,8.438,0,0,1-11.933-1.713,8.738,8.738,0,0,1,1.687-12.114" transform="translate(-5.33)" fill="#241825"/>
            <path id="Trazado_999878" data-name="Trazado 999878" d="M315.686,461.747l-7.85,191.268,10.205-.8,7.851-188.08Z" transform="translate(-4.601)" fill="#bf4b93"/>
            <path id="Trazado_999879" data-name="Trazado 999879" d="M341.188,461.747l-7.85,191.268,10.205-.8,7.851-188.08Z" transform="translate(-4.982)" fill="#bf4b93"/>
            <path id="Trazado_999880" data-name="Trazado 999880" d="M377.015,461.747l7.851,191.268-10.205-.8-7.85-188.08Z" transform="translate(-5.483)" fill="#bf4b93"/>
            <path id="Trazado_999881" data-name="Trazado 999881" d="M377.779,594.041l-65.158,1.594v11.157l65.943-3.985Z" transform="translate(-4.673)" fill="#bf4b93"/>
            <path id="Trazado_999882" data-name="Trazado 999882" d="M354.209,607.465S351.07,618.623,351.07,625s14.915,20.72,24.331,23.113-10.2-21.519-8.631-27.9,3.139-14.346,3.139-14.346Z" transform="translate(-5.247)" fill="#241825"/>
            <path id="Trazado_999883" data-name="Trazado 999883" d="M424.34,607.465S421.2,618.623,421.2,625s14.915,20.721,24.336,23.112-10.206-21.518-8.635-27.9,3.139-14.346,3.139-14.346Z" transform="translate(-6.296)" fill="#241825"/>
            <path id="Trazado_999884" data-name="Trazado 999884" d="M386.578,481.547s40.036.8,55.737,9.564,17.271,121.933,6.281,126.715-54.168,3.187-54.168,0,16.486-81.29,7.85-83.68-20.411,0-32.972-9.564-4.71-39.844,17.272-43.035" transform="translate(-5.43)" fill="#3b281b"/>
            <path id="Trazado_999885" data-name="Trazado 999885" d="M401.037,361.183c-.7-.555-4.98-14.8-21.3-15.935s-32.19,20.043-24.944,32.842,18.435,16.626,24.457,12.993,21.787-29.9,21.787-29.9" transform="translate(-5.276)" fill="#241825"/>
            <path id="Trazado_999886" data-name="Trazado 999886" d="M377.792,355.991s-8.595-1.683-13.909,7.453-2.849,23.111,6.944,22.734,11.826-27.965,6.965-30.187" transform="translate(-5.398)" fill="#241825"/>
            <path id="Trazado_999887" data-name="Trazado 999887" d="M367.341,383.568s-2.029,23.9-9.971,23.056-10.172-.083-17.766,3.29c-25.885,11.5-13.934,58.4-19.66,83.794,0,0,60.176-2.774,65.068-9.569s-7.3-24.207,8.251-47.343c6.357-9.458-8.471-22.916-13.934-26.876s2.117-15.8,2.117-15.8Z" transform="translate(-4.782)" fill="#d4937a"/>
            <path id="Trazado_999888" data-name="Trazado 999888" d="M400.292,369.724s-2.274,26.627-9.037,30.459-26.224-2.575-23.576-17.625c.257-1.463,2.478-14.826,4.827-18.173,5.337-7.6,27.064-.377,27.786,5.339" transform="translate(-5.492)" fill="#d4937a"/>
            <path id="Trazado_999889" data-name="Trazado 999889" d="M385.663,391.276c4.1,0,4.428-.626,4.586-.933s.141-.654.077-1.985c-.126-2.589-.423-8.649,2.069-10.351,1.57-1.075,3.2.625,3.265.7l1.015-.968c-.852-.923-3.009-2.3-5.059-.9-3.146,2.148-2.837,8.527-2.686,11.6.02.424.044.889.044,1.166a18.614,18.614,0,0,1-3.7.266l-.013,1.415Z" transform="translate(-5.758)" fill="#241825"/>
            <path id="Trazado_999890" data-name="Trazado 999890" d="M382.226,393.867a6.453,6.453,0,0,0,1.285-.123l-.3-1.384a4.161,4.161,0,0,1-2.99-.47,2.39,2.39,0,0,1-.795-1.922l-1.394.043a3.766,3.766,0,0,0,1.335,3,4.585,4.585,0,0,0,2.854.856" transform="translate(-5.651)" fill="#241825"/>
            <path id="Trazado_999891" data-name="Trazado 999891" d="M383.939,377.492l1.307-.493c-.036-.1-.921-2.462-2.873-2.863-1.268-.262-2.609.359-3.981,1.839l1.015.972c.7-.757,1.743-1.628,2.688-1.423,1.181.241,1.837,1.947,1.844,1.968" transform="translate(-5.656)" fill="#241825"/>
            <path id="Trazado_999892" data-name="Trazado 999892" d="M379.308,400.365s-3.28-.907-7.76-5.707c-1.822-1.955-2.248,9.816,6.411,11.187Z" transform="translate(-5.537)" fill="#a54d34"/>
            <path id="Trazado_999893" data-name="Trazado 999893" d="M391.766,383.441c-.163.953.243,1.82.91,1.94s1.34-.558,1.505-1.511-.244-1.82-.911-1.938-1.341.559-1.5,1.509" transform="translate(-5.855)" fill="#241825"/>
            <path id="Trazado_999894" data-name="Trazado 999894" d="M380.288,381.576c-.165.952.242,1.82.91,1.938s1.34-.558,1.5-1.51-.243-1.822-.909-1.94-1.341.558-1.5,1.512" transform="translate(-5.684)" fill="#241825"/>
            <path id="Trazado_999895" data-name="Trazado 999895" d="M370.15,377.961s-2.52-3.52-4.933-2.457-2.555,6.3,1.182,9.542,7.363-3.937,3.751-7.085" transform="translate(-5.433)" fill="#d4937a"/>
            <path id="Trazado_999896" data-name="Trazado 999896" d="M369.452,383.772c.077-3.679-.533-5.8-1.872-6.491a2.42,2.42,0,0,0-2.5.324l.842,1.126-.423-.563.419.566s.577-.422,1.029-.189c.28.148,1.188.96,1.1,5.2Z" transform="translate(-5.457)" fill="#241825"/>
            <path id="Trazado_999897" data-name="Trazado 999897" d="M391.748,353.671s8.742-3.44,11.756,5.107.09,13.62-2.218,15.032c-1.97,1.2-8.3.9-9.966-1.163s-1.952-7.214-.743-6.139c.928.824,2.683,6.139-2.561,5.691s-10.8-1.463-10.737-2.9,3.94-8.836,3.243-6.646c-.823,2.586-1.227,5.081-5.005,6.275s-4.2-1.566-7.617-3.081,3.8-14.108,13.347-14.915,10.5,2.739,10.5,2.739" transform="translate(-5.486)" fill="#241825"/>
            <path id="Trazado_999898" data-name="Trazado 999898" d="M324.541,481.547s40.036.8,55.737,9.564,19.469,123.576,8.476,128.358-50.713,1.3-50.713-1.884,10.836-81.049,2.2-83.439-7.421-3.327-19.982-12.889-17.7-36.519,4.281-39.71" transform="translate(-4.625)" fill="#3b281b"/>
            <path id="Trazado_999899" data-name="Trazado 999899" d="M382.208,410.663s-2.983,7.86-6.45,10.607S362.006,409,359.715,407.255c-7.607-5.8-23.36,3.636-29.971,12.539s-19.261,70.815-18.3,73.818,65.49-2.729,73.682-2.154c6.069.429-6.235-26.456,1.97-39.986s18.218-25.868-4.89-40.809" transform="translate(-4.654)" fill="#bf4b93"/>
            <path id="Trazado_999900" data-name="Trazado 999900" d="M352.636,406.031s-9.136,40.056-9.1,65.512,12.345,14.62,27.206,35.531,13.77,43.954,11.775,47.934-37.152,8.436-44.734,7.112-5.478-17.07-16.193-26.027C310.126,526.5,305.4,515.5,310.8,490.2s8-52.588,11.607-67.239c4.169-16.932,28.9-20.239,30.229-16.932" transform="translate(-4.612)" fill="#fff"/>
            <path id="Trazado_999901" data-name="Trazado 999901" d="M386.5,413.442s7.627,21.656,3.992,33.364-8.521,39.216-4.278,44.649,34.674,4.641,45.648,13.2,9.231,18.709,16.231,13.9,12.488-18.423,6.9-23.727S441.086,480.361,421.32,479.2s-17.515,1.714-21.724-3.378,7.173-29.8,1.7-44.552c-6.073-16.383-14.8-17.825-14.8-17.825" transform="translate(-5.748)" fill="#fff"/>
            <path id="Trazado_999902" data-name="Trazado 999902" d="M416.047,436.438s12.988-3.767,16.025-2.055-6.411,3.254-6.916,3.425,8.434,0,9.446,2.4-8.265,1.541-8.265,1.541,6.746.857,7.59,3.425-8.6,1.2-8.6,1.2,6.411.513,6.748,3.081-8.434-2.568-13.664.686-10.964-4.109-7.758-7.876a78.073,78.073,0,0,1,5.4-5.827" transform="translate(-6.124)" fill="#d4937a"/>
            <path id="Trazado_999903" data-name="Trazado 999903" d="M330.364,431.54s-8.339,46.562,27.029,55.068c29.816,7.17,47.018-27.526,58.875-29.371,6.961-1.085-3.923-21.355-9.857-23.184s-21.179,17.266-41.029,22.415c-13.988,3.631-6.961-50.18-12.431-50.678s-20.1,7.652-22.585,25.75" transform="translate(-4.925)" fill="#e6e6e6"/>
            <g id="Grupo_1178132" data-name="Grupo 1178132" transform="translate(785.135 637.879)" opacity="0.3" style="mix-blend-mode: multiply;isolation: isolate">
              <g id="Grupo_1178131" data-name="Grupo 1178131">
                <g id="Grupo_1178130" data-name="Grupo 1178130" clip-path="url(#clip-path-5)">
                  <path id="Trazado_999904" data-name="Trazado 999904" d="M961.356,649.813c0,6.591-36.784,11.934-82.153,11.934s-82.153-5.343-82.153-11.934,36.784-11.934,82.153-11.934,82.153,5.343,82.153,11.934" transform="translate(-797.049 -637.879)" fill="#5972de"/>
                </g>
              </g>
            </g>
            <path id="Trazado_999905" data-name="Trazado 999905" d="M776.955,355.507s-9.161-8.34-12.325-8.164,3.976,5.259,4.322,5.6-6.911-3.412-8.681-1.857,6.168,4.606,6.168,4.606-5.866-2.026-7.564-.262,6.579,4.461,6.579,4.461-5.455-2.173-6.74-.2,7.921,1.3,10.928,6.086,10.6,1.066,9.451-3.317a72.628,72.628,0,0,0-2.139-6.953" transform="translate(-11.339)" fill="#d4937a"/>
            <path id="Trazado_999906" data-name="Trazado 999906" d="M847.923,384.61s-11.438,41.529-43.76,34.194c-27.247-6.18-27.729-41.571-36.722-47.879-5.28-3.7,11.6-15.914,17.176-15.012s10.584,22.715,24.823,34.962c10.04,8.634,25.4-38.307,30.076-36.5s13.469,14.4,8.406,30.235" transform="translate(-11.456)" fill="#e6e6e6"/>
            <path id="Trazado_999907" data-name="Trazado 999907" d="M892.2,305.392s6.139-8.351,13.471-3.943c14.355,8.635-2.862,36.859,2.66,40.6,3.441,2.332,9.144,1.317,9.144,1.317-9.735,14.143-36.151,4.8-27.669-30.034Z" transform="translate(-13.275)" fill="#241825"/>
            <path id="Trazado_999908" data-name="Trazado 999908" d="M850.439,629.617s6.762,19.347,1.229,19.972-34.428,0-33.813-2.5,17.829-11.859,20.9-14.356,11.682-3.116,11.682-3.116" transform="translate(-12.224)" fill="#241825"/>
            <path id="Trazado_999909" data-name="Trazado 999909" d="M929.722,626.652s9.861,17.924,4.51,19.48-33.94,5.858-33.747,3.292S916.1,634.7,918.723,631.716s11-5.064,11-5.064" transform="translate(-13.459)" fill="#241825"/>
            <path id="Trazado_999910" data-name="Trazado 999910" d="M890.035,307.708s7.511,2.722,7.511,12.391-8.317,19.47-15.826,14.568,3.486-27.5,8.315-26.959" transform="translate(-13.141)" fill="#241825"/>
            <path id="Trazado_999911" data-name="Trazado 999911" d="M882.209,333.009s-6.473,20.209.656,21.681,22.361,3.335,24.786,10.6-9.632,59.43-11.5,83.093c0,0-41.4,2.531-43.822-4.734s-15.2-68.286-12.53-78.36,18.421-7.449,24.239-9.375,2.577-16.306,2.577-16.306Z" transform="translate(-12.547)" fill="#d4937a"/>
            <path id="Trazado_999912" data-name="Trazado 999912" d="M865.877,307.941s-10.372,21.96-6.817,28.147,18.989,10.509,23.783-2.546c.465-1.267,7.585-12.987,7.268-16.718-.714-8.475-21.059-13.031-24.234-8.883" transform="translate(-12.829)" fill="#d4937a"/>
            <path id="Trazado_999913" data-name="Trazado 999913" d="M868.292,332.112l.3-1.252a18.291,18.291,0,0,1-3.064-1.018c.29-.375.817-1,1.3-1.561,3.3-3.892,5.982-7.255,5.272-9-1-2.45-4.968-3.315-5.134-3.35l-.26,1.261c.965.206,3.606,1.071,4.221,2.581.47,1.154-3.546,5.885-5.06,7.665s-1.755,2.094-1.773,2.468c-.021.4-.056,1.138,4.2,2.206" transform="translate(-12.916)" fill="#37253a"/>
            <path id="Trazado_999914" data-name="Trazado 999914" d="M871.532,336.15a3.13,3.13,0,0,0,.4-.025,3.362,3.362,0,0,0,2.415-1.726l-1.074-.689a2.128,2.128,0,0,1-1.505,1.134,3.806,3.806,0,0,1-2.554-1.036l-.864.947a5.326,5.326,0,0,0,3.183,1.395" transform="translate(-12.979)" fill="#37253a"/>
            <path id="Trazado_999915" data-name="Trazado 999915" d="M880.312,322.271l1.24-.284c-.4-1.807-1.17-2.923-2.284-3.315-1.711-.6-3.488.832-3.562.9l.8,1a2.886,2.886,0,0,1,2.351-.678c.829.293,1.251,1.455,1.456,2.377" transform="translate(-13.089)" fill="#37253a"/>
            <path id="Trazado_999916" data-name="Trazado 999916" d="M867.559,342.078a12.15,12.15,0,0,0,9.869-2.148c1.965-1.425-2.116,9.662-9.524,6.38Z" transform="translate(-12.967)" fill="#a54d34"/>
            <path id="Trazado_999917" data-name="Trazado 999917" d="M867.3,323.53c-.305.826-1.022,1.314-1.6,1.093a1.436,1.436,0,0,1-.492-1.892c.307-.825,1.022-1.314,1.6-1.093a1.436,1.436,0,0,1,.493,1.892" transform="translate(-12.93)" fill="#37253a"/>
            <path id="Trazado_999918" data-name="Trazado 999918" d="M876.55,326.739c-.307.826-1.022,1.315-1.6,1.1a1.438,1.438,0,0,1-.492-1.893c.306-.824,1.022-1.314,1.6-1.093a1.438,1.438,0,0,1,.493,1.891" transform="translate(-13.068)" fill="#37253a"/>
            <path id="Trazado_999919" data-name="Trazado 999919" d="M882.309,356.672s-6.553,6.473-11.458,4.714-9.172-7.37-11.584-7.518-14.557,1.4-17.723,4.5,1.857,77.3,3.312,79.144,56.362.739,57.817.369,9.987-77.162,7.441-78.639-21.258-5.892-27.8-2.57" transform="translate(-12.563)" fill="#bf4b93"/>
            <path id="Trazado_999920" data-name="Trazado 999920" d="M855.324,354.288s4.025-3.94,6.28-4.161,7.882,7.852,7.882,7.852,11.275-10.662,14.185-8.792,6.792,5.958,5.312,7.951-14.48,9.728-16.3,9.753-4.574-4.312-4.574-4.312-2.884,4.754-4.776,4.015-8.928-10.827-8.008-12.306" transform="translate(-12.783)" fill="#fff"/>
            <path id="Trazado_999921" data-name="Trazado 999921" d="M884.623,326.733s3.584-1.576,4.99.392-.869,6.144-5.283,6.931-3.98-6.558.292-7.323" transform="translate(-13.171)" fill="#d4937a"/>
            <path id="Trazado_999922" data-name="Trazado 999922" d="M909.539,457.024c7.281,0,14-.032,17.788-.123l-.032-1.289c-11.278.274-48.69,0-49.066,0l-.008,1.289c.248,0,16.88.123,31.318.123" transform="translate(-13.127)" fill="#37253a"/>
            <path id="Trazado_999923" data-name="Trazado 999923" d="M892.589,310.158s.268-8.986-6.84-10.484-18.672-7.356-24.142,3c-.537,3.131,1.743,10.484,10.193,10.62s9.654-5.719,12.609,1.226-4.827,8.713.8,11.3,13.009-8.854,7.375-15.662" transform="translate(-12.877)" fill="#241825"/>
            <path id="Trazado_999924" data-name="Trazado 999924" d="M883.664,332.26c1.862-3.36,2.94-3.578,3.236-3.561.46.027.718.628.721.633l1.173-.49a2.238,2.238,0,0,0-1.81-1.428c-1.346-.083-2.807,1.289-4.433,4.214Z" transform="translate(-13.191)" fill="#37253a"/>
            <path id="Trazado_999925" data-name="Trazado 999925" d="M842.467,437.39S820.29,526.333,821,540.857s-8.047,91.88,7.869,93.677c2.248.252,27.2-2.42,34.5-2.42,1.845,0,.515-83.949,1.23-86.128s8.964-69.535,8.964-69.535,3.951,62.374,3.951,68.91,14.127,84.891,16.988,89.249,39.359-9.541,44.49-6.866c8.38,4.37-8.834-61.22-8.834-83.005S918.98,446.423,915.4,439.889s-72.936-2.5-72.936-2.5" transform="translate(-12.245)" fill="#4d281f"/>
            <path id="Trazado_999926" data-name="Trazado 999926" d="M944.149,494.467s14.934,14.7-41.992,19.52c-23.791,2.016-4.977-70.018-10.7-99.065s-1.358-55.058.235-59.913c.307-.937,20.9-.781,21.826,2.028.678,2.066,3.334,51.576,6.911,61.743s25.151,71.331,23.72,75.687" transform="translate(-13.282)" fill="#fff"/>
            <path id="Trazado_999927" data-name="Trazado 999927" d="M854.014,353.137s-1.04,84.415-6.762,105.475-9.928,54.649-14.936,53.925-18.959-7.147-21.821-10.051c-2.015-2.048,9.711-38.913,15.845-69.644,2.57-12.866-1.7-24.361-1.649-31.231.185-26.836,9.845-45.148,12.707-46.6s16.617-1.874,16.617-1.874" transform="translate(-12.111)" fill="#fff"/>
            <path id="Trazado_999928" data-name="Trazado 999928" d="M852.1,361.664s-15.985,21.637-17.214,27.878,17.623,31.206,14.755,32.871-15.575,10.818-15.17,17.475,5.533,43.272,6.763,43.687,10.45-37.447,11.27-68.236,2.463-56.169-.4-53.675" transform="translate(-12.473)" fill="#f0efe1"/>
            <path id="Trazado_999929" data-name="Trazado 999929" d="M891.661,355.009s-7.837,48.055-4.149,58.665-.2,73.229,2.66,69.068c3.251-4.714,20.7-34.742,18.239-41.607S894.27,423.66,895.5,419.292s17.829-14.979,14.139-24.964-16.287-43.689-17.978-39.319" transform="translate(-13.251)" fill="#f0efe1"/>
            <path id="Trazado_999930" data-name="Trazado 999930" d="M862.185,301.635c-4.324,5.754-2.406,11.594,3.152,13.441a5.02,5.02,0,0,1,.123-3.963c1.837,4.493,7.454,5.24,14.823,4.818-1.4-.635-1.884-2.9-3.8-3.7Z" transform="translate(-12.852)" fill="#241825"/>
            <path id="Trazado_999931" data-name="Trazado 999931" d="M885.6,310.454c-.673,8.483-2.7,15.877-5.827,21.339,4.379-2.659,7.85-7.562,10.234-13.675Z" transform="translate(-13.15)" fill="#241825"/>
            <path id="Trazado_999932" data-name="Trazado 999932" d="M810.72,345.267a4.685,4.685,0,0,1,6.157,1.555l59.429,86a4.853,4.853,0,0,1-.656,6.406,4.524,4.524,0,0,1-6.441-.55c-.089-.106-.171-.216-.25-.33L849.5,410.2l-4.578-6.626L809.26,351.954a4.686,4.686,0,0,1,1.114-6.464c.112-.079.228-.154.346-.223" transform="translate(-12.084)" fill="#edb33f"/>
            <path id="Trazado_999933" data-name="Trazado 999933" d="M.087.094,13.6,0l-.088,12.5L0,12.59Z" transform="translate(789.267 344.458) rotate(-35.026)" fill="#616bff"/>
            <path id="Trazado_999934" data-name="Trazado 999934" d="M772.348,227.955c34.864-1.329,64.188,26.285,65.5,61.678S811.954,354.8,777.09,356.125s-64.188-26.285-65.5-61.678,25.892-65.163,60.756-66.492" transform="translate(-10.635)" fill="#bf4b93"/>
            <path id="Trazado_999935" data-name="Trazado 999935" d="M774.7,236.086c30.43-.093,55.173,24.875,55.264,55.767s-24.5,56.01-54.933,56.1-55.173-24.875-55.264-55.767,24.5-56.01,54.933-56.1" transform="translate(-10.758)" fill="#fff"/>
            <g id="Grupo_1178135" data-name="Grupo 1178135" transform="translate(708.384 235.674)" opacity="0.35" style="isolation: isolate">
              <g id="Grupo_1178134" data-name="Grupo 1178134">
                <g id="Grupo_1178133" data-name="Grupo 1178133" clip-path="url(#clip-path-6)">
                  <path id="Trazado_999936" data-name="Trazado 999936" d="M729.38,324.409a55,55,0,0,0,77.336,13.773c25.1-17.876,31.176-53.026,13.567-78.509A55,55,0,0,0,742.948,245.9c-25.043,17.533-31.342,52.356-14.072,77.779q.25.368.5.73m17.859-72.3a47.594,47.594,0,0,1,66.927,11.916,49.248,49.248,0,0,1-11.739,67.943A47.592,47.592,0,0,1,735.5,320.052l0,0A48.993,48.993,0,0,1,746.833,252.4l.406-.289Z" transform="translate(-719.133 -235.674)" fill="#565259"/>
                </g>
              </g>
            </g>
            <path id="Trazado_999937" data-name="Trazado 999937" d="M850.077,382.5s-11.835-3.433-14.6-1.872,5.839,2.963,6.3,3.119-7.684,0-8.607,2.184,7.531,1.4,7.531,1.4-6.147.781-6.916,3.121,7.839,1.091,7.839,1.091-5.841.468-6.147,2.809,7.683-2.34,12.448.625,9.99-3.745,7.072-7.177a71.141,71.141,0,0,0-4.923-5.3" transform="translate(-12.452)" fill="#d4937a"/>
            <path id="Trazado_999938" data-name="Trazado 999938" d="M927.265,378.038s7.6,42.426-24.626,50.176c-27.167,6.533-42.842-25.081-53.646-26.763-6.345-.988,3.575-19.458,8.983-21.124s19.3,15.731,37.385,20.425c12.748,3.309,6.345-45.725,11.328-46.178s18.313,6.973,20.577,23.464" transform="translate(-12.659)" fill="#e6e6e6"/>
          </g>
        </g>
        <g id="Grupo_1178142" data-name="Grupo 1178142" transform="translate(0.598 38.385)">
          <g id="Grupo_1178141" data-name="Grupo 1178141" clip-path="url(#clip-path-7)">
            <g id="Grupo_1178140" data-name="Grupo 1178140" transform="translate(455.835 597.958)" opacity="0.3" style="mix-blend-mode: multiply;isolation: isolate">
              <g id="Grupo_1178139" data-name="Grupo 1178139">
                <g id="Grupo_1178138" data-name="Grupo 1178138" clip-path="url(#clip-path-8)">
                  <path id="Trazado_999939" data-name="Trazado 999939" d="M620.2,636.343c86.62,0,156.839,5.343,156.839,11.934S706.818,660.211,620.2,660.211s-156.839-5.343-156.839-11.934,70.219-11.934,156.839-11.934" transform="translate(-463.359 -636.343)" fill="#797979"/>
                </g>
              </g>
            </g>
            <path id="Trazado_999940" data-name="Trazado 999940" d="M639.672,378.4v-89.54S662.6,259.606,658.26,259.81c-21.633,1.021-51.648,1.021-74.625,1.021-6.824,0,15.211,26.757,15.211,26.757v91.38c-53.071,12.189-86.36,65.746-74.353,119.622s64.763,87.67,117.834,75.481,86.36-65.746,74.353-119.622c-8.6-38.579-38.783-68.39-77.008-76.052Z" transform="translate(-8.401 -38.385)" fill="#e5d5ba"/>
            <path id="Trazado_999941" data-name="Trazado 999941" d="M702.406,454.941s-22.351-18.428-52.441-14.93-49.341,26.693-108.488,7.516c0,0-15.818,107.744,79.959,107.938,94.934.194,80.97-100.524,80.97-100.524" transform="translate(-8.677 -38.385)" fill="#5f4205"/>
            <path id="Trazado_999942" data-name="Trazado 999942" d="M634.778,260.482s10.166-34.306-36.348-49.232-73.978-34.929-83.026-96.418-50.73-21.827-86.6-55.5C400.039,32.319,404.506,0,404.506,0H212.638s16.713,93.257,72.18,107.363c73.4,18.668,98.08,25.567,121.776,57.357s17.047,46.773,60.642,64.474c26.925,10.932,121.972-3.752,131.193,31.516Z" transform="translate(-3.776 -38.385)" fill="#12263f"/>
            <path id="Trazado_999943" data-name="Trazado 999943" d="M625.736,253.606l4.052-.865c-.247-1.212-6.76-29.816-68.178-41.408-30.177-5.7-37.356-24.85-45.668-47.03-7.567-20.192-16.146-43.081-45.529-55.121-59-24.179-86.389-43.28-92.65-92.551l-4.107.538c6.488,51.043,35.869,71.6,95.207,95.913,27.7,11.353,35.585,32.381,43.207,52.716,8.39,22.393,16.317,43.544,48.782,49.67,58.356,11.012,64.829,37.867,64.883,38.138" transform="translate(-6.183 -38.385)" fill="#5f4205"/>
            <path id="Trazado_999944" data-name="Trazado 999944" d="M526.951,218.452l.369-4.189c-54.75-4.995-61.189-21.169-71.856-47.965-1.675-4.212-3.41-8.567-5.455-13.2-10.728-24.292-46.71-34.973-81.506-45.3-16.253-4.825-31.608-9.383-44.348-15.191C285.443,74.954,290,13.394,290.048,12.774l-4.129-.349a134.356,134.356,0,0,0,2.5,34.627c5.067,24.459,16.838,41.534,34.042,49.379,13,5.928,28.487,10.526,44.883,15.392,33.893,10.062,68.942,20.466,78.887,42.988,2.014,4.559,3.732,8.878,5.4,13.054,10.869,27.316,18.052,45.359,75.325,50.587" transform="translate(-4.868 -38.385)" fill="#5f4205"/>
            <path id="Trazado_999945" data-name="Trazado 999945" d="M702.421,454.941s-9.882-14.66-40.462.09-85.046,42.336-120.472-7.5c0,0,46.144,7.973,72.118-1.771s66.441-22.773,88.816,9.181" transform="translate(-8.692 -38.385)" fill="#12263f"/>
            <path id="Trazado_999946" data-name="Trazado 999946" d="M704.818,302.157l2.824,6.8s6.513,1.536,5.839,2.221-5.664,1.54-6,2.568-2.561,5.958-2.919,5.958c-1.034,0-2.382-5.647-3.724-6.129a33.243,33.243,0,0,1-4.906-2.5c-.113-.292,5.694-2.448,5.694-2.448s3.084-7.315,3.194-6.47" transform="translate(-11 -38.385)" fill="#e5d5ba"/>
            <path id="Trazado_999947" data-name="Trazado 999947" d="M361.249,193.6l2.824,6.8s6.513,1.536,5.837,2.222-5.663,1.538-6,2.566-2.567,5.96-2.919,5.958c-1.034,0-2.382-5.647-3.724-6.129a32.906,32.906,0,0,1-4.906-2.5c-.113-.291,5.693-2.448,5.693-2.448s3.084-7.314,3.195-6.469" transform="translate(-5.865 -38.385)" fill="#e5d5ba"/>
            <path id="Trazado_999948" data-name="Trazado 999948" d="M327.776,95.7l2.824,6.8s6.513,1.536,5.837,2.222-5.663,1.538-6,2.566-2.567,5.96-2.919,5.96c-1.034,0-2.382-5.649-3.723-6.131a32.9,32.9,0,0,1-4.906-2.5c-.113-.29,5.689-2.449,5.689-2.449s3.089-7.313,3.2-6.468" transform="translate(-5.364 -38.385)" fill="#e5d5ba"/>
            <path id="Trazado_999949" data-name="Trazado 999949" d="M719.288,164.948l2.824,6.8s6.513,1.538,5.837,2.222-5.663,1.54-6,2.566-2.561,5.96-2.919,5.96c-1.034,0-2.382-5.647-3.724-6.131a33.1,33.1,0,0,1-4.906-2.5c-.113-.292,5.693-2.45,5.693-2.45s3.085-7.311,3.195-6.467" transform="translate(-11.216 -38.385)" fill="#e5d5ba"/>
            <path id="Trazado_999950" data-name="Trazado 999950" d="M604.462,209.709l2.824,6.8s6.513,1.536,5.838,2.222-5.663,1.538-6,2.566-2.561,5.96-2.919,5.96c-1.034,0-2.382-5.647-3.724-6.131a32.906,32.906,0,0,1-4.906-2.5c-.113-.291,5.693-2.448,5.693-2.448s3.085-7.313,3.195-6.469" transform="translate(-9.5 -38.385)" fill="#e5d5ba"/>
            <path id="Trazado_999951" data-name="Trazado 999951" d="M540.456,316.259l2.824,6.8s6.513,1.536,5.839,2.222-5.664,1.538-6,2.566-2.561,5.96-2.919,5.96c-1.034,0-2.382-5.647-3.724-6.131a32.909,32.909,0,0,1-4.906-2.5c-.113-.291,5.694-2.448,5.694-2.448s3.084-7.313,3.194-6.469" transform="translate(-8.543 -38.385)" fill="#e5d5ba"/>
            <path id="Trazado_999952" data-name="Trazado 999952" d="M520.468,218.517l2.824,6.8s6.513,1.536,5.839,2.222-5.664,1.538-6,2.566-2.561,5.96-2.919,5.958c-1.034,0-2.382-5.647-3.724-6.129a32.907,32.907,0,0,1-4.906-2.5c-.113-.291,5.694-2.448,5.694-2.448s3.084-7.314,3.194-6.469" transform="translate(-8.244 -38.385)" fill="#e5d5ba"/>
            <path id="Trazado_999953" data-name="Trazado 999953" d="M416.744,289.776l2.824,6.8s6.513,1.536,5.837,2.221-5.663,1.54-6,2.568-2.561,5.958-2.919,5.958c-1.034,0-2.382-5.647-3.724-6.129a33.245,33.245,0,0,1-4.906-2.5c-.113-.292,5.693-2.448,5.693-2.448s3.085-7.315,3.195-6.47" transform="translate(-6.694 -38.385)" fill="#e5d5ba"/>
            <path id="Trazado_999954" data-name="Trazado 999954" d="M604.462,130.424l2.824,6.8s6.513,1.536,5.839,2.222-5.664,1.538-6,2.566-2.561,5.958-2.919,5.958c-1.034,0-2.382-5.647-3.724-6.129a33.241,33.241,0,0,1-4.906-2.5c-.113-.292,5.694-2.448,5.694-2.448s3.084-7.314,3.194-6.469" transform="translate(-9.5 -38.385)" fill="#e5d5ba"/>
            <path id="Trazado_999955" data-name="Trazado 999955" d="M472.35,78.082l2.824,6.8s6.513,1.536,5.837,2.222-5.664,1.538-6,2.566-2.567,5.96-2.919,5.958c-1.035,0-2.382-5.647-3.724-6.129a33.242,33.242,0,0,1-4.906-2.5c-.113-.292,5.693-2.448,5.693-2.448s3.085-7.314,3.195-6.469" transform="translate(-7.525 -38.385)" fill="#e5d5ba"/>
            <path id="Trazado_999956" data-name="Trazado 999956" d="M481.284,411.309l2.822,6.8s6.515,1.536,5.839,2.222-5.664,1.538-6,2.566-2.567,5.96-2.919,5.958c-1.035,0-2.384-5.647-3.723-6.129a33.1,33.1,0,0,1-4.906-2.5c-.113-.291,5.692-2.448,5.692-2.448s3.086-7.318,3.2-6.469" transform="translate(-7.659 -38.385)" fill="#e5d5ba"/>
            <path id="Trazado_999957" data-name="Trazado 999957" d="M754.26,443.449l2.824,6.8s6.513,1.538,5.839,2.222-5.664,1.54-6,2.566S754.356,461,754,461c-1.034,0-2.382-5.647-3.723-6.131a33.092,33.092,0,0,1-4.906-2.5c-.113-.292,5.694-2.448,5.694-2.448s3.08-7.316,3.194-6.469" transform="translate(-11.739 -38.385)" fill="#e5d5ba"/>
          </g>
        </g>
        <g id="Grupo_1178153" data-name="Grupo 1178153">
          <g id="Grupo_1178152" data-name="Grupo 1178152" clip-path="url(#clip-path-3)">
            <g id="Grupo_1178145" data-name="Grupo 1178145" transform="translate(59.771 71.171)" opacity="0.4">
              <g id="Grupo_1178144" data-name="Grupo 1178144">
                <g id="Grupo_1178143" data-name="Grupo 1178143" clip-path="url(#clip-path-10)">
                  <path id="Trazado_999958" data-name="Trazado 999958" d="M133.644,258.348a9.857,9.857,0,0,1,11.287,8.258,9.97,9.97,0,0,1-8.136,11.458,9.855,9.855,0,0,1-11.286-8.258,9.97,9.97,0,0,1,8.135-11.458" transform="translate(-61.645 -71.171)" fill="#12263f"/>
                  <path id="Trazado_999959" data-name="Trazado 999959" d="M215.782,159.795a3.748,3.748,0,1,1-3.692,3.748,3.72,3.72,0,0,1,3.692-3.748" transform="translate(-62.941 -71.171)" fill="#12263f"/>
                  <path id="Trazado_999960" data-name="Trazado 999960" d="M346.584,263.716a7.24,7.24,0,1,1-7.131,7.239,7.185,7.185,0,0,1,7.131-7.239" transform="translate(-64.845 -71.171)" fill="#12263f"/>
                  <path id="Trazado_999961" data-name="Trazado 999961" d="M215.781,379.384a3.747,3.747,0,1,0,3.693,3.747,3.72,3.72,0,0,0-3.693-3.747Z" transform="translate(-62.941 -71.171)" fill="#12263f"/>
                  <path id="Trazado_999962" data-name="Trazado 999962" d="M421.422,223.561a4.344,4.344,0,1,1-4.279,4.344,4.312,4.312,0,0,1,4.279-4.344" transform="translate(-66.006 -71.171)" fill="#12263f"/>
                  <path id="Trazado_999963" data-name="Trazado 999963" d="M475.961,335.461a4.344,4.344,0,1,1-4.279,4.344,4.312,4.312,0,0,1,4.279-4.344" transform="translate(-66.821 -71.171)" fill="#12263f"/>
                  <path id="Trazado_999964" data-name="Trazado 999964" d="M64.954,185.1a4.343,4.343,0,1,0,4.28,4.343,4.31,4.31,0,0,0-4.28-4.343Z" transform="translate(-60.678 -71.171)" fill="#12263f"/>
                  <path id="Trazado_999965" data-name="Trazado 999965" d="M103.591,106.875a4.138,4.138,0,1,0,4.075,4.139,4.108,4.108,0,0,0-4.075-4.139" transform="translate(-61.258 -71.171)" fill="#12263f"/>
                  <path id="Trazado_999966" data-name="Trazado 999966" d="M652.845,185.2a4.239,4.239,0,1,1-4.176,4.239,4.208,4.208,0,0,1,4.176-4.239" transform="translate(-69.467 -71.171)" fill="#12263f"/>
                  <path id="Trazado_999967" data-name="Trazado 999967" d="M897.76,102.048a4.368,4.368,0,1,0,4.3,4.368,4.336,4.336,0,0,0-4.3-4.368" transform="translate(-73.126 -71.171)" fill="#12263f"/>
                  <path id="Trazado_999968" data-name="Trazado 999968" d="M1166.4,193.809a4.368,4.368,0,1,0,4.3,4.368h0a4.336,4.336,0,0,0-4.3-4.367" transform="translate(-77.141 -71.171)" fill="#12263f"/>
                  <path id="Trazado_999969" data-name="Trazado 999969" d="M1092.681,266.586a4.368,4.368,0,1,0,4.3,4.369h0a4.336,4.336,0,0,0-4.3-4.368" transform="translate(-76.039 -71.171)" fill="#12263f"/>
                  <path id="Trazado_999970" data-name="Trazado 999970" d="M982.625,193.809a4.368,4.368,0,1,0,4.3,4.369v0a4.335,4.335,0,0,0-4.3-4.367" transform="translate(-74.394 -71.171)" fill="#12263f"/>
                  <path id="Trazado_999971" data-name="Trazado 999971" d="M754.161,106.649a4.368,4.368,0,1,0,4.3,4.368,4.336,4.336,0,0,0-4.3-4.368Z" transform="translate(-70.979 -71.171)" fill="#12263f"/>
                  <path id="Trazado_999972" data-name="Trazado 999972" d="M1106.973,126.256a4.369,4.369,0,1,1-4.3,4.368,4.336,4.336,0,0,1,4.3-4.368" transform="translate(-76.253 -71.171)" fill="#12263f"/>
                  <path id="Trazado_999973" data-name="Trazado 999973" d="M1056.566,342.974a4.368,4.368,0,1,0,4.3,4.369v0a4.335,4.335,0,0,0-4.3-4.367" transform="translate(-75.499 -71.171)" fill="#12263f"/>
                  <path id="Trazado_999974" data-name="Trazado 999974" d="M986.992,278.193a4.368,4.368,0,1,0,4.3,4.368,4.336,4.336,0,0,0-4.3-4.368Z" transform="translate(-74.459 -71.171)" fill="#12263f"/>
                  <path id="Trazado_999975" data-name="Trazado 999975" d="M174.365,91.222a5.954,5.954,0,1,1-5.864,5.953,5.909,5.909,0,0,1,5.864-5.953" transform="translate(-62.29 -71.171)" fill="#12263f"/>
                  <path id="Trazado_999976" data-name="Trazado 999976" d="M590.462,71.171a6.811,6.811,0,1,0,6.708,6.81,6.76,6.76,0,0,0-6.708-6.81" transform="translate(-68.496 -71.171)" fill="#12263f"/>
                  <path id="Trazado_999977" data-name="Trazado 999977" d="M247.973,238.216a5.041,5.041,0,1,0,4.966,5.039,5,5,0,0,0-4.966-5.039" transform="translate(-63.403 -71.171)" fill="#12263f"/>
                  <path id="Trazado_999978" data-name="Trazado 999978" d="M265.824,357.123a7.676,7.676,0,1,0,7.56,7.675,7.618,7.618,0,0,0-7.56-7.675" transform="translate(-63.631 -71.171)" fill="#12263f"/>
                  <path id="Trazado_999979" data-name="Trazado 999979" d="M824.38,180.135a3.647,3.647,0,1,1-3.592,3.647,3.62,3.62,0,0,1,3.592-3.647" transform="translate(-72.039 -71.171)" fill="#12263f"/>
                  <path id="Trazado_999980" data-name="Trazado 999980" d="M890.5,228.713a6.956,6.956,0,1,1-6.851,6.955,6.9,6.9,0,0,1,6.851-6.955" transform="translate(-72.979 -71.171)" fill="#12263f"/>
                  <path id="Trazado_999981" data-name="Trazado 999981" d="M921.423,120.7a9.925,9.925,0,1,0,9.776,9.924,9.851,9.851,0,0,0-9.776-9.924" transform="translate(-73.397 -71.171)" fill="#12263f"/>
                  <path id="Trazado_999982" data-name="Trazado 999982" d="M1106.889,173.96a9.925,9.925,0,1,0,9.776,9.924,9.85,9.85,0,0,0-9.776-9.924" transform="translate(-76.17 -71.171)" fill="#12263f"/>
                  <path id="Trazado_999983" data-name="Trazado 999983" d="M996.833,343.934a9.925,9.925,0,1,0,9.776,9.924,9.851,9.851,0,0,0-9.776-9.924" transform="translate(-74.525 -71.171)" fill="#12263f"/>
                </g>
              </g>
            </g>
            <g id="Grupo_1178148" data-name="Grupo 1178148" transform="translate(992.697 654.103)" opacity="0.3" style="mix-blend-mode: multiply;isolation: isolate">
              <g id="Grupo_1178147" data-name="Grupo 1178147">
                <g id="Grupo_1178146" data-name="Grupo 1178146" clip-path="url(#clip-path-11)">
                  <path id="Trazado_999984" data-name="Trazado 999984" d="M1064.535,654.1c31.356,0,56.776,5.343,56.776,11.934s-25.419,11.934-56.776,11.934-56.775-5.343-56.775-11.934,25.419-11.934,56.775-11.934" transform="translate(-1007.76 -654.103)" fill="#797979"/>
                </g>
              </g>
            </g>
            <path id="Trazado_999985" data-name="Trazado 999985" d="M1150.011,485.053c-43.806,2.95-63.2,45.826-66.7,54.535a100.8,100.8,0,0,0-13.654,24.214c1.024-11.841,2.245-56.064-33.436-78.748,0,0-14.912,48.133,32.425,81.258a197.573,197.573,0,0,0-9.909,36.206c-4.48-19.495-12.04-46.388-22.834-65.118-3.577-8.875-22.979-51.515-66.665-54.458,0,0,9.139,48.515,64.693,55.755,13.228,23.151,21.715,59.527,25.37,77.72-4.426-10.562-23.958-50.693-66.288-53.543,0,0,9.346,49.758,66.781,56.026,1.023,5.244,1.552,8.486,1.576,8.655a1.162,1.162,0,0,0,1.142.987.969.969,0,0,0,.186-.015,1.174,1.174,0,0,0,.957-1.349c-.164-1.02-1.344-8.217-3.546-18.47.181-1.319,1.018-6.988,2.8-14.8,56.957-6.518,66.256-55.958,66.256-55.958-38.948,2.623-58.59,36.8-64.929,50.477,3.728-14.6,10.335-33.94,21.265-47.643,55.39-7.327,64.508-55.731,64.508-55.731" transform="translate(-14.487)" fill="#5f4205"/>
            <path id="Trazado_999986" data-name="Trazado 999986" d="M1014.961,617.178v10.188h12.352v14.573a26.133,26.133,0,0,0,25.934,26.328h14.132a26.133,26.133,0,0,0,25.933-26.328V627.366h12.351V617.178Z" transform="translate(-15.171)" fill="#3b281b"/>
            <g id="Grupo_1178151" data-name="Grupo 1178151" transform="translate(141.833 656.134)" opacity="0.3" style="mix-blend-mode: multiply;isolation: isolate">
              <g id="Grupo_1178150" data-name="Grupo 1178150">
                <g id="Grupo_1178149" data-name="Grupo 1178149" clip-path="url(#clip-path-12)">
                  <path id="Trazado_999987" data-name="Trazado 999987" d="M257.535,668.068c0,6.591-25.414,11.934-56.775,11.934s-56.775-5.343-56.775-11.934,25.414-11.934,56.775-11.934,56.775,5.343,56.775,11.934" transform="translate(-143.985 -656.134)" fill="#797979"/>
                </g>
              </g>
            </g>
            <path id="Trazado_999988" data-name="Trazado 999988" d="M110.254,485.053c43.807,2.95,63.2,45.826,66.7,54.535A100.869,100.869,0,0,1,190.6,563.8c-1.025-11.841-2.247-56.064,33.435-78.748,0,0,14.914,48.133-32.425,81.258a197.655,197.655,0,0,1,9.91,36.206C206,583.023,213.562,556.13,224.359,537.4c3.577-8.875,22.979-51.515,66.664-54.458,0,0-9.139,48.515-64.694,55.755-13.226,23.151-21.714,59.527-25.368,77.72,4.426-10.562,23.958-50.693,66.288-53.543,0,0-9.345,49.758-66.781,56.026-1.022,5.244-1.552,8.486-1.576,8.655a1.165,1.165,0,0,1-1.142.987.961.961,0,0,1-.186-.015,1.173,1.173,0,0,1-.958-1.346v0c.162-1.02,1.344-8.217,3.546-18.47-.183-1.319-1.02-6.988-2.8-14.8C140.4,587.39,131.1,537.95,131.1,537.95c38.948,2.623,58.59,36.8,64.929,50.477-3.727-14.6-10.335-33.94-21.265-47.643-55.391-7.327-64.51-55.731-64.51-55.731" transform="translate(-1.648)" fill="#5f4205"/>
            <path id="Trazado_999989" data-name="Trazado 999989" d="M246.672,617.178v10.188h-12.35v14.573a26.135,26.135,0,0,1-25.934,26.328H194.252a26.135,26.135,0,0,1-25.934-26.328V627.366H155.972V617.178Z" transform="translate(-2.331)" fill="#3b281b"/>
          </g>
        </g>
      </g>
    </g>
  </g>
</svg>
